# Blender v2.79 (sub 0) OBJ File: 'generator.blend'
# www.blender.org
mtllib generatorRoom_floor.mtl
o object_static_generatorRoomFloor_Plane
v -15.363575 -1.707976 31.791246
v -9.163448 -1.707976 31.791243
v 15.636554 -1.707976 31.791243
v 24.936554 -1.707976 31.791246
v -15.363575 -1.707976 -8.508768
v -9.163448 -1.707976 -8.508768
v 15.636554 -1.707976 -20.908766
v 21.836552 -1.707976 -30.208786
v 24.936554 -1.707976 -45.708794
v 21.836552 -1.707976 -45.708794
v -27.761112 -1.707976 -20.908766
v -27.761112 -1.707976 -30.208786
v -27.761112 -1.707976 -45.708794
v -40.161114 -1.707976 -45.708794
v -27.761112 -1.707976 -8.508767
v -40.161114 -1.707976 -8.508767
v 15.636554 -1.707976 41.091232
v -9.163448 -1.707976 41.091232
v 24.936554 -1.707976 41.091232
v 24.936554 -1.707976 -30.208786
v -15.363575 -1.707976 41.091232
v 21.836552 -1.707976 31.791246
v 15.636554 -1.707976 -30.208786
v 21.836552 -1.707976 41.091232
v 24.936554 -1.707976 -20.908766
v 21.836552 -1.707976 -20.908766
vt 0.118180 0.768503
vt 0.118180 0.592277
vt 0.588116 0.592277
vt 0.588116 0.768503
vt 0.000694 0.887376
vt 0.000694 0.769890
vt 0.764340 0.769890
vt 0.764340 0.887376
vt 0.824470 0.178308
vt 0.883211 0.178308
vt 0.883212 0.354534
vt 0.824470 0.354534
vt 0.000694 0.059436
vt 0.000694 0.000694
vt 0.999306 0.000694
vt 0.999306 0.059436
vt 0.589503 0.651019
vt 0.589503 0.592277
vt 0.883214 0.592277
vt 0.883214 0.651019
vt 0.823037 0.414663
vt 0.823037 0.590889
vt 0.000694 0.590889
vt 0.000694 0.414663
vt 0.235662 0.178308
vt 0.411888 0.178308
vt 0.705598 0.413276
vt 0.000694 0.413276
vt 0.705598 0.178308
vt 0.000694 0.178308
vt 0.883211 0.946116
vt 0.765727 0.946116
vt 0.765727 0.769890
vt 0.883211 0.769890
vt 0.000694 0.768502
vt 0.000694 0.592277
vt 0.941953 0.946116
vt 0.941953 0.769890
vt 0.000694 0.176920
vt 0.999306 0.176920
vt 0.706986 0.178308
vt 0.706986 0.354534
vn 0.0000 1.0000 0.0000
usemtl Material.004
s off
f 2/1/1 18/2/1 17/3/1 3/4/1
f 1/5/1 2/6/1 6/7/1 5/8/1
f 26/9/1 25/10/1 20/11/1 8/12/1
f 22/13/1 4/14/1 25/15/1 26/16/1
f 8/17/1 20/18/1 9/19/1 10/20/1
f 7/21/1 23/22/1 12/23/1 11/24/1
f 11/25/1 12/26/1 14/27/1 16/28/1
f 14/27/1 12/26/1 13/29/1
f 11/25/1 16/28/1 15/30/1
f 22/31/1 3/32/1 17/33/1 24/34/1
f 18/2/1 2/1/1 1/35/1 21/36/1
f 4/37/1 22/31/1 24/34/1 19/38/1
f 3/39/1 22/13/1 26/16/1 7/40/1
f 7/41/1 26/9/1 8/12/1 23/42/1
