# Blender v2.82 (sub 7) OBJ File: 'smallCrate_collider.blend'
# www.blender.org
mtllib smallCrate_collider.mtl
o oobject_static_smallCrate_Cube.001
v -0.959642 1.113019 1.895242
v -0.959642 1.113019 -1.895242
v 0.959642 1.113019 -1.895242
v 0.959642 1.113019 1.895242
v -1.192251 1.113019 1.569584
v -1.192251 1.113019 -1.569586
v 1.192251 1.113019 -1.569584
v 1.192251 1.113019 1.569586
v 1.012490 1.113019 1.532473
v -1.012490 1.113019 1.532473
v 1.012490 1.113019 -1.532473
v -1.012490 1.113019 -1.532473
v -1.192251 1.113019 1.895242
v -1.192251 1.000000 1.895243
v -1.192251 1.113019 1.745242
v 1.192251 1.113019 1.745242
v 1.192251 1.113019 1.895242
v 1.192251 1.000000 1.895242
v 1.012490 1.113019 1.215167
v -1.012490 1.113019 1.215167
v 1.012490 1.113019 -1.215167
v -1.012490 1.113019 -1.215167
v 1.012490 1.173863 1.532473
v -1.012490 1.173863 1.532473
v 1.012490 1.173863 -1.532473
v -1.012490 1.173863 -1.532473
v 1.012490 1.173863 1.215167
v -1.012490 1.173863 1.215167
v 1.012490 1.173863 -1.215167
v -1.012490 1.173863 -1.215167
v -1.212186 -1.000000 1.948591
v -1.212186 -1.000000 -1.948591
v 1.212186 -1.000000 -1.948591
v 1.212186 -1.000000 1.948591
v -1.212186 1.000000 1.948591
v -1.212186 1.000000 -1.948591
v 1.212186 1.000000 -1.948591
v 1.212186 1.000000 1.948591
v 1.112186 1.000000 -1.948591
v 1.112186 1.000000 1.948591
v 1.112186 1.000000 1.895242
v 1.112186 1.000000 -1.895242
v -1.112186 1.000000 1.948591
v -1.112186 1.000000 1.895242
v -1.112186 1.000000 -1.895242
v -1.112186 1.000000 -1.948591
v -1.212186 -1.000000 -1.745242
v -1.212186 -1.000000 1.745242
v 1.212186 1.000000 -1.745242
v 1.212186 1.000000 1.745242
v -1.212186 1.000000 1.745242
v -1.212186 1.000000 -1.745242
v 1.212186 -1.000000 1.745242
v 1.212186 -1.000000 -1.745242
v -1.212186 -1.000000 -1.569585
v -1.212186 -1.000000 1.569585
v 1.212186 1.000000 -1.569585
v 1.212186 1.000000 1.569585
v -1.212186 1.000000 1.569585
v -1.212186 1.000000 -1.569585
v 1.212186 -1.000000 1.569585
v 1.212186 -1.000000 -1.569585
v 1.242186 1.000000 -1.745242
v 1.242186 1.000000 1.745242
v 1.242186 -1.000000 1.745242
v 1.242186 -1.000000 -1.745242
v 1.242186 1.000000 -1.569585
v 1.242186 1.000000 1.569585
v 1.242186 -1.000000 1.569585
v 1.242186 -1.000000 -1.569585
v -1.242186 -1.000000 -1.745242
v -1.242186 -1.000000 1.745242
v -1.242186 1.000000 1.745242
v -1.242186 1.000000 -1.745242
v -1.242186 -1.000000 -1.569585
v -1.242186 -1.000000 1.569585
v -1.242186 1.000000 1.569585
v -1.242186 1.000000 -1.569585
v -0.959642 1.000000 1.895242
v 0.959642 1.000000 1.895242
v -0.959642 -1.000000 -1.895242
v 0.959642 -1.000000 -1.895242
v -0.959642 -1.000000 1.895242
v 0.959642 -1.000000 1.895242
v -0.959642 1.000000 1.948591
v -0.959642 -1.000000 1.948591
v 0.959642 1.000000 1.948591
v 0.959642 -1.000000 1.948591
v 1.112186 1.050000 1.895242
v 1.112186 1.050000 1.948591
v -1.112186 1.050000 1.948591
v -1.112186 1.050000 1.895242
v -0.959642 1.050000 1.895242
v 0.959642 1.050000 1.895242
v -0.959642 1.050000 1.948591
v 0.959642 1.050000 1.948591
v 0.959642 -1.000000 -1.948591
v -0.959642 -1.000000 -1.948591
v 1.112186 1.050000 -1.948591
v 1.112186 1.050000 -1.895242
v -1.112186 1.050000 -1.895242
v -1.112186 1.050000 -1.948591
v -0.959642 1.050000 -1.895242
v 0.959642 1.050000 -1.895242
v 0.959642 1.050000 -1.948591
v -0.959642 1.050000 -1.948591
v -1.192251 1.113019 -1.745243
v -1.192251 1.113019 -1.895242
v -1.192251 1.000000 -1.895242
v 1.192251 1.113019 -1.745242
v 1.192251 1.113019 -1.895242
v 1.192251 1.000000 -1.895243
v 1.192251 1.000000 1.745242
v 1.192251 1.000000 -1.745242
v 1.192251 1.000000 1.569585
v 1.192251 1.000000 -1.569585
v -1.192251 1.000000 1.745242
v -1.192251 1.000000 -1.745242
v -1.192251 1.000000 1.569585
v -1.192251 1.000000 -1.569585
v 0.959642 1.000000 -1.948591
v -0.959642 1.000000 -1.948591
v 0.959642 1.000000 -1.895242
v -0.959642 1.000000 -1.895242
vt 0.910338 0.544609
vt 0.910338 0.795579
vt 0.903800 0.795579
vt 0.903800 0.544609
vt 0.908784 0.043598
vt 0.908784 0.454088
vt 0.894005 0.454088
vt 0.894005 0.043598
vt 0.034565 0.048451
vt 0.041476 0.001014
vt 0.292449 0.001014
vt 0.299360 0.048451
vt 0.878235 0.454087
vt 0.878235 0.043598
vt 0.893014 0.043598
vt 0.893014 0.454087
vt 0.041476 0.496673
vt 0.034565 0.449236
vt 0.299360 0.449236
vt 0.292449 0.496673
vt 0.878235 0.477057
vt 0.893014 0.477057
vt 0.893014 0.496672
vt 0.878235 0.496672
vt 0.011059 0.454089
vt 0.011059 0.043598
vt 0.034565 0.089943
vt 0.034565 0.407744
vt 0.299360 0.089943
vt 0.299360 0.407744
vt 0.322866 0.043598
vt 0.322866 0.020628
vt 0.270979 0.497664
vt 0.270979 0.539156
vt 0.263023 0.539156
vt 0.263023 0.497664
vt 0.322866 0.001014
vt 0.011059 0.477058
vt 0.615716 0.412495
vt 0.657208 0.412495
vt 0.657208 0.420452
vt 0.615716 0.420452
vt 0.322866 0.454088
vt 0.322866 0.477058
vt 0.878235 0.001014
vt 0.893014 0.001014
vt 0.893014 0.020628
vt 0.878235 0.020628
vt 0.322866 0.762459
vt 0.281374 0.762459
vt 0.281374 0.497664
vt 0.322866 0.497664
vt 0.275854 0.760183
vt 0.275854 0.801675
vt 0.011059 0.801675
vt 0.011059 0.760183
vt 0.615716 0.430390
vt 0.657208 0.430390
vt 0.657208 0.438346
vt 0.615716 0.438346
vt 0.657208 0.429399
vt 0.615716 0.429399
vt 0.615716 0.421442
vt 0.657208 0.421442
vt 0.275855 0.847331
vt 0.011059 0.847331
vt 0.011059 0.839375
vt 0.275855 0.839375
vt 0.011059 0.866216
vt 0.275854 0.866216
vt 0.275854 0.874173
vt 0.011059 0.874173
vt 0.011059 0.857269
vt 0.275854 0.857269
vt 0.275854 0.865226
vt 0.011059 0.865225
vt 0.275855 0.856278
vt 0.011059 0.856278
vt 0.011059 0.848322
vt 0.275855 0.848322
vt 0.920246 0.027608
vt 0.920246 0.007991
vt 0.922853 0.001014
vt 0.922853 0.027608
vt 0.971617 0.003373
vt 0.969011 0.010347
vt 0.958545 0.010347
vt 0.958545 0.003373
vt 0.969010 0.506054
vt 0.971618 0.513031
vt 0.958539 0.513031
vt 0.958539 0.506054
vt 0.920244 0.503697
vt 0.920244 0.484088
vt 0.922850 0.484088
vt 0.922850 0.510671
vt 0.920246 0.050581
vt 0.922853 0.050581
vt 0.920245 0.461125
vt 0.922851 0.461125
vt 0.663637 0.463238
vt 0.686607 0.463238
vt 0.686607 0.467160
vt 0.663637 0.467160
vt 0.639676 0.463238
vt 0.662646 0.463238
vt 0.662646 0.467160
vt 0.639676 0.467160
vt 0.680562 0.443260
vt 0.657592 0.443260
vt 0.657592 0.439337
vt 0.680562 0.439337
vt 0.681169 0.429399
vt 0.658199 0.429399
vt 0.658199 0.425476
vt 0.681169 0.425476
vt 0.837698 0.738226
vt 0.837698 0.731688
vt 0.844674 0.731688
vt 0.844674 0.738226
vt 0.703689 0.731727
vt 0.703689 0.993274
vt 0.699766 0.993274
vt 0.699767 0.731727
vt 0.761847 0.731727
vt 0.761847 0.993274
vt 0.757924 0.993274
vt 0.757925 0.731727
vt 0.272606 0.887054
vt 0.011059 0.887054
vt 0.011059 0.883131
vt 0.272606 0.883132
vt 0.708603 0.731727
vt 0.708603 0.993274
vt 0.704680 0.993274
vt 0.704681 0.731727
vt 0.693861 0.731727
vt 0.693861 0.993274
vt 0.689938 0.993274
vt 0.689939 0.731727
vt 0.789758 0.731727
vt 0.812728 0.731727
vt 0.812728 0.993255
vt 0.789758 0.993255
vt 0.878235 0.497663
vt 0.901205 0.497663
vt 0.901205 0.759191
vt 0.878235 0.759191
vt 0.323857 0.469169
vt 0.734348 0.469169
vt 0.734348 0.730697
vt 0.323857 0.730697
vt 0.752019 0.731727
vt 0.752019 0.993274
vt 0.748096 0.993274
vt 0.748097 0.731727
vt 0.762920 0.469169
vt 0.789511 0.469169
vt 0.789511 0.730697
vt 0.762920 0.730697
vt 0.726061 0.731727
vt 0.739138 0.731727
vt 0.726061 0.993255
vt 0.818083 0.469169
vt 0.844674 0.469169
vt 0.844674 0.730697
vt 0.818083 0.730697
vt 0.698775 0.731727
vt 0.698775 0.993274
vt 0.694852 0.993274
vt 0.694853 0.731727
vt 0.765797 0.731727
vt 0.788767 0.731727
vt 0.788767 0.993255
vt 0.765798 0.993255
vt 0.586828 0.731727
vt 0.609797 0.731727
vt 0.609797 0.993255
vt 0.586828 0.993255
vt 0.615716 0.411504
vt 0.615716 0.001014
vt 0.877244 0.001014
vt 0.877244 0.411504
vt 0.756933 0.731727
vt 0.756933 0.993274
vt 0.753010 0.993274
vt 0.753011 0.731727
vt 0.790502 0.469169
vt 0.817093 0.469169
vt 0.817092 0.730697
vt 0.790502 0.730697
vt 0.927999 0.002266
vt 0.941076 0.002266
vt 0.928000 0.263795
vt 0.735339 0.469169
vt 0.761929 0.469169
vt 0.761929 0.730697
vt 0.735339 0.730697
vt 0.747105 0.738265
vt 0.747105 0.999790
vt 0.740129 0.999790
vt 0.740128 0.738265
vt 0.272584 0.882140
vt 0.272584 0.875163
vt 0.279123 0.875163
vt 0.279123 0.882140
vt 0.656601 0.454280
vt 0.636654 0.454280
vt 0.636654 0.447304
vt 0.656601 0.447304
vt 0.656601 0.446313
vt 0.636654 0.446313
vt 0.636654 0.439337
vt 0.656601 0.439337
vt 0.688947 0.738265
vt 0.688947 0.999790
vt 0.681971 0.999790
vt 0.681971 0.738265
vt 0.323857 0.982662
vt 0.323857 0.731688
vt 0.585385 0.731688
vt 0.585385 0.982662
vt 0.813719 0.993254
vt 0.813719 0.731727
vt 0.833666 0.731727
vt 0.833666 0.993254
vt 0.262032 0.759192
vt 0.011059 0.759192
vt 0.011059 0.497664
vt 0.262032 0.497664
vt 0.011059 0.882140
vt 0.011059 0.875163
vt 0.631727 0.993254
vt 0.631727 0.731727
vt 0.651674 0.731727
vt 0.651674 0.993254
vt 0.651674 0.999792
vt 0.631727 0.999792
vt 0.635663 0.446313
vt 0.615716 0.446313
vt 0.615716 0.439337
vt 0.635663 0.439337
vt 0.615716 0.447304
vt 0.635663 0.447304
vt 0.635663 0.454280
vt 0.615716 0.454280
vt 0.740128 0.731727
vt 0.747105 0.731727
vt 0.833666 0.999792
vt 0.813719 0.999792
vt 0.271970 0.525578
vt 0.271970 0.518602
vt 0.278508 0.518602
vt 0.278508 0.525578
vt 0.278946 0.533107
vt 0.271970 0.533107
vt 0.271970 0.526569
vt 0.278946 0.526569
vt 0.011059 0.822613
vt 0.011059 0.802666
vt 0.017597 0.802666
vt 0.017597 0.822613
vt 0.837698 0.999752
vt 0.844674 0.999752
vt 0.688947 0.731727
vt 0.681971 0.731727
vt 0.292445 0.830143
vt 0.041475 0.830143
vt 0.041475 0.823605
vt 0.292445 0.823605
vt 0.269561 0.540147
vt 0.269561 0.547123
vt 0.263023 0.547123
vt 0.263023 0.540147
vt 0.278946 0.540636
vt 0.271970 0.540636
vt 0.271970 0.534098
vt 0.278946 0.534098
vt 0.910338 0.524661
vt 0.903799 0.524661
vt 0.903799 0.514190
vt 0.918579 0.514190
vt 0.908784 0.020629
vt 0.894005 0.020628
vt 0.894005 0.001014
vt 0.908784 0.001014
vt 0.011059 0.020628
vt 0.667903 0.731727
vt 0.680980 0.731727
vt 0.667903 0.993255
vt 0.971617 0.052919
vt 0.971617 0.463464
vt 0.969010 0.463464
vt 0.969011 0.052919
vt 0.971617 0.029956
vt 0.969011 0.029956
vt 0.971617 0.486437
vt 0.969010 0.486437
vt 0.041475 0.838384
vt 0.011059 0.838384
vt 0.021528 0.830143
vt 0.011059 0.001014
vt 0.011059 0.496673
vt 0.942067 0.002266
vt 0.955143 0.002266
vt 0.942067 0.263795
vt 0.909778 0.510671
vt 0.909778 0.503697
vt 0.909775 0.007991
vt 0.909775 0.001014
vt 0.918579 0.795579
vt 0.918579 0.825996
vt 0.910338 0.815526
vt 0.322866 0.496673
vt 0.312394 0.830143
vt 0.322864 0.838384
vt 0.292445 0.838384
vt 0.918579 0.544609
vt 0.903800 0.815526
vt 0.903800 0.825996
vt 0.021528 0.823605
vt 0.011059 0.823605
vt 0.894005 0.477057
vt 0.908784 0.477057
vt 0.908784 0.496672
vt 0.894005 0.496672
vt 0.312394 0.823604
vt 0.322864 0.823604
vt 0.279125 0.822613
vt 0.279125 0.802666
vt 0.630736 0.731727
vt 0.630736 0.738265
vt 0.610789 0.738265
vt 0.610789 0.731727
vt 0.610788 0.999792
vt 0.630736 0.999792
vt 0.677539 0.454280
vt 0.657592 0.454280
vt 0.657592 0.447304
vt 0.677539 0.447304
vt 0.615716 0.455271
vt 0.635663 0.455271
vt 0.635663 0.462247
vt 0.615716 0.462247
vt 0.657592 0.455271
vt 0.680562 0.455271
vt 0.680562 0.459194
vt 0.657592 0.459194
vt 0.323857 0.468178
vt 0.323857 0.439841
vt 0.343804 0.468178
vt 0.343804 0.439841
vt 0.343804 0.029351
vt 0.594778 0.029351
vt 0.594778 0.439841
vt 0.656601 0.462247
vt 0.636654 0.462247
vt 0.636654 0.455271
vt 0.656601 0.455271
vt 0.681169 0.416529
vt 0.681169 0.420452
vt 0.658199 0.420452
vt 0.658199 0.416529
vt 0.323857 0.029351
vt 0.323857 0.001014
vt 0.681169 0.434312
vt 0.658199 0.434312
vt 0.658199 0.430390
vt 0.681169 0.430390
vt 0.614725 0.029351
vt 0.614725 0.439841
vt 0.615716 0.467160
vt 0.615716 0.463238
vt 0.638686 0.463238
vt 0.638686 0.467160
vt 0.614725 0.468178
vt 0.594778 0.001014
vt 0.614725 0.001014
vt 0.271970 0.517611
vt 0.271970 0.497664
vt 0.278946 0.497664
vt 0.278946 0.517611
vn 0.0000 0.0000 1.0000
vn -1.0000 0.0000 0.0000
vn 0.0000 1.0000 -0.0000
vn 1.0000 0.0000 0.0000
vn 0.0000 0.0000 -1.0000
vn 0.0000 -1.0000 0.0000
usemtl None
s off
f 94/1/1 93/2/1 79/3/1 80/4/1
f 5/5/2 6/6/2 120/7/2 119/8/2
f 11/9/3 3/10/3 2/11/3 12/12/3
f 7/13/4 8/14/4 115/15/4 116/16/4
f 4/17/3 9/18/3 10/19/3 1/20/3
f 110/21/4 114/22/4 112/23/4 111/24/4
f 7/13/4 116/16/4 114/22/4 110/21/4
f 8/25/3 7/26/3 21/27/3 19/28/3
f 19/28/3 21/27/3 22/29/3 20/30/3
f 6/31/3 22/29/3 12/12/3 107/32/3
f 21/33/4 11/34/4 25/35/4 29/36/4
f 108/37/3 107/32/3 12/12/3 2/11/3
f 8/25/3 19/28/3 9/18/3 16/38/3
f 12/39/2 22/40/2 30/41/2 26/42/2
f 5/43/3 15/44/3 10/19/3 20/30/3
f 17/45/4 18/46/4 113/47/4 16/48/4
f 23/49/3 27/50/3 28/51/3 24/52/3
f 29/53/3 25/54/3 26/55/3 30/56/3
f 20/57/2 10/58/2 24/59/2 28/60/2
f 9/61/4 19/62/4 27/63/4 23/64/4
f 22/65/1 21/66/1 29/67/1 30/68/1
f 19/69/5 20/70/5 28/71/5 27/72/5
f 11/73/5 12/74/5 26/75/5 25/76/5
f 10/77/1 9/78/1 23/79/1 24/80/1
f 118/81/3 109/82/3 36/83/3 52/84/3
f 38/85/3 18/86/3 41/87/3 40/88/3
f 112/89/3 37/90/3 39/91/3 42/92/3
f 14/93/3 117/94/3 51/95/3 35/96/3
f 120/97/3 118/81/3 52/84/3 60/98/3
f 117/94/3 119/99/3 59/100/3 51/95/3
f 119/99/3 120/97/3 60/98/3 59/100/3
f 49/101/3 57/102/3 67/103/3 63/104/3
f 58/105/3 50/106/3 64/107/3 68/108/3
f 51/109/3 59/110/3 77/111/3 73/112/3
f 60/113/3 52/114/3 74/115/3 78/116/3
f 123/117/2 104/118/2 105/119/2 121/120/2
f 61/121/5 58/122/5 68/123/5 69/124/5
f 55/125/1 60/126/1 78/127/1 75/128/1
f 54/129/5 49/130/5 63/131/5 66/132/5
f 48/133/1 51/134/1 73/135/1 72/136/1
f 52/137/5 47/138/5 71/139/5 74/140/5
f 73/141/2 77/142/2 76/143/2 72/144/2
f 78/145/2 74/146/2 71/147/2 75/148/2
f 59/149/2 60/150/2 55/151/2 56/152/2
f 59/153/5 56/154/5 76/155/5 77/156/5
f 35/157/2 51/158/2 48/159/2 31/160/2
f 36/161/5 46/162/5 32/163/5
f 52/164/2 36/165/2 32/166/2 47/167/2
f 50/168/1 53/169/1 65/170/1 64/171/1
f 63/172/4 67/173/4 70/174/4 66/175/4
f 68/176/4 64/177/4 65/178/4 69/179/4
f 57/180/4 58/181/4 61/182/4 62/183/4
f 57/184/1 62/185/1 70/186/1 67/187/1
f 37/188/4 49/189/4 54/190/4 33/191/4
f 38/192/1 40/193/1 34/194/1
f 50/195/4 38/196/4 34/197/4 53/198/4
f 85/199/4 86/200/4 83/201/4 79/202/4
f 80/203/2 87/204/2 96/205/2 94/206/2
f 101/207/3 103/208/3 106/209/3 102/210/3
f 104/211/3 100/212/3 99/213/3 105/214/3
f 124/215/4 81/216/4 98/217/4 122/218/4
f 124/219/5 123/220/5 82/221/5 81/222/5
f 43/223/1 31/224/1 86/225/1 85/226/1
f 83/227/1 84/228/1 80/229/1 79/230/1
f 80/203/2 84/231/2 88/232/2 87/204/2
f 87/233/1 88/234/1 34/235/1 40/236/1
f 87/233/1 40/236/1 90/237/1 96/238/1
f 91/239/3 95/240/3 93/241/3 92/242/3
f 89/243/3 94/244/3 96/245/3 90/246/3
f 85/199/4 79/202/4 93/247/4 95/248/4
f 43/223/1 85/226/1 95/249/1 91/250/1
f 44/251/2 43/252/2 91/253/2 92/254/2
f 40/255/4 41/256/4 89/257/4 90/258/4
f 105/259/5 99/260/5 39/261/5 121/262/5
f 82/263/2 123/117/2 121/120/2 97/264/2
f 103/265/4 124/215/4 122/218/4 106/266/4
f 103/267/5 104/268/5 123/269/5 124/270/5
f 46/271/2 45/272/2 101/273/2 102/274/2
f 42/275/4 39/276/4 99/277/4 100/278/4
f 89/279/1 41/280/1 18/281/1 17/282/1
f 15/283/2 117/284/2 14/285/2 13/286/2
f 5/5/2 119/8/2 117/284/2 15/283/2
f 7/26/3 110/287/3 11/9/3 21/27/3
f 39/288/5 37/289/5 33/290/5
f 58/291/3 57/292/3 116/293/3 115/294/3
f 50/295/3 58/291/3 115/294/3 113/296/3
f 57/292/3 49/297/3 114/298/3 116/293/3
f 38/85/3 50/295/3 113/296/3 18/86/3
f 49/297/3 37/90/3 112/89/3 114/298/3
f 104/268/5 3/299/5 111/300/5 100/301/5
f 11/9/3 110/287/3 111/302/3 3/10/3
f 9/18/3 4/17/3 17/303/3 16/38/3
f 43/304/1 35/305/1 31/306/1
f 43/307/3 44/308/3 14/93/3 35/96/3
f 45/309/3 46/310/3 36/83/3 109/82/3
f 93/2/1 1/311/1 13/312/1 92/313/1
f 10/19/3 15/44/3 13/314/3 1/20/3
f 103/267/5 101/315/5 108/316/5 2/317/5
f 20/30/3 22/29/3 6/31/3 5/43/3
f 4/318/1 94/1/1 89/279/1 17/282/1
f 44/319/1 92/313/1 13/312/1 14/320/1
f 42/321/5 100/301/5 111/300/5 112/322/5
f 115/15/4 8/14/4 16/48/4 113/47/4
f 2/317/5 3/299/5 104/268/5 103/267/5
f 118/323/2 107/324/2 108/325/2 109/326/2
f 120/7/2 6/6/2 107/324/2 118/323/2
f 45/327/5 109/328/5 108/316/5 101/315/5
f 4/318/1 1/311/1 93/2/1 94/1/1
f 97/329/5 121/262/5 39/261/5 33/330/5
f 106/331/5 122/332/5 46/333/5 102/334/5
f 32/335/5 46/333/5 122/332/5 98/336/5
f 32/337/6 98/338/6 81/339/6 47/340/6
f 54/341/6 82/342/6 97/343/6 33/344/6
f 66/345/6 70/346/6 62/347/6 54/348/6
f 54/349/6 62/350/6 82/351/6
f 82/352/6 84/353/6 83/354/6 81/355/6
f 84/356/6 53/357/6 34/358/6 88/359/6
f 65/360/6 53/361/6 61/362/6 69/363/6
f 61/364/6 84/353/6 82/352/6 62/350/6
f 84/353/6 61/364/6 53/365/6
f 72/366/6 76/367/6 56/368/6 48/369/6
f 56/370/6 55/371/6 81/355/6 83/354/6
f 71/372/6 47/373/6 55/374/6 75/375/6
f 81/355/6 55/371/6 47/376/6
f 83/377/6 48/378/6 56/370/6
f 86/379/6 31/380/6 48/381/6 83/382/6
