# Blender v2.79 (sub 0) OBJ File: 'cables.blend'
# www.blender.org
mtllib cable_toWall.mtl
o Cube.003_Cube.005
v 2.720013 0.741962 -0.068729
v 2.720013 0.741962 0.045837
v -2.819132 0.665660 0.045840
v -2.819132 0.665660 -0.068726
v 2.720013 0.856528 -0.068729
v 2.720013 0.856528 0.045837
v -2.819132 0.780226 0.045840
v -2.819132 0.780226 -0.068726
v 0.024648 -0.099600 0.045838
v 0.024648 -0.214166 0.045838
v 0.024648 -0.099600 -0.068727
v 0.024648 -0.214166 -0.068727
v 0.832757 -0.140048 0.045838
v 2.173422 0.370858 0.045837
v 0.832757 -0.025482 -0.068728
v 2.173422 0.485424 -0.068728
v 2.173422 0.485424 0.045837
v 0.832757 -0.025482 0.045838
v 2.173422 0.370858 -0.068728
v 0.832757 -0.140048 -0.068728
v -1.246809 0.032744 0.045839
v -2.295579 0.444605 0.045839
v -1.246809 -0.081822 -0.068727
v -2.295579 0.330039 -0.068726
v -2.295579 0.330039 0.045839
v -1.246809 -0.081822 0.045839
v -2.295579 0.444605 -0.068726
v -1.246809 0.032744 -0.068727
v 1.449887 0.053034 0.045838
v 1.449887 0.167600 -0.068728
v 1.449887 0.167600 0.045838
v 1.449887 0.053034 -0.068728
v -0.642024 -0.190821 0.045839
v -0.642024 -0.076255 -0.068727
v -0.642024 -0.076255 0.045839
v -0.642024 -0.190821 -0.068727
v -1.802137 0.220449 0.045839
v -1.802137 0.105883 -0.068727
v -1.802137 0.105883 0.045839
v -1.802137 0.220449 -0.068727
v 2.720011 0.741962 0.070851
v 2.720011 0.741962 0.185417
v -2.819132 0.665660 0.185419
v -2.819132 0.665660 0.070853
v 2.720011 0.856528 0.070851
v 2.720011 0.856528 0.185417
v -2.819132 0.780226 0.185419
v -2.819132 0.780226 0.070853
v -0.043691 -0.295344 0.185418
v -0.043691 -0.409909 0.185418
v -0.043691 -0.295344 0.070852
v -0.043691 -0.409909 0.070852
v 0.881457 -0.306503 0.185417
v 1.806604 -0.004797 0.185417
v 0.881457 -0.191937 0.070852
v 1.806604 0.109769 0.070851
v 1.806604 0.109769 0.185417
v 0.881457 -0.191937 0.185417
v 1.806604 -0.004797 0.070851
v 0.881457 -0.306503 0.070852
v -0.968838 -0.212036 0.185418
v -1.735066 0.027149 0.185419
v -0.968838 -0.326602 0.070852
v -1.735066 -0.087417 0.070853
v -1.735066 -0.087417 0.185419
v -0.968838 -0.326602 0.185418
v -1.735066 0.027149 0.070853
v -0.968838 -0.212036 0.070852
v -2.819132 0.665660 0.045840
v -2.819132 0.665660 -0.068726
v -2.819132 0.780226 0.045840
v -2.819132 0.780226 -0.068726
v -2.819132 0.665660 0.185419
v -2.819132 0.665660 0.070853
v -2.819132 0.780226 0.185419
v -2.819132 0.780226 0.070853
v 2.296416 0.343256 0.185417
v 2.296416 0.457822 0.070851
v 2.296416 0.457822 0.185417
v 2.296416 0.343256 0.070851
v -2.402816 0.390398 0.185419
v -2.402816 0.275832 0.070853
v -2.402816 0.275832 0.185419
v -2.402816 0.390398 0.070853
vt 0.857087 0.083735
vt 0.963102 0.079086
vt 0.955287 0.096904
vt 0.848821 0.099258
vt 0.112106 0.130795
vt 0.001369 0.129924
vt 0.011943 0.114498
vt 0.121372 0.114761
vt 0.848888 0.116838
vt 0.955136 0.117193
vt 0.111916 0.149662
vt 0.001273 0.149111
vt 0.582699 0.134342
vt 0.582799 0.152476
vt 0.475397 0.152944
vt 0.475393 0.134778
vt 0.348522 0.115732
vt 0.348678 0.097502
vt 0.476043 0.097550
vt 0.475943 0.116049
vt 0.580790 0.116380
vt 0.345046 0.079578
vt 0.475584 0.078794
vt 0.001413 0.078591
vt 0.112724 0.080010
vt 0.121641 0.096276
vt 0.012052 0.094699
vt 0.240230 0.079533
vt 0.246723 0.096957
vt 0.246606 0.115692
vt 0.344687 0.151856
vt 0.344802 0.133487
vt 0.240045 0.132816
vt 0.239916 0.151142
vt 0.961197 0.134489
vt 0.857569 0.132291
vt 0.772442 0.133646
vt 0.680036 0.133989
vt 0.675560 0.116768
vt 0.765848 0.117114
vt 0.962625 0.152524
vt 0.857660 0.150826
vt 0.772580 0.151489
vt 0.680160 0.151927
vt 0.580963 0.098201
vt 0.675715 0.098844
vt 0.765958 0.099134
vt 0.583107 0.080101
vt 0.680358 0.081512
vt 0.772687 0.082477
vt 0.895447 0.023336
vt 0.995489 0.020492
vt 0.986825 0.036791
vt 0.884249 0.037679
vt 0.098751 0.072621
vt 0.001807 0.074450
vt 0.014630 0.060300
vt 0.110272 0.058252
vt 0.883748 0.055504
vt 0.987509 0.059238
vt 0.097718 0.007382
vt 0.098115 0.025762
vt 0.001499 0.027377
vt 0.001273 0.008744
vt 0.643557 0.001318
vt 0.643568 0.019447
vt 0.494693 0.019313
vt 0.494555 0.001273
vt 0.350256 0.056583
vt 0.350292 0.038313
vt 0.494980 0.037959
vt 0.494980 0.056364
vt 0.643764 0.073468
vt 0.494847 0.075030
vt 0.640017 0.055552
vt 0.346332 0.020872
vt 0.195256 0.023512
vt 0.203717 0.039029
vt 0.110046 0.039581
vt 0.203705 0.056819
vt 0.346070 0.003096
vt 0.194829 0.005626
vt 0.346325 0.074286
vt 0.195517 0.072647
vt 0.894252 0.070193
vt 0.772426 0.072052
vt 0.765045 0.055110
vt 0.895616 0.002763
vt 0.772291 0.019824
vt 0.772335 0.001633
vt 0.640017 0.037153
vt 0.765059 0.036531
vt 0.998468 0.076045
vt 0.987854 0.059127
vt 0.998727 0.075873
vt 0.961496 0.134424
vt 0.962970 0.152493
vt 0.963413 0.079219
vt 0.955633 0.096973
vt 0.987204 0.036872
vt 0.955458 0.117137
vt 0.998184 0.001274
vt 0.998521 0.001318
vt 0.995808 0.020590
vt 0.014380 0.040758
vn 0.3298 0.6063 0.7236
vn 0.1914 0.2985 0.9350
vn -0.1538 -0.2399 0.9585
vn -0.3453 -0.6347 0.6913
vn -0.3317 0.5997 -0.7282
vn -0.4773 0.7031 -0.5271
vn 0.3296 -0.4855 -0.8097
vn 0.3516 -0.6358 -0.6871
vn -0.3453 -0.6347 -0.6913
vn -0.4552 -0.7100 0.5373
vn -0.3317 0.5997 0.7282
vn -0.4773 0.7031 0.5271
vn 0.0735 0.6863 -0.7236
vn 0.0735 0.6863 0.7236
vn -0.0195 0.6920 0.7216
vn -0.0195 0.6920 -0.7216
vn 0.1430 -0.7152 -0.6841
vn 0.1430 -0.7152 0.6841
vn 0.0203 -0.7205 0.6931
vn 0.0203 -0.7205 -0.6931
vn -0.0769 -0.7184 -0.6913
vn -0.1336 0.6684 0.7317
vn 0.3516 -0.6358 0.6871
vn 0.3296 -0.4855 0.8097
vn -0.2436 0.6500 0.7197
vn 0.2524 -0.6734 0.6948
vn 0.2524 -0.6734 -0.6948
vn -0.1336 0.6684 -0.7317
vn -0.2436 0.6500 -0.7197
vn 0.3193 0.4980 0.8062
vn 0.3298 0.6063 -0.7236
vn 0.2555 0.6468 -0.7186
vn 0.1720 0.6679 -0.7241
vn -0.1803 -0.7001 -0.6908
vn -0.2638 -0.6678 -0.6960
vn 0.2555 0.6468 0.7186
vn 0.1720 0.6679 0.7241
vn -0.0769 -0.7184 0.6913
vn -0.1803 -0.7001 0.6908
vn -0.2638 -0.6678 0.6960
vn 0.3958 0.5481 0.7368
vn 0.2520 0.2691 0.9295
vn -0.1888 -0.2016 0.9611
vn -0.4294 -0.5947 0.6796
vn -0.4379 0.5344 -0.7229
vn -0.6083 0.6462 -0.4608
vn 0.3836 -0.4075 -0.8287
vn 0.4575 -0.5584 -0.6920
vn -0.4294 -0.5947 -0.6796
vn -0.6062 -0.6474 0.4620
vn -0.4379 0.5344 0.7229
vn -0.6083 0.6462 0.4608
vn 0.1328 0.6684 -0.7318
vn 0.1328 0.6684 0.7318
vn -0.0073 0.6829 0.7304
vn -0.0073 0.6829 -0.7304
vn 0.1542 -0.7121 -0.6849
vn 0.1542 -0.7121 0.6849
vn 0.0078 -0.7283 0.6852
vn 0.0078 -0.7283 -0.6852
vn -0.1422 -0.7155 -0.6840
vn -0.1445 0.6672 0.7307
vn -0.3012 0.5981 0.7426
vn 0.3319 -0.6592 0.6747
vn 0.4575 -0.5584 0.6920
vn 0.3319 -0.6592 -0.6747
vn -0.1445 0.6672 -0.7307
vn -0.3012 0.5981 -0.7426
vn 0.3958 0.5481 -0.7368
vn 0.2665 0.6296 -0.7298
vn -0.2837 -0.6702 -0.6858
vn 0.2665 0.6296 0.7298
vn -0.1422 -0.7155 0.6840
vn -0.2837 -0.6702 0.6858
vn 0.3828 0.4088 0.8284
vn 0.0000 0.0000 1.0000
vn 0.3836 -0.4075 0.8287
usemtl None
s 1
f 22/1/1 7/2/2 3/3/3 25/4/4
f 16/5/5 5/6/6 1/7/7 19/8/8
f 24/9/9 25/4/4 3/3/3 4/10/10
f 16/5/5 17/11/11 6/12/12 5/6/6
f 34/13/13 35/14/14 9/15/15 11/16/16
f 20/17/17 13/18/18 10/19/19 12/20/20
f 34/13/13 11/16/16 12/20/20 36/21/21
f 18/22/22 9/23/15 10/19/19 13/18/18
f 6/24/12 17/25/11 14/26/23 2/27/24
f 31/28/25 18/22/22 13/18/18 29/29/26
f 1/7/7 2/27/24 14/26/23 19/8/8
f 32/30/27 29/29/26 13/18/18 20/17/17
f 11/16/16 9/15/15 18/31/22 15/32/28
f 30/33/29 31/34/25 17/11/11 16/5/5
f 11/16/16 15/32/28 20/17/17 12/20/20
f 30/33/29 16/5/5 19/8/8 32/30/27
f 8/35/30 27/36/31 24/9/9 4/10/10
f 40/37/32 28/38/33 23/39/34 38/40/35
f 8/35/30 7/41/2 22/42/1 27/36/31
f 40/37/32 37/43/36 21/44/37 28/38/33
f 36/21/21 33/45/38 26/46/39 23/39/34
f 38/40/35 39/47/40 25/4/4 24/9/9
f 35/48/14 21/49/37 26/46/39 33/45/38
f 37/50/36 22/1/1 25/4/4 39/47/40
f 15/32/28 30/33/29 32/30/27 20/17/17
f 15/32/28 18/31/22 31/34/25 30/33/29
f 19/8/8 14/26/23 29/29/26 32/30/27
f 17/25/11 31/28/25 29/29/26 14/26/23
f 9/23/15 35/48/14 33/45/38 10/19/19
f 12/20/20 10/19/19 33/45/38 36/21/21
f 28/38/33 34/13/13 36/21/21 23/39/34
f 28/38/33 21/44/37 35/14/14 34/13/13
f 21/49/37 37/50/36 39/47/40 26/46/39
f 23/39/34 26/46/39 39/47/40 38/40/35
f 27/36/31 22/42/1 37/43/36 40/37/32
f 27/36/31 40/37/32 38/40/35 24/9/9
f 81/51/41 47/52/42 43/53/43 83/54/44
f 78/55/45 45/56/46 41/57/47 80/58/48
f 82/59/49 83/54/44 43/53/43 44/60/50
f 78/61/45 79/62/51 46/63/52 45/64/46
f 68/65/53 61/66/54 49/67/55 51/68/56
f 60/69/57 53/70/58 50/71/59 52/72/60
f 68/73/53 51/74/56 52/72/60 63/75/61
f 58/76/62 49/67/55 50/71/59 53/70/58
f 79/62/51 57/77/63 54/78/64 77/79/65
f 57/77/63 58/76/62 53/70/58 54/78/64
f 80/58/48 77/79/65 54/78/64 59/80/66
f 59/80/66 54/78/64 53/70/58 60/69/57
f 51/68/56 49/67/55 58/76/62 55/81/67
f 55/81/67 58/76/62 57/77/63 56/82/68
f 51/74/56 55/83/67 60/69/57 52/72/60
f 55/83/67 56/84/68 59/80/66 60/69/57
f 84/85/69 67/86/70 64/87/71 82/59/49
f 67/86/70 68/73/53 63/75/61 64/87/71
f 84/88/69 81/51/41 62/89/72 67/90/70
f 67/90/70 62/89/72 61/66/54 68/65/53
f 52/72/60 50/71/59 66/91/73 63/75/61
f 63/75/61 66/91/73 65/92/74 64/87/71
f 49/67/55 61/66/54 66/91/73 50/71/59
f 61/66/54 62/89/72 65/92/74 66/91/73
f 48/93/75 44/60/50 74/94/76 76/95/76
f 7/41/2 8/35/30 72/96/76 71/97/76
f 3/3/3 7/2/2 71/98/76 69/99/76
f 44/60/50 43/53/43 73/100/76 74/94/76
f 8/35/30 4/10/10 70/101/76 72/96/76
f 47/52/42 48/102/75 76/103/76 75/104/76
f 43/53/43 47/52/42 75/104/76 73/100/76
f 4/10/10 3/3/3 69/99/76 70/101/76
f 41/57/47 42/105/77 77/79/65 80/58/48
f 46/63/52 79/62/51 77/79/65 42/105/77
f 56/82/68 57/77/63 79/62/51 78/61/45
f 56/84/68 78/55/45 80/58/48 59/80/66
f 48/102/75 47/52/42 81/51/41 84/88/69
f 48/93/75 84/85/69 82/59/49 44/60/50
f 64/87/71 65/92/74 83/54/44 82/59/49
f 62/89/72 81/51/41 83/54/44 65/92/74
