# Blender v2.79 (sub 0) OBJ File: 'pipe4.blend'
# www.blender.org
mtllib pipe4connection.mtl
o object_static_pipe4Connection_Cylinder.008
v -1.670543 3.050951 -0.455678
v -2.543971 2.605918 -0.455678
v -3.237127 1.912764 -0.455678
v -3.682162 1.039337 -0.455678
v -3.835511 0.071135 -0.455678
v -3.682164 -0.897066 -0.455678
v -3.237131 -1.770494 -0.455678
v -2.543976 -2.463650 -0.455678
v -1.670548 -2.908684 -0.455678
v -0.702347 -3.062033 -0.455678
v 0.265855 -2.908685 -0.455678
v 1.139282 -2.463651 -0.455678
v 1.832438 -1.770496 -0.455678
v 2.277472 -0.897069 -0.455678
v 2.430820 0.071132 -0.455678
v 2.277472 1.039334 -0.455678
v 1.832438 1.912761 -0.455678
v 1.139283 2.605916 -0.455678
v 0.265856 3.050950 -0.455678
v -0.702346 3.204298 -0.455678
v -1.707214 3.163814 -0.455678
v -2.613724 2.701926 -0.455678
v -3.333135 1.982517 -0.455678
v -3.795025 1.076009 -0.455678
v -3.954182 0.071135 -0.455678
v -3.795027 -0.933738 -0.455678
v -3.333138 -1.840247 -0.455678
v -2.613729 -2.559657 -0.455678
v -1.707220 -3.021548 -0.455678
v -0.702347 -3.180705 -0.455678
v 0.302526 -3.021549 -0.455678
v 1.209036 -2.559659 -0.455678
v 1.928445 -1.840249 -0.455678
v 2.390335 -0.933741 -0.455678
v 2.549491 0.071132 -0.455678
v 2.390335 1.076005 -0.455678
v 1.928445 1.982514 -0.455678
v 1.209036 2.701923 -0.455678
v 0.302527 3.163813 -0.455678
v -0.702346 3.322969 -0.455678
v -1.707214 3.163814 -0.866081
v -2.613724 2.701926 -0.866081
v -3.333135 1.982517 -0.866081
v -3.795025 1.076009 -0.866081
v -3.954182 0.071135 -0.866081
v -3.795027 -0.933738 -0.866081
v -3.333138 -1.840247 -0.866081
v -2.613729 -2.559657 -0.866081
v -1.707220 -3.021548 -0.866081
v -0.702347 -3.180705 -0.866081
v 0.302526 -3.021549 -0.866081
v 1.209036 -2.559659 -0.866081
v 1.928445 -1.840249 -0.866081
v 2.390335 -0.933741 -0.866081
v 2.549491 0.071132 -0.866081
v 2.390335 1.076005 -0.866081
v 1.928445 1.982514 -0.866081
v 1.209036 2.701923 -0.866081
v 0.302527 3.163813 -0.866081
v -0.702346 3.322969 -0.866081
v -1.611974 2.870693 -0.866081
v -2.432565 2.452581 -0.866081
v -3.083791 1.801358 -0.866081
v -3.501904 0.980767 -0.866081
v -3.645976 0.071135 -0.866081
v -3.501905 -0.838497 -0.866081
v -3.083794 -1.659088 -0.866081
v -2.432570 -2.310313 -0.866081
v -1.611979 -2.728426 -0.866081
v -0.702347 -2.872498 -0.866081
v 0.207285 -2.728427 -0.866081
v 1.027877 -2.310314 -0.866081
v 1.679101 -1.659090 -0.866081
v 2.097213 -0.838500 -0.866081
v 2.241285 0.071132 -0.866081
v 2.097214 0.980764 -0.866081
v 1.679101 1.801355 -0.866081
v 1.027877 2.452579 -0.866081
v 0.207286 2.870692 -0.866081
v -0.702346 3.014763 -0.866081
v 2.277472 1.039334 0.550251
v 2.430820 0.071132 0.550251
v 2.277472 -0.897069 0.550251
v 1.832438 -1.770496 0.550251
v 1.139282 -2.463651 0.550251
v 0.265855 -2.908685 0.550251
v -0.702347 -3.062033 0.550251
v -1.670548 -2.908684 0.550251
v -2.543976 -2.463650 0.550251
v -3.237131 -1.770494 0.550251
v -3.682164 -0.897066 0.550251
v -3.835511 0.071135 0.550251
v -3.682162 1.039337 0.550251
v -3.237127 1.912764 0.550251
v -2.543971 2.605918 0.550251
v -1.670543 3.050951 0.550251
v 1.832438 1.912761 0.550251
v 1.139283 2.605916 0.550251
v 0.265856 3.050950 0.550251
v -0.702346 3.204298 0.550251
v -1.707214 3.163814 0.550251
v -2.613724 2.701926 0.550251
v -3.333135 1.982517 0.550251
v -3.795025 1.076009 0.550251
v -3.954182 0.071135 0.550251
v -3.795027 -0.933738 0.550251
v -3.333138 -1.840247 0.550251
v -2.613729 -2.559657 0.550251
v -1.707220 -3.021548 0.550251
v -0.702347 -3.180705 0.550251
v 0.302526 -3.021549 0.550251
v 1.209036 -2.559659 0.550251
v 1.928445 -1.840249 0.550251
v 2.390335 -0.933740 0.550251
v 2.549491 0.071132 0.550251
v 2.390335 1.076005 0.550251
v 1.928445 1.982514 0.550251
v 1.209036 2.701923 0.550251
v 0.302527 3.163813 0.550251
v -0.702346 3.322969 0.550251
v -1.707214 3.163814 0.960654
v -2.613724 2.701926 0.960654
v -3.333135 1.982517 0.960654
v -3.795025 1.076009 0.960654
v -3.954182 0.071135 0.960654
v -3.795027 -0.933738 0.960654
v -3.333138 -1.840247 0.960654
v -2.613729 -2.559657 0.960654
v -1.707220 -3.021548 0.960655
v -0.702347 -3.180705 0.960655
v 0.302526 -3.021549 0.960655
v 1.209036 -2.559659 0.960654
v 1.928445 -1.840249 0.960654
v 2.390335 -0.933741 0.960654
v 2.549491 0.071132 0.960654
v 2.390335 1.076005 0.960654
v 1.928445 1.982514 0.960654
v 1.209036 2.701923 0.960654
v 0.302527 3.163813 0.960654
v -0.702346 3.322969 0.960654
v -1.611974 2.870693 0.960654
v -2.432565 2.452581 0.960654
v -3.083791 1.801358 0.960654
v -3.501904 0.980767 0.960654
v -3.645976 0.071135 0.960654
v -3.501905 -0.838497 0.960654
v -3.083794 -1.659088 0.960654
v -2.432570 -2.310313 0.960654
v -1.611979 -2.728426 0.960654
v -0.702347 -2.872498 0.960655
v 0.207285 -2.728427 0.960654
v 1.027877 -2.310314 0.960654
v 1.679101 -1.659090 0.960654
v 2.097213 -0.838500 0.960654
v 2.241285 0.071132 0.960654
v 2.097214 0.980764 0.960654
v 1.679101 1.801355 0.960654
v 1.027877 2.452579 0.960654
v 0.207286 2.870692 0.960654
v -0.702346 3.014763 0.960654
vt 0.986120 0.248417
vt 0.974597 0.175670
vt 0.983077 0.172914
vt 0.995036 0.248417
vt 0.612323 0.057961
vt 0.560240 0.110044
vt 0.553026 0.104803
vt 0.607082 0.050748
vt 0.176607 0.474008
vt 0.249356 0.485530
vt 0.249356 0.494447
vt 0.173852 0.482488
vt 0.677951 0.024522
vt 0.675195 0.016042
vt 0.110980 0.440570
vt 0.105738 0.447783
vt 0.750699 0.013000
vt 0.750699 0.004083
vt 0.058897 0.388487
vt 0.051683 0.393728
vt 0.473253 0.322859
vt 0.484775 0.250111
vt 0.493691 0.250111
vt 0.481733 0.325614
vt 0.823448 0.024522
vt 0.826203 0.016042
vt 0.025458 0.322860
vt 0.016977 0.325615
vt 0.439814 0.388486
vt 0.447028 0.393727
vt 0.889076 0.057961
vt 0.894317 0.050747
vt 0.013935 0.250111
vt 0.005018 0.250111
vt 0.387733 0.440569
vt 0.392974 0.447782
vt 0.941158 0.110043
vt 0.948372 0.104801
vt 0.526801 0.175672
vt 0.515279 0.248422
vt 0.506362 0.248422
vt 0.518321 0.172917
vt 0.322105 0.474007
vt 0.324861 0.482488
vt 0.469684 0.321589
vt 0.437050 0.385638
vt 0.419433 0.372838
vt 0.448974 0.314860
vt 0.064048 0.385929
vt 0.031414 0.321880
vt 0.052124 0.315151
vt 0.081666 0.373129
vt 0.480929 0.250591
vt 0.459153 0.250591
vt 0.114878 0.436758
vt 0.127677 0.419141
vt 0.178926 0.032371
vt 0.249924 0.021126
vt 0.249924 0.042902
vt 0.185655 0.053081
vt 0.469684 0.179592
vt 0.448974 0.186322
vt 0.178926 0.469392
vt 0.185656 0.448682
vt 0.114877 0.065005
vt 0.127677 0.082622
vt 0.437050 0.115544
vt 0.419433 0.128343
vt 0.249925 0.480638
vt 0.249925 0.458862
vt 0.064048 0.115835
vt 0.081665 0.128634
vt 0.386220 0.064715
vt 0.373421 0.082332
vt 0.322172 0.469102
vt 0.251173 0.480347
vt 0.251173 0.458571
vt 0.315443 0.448392
vt 0.031414 0.179883
vt 0.052124 0.186612
vt 0.322172 0.032080
vt 0.315443 0.052791
vt 0.386221 0.436467
vt 0.373421 0.418850
vt 0.020169 0.250882
vt 0.041945 0.250882
vt 0.251173 0.020835
vt 0.251173 0.042611
vt 0.985347 0.250732
vt 0.994264 0.250732
vt 0.982305 0.326237
vt 0.973825 0.323481
vt 0.611549 0.441192
vt 0.606308 0.448406
vt 0.552254 0.394352
vt 0.559467 0.389111
vt 0.176606 0.023902
vt 0.173851 0.015422
vt 0.249355 0.003463
vt 0.249355 0.012380
vt 0.677176 0.474631
vt 0.674421 0.483112
vt 0.110979 0.057341
vt 0.105738 0.050127
vt 0.749925 0.486154
vt 0.749925 0.495071
vt 0.058896 0.109423
vt 0.051683 0.104182
vt 0.473252 0.175051
vt 0.481733 0.172296
vt 0.493691 0.247799
vt 0.484774 0.247799
vt 0.822674 0.474632
vt 0.825430 0.483112
vt 0.025457 0.175051
vt 0.016977 0.172296
vt 0.439814 0.109424
vt 0.447028 0.104183
vt 0.888303 0.441192
vt 0.893544 0.448406
vt 0.013935 0.247800
vt 0.005018 0.247800
vt 0.387732 0.057341
vt 0.392973 0.050128
vt 0.940385 0.389109
vt 0.947599 0.394350
vt 0.526029 0.323484
vt 0.517549 0.326239
vt 0.505591 0.250736
vt 0.514507 0.250736
vt 0.322104 0.023902
vt 0.324860 0.015422
vt 0.969143 0.178156
vt 0.948433 0.184885
vt 0.918891 0.126907
vt 0.936509 0.114107
vt 0.562583 0.114108
vt 0.580200 0.126908
vt 0.550659 0.184886
vt 0.529948 0.178157
vt 0.980388 0.249154
vt 0.958612 0.249154
vt 0.613412 0.063279
vt 0.626212 0.080896
vt 0.677462 0.467666
vt 0.684191 0.446956
vt 0.748460 0.457135
vt 0.748460 0.478911
vt 0.969143 0.320153
vt 0.948433 0.313424
vt 0.677461 0.030644
vt 0.684190 0.051354
vt 0.613413 0.435032
vt 0.626212 0.417415
vt 0.936509 0.384202
vt 0.918892 0.371402
vt 0.748459 0.019399
vt 0.748459 0.041175
vt 0.562583 0.384203
vt 0.580200 0.371403
vt 0.885680 0.435031
vt 0.872880 0.417414
vt 0.821631 0.030644
vt 0.814902 0.051354
vt 0.750632 0.041175
vt 0.750632 0.019399
vt 0.529949 0.320154
vt 0.550659 0.313425
vt 0.821631 0.467666
vt 0.814902 0.446956
vt 0.885679 0.063278
vt 0.872880 0.080895
vt 0.518703 0.249155
vt 0.540480 0.249155
vt 0.750632 0.478911
vt 0.750632 0.457135
vt 0.626492 0.516177
vt 0.695752 0.516177
vt 0.695752 0.587250
vt 0.626492 0.587250
vt 0.418712 0.660496
vt 0.349451 0.660496
vt 0.349451 0.589423
vt 0.418712 0.589423
vt 0.072410 0.516177
vt 0.141671 0.516177
vt 0.141671 0.587250
vt 0.072411 0.587250
vt 0.557232 0.516177
vt 0.557232 0.587250
vt 0.487972 0.660496
vt 0.487972 0.589423
vt 0.003150 0.516177
vt 0.003150 0.587250
vt 0.487972 0.516177
vt 0.487972 0.587250
vt 0.557232 0.660496
vt 0.557232 0.589423
vt 0.072410 0.660496
vt 0.003150 0.660496
vt 0.003150 0.589423
vt 0.072410 0.589423
vt 0.418712 0.516177
vt 0.418712 0.587250
vt 0.626492 0.660496
vt 0.626492 0.589423
vt 0.141671 0.660496
vt 0.141671 0.589423
vt 0.349451 0.516177
vt 0.349451 0.587250
vt 0.695752 0.660496
vt 0.695752 0.589423
vt 0.210931 0.660496
vt 0.210931 0.589423
vt 0.280191 0.516177
vt 0.280191 0.587250
vt 0.280191 0.660496
vt 0.280191 0.589423
vt 0.210931 0.516177
vt 0.210931 0.587250
vt 0.506335 0.754254
vt 0.434452 0.754254
vt 0.434452 0.725257
vt 0.506335 0.725257
vt 0.003150 0.694087
vt 0.075034 0.694087
vt 0.075034 0.723083
vt 0.003150 0.723084
vt 0.506335 0.694086
vt 0.578218 0.694086
vt 0.578218 0.723083
vt 0.506335 0.723083
vt 0.578218 0.754254
vt 0.578219 0.725257
vt 0.075034 0.754253
vt 0.003150 0.754253
vt 0.003150 0.725256
vt 0.075034 0.725257
vt 0.434451 0.694086
vt 0.434451 0.723083
vt 0.650102 0.754254
vt 0.650102 0.725257
vt 0.146918 0.754254
vt 0.146918 0.725257
vt 0.362568 0.694086
vt 0.362568 0.723083
vt 0.721985 0.754254
vt 0.721985 0.725257
vt 0.218801 0.754254
vt 0.218801 0.725257
vt 0.290684 0.694087
vt 0.290684 0.723083
vt 0.290685 0.754254
vt 0.290685 0.725257
vt 0.218801 0.694087
vt 0.218801 0.723083
vt 0.362568 0.754254
vt 0.362568 0.725257
vt 0.146917 0.694087
vt 0.146917 0.723083
vt 0.650102 0.694086
vt 0.721985 0.694086
vt 0.721985 0.723083
vt 0.650102 0.723083
vt 0.506335 0.756427
vt 0.506335 0.785423
vt 0.434451 0.785424
vt 0.434451 0.756427
vt 0.003150 0.691666
vt 0.003160 0.662669
vt 0.075044 0.662694
vt 0.075034 0.691691
vt 0.506335 0.691839
vt 0.506345 0.662842
vt 0.578229 0.662867
vt 0.578219 0.691864
vt 0.578218 0.756427
vt 0.578218 0.785423
vt 0.075034 0.756427
vt 0.075034 0.785424
vt 0.003150 0.785424
vt 0.003150 0.756427
vt 0.434452 0.691814
vt 0.434462 0.662818
vt 0.650102 0.756427
vt 0.650102 0.785423
vt 0.146917 0.756427
vt 0.146917 0.785424
vt 0.362568 0.691790
vt 0.362578 0.662793
vt 0.721985 0.756427
vt 0.721985 0.785423
vt 0.218801 0.756427
vt 0.218801 0.785424
vt 0.290685 0.691765
vt 0.290695 0.662768
vt 0.290684 0.756427
vt 0.290684 0.785424
vt 0.218801 0.691740
vt 0.218811 0.662743
vt 0.362568 0.756427
vt 0.362568 0.785424
vt 0.146917 0.691715
vt 0.146927 0.662719
vt 0.650102 0.691889
vt 0.650112 0.662892
vt 0.721995 0.662917
vt 0.721985 0.691913
vn 0.0000 -0.0000 1.0000
vn 0.0000 0.0000 -1.0000
vn -0.2064 0.6354 -0.7440
vn 0.0000 0.6681 -0.7440
vn 0.0000 0.6681 0.7440
vn -0.2064 0.6354 0.7440
vn 0.6354 0.2064 -0.7440
vn 0.6681 0.0000 -0.7440
vn 0.6681 0.0000 0.7440
vn 0.6354 0.2064 0.7440
vn -0.2064 -0.6354 -0.7440
vn -0.3927 -0.5405 -0.7440
vn -0.3927 -0.5405 0.7440
vn -0.2064 -0.6354 0.7440
vn -0.3927 0.5405 -0.7440
vn -0.3927 0.5405 0.7440
vn 0.5405 0.3927 -0.7440
vn 0.5405 0.3927 0.7440
vn 0.0000 -0.6681 -0.7440
vn 0.0000 -0.6681 0.7440
vn -0.5405 0.3927 -0.7440
vn -0.5405 0.3927 0.7440
vn 0.3927 0.5405 -0.7440
vn 0.3927 0.5405 0.7440
vn 0.2064 -0.6354 -0.7440
vn 0.2064 -0.6354 0.7440
vn -0.6354 0.2064 -0.7440
vn -0.6354 0.2064 0.7440
vn 0.2064 0.6354 -0.7440
vn 0.2064 0.6354 0.7440
vn 0.3927 -0.5405 -0.7440
vn 0.3927 -0.5405 0.7440
vn -0.6681 0.0000 -0.7440
vn -0.6681 0.0000 0.7440
vn 0.5405 -0.3927 -0.7440
vn 0.5405 -0.3927 0.7440
vn -0.6354 -0.2064 -0.7440
vn -0.6354 -0.2064 0.7440
vn 0.6354 -0.2064 -0.7440
vn 0.6354 -0.2064 0.7440
vn -0.5405 -0.3927 -0.7440
vn -0.5405 -0.3927 0.7440
vn 0.5980 0.4345 0.6735
vn 0.7030 0.2284 0.6735
vn 0.7030 0.2284 -0.6735
vn 0.5980 0.4345 -0.6735
vn 0.0000 -0.7391 0.6735
vn -0.2284 -0.7030 0.6735
vn -0.2284 -0.7030 -0.6735
vn 0.0000 -0.7391 -0.6735
vn -0.5980 0.4345 0.6735
vn -0.4345 0.5980 0.6735
vn -0.4345 0.5980 -0.6735
vn -0.5980 0.4345 -0.6735
vn 0.4345 0.5980 0.6735
vn 0.4345 0.5980 -0.6735
vn 0.2284 -0.7030 0.6735
vn 0.2284 -0.7030 -0.6735
vn -0.7030 0.2284 0.6735
vn -0.7030 0.2284 -0.6735
vn 0.2284 0.7030 0.6735
vn 0.2284 0.7030 -0.6735
vn 0.4345 -0.5980 0.6735
vn 0.4345 -0.5980 -0.6735
vn -0.7391 0.0000 0.6735
vn -0.7391 0.0000 -0.6735
vn 0.0000 0.7391 0.6735
vn 0.0000 0.7391 -0.6735
vn 0.5980 -0.4345 0.6735
vn 0.5980 -0.4345 -0.6735
vn -0.7030 -0.2284 0.6735
vn -0.7030 -0.2284 -0.6735
vn 0.7030 -0.2284 0.6735
vn 0.7030 -0.2284 -0.6735
vn -0.5980 -0.4345 0.6735
vn -0.5980 -0.4345 -0.6735
vn 0.7391 0.0000 0.6735
vn 0.7391 0.0000 -0.6735
vn -0.4345 -0.5980 0.6735
vn -0.4345 -0.5980 -0.6735
vn -0.2284 0.7030 0.6735
vn -0.2284 0.7030 -0.6735
usemtl Material.001
s off
f 20/1/1 19/2/1 39/3/1 40/4/1
f 13/5/1 12/6/1 32/7/1 33/8/1
f 6/9/1 5/10/1 25/11/1 26/12/1
f 14/13/1 13/5/1 33/8/1 34/14/1
f 7/15/1 6/9/1 26/12/1 27/16/1
f 15/17/1 14/13/1 34/14/1 35/18/1
f 8/19/1 7/15/1 27/16/1 28/20/1
f 1/21/1 20/22/1 40/23/1 21/24/1
f 16/25/1 15/17/1 35/18/1 36/26/1
f 9/27/1 8/19/1 28/20/1 29/28/1
f 2/29/1 1/21/1 21/24/1 22/30/1
f 17/31/1 16/25/1 36/26/1 37/32/1
f 10/33/1 9/27/1 29/28/1 30/34/1
f 3/35/1 2/29/1 22/30/1 23/36/1
f 18/37/1 17/31/1 37/32/1 38/38/1
f 11/39/1 10/40/1 30/41/1 31/42/1
f 4/43/1 3/35/1 23/36/1 24/44/1
f 19/2/1 18/37/1 38/38/1 39/3/1
f 12/6/1 11/39/1 31/42/1 32/7/1
f 5/10/1 4/43/1 24/44/1 25/11/1
f 54/45/2 53/46/2 73/47/2 74/48/2
f 47/49/2 46/50/2 66/51/2 67/52/2
f 55/53/2 54/45/2 74/48/2 75/54/2
f 48/55/2 47/49/2 67/52/2 68/56/2
f 41/57/2 60/58/2 80/59/2 61/60/2
f 56/61/2 55/53/2 75/54/2 76/62/2
f 49/63/2 48/55/2 68/56/2 69/64/2
f 42/65/2 41/57/2 61/60/2 62/66/2
f 57/67/2 56/61/2 76/62/2 77/68/2
f 50/69/2 49/63/2 69/64/2 70/70/2
f 43/71/2 42/65/2 62/66/2 63/72/2
f 58/73/2 57/67/2 77/68/2 78/74/2
f 51/75/2 50/76/2 70/77/2 71/78/2
f 44/79/2 43/71/2 63/72/2 64/80/2
f 59/81/2 58/73/2 78/74/2 79/82/2
f 52/83/2 51/75/2 71/78/2 72/84/2
f 45/85/2 44/79/2 64/80/2 65/86/2
f 60/87/2 59/81/2 79/82/2 80/88/2
f 53/46/2 52/83/2 72/84/2 73/47/2
f 46/50/2 45/85/2 65/86/2 66/51/2
f 100/89/2 120/90/2 119/91/2 99/92/2
f 84/93/2 113/94/2 112/95/2 85/96/2
f 91/97/2 106/98/2 105/99/2 92/100/2
f 83/101/2 114/102/2 113/94/2 84/93/2
f 90/103/2 107/104/2 106/98/2 91/97/2
f 82/105/2 115/106/2 114/102/2 83/101/2
f 89/107/2 108/108/2 107/104/2 90/103/2
f 96/109/2 101/110/2 120/111/2 100/112/2
f 81/113/2 116/114/2 115/106/2 82/105/2
f 88/115/2 109/116/2 108/108/2 89/107/2
f 95/117/2 102/118/2 101/110/2 96/109/2
f 97/119/2 117/120/2 116/114/2 81/113/2
f 87/121/2 110/122/2 109/116/2 88/115/2
f 94/123/2 103/124/2 102/118/2 95/117/2
f 98/125/2 118/126/2 117/120/2 97/119/2
f 86/127/2 111/128/2 110/129/2 87/130/2
f 93/131/2 104/132/2 103/124/2 94/123/2
f 99/92/2 119/91/2 118/126/2 98/125/2
f 85/96/2 112/95/2 111/128/2 86/127/2
f 92/100/2 105/99/2 104/132/2 93/131/2
f 134/133/1 154/134/1 153/135/1 133/136/1
f 127/137/1 147/138/1 146/139/1 126/140/1
f 135/141/1 155/142/1 154/134/1 134/133/1
f 128/143/1 148/144/1 147/138/1 127/137/1
f 121/145/1 141/146/1 160/147/1 140/148/1
f 136/149/1 156/150/1 155/142/1 135/141/1
f 129/151/1 149/152/1 148/144/1 128/143/1
f 122/153/1 142/154/1 141/146/1 121/145/1
f 137/155/1 157/156/1 156/150/1 136/149/1
f 130/157/1 150/158/1 149/152/1 129/151/1
f 123/159/1 143/160/1 142/154/1 122/153/1
f 138/161/1 158/162/1 157/156/1 137/155/1
f 131/163/1 151/164/1 150/165/1 130/166/1
f 124/167/1 144/168/1 143/160/1 123/159/1
f 139/169/1 159/170/1 158/162/1 138/161/1
f 132/171/1 152/172/1 151/164/1 131/163/1
f 125/173/1 145/174/1 144/168/1 124/167/1
f 140/175/1 160/176/1 159/170/1 139/169/1
f 133/136/1 153/135/1 152/172/1 132/171/1
f 126/140/1 146/139/1 145/174/1 125/173/1
s 1
f 96/177/3 100/178/4 20/179/5 1/180/6
f 81/181/7 82/182/8 15/183/9 16/184/10
f 88/185/11 89/186/12 8/187/13 9/188/14
f 95/189/15 96/177/3 1/180/6 2/190/16
f 97/191/17 81/181/7 16/184/10 17/192/18
f 87/193/19 88/185/11 9/188/14 10/194/20
f 94/195/21 95/189/15 2/190/16 3/196/22
f 98/197/23 97/191/17 17/192/18 18/198/24
f 86/199/25 87/200/19 10/201/20 11/202/26
f 93/203/27 94/195/21 3/196/22 4/204/28
f 99/205/29 98/197/23 18/198/24 19/206/30
f 85/207/31 86/199/25 11/202/26 12/208/32
f 92/209/33 93/203/27 4/204/28 5/210/34
f 100/211/4 99/205/29 19/206/30 20/212/5
f 84/213/35 85/207/31 12/208/32 13/214/36
f 91/215/37 92/209/33 5/210/34 6/216/38
f 83/217/39 84/213/35 13/214/36 14/218/40
f 90/219/41 91/215/37 6/216/38 7/220/42
f 82/182/8 83/217/39 14/218/40 15/183/9
f 89/186/12 90/219/41 7/220/42 8/187/13
f 37/221/43 36/222/44 56/223/45 57/224/46
f 30/225/47 29/226/48 49/227/49 50/228/50
f 23/229/51 22/230/52 42/231/53 43/232/54
f 38/233/55 37/221/43 57/224/46 58/234/56
f 31/235/57 30/236/47 50/237/50 51/238/58
f 24/239/59 23/229/51 43/232/54 44/240/60
f 39/241/61 38/233/55 58/234/56 59/242/62
f 32/243/63 31/235/57 51/238/58 52/244/64
f 25/245/65 24/239/59 44/240/60 45/246/66
f 40/247/67 39/241/61 59/242/62 60/248/68
f 33/249/69 32/243/63 52/244/64 53/250/70
f 26/251/71 25/245/65 45/246/66 46/252/72
f 34/253/73 33/249/69 53/250/70 54/254/74
f 27/255/75 26/251/71 46/252/72 47/256/76
f 35/257/77 34/253/73 54/254/74 55/258/78
f 28/259/79 27/255/75 47/256/76 48/260/80
f 21/261/81 40/262/67 60/263/68 41/264/82
f 36/222/44 35/257/77 55/258/78 56/223/45
f 29/226/48 28/259/79 48/260/80 49/227/49
f 22/230/52 21/261/81 41/264/82 42/231/53
f 117/265/46 137/266/43 136/267/44 116/268/45
f 110/269/50 130/270/47 129/271/48 109/272/49
f 103/273/54 123/274/51 122/275/52 102/276/53
f 118/277/56 138/278/55 137/266/43 117/265/46
f 111/279/58 131/280/57 130/281/47 110/282/50
f 104/283/60 124/284/59 123/274/51 103/273/54
f 119/285/62 139/286/61 138/278/55 118/277/56
f 112/287/64 132/288/63 131/280/57 111/279/58
f 105/289/66 125/290/65 124/284/59 104/283/60
f 120/291/68 140/292/67 139/286/61 119/285/62
f 113/293/70 133/294/69 132/288/63 112/287/64
f 106/295/72 126/296/71 125/290/65 105/289/66
f 114/297/74 134/298/73 133/294/69 113/293/70
f 107/299/76 127/300/75 126/296/71 106/295/72
f 115/301/78 135/302/77 134/298/73 114/297/74
f 108/303/80 128/304/79 127/300/75 107/299/76
f 101/305/82 121/306/81 140/307/67 120/308/68
f 116/268/45 136/267/44 135/302/77 115/301/78
f 109/272/49 129/271/48 128/304/79 108/303/80
f 102/276/53 122/275/52 121/306/81 101/305/82
