# Blender v2.82 (sub 7) OBJ File: 'pipe4_collider.blend'
# www.blender.org
mtllib pipe4connection_collider.mtl
o object_static_pipe4Connection_Cylinder.008
v -1.707214 3.163814 -0.866081
v -2.613724 2.701926 -0.866081
v -3.333135 1.982517 -0.866081
v -3.795025 1.076009 -0.866082
v -3.954182 0.071135 -0.866082
v -3.795027 -0.933738 -0.866082
v -3.333138 -1.840247 -0.866082
v -2.613729 -2.559657 -0.866082
v -1.707220 -3.021548 -0.866082
v -0.702347 -3.180705 -0.866082
v 0.302526 -3.021549 -0.866082
v 1.209036 -2.559659 -0.866082
v 1.928445 -1.840249 -0.866082
v 2.390335 -0.933741 -0.866082
v 2.549491 0.071132 -0.866082
v 2.390335 1.076005 -0.866082
v 1.928445 1.982514 -0.866081
v 1.209036 2.701923 -0.866081
v 0.302527 3.163813 -0.866081
v -0.702346 3.322969 -0.866081
v -1.611974 2.870693 -0.866081
v -2.432565 2.452581 -0.866081
v -3.083791 1.801358 -0.866081
v -3.501904 0.980767 -0.866082
v -3.645976 0.071135 -0.866082
v -3.501905 -0.838497 -0.866082
v -3.083794 -1.659088 -0.866082
v -2.432570 -2.310313 -0.866082
v -1.611979 -2.728426 -0.866082
v -0.702347 -2.872498 -0.866082
v 0.207285 -2.728427 -0.866082
v 1.027877 -2.310314 -0.866082
v 1.679101 -1.659090 -0.866082
v 2.097213 -0.838500 -0.866082
v 2.241285 0.071132 -0.866082
v 2.097214 0.980764 -0.866082
v 1.679101 1.801355 -0.866081
v 1.027877 2.452579 -0.866081
v 0.207286 2.870692 -0.866081
v -0.702346 3.014763 -0.866081
v -1.707214 3.163814 0.960654
v -2.613724 2.701926 0.960654
v -3.333135 1.982517 0.960654
v -3.795025 1.076009 0.960654
v -3.954182 0.071135 0.960654
v -3.795027 -0.933738 0.960654
v -3.333138 -1.840247 0.960654
v -2.613729 -2.559657 0.960654
v -1.707220 -3.021548 0.960654
v -0.702347 -3.180705 0.960654
v 0.302526 -3.021549 0.960654
v 1.209036 -2.559659 0.960654
v 1.928445 -1.840249 0.960654
v 2.390335 -0.933741 0.960654
v 2.549491 0.071132 0.960654
v 2.390335 1.076005 0.960654
v 1.928445 1.982514 0.960654
v 1.209036 2.701923 0.960654
v 0.302527 3.163813 0.960654
v -0.702346 3.322969 0.960654
v -1.611974 2.870693 0.960654
v -2.432565 2.452581 0.960654
v -3.083791 1.801358 0.960654
v -3.501904 0.980767 0.960654
v -3.645976 0.071135 0.960654
v -3.501905 -0.838497 0.960654
v -3.083794 -1.659088 0.960654
v -2.432570 -2.310313 0.960654
v -1.611979 -2.728426 0.960654
v -0.702347 -2.872498 0.960654
v 0.207285 -2.728427 0.960654
v 1.027877 -2.310314 0.960654
v 1.679101 -1.659090 0.960654
v 2.097213 -0.838500 0.960654
v 2.241285 0.071132 0.960654
v 2.097214 0.980764 0.960654
v 1.679101 1.801355 0.960654
v 1.027877 2.452579 0.960654
v 0.207286 2.870692 0.960654
v -0.702346 3.014763 0.960654
vt 0.469684 0.321589
vt 0.437050 0.385638
vt 0.419433 0.372838
vt 0.448974 0.314860
vt 0.064048 0.385929
vt 0.031414 0.321880
vt 0.052124 0.315151
vt 0.081666 0.373129
vt 0.480929 0.250591
vt 0.459153 0.250591
vt 0.114878 0.436758
vt 0.127677 0.419141
vt 0.178926 0.032371
vt 0.249924 0.021126
vt 0.249924 0.042902
vt 0.185655 0.053081
vt 0.469684 0.179592
vt 0.448974 0.186322
vt 0.178926 0.469392
vt 0.185656 0.448682
vt 0.114877 0.065005
vt 0.127677 0.082622
vt 0.437050 0.115544
vt 0.419433 0.128343
vt 0.249925 0.480638
vt 0.249925 0.458862
vt 0.064048 0.115835
vt 0.081665 0.128634
vt 0.386220 0.064715
vt 0.373421 0.082332
vt 0.322172 0.469102
vt 0.251173 0.480347
vt 0.251173 0.458571
vt 0.315443 0.448392
vt 0.031414 0.179883
vt 0.052124 0.186612
vt 0.322172 0.032080
vt 0.315443 0.052791
vt 0.386221 0.436467
vt 0.373421 0.418850
vt 0.020169 0.250882
vt 0.041945 0.250882
vt 0.251173 0.020835
vt 0.251173 0.042611
vt 0.506335 0.656357
vt 0.506335 0.785423
vt 0.434451 0.785424
vt 0.434451 0.656357
vt 0.003116 0.791736
vt 0.003160 0.662669
vt 0.075044 0.662694
vt 0.074999 0.791761
vt 0.506301 0.791908
vt 0.506345 0.662842
vt 0.578229 0.662867
vt 0.578184 0.791933
vt 0.578218 0.656357
vt 0.578218 0.785423
vt 0.075034 0.656357
vt 0.075034 0.785424
vt 0.003150 0.785424
vt 0.003150 0.656357
vt 0.434417 0.791884
vt 0.434462 0.662818
vt 0.650102 0.656357
vt 0.650102 0.785423
vt 0.146917 0.656357
vt 0.146917 0.785424
vt 0.362534 0.791860
vt 0.362578 0.662793
vt 0.721985 0.656357
vt 0.721985 0.785423
vt 0.218801 0.656357
vt 0.218801 0.785424
vt 0.290650 0.791835
vt 0.290695 0.662768
vt 0.290684 0.656357
vt 0.290684 0.785424
vt 0.218767 0.791810
vt 0.218811 0.662743
vt 0.362568 0.656357
vt 0.362568 0.785424
vt 0.146883 0.791786
vt 0.146927 0.662719
vt 0.650067 0.791959
vt 0.650112 0.662892
vt 0.721995 0.662917
vt 0.721951 0.791983
vt 0.969143 0.178156
vt 0.948433 0.184885
vt 0.918891 0.126907
vt 0.936509 0.114107
vt 0.562583 0.114108
vt 0.580200 0.126908
vt 0.550659 0.184886
vt 0.529948 0.178157
vt 0.980388 0.249154
vt 0.958612 0.249154
vt 0.613412 0.063279
vt 0.626212 0.080896
vt 0.677462 0.467666
vt 0.684191 0.446956
vt 0.748460 0.457135
vt 0.748460 0.478911
vt 0.969143 0.320153
vt 0.948433 0.313424
vt 0.677461 0.030644
vt 0.684190 0.051354
vt 0.613413 0.435032
vt 0.626212 0.417415
vt 0.936509 0.384202
vt 0.918892 0.371402
vt 0.748459 0.019399
vt 0.748459 0.041175
vt 0.562583 0.384203
vt 0.580200 0.371403
vt 0.885680 0.435031
vt 0.872880 0.417414
vt 0.821631 0.030644
vt 0.814902 0.051354
vt 0.750632 0.041175
vt 0.750632 0.019399
vt 0.529949 0.320154
vt 0.550659 0.313425
vt 0.821631 0.467666
vt 0.814902 0.446956
vt 0.885679 0.063278
vt 0.872880 0.080895
vt 0.518703 0.249155
vt 0.540480 0.249155
vt 0.750632 0.478911
vt 0.750632 0.457135
vn -0.0000 0.0000 -1.0000
vn 0.8910 0.4540 0.0000
vn -0.1564 -0.9877 0.0000
vn -0.7071 0.7071 0.0000
vn 0.7071 0.7071 0.0000
vn 0.1564 -0.9877 0.0000
vn -0.8910 0.4540 0.0000
vn 0.4540 0.8910 0.0000
vn 0.4540 -0.8910 0.0000
vn -0.9877 0.1564 0.0000
vn 0.1564 0.9877 0.0000
vn 0.7071 -0.7071 0.0000
vn -0.9877 -0.1564 0.0000
vn 0.8910 -0.4540 0.0000
vn -0.8910 -0.4540 0.0000
vn 0.9877 -0.1564 0.0000
vn -0.7071 -0.7071 0.0000
vn -0.1564 0.9877 0.0000
vn 0.9877 0.1564 0.0000
vn -0.4540 -0.8910 0.0000
vn -0.4540 0.8910 0.0000
vn -0.0000 -0.0000 1.0000
usemtl None
s off
f 14/1/1 13/2/1 33/3/1 34/4/1
f 7/5/1 6/6/1 26/7/1 27/8/1
f 15/9/1 14/1/1 34/4/1 35/10/1
f 8/11/1 7/5/1 27/8/1 28/12/1
f 1/13/1 20/14/1 40/15/1 21/16/1
f 16/17/1 15/9/1 35/10/1 36/18/1
f 9/19/1 8/11/1 28/12/1 29/20/1
f 2/21/1 1/13/1 21/16/1 22/22/1
f 17/23/1 16/17/1 36/18/1 37/24/1
f 10/25/1 9/19/1 29/20/1 30/26/1
f 3/27/1 2/21/1 22/22/1 23/28/1
f 18/29/1 17/23/1 37/24/1 38/30/1
f 11/31/1 10/32/1 30/33/1 31/34/1
f 4/35/1 3/27/1 23/28/1 24/36/1
f 19/37/1 18/29/1 38/30/1 39/38/1
f 12/39/1 11/31/1 31/34/1 32/40/1
f 5/41/1 4/35/1 24/36/1 25/42/1
f 20/43/1 19/37/1 39/38/1 40/44/1
f 13/2/1 12/39/1 32/40/1 33/3/1
f 6/6/1 5/41/1 25/42/1 26/7/1
f 17/45/2 57/46/2 56/47/2 16/48/2
f 10/49/3 50/50/3 49/51/3 9/52/3
f 3/53/4 43/54/4 42/55/4 2/56/4
f 18/57/5 58/58/5 57/46/5 17/45/5
f 11/59/6 51/60/6 50/61/6 10/62/6
f 4/63/7 44/64/7 43/54/7 3/53/7
f 19/65/8 59/66/8 58/58/8 18/57/8
f 12/67/9 52/68/9 51/60/9 11/59/9
f 5/69/10 45/70/10 44/64/10 4/63/10
f 20/71/11 60/72/11 59/66/11 19/65/11
f 13/73/12 53/74/12 52/68/12 12/67/12
f 6/75/13 46/76/13 45/70/13 5/69/13
f 14/77/14 54/78/14 53/74/14 13/73/14
f 7/79/15 47/80/15 46/76/15 6/75/15
f 15/81/16 55/82/16 54/78/16 14/77/16
f 8/83/17 48/84/17 47/80/17 7/79/17
f 1/85/18 41/86/18 60/87/18 20/88/18
f 16/48/19 56/47/19 55/82/19 15/81/19
f 9/52/20 49/51/20 48/84/20 8/83/20
f 2/56/21 42/55/21 41/86/21 1/85/21
f 54/89/22 74/90/22 73/91/22 53/92/22
f 47/93/22 67/94/22 66/95/22 46/96/22
f 55/97/22 75/98/22 74/90/22 54/89/22
f 48/99/22 68/100/22 67/94/22 47/93/22
f 41/101/22 61/102/22 80/103/22 60/104/22
f 56/105/22 76/106/22 75/98/22 55/97/22
f 49/107/22 69/108/22 68/100/22 48/99/22
f 42/109/22 62/110/22 61/102/22 41/101/22
f 57/111/22 77/112/22 76/106/22 56/105/22
f 50/113/22 70/114/22 69/108/22 49/107/22
f 43/115/22 63/116/22 62/110/22 42/109/22
f 58/117/22 78/118/22 77/112/22 57/111/22
f 51/119/22 71/120/22 70/121/22 50/122/22
f 44/123/22 64/124/22 63/116/22 43/115/22
f 59/125/22 79/126/22 78/118/22 58/117/22
f 52/127/22 72/128/22 71/120/22 51/119/22
f 45/129/22 65/130/22 64/124/22 44/123/22
f 60/131/22 80/132/22 79/126/22 59/125/22
f 53/92/22 73/91/22 72/128/22 52/127/22
f 46/96/22 66/95/22 65/130/22 45/129/22
