# Blender v2.79 (sub 0) OBJ File: 'wallPillar.blend'
# www.blender.org
mtllib wallPillar.mtl
o object_static_sewerPillarWall_Cube.335
v 9.508197 -3.778483 -0.485354
v 9.952071 -3.778483 -0.485354
v 9.952071 -3.778483 0.714646
v 9.508197 -3.778483 0.714646
v 9.508197 -3.778483 -0.351026
v 9.508197 -3.778483 0.580319
v 9.678640 -3.778483 -0.351026
v 9.678640 -3.778483 0.580319
v 9.952071 -3.778483 -0.685354
v 9.952071 -3.960590 -0.685354
v 9.308197 -3.778483 -0.685354
v 9.308197 -3.960590 -0.685354
v 9.952071 -3.778483 0.914646
v 9.952071 -3.960590 0.914646
v 9.308197 -3.778483 0.914646
v 9.308197 -3.960590 0.914646
v 9.508197 9.578650 -0.485354
v 9.952071 9.578650 -0.485354
v 9.952071 9.578650 0.714646
v 9.508197 9.578650 0.714646
v 9.508197 9.578650 -0.351026
v 9.508197 9.578650 0.580319
v 9.678640 9.578650 -0.351026
v 9.678640 9.578650 0.580319
v 9.952071 9.578650 -0.685354
v 9.952071 9.760756 -0.685354
v 9.308197 9.578650 -0.685354
v 9.308197 9.760756 -0.685354
v 9.952071 9.578650 0.914646
v 9.952071 9.760756 0.914646
v 9.308197 9.578650 0.914646
v 9.308197 9.760756 0.914646
v -9.807740 9.760756 -0.595911
v 9.752075 9.760756 -0.595898
v 9.752073 9.760756 0.825188
v -9.807740 9.760756 0.825175
v 9.752074 9.760756 0.627575
v 9.752074 9.760756 -0.398285
v -9.807740 9.760756 0.627562
v -9.807740 9.760756 -0.398298
v 9.752074 9.868741 0.627575
v 9.752074 9.868741 -0.398285
v -9.807740 9.868741 0.627562
v -9.807740 9.868741 -0.398298
v -9.807740 10.335290 0.825175
v 9.752073 10.335290 0.825188
v 9.752075 10.335290 -0.595898
v -9.807740 10.335290 -0.595911
v -9.563855 -3.778483 -0.485354
v -10.007730 -3.778483 -0.485354
v -10.007730 -3.778483 0.714646
v -9.563855 -3.778483 0.714646
v -9.563855 -3.778483 -0.351026
v -9.563855 -3.778483 0.580319
v -9.734300 -3.778483 -0.351026
v -9.734300 -3.778483 0.580319
v -10.007730 -3.778483 -0.685354
v -10.007730 -3.960590 -0.685354
v -9.363854 -3.778483 -0.685354
v -9.363854 -3.960590 -0.685354
v -10.007730 -3.778483 0.914647
v -10.007730 -3.960590 0.914647
v -9.363854 -3.778483 0.914646
v -9.363854 -3.960590 0.914646
v -9.563855 9.578650 -0.485354
v -10.007730 9.578650 -0.485354
v -10.007730 9.578650 0.714646
v -9.563855 9.578650 0.714646
v -9.563855 9.578650 -0.351026
v -9.563855 9.578650 0.580319
v -9.734300 9.578650 -0.351026
v -9.734300 9.578650 0.580319
v -10.007730 9.578650 -0.685354
v -10.007730 9.760756 -0.685354
v -9.363854 9.578650 -0.685354
v -9.363854 9.760756 -0.685354
v -10.007730 9.578650 0.914647
v -10.007730 9.760756 0.914647
v -9.363854 9.578650 0.914646
v -9.363854 9.760756 0.914646
vt 0.401894 0.260111
vt 0.354528 0.260111
vt 0.337525 0.249939
vt 0.418897 0.249939
vt 0.401894 0.268779
vt 0.354528 0.268779
vt 0.347697 0.260111
vt 0.418900 0.287950
vt 0.418897 0.297211
vt 0.337525 0.297183
vt 0.337528 0.287922
vt 0.408726 0.260111
vt 0.337525 0.244703
vt 0.337525 0.211957
vt 0.418897 0.211957
vt 0.418897 0.244703
vt 0.408726 0.282685
vt 0.418897 0.282685
vt 0.347697 0.158567
vt 0.337525 0.168738
vt 0.337525 0.135992
vt 0.347697 0.135992
vt 0.370271 0.384199
vt 0.337525 0.384199
vt 0.337525 0.374937
vt 0.370271 0.374937
vt 0.275332 0.640922
vt 0.265194 0.640874
vt 0.265194 0.060028
vt 0.275332 0.060075
vt 0.102586 0.060028
vt 0.102587 0.739338
vt 0.055221 0.739338
vt 0.055221 0.060028
vt 0.249820 0.060028
vt 0.259958 0.060075
vt 0.259958 0.640922
vt 0.249820 0.640874
vt 0.289574 0.060028
vt 0.289568 0.575678
vt 0.280569 0.575730
vt 0.280575 0.060080
vt 0.303817 0.060028
vt 0.303811 0.575677
vt 0.294811 0.575730
vt 0.294817 0.060080
vt 0.186019 0.060028
vt 0.186019 0.739337
vt 0.163445 0.739337
vt 0.163445 0.060028
vt 0.401894 0.158567
vt 0.418897 0.168738
vt 0.354528 0.158567
vt 0.401894 0.149898
vt 0.354528 0.149898
vt 0.418897 0.340705
vt 0.337525 0.340705
vt 0.337525 0.331443
vt 0.418897 0.331443
vt 0.408726 0.158567
vt 0.408726 0.135992
vt 0.418897 0.135992
vt 0.408253 0.389435
vt 0.408253 0.398697
vt 0.375507 0.398697
vt 0.375507 0.389435
vt 0.130397 0.060028
vt 0.130397 0.739337
vt 0.107823 0.739337
vt 0.107823 0.060028
vt 0.347697 0.282685
vt 0.337525 0.282685
vt 0.375507 0.384199
vt 0.375507 0.374937
vt 0.408253 0.374937
vt 0.408253 0.384199
vt 0.337525 0.389435
vt 0.370271 0.389435
vt 0.370271 0.398697
vt 0.337525 0.398697
vt 0.778626 0.724330
vt 0.219143 0.724331
vt 0.219066 0.714566
vt 0.778549 0.714566
vt 0.002618 0.054791
vt 0.002618 0.002618
vt 0.997382 0.002619
vt 0.997382 0.054791
vt 0.219066 0.729573
vt 0.778549 0.729567
vt 0.778626 0.739332
vt 0.219143 0.739337
vt 0.002618 0.826696
vt 0.002715 0.813487
vt 0.759580 0.813487
vt 0.759483 0.826696
vt 0.002618 0.845142
vt 0.002715 0.831933
vt 0.759580 0.831932
vt 0.759483 0.845142
vt 0.997378 0.779031
vt 0.997379 0.808250
vt 0.002618 0.808250
vt 0.002618 0.779031
vt 0.002618 0.773794
vt 0.002618 0.744575
vt 0.997379 0.744575
vt 0.997379 0.773794
vt 0.401894 0.082602
vt 0.418897 0.092773
vt 0.337525 0.092773
vt 0.354528 0.082602
vt 0.401894 0.073933
vt 0.354528 0.073933
vt 0.347697 0.082602
vt 0.418897 0.311709
vt 0.337525 0.311709
vt 0.337525 0.302448
vt 0.418897 0.302448
vt 0.408726 0.082602
vt 0.408726 0.060028
vt 0.418897 0.060028
vt 0.347697 0.108182
vt 0.347697 0.130756
vt 0.337525 0.130756
vt 0.337525 0.098010
vt 0.337525 0.355203
vt 0.337525 0.345941
vt 0.370271 0.345941
vt 0.370271 0.355203
vt 0.234446 0.640909
vt 0.234445 0.060069
vt 0.244583 0.060028
vt 0.244584 0.640868
vt 0.002618 0.060028
vt 0.049984 0.060028
vt 0.049984 0.739338
vt 0.002618 0.739338
vt 0.229204 0.060028
vt 0.229209 0.640868
vt 0.219071 0.640910
vt 0.219066 0.060069
vt 0.309053 0.060028
vt 0.318053 0.060094
vt 0.318053 0.575758
vt 0.309053 0.575692
vt 0.323289 0.060028
vt 0.332289 0.060094
vt 0.332289 0.575758
vt 0.323289 0.575692
vt 0.191256 0.060028
vt 0.213830 0.060028
vt 0.213830 0.739337
vt 0.191256 0.739337
vt 0.401894 0.108181
vt 0.354528 0.108182
vt 0.418897 0.098010
vt 0.401894 0.116850
vt 0.354528 0.116850
vt 0.418897 0.316946
vt 0.418897 0.326207
vt 0.337525 0.326207
vt 0.337525 0.316946
vt 0.408725 0.108181
vt 0.337525 0.173975
vt 0.418897 0.173975
vt 0.418897 0.206721
vt 0.337525 0.206721
vt 0.408726 0.130756
vt 0.418897 0.130756
vt 0.375507 0.360439
vt 0.408253 0.360439
vt 0.408253 0.369701
vt 0.375507 0.369701
vt 0.135634 0.060028
vt 0.158208 0.060028
vt 0.158208 0.739337
vt 0.135634 0.739337
vt 0.337525 0.060028
vt 0.347697 0.060028
vt 0.408253 0.355203
vt 0.375507 0.355203
vt 0.375507 0.345941
vt 0.408253 0.345941
vt 0.370271 0.360439
vt 0.370271 0.369701
vt 0.337525 0.369701
vt 0.337525 0.360439
vn 0.0000 1.0000 0.0000
vn -1.0000 0.0000 0.0000
vn 0.0000 -1.0000 0.0000
vn 0.0000 0.0000 1.0000
vn 0.0000 0.0000 -1.0000
vn 1.0000 0.0000 0.0000
usemtl Material.001
s off
f 6/1/1 5/2/1 11/3/1 15/4/1
f 8/5/1 7/6/1 5/2/1 6/1/1
f 5/2/1 1/7/1 11/3/1
f 16/8/2 15/9/2 11/10/2 12/11/2
f 4/12/1 6/1/1 15/4/1
f 26/13/1 28/14/1 32/15/1 30/16/1
f 3/17/1 4/12/1 15/4/1 13/18/1
f 17/19/3 27/20/3 25/21/3 18/22/3
f 13/23/4 15/24/4 16/25/4 14/26/4
f 22/27/5 24/28/5 8/29/5 6/30/5
f 8/31/2 24/32/2 23/33/2 7/34/2
f 5/35/4 7/36/4 23/37/4 21/38/4
f 4/39/2 20/40/2 22/41/2 6/42/2
f 5/43/2 21/44/2 17/45/2 1/46/2
f 3/47/4 19/48/4 20/49/4 4/50/4
f 22/51/3 31/52/3 27/20/3 21/53/3
f 24/54/3 22/51/3 21/53/3 23/55/3
f 21/53/3 27/20/3 17/19/3
f 32/56/2 28/57/2 27/58/2 31/59/2
f 20/60/3 31/52/3 22/51/3
f 19/61/3 29/62/3 31/52/3 20/60/3
f 29/63/4 30/64/4 32/65/4 31/66/4
f 1/67/5 17/68/5 18/69/5 2/70/5
f 1/7/1 2/71/1 9/72/1 11/3/1
f 27/73/5 28/74/5 26/75/5 25/76/5
f 11/77/5 9/78/5 10/79/5 12/80/5
f 37/81/5 39/82/5 43/83/5 41/84/5
f 43/85/3 44/86/3 42/87/3 41/88/3
f 40/89/4 38/90/4 42/91/4 44/92/4
f 36/93/3 39/94/3 37/95/3 35/96/3
f 40/97/3 33/98/3 34/99/3 38/100/3
f 35/101/4 46/102/4 45/103/4 36/104/4
f 33/105/5 48/106/5 47/107/5 34/108/5
f 54/109/1 63/110/1 59/111/1 53/112/1
f 56/113/1 54/109/1 53/112/1 55/114/1
f 53/112/1 59/111/1 49/115/1
f 64/116/6 60/117/6 59/118/6 63/119/6
f 52/120/1 63/110/1 54/109/1
f 51/121/1 61/122/1 63/110/1 52/120/1
f 65/123/3 66/124/3 73/125/3 75/126/3
f 61/127/4 62/128/4 64/129/4 63/130/4
f 70/131/5 54/132/5 56/133/5 72/134/5
f 56/135/6 55/136/6 71/137/6 72/138/6
f 53/139/4 69/140/4 71/141/4 55/142/4
f 52/143/6 54/144/6 70/145/6 68/146/6
f 53/147/6 49/148/6 65/149/6 69/150/6
f 51/151/4 52/152/4 68/153/4 67/154/4
f 70/155/3 69/156/3 75/126/3 79/157/3
f 72/158/3 71/159/3 69/156/3 70/155/3
f 69/156/3 65/123/3 75/126/3
f 80/160/6 79/161/6 75/162/6 76/163/6
f 68/164/3 70/155/3 79/157/3
f 74/165/1 78/166/1 80/167/1 76/168/1
f 67/169/3 68/164/3 79/157/3 77/170/3
f 77/171/4 79/172/4 80/173/4 78/174/4
f 49/175/5 50/176/5 66/177/5 65/178/5
f 49/115/1 59/111/1 57/179/1 50/180/1
f 75/181/5 73/182/5 74/183/5 76/184/5
f 59/185/5 60/186/5 58/187/5 57/188/5
