# Blender v2.82 (sub 7) OBJ File: 'railing_intersec2_collider.blend'
# www.blender.org
mtllib railing_intersec2_collider.mtl
o object_static_railing_Cube.001
v -0.490897 1.131810 5.972071
v -0.436735 1.225620 12.052239
v -0.436735 1.037999 5.972071
v -0.328411 1.225620 12.052239
v -0.328412 1.037999 5.972071
v -0.274249 1.131809 12.052239
v -0.274250 1.131810 5.972071
v -0.328411 1.037998 12.052239
v -0.328412 1.225621 5.972071
v -0.436735 1.037998 12.052239
v -0.436735 1.225621 5.972071
v -0.490896 1.131809 12.052239
v -0.490897 3.182075 5.972071
v -0.436734 3.275885 12.052239
v -0.436735 3.088264 5.972071
v -0.328411 3.275885 12.052239
v -0.328412 3.088264 5.972071
v -0.274249 3.182074 12.052239
v -0.274250 3.182075 5.972071
v -0.328411 3.088263 12.052239
v -0.328412 3.275885 5.972071
v -0.436735 3.088263 12.052239
v -0.436735 3.275885 5.972071
v -0.490896 3.182074 12.052239
v -0.108926 -2.299437 12.324018
v -0.656219 -2.255569 12.324018
v -0.147087 -2.255569 18.152346
v -0.147087 -2.255569 18.471985
v -0.108926 -2.255569 12.324018
v -0.108926 -2.255569 11.900316
v -0.618058 -2.255569 12.271986
v -0.618058 3.423999 12.271986
v -0.618058 3.423999 11.952348
v -0.618058 -2.255569 11.952348
v -0.108926 -2.255569 18.100313
v -0.108926 -2.255569 18.524015
v -0.108926 -2.299437 18.100313
v -0.108926 -2.299437 18.524015
v -0.147087 3.423999 18.152346
v -0.147087 3.423999 18.471985
v -0.108926 -2.299437 11.900316
v -0.656219 -2.255569 11.900316
v -0.618058 -2.255569 18.152346
v -0.618058 -2.255569 18.471985
v -0.147087 -2.255569 12.271986
v -0.147087 -2.255569 11.952348
v -0.147087 3.423999 12.271986
v -0.656219 -2.299437 12.324018
v -0.656219 -2.299437 11.900316
v -0.147087 3.423999 11.952348
v -0.656219 -2.255569 18.100313
v -0.656219 -2.255569 18.524015
v -0.656219 -2.299437 18.100313
v -0.656219 -2.299437 18.524015
v -0.618058 3.423999 18.152346
v -0.618058 3.423999 18.471985
v -0.490896 3.182074 18.252249
v -0.436735 3.275885 12.172080
v -0.436735 3.088263 18.252249
v -0.328412 3.275885 12.172080
v -0.328411 3.088263 18.252249
v -0.274250 3.182075 12.172080
v -0.274249 3.182074 18.252249
v -0.328412 3.088264 12.172080
v -0.328411 3.275885 18.252249
v -0.436735 3.088264 12.172080
v -0.436734 3.275885 18.252249
v -0.490897 3.182075 12.172080
v -0.490896 1.131809 18.252249
v -0.436735 1.225621 12.172080
v -0.436735 1.037998 18.252249
v -0.328412 1.225621 12.172080
v -0.328411 1.037998 18.252249
v -0.274250 1.131810 12.172080
v -0.274249 1.131809 18.252249
v -0.328412 1.037999 12.172080
v -0.328411 1.225620 18.252249
v -0.436735 1.037999 12.172080
v -0.436735 1.225620 18.252249
v -0.490897 1.131810 12.172080
v -0.490897 1.131810 -0.227922
v -0.436735 1.225620 5.852248
v -0.436735 1.037999 -0.227922
v -0.328411 1.225620 5.852248
v -0.328412 1.037999 -0.227922
v -0.274249 1.131809 5.852248
v -0.274250 1.131810 -0.227922
v -0.328411 1.037998 5.852248
v -0.328412 1.225621 -0.227922
v -0.436735 1.037998 5.852248
v -0.436735 1.225621 -0.227922
v -0.490896 1.131809 5.852248
v -0.490897 3.182075 -0.227922
v -0.436734 3.275885 5.852248
v -0.436735 3.088264 -0.227922
v -0.328411 3.275885 5.852248
v -0.328412 3.088264 -0.227922
v -0.274249 3.182074 5.852248
v -0.274250 3.182075 -0.227922
v -0.328411 3.088263 5.852248
v -0.328412 3.275885 -0.227922
v -0.436735 3.088263 5.852248
v -0.436735 3.275885 -0.227922
v -0.490896 3.182074 5.852248
v -0.490897 1.131810 -6.427922
v -0.436735 1.225620 -0.347752
v -0.436735 1.037999 -6.427922
v -0.328411 1.225620 -0.347752
v -0.328412 1.037999 -6.427922
v -0.274249 1.131809 -0.347752
v -0.274250 1.131810 -6.427922
v -0.328411 1.037998 -0.347752
v -0.328412 1.225621 -6.427922
v -0.436735 1.037998 -0.347752
v -0.436735 1.225621 -6.427922
v -0.490896 1.131809 -0.347752
v -0.490897 3.182075 -6.427922
v -0.436734 3.275885 -0.347752
v -0.436735 3.088264 -6.427922
v -0.328411 3.275885 -0.347752
v -0.328412 3.088264 -6.427922
v -0.274249 3.182074 -0.347752
v -0.274250 3.182075 -6.427922
v -0.328411 3.088263 -0.347752
v -0.328412 3.275885 -6.427922
v -0.436735 3.088263 -0.347752
v -0.436735 3.275885 -6.427922
v -0.490896 3.182074 -0.347752
v -0.490897 1.131810 -12.627925
v -0.436735 1.225620 -6.547755
v -0.436735 1.037999 -12.627925
v -0.328411 1.225620 -6.547755
v -0.328412 1.037999 -12.627925
v -0.274249 1.131809 -6.547755
v -0.274250 1.131810 -12.627925
v -0.328411 1.037998 -6.547755
v -0.328412 1.225621 -12.627925
v -0.436735 1.037998 -6.547755
v -0.436735 1.225621 -12.627925
v -0.490896 1.131809 -6.547755
v -0.490897 3.182075 -12.627925
v -0.436734 3.275885 -6.547755
v -0.436735 3.088264 -12.627925
v -0.328411 3.275885 -6.547755
v -0.328412 3.088264 -12.627925
v -0.274249 3.182074 -6.547755
v -0.274250 3.182075 -12.627925
v -0.328411 3.088263 -6.547755
v -0.328412 3.275885 -12.627925
v -0.436735 3.088263 -6.547755
v -0.436735 3.275885 -12.627925
v -0.490896 3.182074 -6.547755
v -0.108926 -2.299437 6.124006
v -0.656219 -2.255569 6.124006
v -0.108926 -2.255569 6.124006
v -0.108926 -2.255569 5.700304
v -0.618058 -2.255569 6.071974
v -0.618058 3.423999 6.071974
v -0.618058 3.423999 5.752336
v -0.618058 -2.255569 5.752336
v -0.108926 -2.299437 5.700304
v -0.656219 -2.255569 5.700304
v -0.147087 -2.255569 6.071974
v -0.147087 -2.255569 5.752336
v -0.147087 3.423999 6.071974
v -0.656219 -2.299437 6.124006
v -0.656219 -2.299437 5.700304
v -0.147087 3.423999 5.752336
v -0.108926 -2.299437 -0.075987
v -0.656219 -2.255569 -0.075987
v -0.108926 -2.255569 -0.075987
v -0.108926 -2.255569 -0.499689
v -0.618058 -2.255569 -0.128018
v -0.618058 3.423999 -0.128018
v -0.618058 3.423999 -0.447657
v -0.618058 -2.255569 -0.447657
v -0.108926 -2.299437 -0.499689
v -0.656219 -2.255569 -0.499689
v -0.147087 -2.255569 -0.128018
v -0.147087 -2.255569 -0.447657
v -0.147087 3.423999 -0.128018
v -0.656219 -2.299437 -0.075987
v -0.656219 -2.299437 -0.499689
v -0.147087 3.423999 -0.447657
v -0.108926 -2.299437 -6.275988
v -0.656219 -2.255569 -6.275988
v -0.108926 -2.255569 -6.275988
v -0.108926 -2.255569 -6.699689
v -0.618058 -2.255569 -6.328019
v -0.618058 3.423999 -6.328019
v -0.618058 3.423999 -6.647658
v -0.618058 -2.255569 -6.647658
v -0.108926 -2.299437 -6.699689
v -0.656219 -2.255569 -6.699689
v -0.147087 -2.255569 -6.328019
v -0.147087 -2.255569 -6.647658
v -0.147087 3.423999 -6.328019
v -0.656219 -2.299437 -6.275988
v -0.656219 -2.299437 -6.699689
v -0.147087 3.423999 -6.647658
v -0.108926 -2.299437 -12.475988
v -0.656219 -2.255569 -12.475988
v -0.108926 -2.255569 -12.475988
v -0.108926 -2.255569 -12.899691
v -0.618058 -2.255569 -12.528020
v -0.618058 3.423999 -12.528020
v -0.618058 3.423999 -12.847659
v -0.618058 -2.255569 -12.847659
v -0.108926 -2.299437 -12.899691
v -0.656219 -2.255569 -12.899691
v -0.147087 -2.255569 -12.528020
v -0.147087 -2.255569 -12.847659
v -0.147087 3.423999 -12.528020
v -0.656219 -2.299437 -12.475988
v -0.656219 -2.299437 -12.899691
v -0.147087 3.423999 -12.847659
vt 0.000743 0.278718
vt 0.447294 0.278717
vt 0.447294 0.286673
vt 0.000743 0.286675
vt 0.000743 0.262806
vt 0.447294 0.262806
vt 0.447294 0.270762
vt 0.000743 0.270761
vt 0.000743 0.246892
vt 0.447294 0.246894
vt 0.447294 0.254850
vt 0.000743 0.254849
vt 0.000743 0.107169
vt 0.447294 0.107171
vt 0.447294 0.115126
vt 0.000743 0.115126
vt 0.447294 0.294629
vt 0.000743 0.294632
vt 0.000743 0.138995
vt 0.447294 0.138994
vt 0.447294 0.146949
vt 0.000743 0.146952
vt 0.000743 0.131038
vt 0.447294 0.131038
vt 0.447294 0.123082
vt 0.000743 0.123081
vt 0.000743 0.099212
vt 0.447294 0.099215
vt 0.288580 0.591451
vt 0.328777 0.591451
vt 0.316635 0.595273
vt 0.300723 0.595273
vt 0.364854 0.616414
vt 0.364854 0.639890
vt 0.330263 0.639890
vt 0.330263 0.616414
vt 0.530636 0.010159
vt 0.530636 0.013381
vt 0.490439 0.013381
vt 0.490439 0.010159
vt 0.255165 0.627279
vt 0.224046 0.627279
vt 0.224046 0.624057
vt 0.255165 0.624057
vt 0.647830 0.851587
vt 0.631918 0.851587
vt 0.631918 0.443785
vt 0.647830 0.443785
vt 0.488953 0.013381
vt 0.448756 0.013381
vt 0.448756 0.010159
vt 0.488953 0.010159
vt 0.630432 0.860929
vt 0.606956 0.860929
vt 0.606956 0.443785
vt 0.630432 0.443785
vt 0.325974 0.618749
vt 0.325974 0.595273
vt 0.328777 0.622571
vt 0.647830 0.851587
vt 0.631918 0.851587
vt 0.631918 0.443785
vt 0.647830 0.443785
vt 0.255165 0.627279
vt 0.224046 0.627279
vt 0.224046 0.624057
vt 0.255165 0.624057
vt 0.488953 0.013381
vt 0.448756 0.013381
vt 0.448756 0.010159
vt 0.488953 0.010159
vt 0.530636 0.010159
vt 0.530636 0.013381
vt 0.490439 0.013381
vt 0.490439 0.010159
vt 0.288580 0.622571
vt 0.300723 0.618749
vt 0.316635 0.618749
vt 0.328777 0.622571
vt 0.488953 0.013381
vt 0.448756 0.013381
vt 0.448756 0.010159
vt 0.488953 0.010159
vt 0.320376 0.628765
vt 0.320376 0.631987
vt 0.289257 0.631987
vt 0.289257 0.628765
vt 0.288580 0.622571
vt 0.300723 0.618749
vt 0.316635 0.618749
vt 0.878966 0.432909
vt 0.863054 0.432909
vt 0.863054 0.025106
vt 0.878966 0.025106
vt 0.291383 0.618749
vt 0.288580 0.591451
vt 0.291383 0.595273
vt 0.325974 0.618749
vt 0.325974 0.595273
vt 0.328777 0.591451
vt 0.630432 0.860929
vt 0.606956 0.860929
vt 0.606956 0.443785
vt 0.630432 0.443785
vt 0.288580 0.622571
vt 0.300723 0.618749
vt 0.316635 0.618749
vt 0.328777 0.622571
vt 0.495990 0.860929
vt 0.495990 0.443785
vt 0.519466 0.443785
vt 0.519466 0.860929
vt 0.291383 0.618749
vt 0.291383 0.595273
vt 0.320376 0.628765
vt 0.320376 0.631987
vt 0.289257 0.631987
vt 0.289257 0.628765
vt 0.530636 0.010159
vt 0.530636 0.013381
vt 0.490439 0.013381
vt 0.490439 0.010159
vt 0.647830 0.851587
vt 0.631918 0.851587
vt 0.631918 0.443785
vt 0.647830 0.443785
vt 0.255165 0.627279
vt 0.224046 0.627279
vt 0.224046 0.624057
vt 0.255165 0.624057
vt 0.495990 0.860929
vt 0.495990 0.443785
vt 0.519466 0.443785
vt 0.519466 0.860929
vt 0.878966 0.432909
vt 0.863054 0.432909
vt 0.863054 0.025106
vt 0.878966 0.025106
vt 0.364854 0.616414
vt 0.364854 0.639890
vt 0.330263 0.639890
vt 0.330263 0.616414
vt 0.316635 0.595273
vt 0.300723 0.595273
vt 0.000743 0.451741
vt 0.447308 0.451741
vt 0.447308 0.459697
vt 0.000743 0.459697
vt 0.000743 0.483565
vt 0.447308 0.483565
vt 0.447308 0.491521
vt 0.000743 0.491521
vt 0.000743 0.475609
vt 0.447308 0.475609
vt 0.447308 0.467653
vt 0.000743 0.467653
vt 0.000743 0.443785
vt 0.447308 0.443785
vt 0.000743 0.402519
vt 0.447308 0.402519
vt 0.447308 0.410475
vt 0.000743 0.410475
vt 0.000743 0.434343
vt 0.447308 0.434343
vt 0.447308 0.442299
vt 0.000743 0.442299
vt 0.000743 0.426387
vt 0.447308 0.426387
vt 0.447308 0.418431
vt 0.000743 0.418431
vt 0.000743 0.394563
vt 0.447308 0.394563
vt 0.000743 0.327942
vt 0.447308 0.327942
vt 0.447308 0.335898
vt 0.000743 0.335898
vt 0.000743 0.312030
vt 0.447308 0.312030
vt 0.447308 0.319986
vt 0.000743 0.319986
vt 0.000743 0.296118
vt 0.447308 0.296118
vt 0.447308 0.304074
vt 0.000743 0.304074
vt 0.000743 0.500963
vt 0.447308 0.500963
vt 0.447308 0.508919
vt 0.000743 0.508919
vt 0.447308 0.343854
vt 0.000743 0.343854
vt 0.000743 0.532787
vt 0.447308 0.532787
vt 0.447308 0.540743
vt 0.000743 0.540743
vt 0.000743 0.524831
vt 0.447308 0.524831
vt 0.447308 0.516875
vt 0.000743 0.516875
vt 0.000743 0.493007
vt 0.447308 0.493007
vt 0.000743 0.377165
vt 0.447308 0.377164
vt 0.447308 0.385120
vt 0.000743 0.385121
vt 0.000743 0.361253
vt 0.447308 0.361252
vt 0.447308 0.369208
vt 0.000743 0.369209
vt 0.000743 0.345341
vt 0.447308 0.345340
vt 0.447308 0.353296
vt 0.000743 0.353297
vt 0.000743 0.550185
vt 0.447308 0.550185
vt 0.447308 0.558141
vt 0.000743 0.558141
vt 0.447308 0.393076
vt 0.000743 0.393077
vt 0.000743 0.582009
vt 0.447308 0.582009
vt 0.447308 0.589965
vt 0.000743 0.589965
vt 0.000743 0.574053
vt 0.447308 0.574053
vt 0.447308 0.566097
vt 0.000743 0.566097
vt 0.000743 0.542229
vt 0.447308 0.542229
vt 0.000743 0.229491
vt 0.447294 0.229491
vt 0.447294 0.237447
vt 0.000743 0.237448
vt 0.000743 0.213580
vt 0.447294 0.213580
vt 0.447294 0.221535
vt 0.000743 0.221534
vt 0.000743 0.197665
vt 0.447294 0.197668
vt 0.447294 0.205624
vt 0.000743 0.205622
vt 0.000743 0.156396
vt 0.447294 0.156397
vt 0.447294 0.164353
vt 0.000743 0.164353
vt 0.447294 0.245403
vt 0.000743 0.245406
vt 0.000743 0.188222
vt 0.447294 0.188220
vt 0.447294 0.196176
vt 0.000743 0.196179
vt 0.000743 0.180265
vt 0.447294 0.180264
vt 0.447294 0.172308
vt 0.000743 0.172307
vt 0.000743 0.148439
vt 0.447294 0.148441
vt 0.320376 0.628765
vt 0.320376 0.631987
vt 0.289257 0.631987
vt 0.289257 0.628765
vt 0.878966 0.432909
vt 0.863054 0.432909
vt 0.863054 0.025106
vt 0.878966 0.025106
vt 0.291383 0.618749
vt 0.288580 0.591451
vt 0.291383 0.595273
vt 0.325974 0.618749
vt 0.325974 0.595273
vt 0.328777 0.591451
vt 0.630432 0.860929
vt 0.606956 0.860929
vt 0.606956 0.443785
vt 0.630432 0.443785
vt 0.495990 0.860929
vt 0.495990 0.443785
vt 0.519466 0.443785
vt 0.519466 0.860929
vt 0.364854 0.616414
vt 0.364854 0.639890
vt 0.330263 0.639890
vt 0.330263 0.616414
vt 0.316635 0.595273
vt 0.300723 0.595273
vt 0.488953 0.013381
vt 0.448756 0.013381
vt 0.448756 0.010159
vt 0.488953 0.010159
vt 0.530636 0.010159
vt 0.530636 0.013381
vt 0.490439 0.013381
vt 0.490439 0.010159
vt 0.288580 0.622571
vt 0.300723 0.618749
vt 0.316635 0.618749
vt 0.328777 0.622571
vt 0.647830 0.851587
vt 0.631918 0.851587
vt 0.631918 0.443785
vt 0.647830 0.443785
vt 0.255165 0.627279
vt 0.224046 0.627279
vt 0.224046 0.624057
vt 0.255165 0.624057
vt 0.320376 0.628765
vt 0.320376 0.631987
vt 0.289257 0.631987
vt 0.289257 0.628765
vt 0.878966 0.432909
vt 0.863054 0.432909
vt 0.863054 0.025106
vt 0.878966 0.025106
vt 0.291383 0.618749
vt 0.288580 0.591451
vt 0.291383 0.595273
vt 0.325974 0.618749
vt 0.325974 0.595273
vt 0.328777 0.591451
vt 0.630432 0.860929
vt 0.606956 0.860929
vt 0.606956 0.443785
vt 0.630432 0.443785
vt 0.495990 0.860929
vt 0.495990 0.443785
vt 0.519466 0.443785
vt 0.519466 0.860929
vt 0.364854 0.616414
vt 0.364854 0.639890
vt 0.330263 0.639890
vt 0.330263 0.616414
vt 0.316635 0.595273
vt 0.300723 0.595273
vt 0.488953 0.013381
vt 0.448756 0.013381
vt 0.448756 0.010159
vt 0.488953 0.010159
vt 0.530636 0.010159
vt 0.530636 0.013381
vt 0.490439 0.013381
vt 0.490439 0.010159
vt 0.288580 0.622571
vt 0.300723 0.618749
vt 0.316635 0.618749
vt 0.328777 0.622571
vt 0.647830 0.851587
vt 0.631918 0.851587
vt 0.631918 0.443785
vt 0.647830 0.443785
vt 0.255165 0.627279
vt 0.224046 0.627279
vt 0.224046 0.624057
vt 0.255165 0.624057
vt 0.320376 0.628765
vt 0.320376 0.631987
vt 0.289257 0.631987
vt 0.289257 0.628765
vt 0.878966 0.432909
vt 0.863054 0.432909
vt 0.863054 0.025106
vt 0.878966 0.025106
vt 0.291383 0.618749
vt 0.288580 0.591451
vt 0.291383 0.595273
vt 0.325974 0.618749
vt 0.325974 0.595273
vt 0.328777 0.591451
vt 0.630432 0.860929
vt 0.606956 0.860929
vt 0.606956 0.443785
vt 0.630432 0.443785
vt 0.495990 0.860929
vt 0.495990 0.443785
vt 0.519466 0.443785
vt 0.519466 0.860929
vt 0.364854 0.616414
vt 0.364854 0.639890
vt 0.330263 0.639890
vt 0.330263 0.616414
vt 0.316635 0.595273
vt 0.300723 0.595273
vt 0.488953 0.013381
vt 0.448756 0.013381
vt 0.448756 0.010159
vt 0.488953 0.010159
vt 0.530636 0.010159
vt 0.530636 0.013381
vt 0.490439 0.013381
vt 0.490439 0.010159
vt 0.288580 0.622571
vt 0.300723 0.618749
vt 0.316635 0.618749
vt 0.328777 0.622571
vt 0.647830 0.851587
vt 0.631918 0.851587
vt 0.631918 0.443785
vt 0.647830 0.443785
vt 0.255165 0.627279
vt 0.224046 0.627279
vt 0.224046 0.624057
vt 0.255165 0.624057
vt 0.320376 0.628765
vt 0.320376 0.631987
vt 0.289257 0.631987
vt 0.289257 0.628765
vt 0.878966 0.432909
vt 0.863054 0.432909
vt 0.863054 0.025106
vt 0.878966 0.025106
vt 0.291383 0.618749
vt 0.288580 0.591451
vt 0.291383 0.595273
vt 0.325974 0.618749
vt 0.325974 0.595273
vt 0.328777 0.591451
vt 0.630432 0.860929
vt 0.606956 0.860929
vt 0.606956 0.443785
vt 0.630432 0.443785
vt 0.495990 0.860929
vt 0.495990 0.443785
vt 0.519466 0.443785
vt 0.519466 0.860929
vt 0.364854 0.616414
vt 0.364854 0.639890
vt 0.330263 0.639890
vt 0.330263 0.616414
vt 0.316635 0.595273
vt 0.300723 0.595273
vn -0.8660 -0.5000 0.0000
vn 0.0000 1.0000 0.0000
vn -0.8660 0.5000 0.0000
vn 0.8660 -0.5000 -0.0000
vn 0.8660 0.5000 -0.0000
vn 0.0000 -1.0000 -0.0000
vn 0.0000 0.0000 -1.0000
vn 1.0000 0.0000 0.0000
vn 0.0000 0.0000 1.0000
vn -1.0000 0.0000 -0.0000
usemtl None
s off
f 12/1/1 1/2/1 3/3/1 10/4/1
f 4/5/2 9/6/2 11/7/2 2/8/2
f 2/8/3 11/7/3 1/2/3 12/1/3
f 8/9/4 5/10/4 7/11/4 6/12/4
f 18/13/5 19/14/5 21/15/5 16/16/5
f 10/4/6 3/3/6 5/17/6 8/18/6
f 22/19/6 15/20/6 17/21/6 20/22/6
f 24/23/1 13/24/1 15/20/1 22/19/1
f 16/16/2 21/15/2 23/25/2 14/26/2
f 14/26/3 23/25/3 13/24/3 24/23/3
f 20/27/4 17/28/4 19/14/4 18/13/4
f 6/12/5 7/11/5 9/6/5 4/5/5
f 52/29/2 36/30/2 28/31/2 44/32/2
f 40/33/2 39/34/2 55/35/2 56/36/2
f 30/37/7 41/38/7 49/39/7 42/40/7
f 30/41/8 29/42/8 25/43/8 41/44/8
f 33/45/7 50/46/7 46/47/7 34/48/7
f 155/49/9 154/50/9 166/51/9 153/52/9
f 39/53/8 40/54/8 28/55/8 27/56/8
f 27/57/2 28/58/2 36/30/2 35/59/2
f 55/60/7 39/61/7 27/62/7 43/63/7
f 35/64/8 36/65/8 38/66/8 37/67/8
f 36/68/9 52/69/9 54/70/9 38/71/9
f 156/72/7 161/73/7 167/74/7 162/75/7
f 42/76/2 34/77/2 46/78/2 30/79/2
f 29/80/9 26/81/9 48/82/9 25/83/9
f 42/84/10 49/85/10 48/86/10 26/87/10
f 51/88/2 43/89/2 27/90/2 35/59/2
f 47/91/9 32/92/9 31/93/9 45/94/9
f 34/95/2 42/76/2 26/96/2 31/97/2
f 46/98/2 45/99/2 29/100/2 30/79/2
f 50/101/8 47/102/8 45/103/8 46/104/8
f 162/105/2 160/106/2 164/107/2 156/108/2
f 55/109/10 43/110/10 44/111/10 56/112/10
f 43/113/2 51/88/2 52/29/2 44/114/2
f 51/115/10 53/116/10 54/117/10 52/118/10
f 35/119/7 37/120/7 53/121/7 51/122/7
f 159/123/7 168/124/7 164/125/7 160/126/7
f 156/127/8 155/128/8 153/129/8 161/130/8
f 33/131/10 34/132/10 31/133/10 32/134/10
f 40/135/9 56/136/9 44/137/9 28/138/9
f 47/139/2 50/140/2 33/141/2 32/142/2
f 26/96/2 29/100/2 45/143/2 31/144/2
f 63/145/5 62/146/5 60/147/5 65/148/5
f 59/149/6 66/150/6 64/151/6 61/152/6
f 57/153/1 68/154/1 66/150/1 59/149/1
f 65/148/2 60/147/2 58/155/2 67/156/2
f 67/156/3 58/155/3 68/154/3 57/153/3
f 61/157/4 64/158/4 62/146/4 63/145/4
f 75/159/5 74/160/5 72/161/5 77/162/5
f 71/163/6 78/164/6 76/165/6 73/166/6
f 69/167/1 80/168/1 78/164/1 71/163/1
f 77/162/2 72/161/2 70/169/2 79/170/2
f 79/170/3 70/169/3 80/168/3 69/167/3
f 73/171/4 76/172/4 74/160/4 75/159/4
f 92/173/1 81/174/1 83/175/1 90/176/1
f 84/177/2 89/178/2 91/179/2 82/180/2
f 82/180/3 91/179/3 81/174/3 92/173/3
f 88/181/4 85/182/4 87/183/4 86/184/4
f 98/185/5 99/186/5 101/187/5 96/188/5
f 90/176/6 83/175/6 85/189/6 88/190/6
f 102/191/6 95/192/6 97/193/6 100/194/6
f 104/195/1 93/196/1 95/192/1 102/191/1
f 96/188/2 101/187/2 103/197/2 94/198/2
f 94/198/3 103/197/3 93/196/3 104/195/3
f 100/199/4 97/200/4 99/186/4 98/185/4
f 86/184/5 87/183/5 89/178/5 84/177/5
f 116/201/1 105/202/1 107/203/1 114/204/1
f 108/205/2 113/206/2 115/207/2 106/208/2
f 106/208/3 115/207/3 105/202/3 116/201/3
f 112/209/4 109/210/4 111/211/4 110/212/4
f 122/213/5 123/214/5 125/215/5 120/216/5
f 114/204/6 107/203/6 109/217/6 112/218/6
f 126/219/6 119/220/6 121/221/6 124/222/6
f 128/223/1 117/224/1 119/220/1 126/219/1
f 120/216/2 125/215/2 127/225/2 118/226/2
f 118/226/3 127/225/3 117/224/3 128/223/3
f 124/227/4 121/228/4 123/214/4 122/213/4
f 110/212/5 111/211/5 113/206/5 108/205/5
f 140/229/1 129/230/1 131/231/1 138/232/1
f 132/233/2 137/234/2 139/235/2 130/236/2
f 130/236/3 139/235/3 129/230/3 140/229/3
f 136/237/4 133/238/4 135/239/4 134/240/4
f 146/241/5 147/242/5 149/243/5 144/244/5
f 138/232/6 131/231/6 133/245/6 136/246/6
f 150/247/6 143/248/6 145/249/6 148/250/6
f 152/251/1 141/252/1 143/248/1 150/247/1
f 144/244/2 149/243/2 151/253/2 142/254/2
f 142/254/3 151/253/3 141/252/3 152/251/3
f 148/255/4 145/256/4 147/242/4 146/241/4
f 134/240/5 135/239/5 137/234/5 132/233/5
f 162/257/10 167/258/10 166/259/10 154/260/10
f 165/261/9 158/262/9 157/263/9 163/264/9
f 160/265/2 162/105/2 154/266/2 157/267/2
f 164/268/2 163/269/2 155/270/2 156/108/2
f 168/271/8 165/272/8 163/273/8 164/274/8
f 159/275/10 160/276/10 157/277/10 158/278/10
f 165/279/2 168/280/2 159/281/2 158/282/2
f 154/266/2 155/270/2 163/283/2 157/284/2
f 171/285/9 170/286/9 182/287/9 169/288/9
f 172/289/7 177/290/7 183/291/7 178/292/7
f 178/293/2 176/294/2 180/295/2 172/296/2
f 175/297/7 184/298/7 180/299/7 176/300/7
f 172/301/8 171/302/8 169/303/8 177/304/8
f 178/305/10 183/306/10 182/307/10 170/308/10
f 181/309/9 174/310/9 173/311/9 179/312/9
f 176/313/2 178/293/2 170/314/2 173/315/2
f 180/316/2 179/317/2 171/318/2 172/296/2
f 184/319/8 181/320/8 179/321/8 180/322/8
f 175/323/10 176/324/10 173/325/10 174/326/10
f 181/327/2 184/328/2 175/329/2 174/330/2
f 170/314/2 171/318/2 179/331/2 173/332/2
f 187/333/9 186/334/9 198/335/9 185/336/9
f 188/337/7 193/338/7 199/339/7 194/340/7
f 194/341/2 192/342/2 196/343/2 188/344/2
f 191/345/7 200/346/7 196/347/7 192/348/7
f 188/349/8 187/350/8 185/351/8 193/352/8
f 194/353/10 199/354/10 198/355/10 186/356/10
f 197/357/9 190/358/9 189/359/9 195/360/9
f 192/361/2 194/341/2 186/362/2 189/363/2
f 196/364/2 195/365/2 187/366/2 188/344/2
f 200/367/8 197/368/8 195/369/8 196/370/8
f 191/371/10 192/372/10 189/373/10 190/374/10
f 197/375/2 200/376/2 191/377/2 190/378/2
f 186/362/2 187/366/2 195/379/2 189/380/2
f 203/381/9 202/382/9 214/383/9 201/384/9
f 204/385/7 209/386/7 215/387/7 210/388/7
f 210/389/2 208/390/2 212/391/2 204/392/2
f 207/393/7 216/394/7 212/395/7 208/396/7
f 204/397/8 203/398/8 201/399/8 209/400/8
f 210/401/10 215/402/10 214/403/10 202/404/10
f 213/405/9 206/406/9 205/407/9 211/408/9
f 208/409/2 210/389/2 202/410/2 205/411/2
f 212/412/2 211/413/2 203/414/2 204/392/2
f 216/415/8 213/416/8 211/417/8 212/418/8
f 207/419/10 208/420/10 205/421/10 206/422/10
f 213/423/2 216/424/2 207/425/2 206/426/2
f 202/410/2 203/414/2 211/427/2 205/428/2
