# Blender v2.82 (sub 7) OBJ File: 'railing_end_collider.blend'
# www.blender.org
mtllib railing_end_collider.mtl
o object_static_railing_Cube.003
v 16.058083 2.636744 -0.065920
v -0.003357 -2.915663 2.170207
v 0.368313 -2.959530 2.679339
v -0.003357 2.763906 2.641178
v 2.511038 -2.915663 -0.285655
v 0.316282 -2.915663 2.170207
v 2.511038 2.763906 0.033983
v 2.472877 -2.959530 -0.337687
v 2.472877 -2.915663 0.086015
v 3.020170 -2.915663 0.086015
v -0.055388 -2.915663 2.132046
v 0.368314 -2.915663 2.132046
v 3.020170 -2.915663 -0.337687
v 2.472877 -2.915663 -0.337687
v 0.316282 2.763906 2.641178
v 2.982009 -2.915663 0.033983
v 2.982009 2.763906 -0.285655
v -0.003357 -2.915663 2.641178
v 0.316282 -2.915663 2.641178
v -0.055388 -2.959530 2.132046
v 0.368314 -2.959530 2.132046
v -0.003357 2.763906 2.170207
v 0.316282 2.763906 2.170207
v 16.058083 2.636744 -6.265932
v 2.511038 2.763906 -0.285655
v 3.020170 -2.959530 0.086015
v 2.800686 2.615791 1.934080
v 2.854848 2.521980 1.934080
v 2.638199 2.521980 1.934080
v 2.800686 2.428169 1.934080
v 2.351008 2.521981 2.297369
v 2.692363 2.615791 -0.065920
v 2.351008 2.428170 2.351531
v 2.800686 2.615791 -0.065920
v 2.351008 2.428170 2.459854
v 2.854848 2.521980 -0.065920
v 2.351008 2.521981 2.514016
v 2.800686 2.428169 -0.065920
v 2.351008 2.615792 2.459854
v 2.692363 2.428169 -0.065920
v 2.351008 2.615792 2.351531
v 2.638199 2.521980 -0.065920
v 0.096548 2.521980 2.297369
v -5.983623 2.615792 2.351529
v 0.096548 2.428169 2.351531
v -5.983623 2.615792 2.459853
v 0.096548 2.428169 2.459854
v -5.983623 2.521981 2.514014
v 0.096548 2.521980 2.514016
v -5.983623 2.428170 2.459853
v 0.096548 2.615791 2.459854
v -5.983623 2.428170 2.351528
v 0.096548 2.615791 2.351531
v -5.983623 2.521981 2.297367
v 0.096548 0.471715 2.297369
v -5.983623 0.565527 2.351529
v 0.096548 0.377904 2.351531
v -5.983623 0.565527 2.459853
v 0.096548 0.377904 2.459854
v -5.983623 0.471716 2.514014
v 0.096548 0.471715 2.514016
v -5.983623 0.377905 2.459853
v 0.096548 0.565526 2.459854
v -5.983623 0.377905 2.351528
v 0.096548 0.565526 2.351531
v -5.983623 0.471716 2.297367
v 2.472877 -2.959530 0.086015
v 3.020170 -2.959530 -0.337687
v -0.055388 -2.915663 2.679339
v 0.368313 -2.915663 2.679339
v -0.055388 -2.959530 2.679339
v 2.982009 -2.915663 -0.285655
v 2.511038 -2.915663 0.033983
v 2.982009 2.763906 0.033983
v 2.499970 2.428170 2.309894
v 2.562150 2.521981 2.460011
v 2.479245 2.521981 2.259855
v 2.541425 2.428170 2.409972
v 2.678377 2.428169 2.104259
v 2.828494 2.521980 2.166440
v 2.628339 2.521980 2.083533
v 2.778456 2.428169 2.145713
v 2.678377 2.615791 2.104259
v 2.778456 2.615791 2.145713
v 0.216378 2.521981 2.297369
v 0.216378 2.428170 2.351531
v 0.216378 2.428170 2.459854
v 0.216378 2.521981 2.514016
v 0.216378 2.615792 2.459854
v 0.216378 2.615792 2.351531
v 2.610399 2.615791 2.243983
v 2.686996 2.615791 2.320579
v 2.610399 2.428169 2.243983
v 2.725293 2.521980 2.358878
v 2.572102 2.521980 2.205685
v 2.686996 2.428169 2.320579
v 2.692363 2.428169 1.934080
v 2.692363 2.615791 1.934080
v 2.541425 2.615792 2.409972
v 2.499970 2.615792 2.309894
v 2.638199 0.471716 -0.065920
v 2.351008 0.565528 2.351531
v 2.692363 0.377905 -0.065920
v 2.351008 0.565528 2.459854
v 2.800686 0.377905 -0.065920
v 2.351008 0.471717 2.514016
v 2.854848 0.471716 -0.065920
v 2.351008 0.377906 2.459854
v 2.800686 0.565527 -0.065920
v 2.351008 0.377906 2.351531
v 2.692363 0.565527 -0.065920
v 2.351008 0.471717 2.297369
v 2.800686 0.377905 1.934080
v 2.638199 0.471716 1.934080
v 2.854848 0.471716 1.934080
v 2.800686 0.565527 1.934080
v 2.692363 0.565527 1.934080
v 2.692363 0.377905 1.934080
v 2.686996 0.377905 2.320579
v 2.572102 0.471716 2.205685
v 2.725293 0.471716 2.358878
v 2.610399 0.377905 2.243983
v 2.686996 0.565527 2.320579
v 2.610399 0.565527 2.243983
v 0.216378 0.565528 2.351531
v 0.216378 0.565528 2.459854
v 0.216378 0.471717 2.514016
v 0.216378 0.377906 2.459854
v 0.216378 0.377906 2.351531
v 0.216378 0.471717 2.297369
v 2.778456 0.565527 2.145713
v 2.678377 0.565527 2.104259
v 2.778456 0.377905 2.145713
v 2.628339 0.471716 2.083533
v 2.828494 0.471716 2.166440
v 2.678377 0.377905 2.104259
v 2.541425 0.377906 2.409972
v 2.479245 0.471717 2.259855
v 2.562150 0.471717 2.460011
v 2.499970 0.377906 2.309894
v 2.541425 0.565528 2.409972
v 2.499970 0.565528 2.309894
v 2.638202 2.521980 -2.568380
v 2.692364 2.615792 -0.185752
v 2.692364 2.428169 -2.568380
v 2.800688 2.615792 -0.185752
v 2.800688 2.428169 -2.568380
v 2.854848 2.521981 -0.185752
v 2.854850 2.521980 -2.568380
v 2.800688 2.428170 -0.185752
v 2.800688 2.615791 -2.568380
v 2.692363 2.428170 -0.185752
v 2.692364 2.615791 -2.568380
v 2.638202 2.521981 -0.185752
v 2.638202 2.481710 -2.856882
v 2.854850 2.481710 -2.856882
v 2.692364 2.392490 -2.827893
v 2.800688 2.392490 -2.827893
v 2.800688 2.570929 -2.885871
v 2.692364 2.570929 -2.885871
v 2.638202 2.370622 -3.127749
v 2.854850 2.370622 -3.127749
v 2.692364 2.294727 -3.072609
v 2.800688 2.294727 -3.072609
v 2.800688 2.446517 -3.182889
v 2.692364 2.446517 -3.182889
v 2.638202 2.211468 -3.310261
v 2.854850 2.211468 -3.310261
v 2.692364 2.156327 -3.234367
v 2.800688 2.156327 -3.234367
v 2.800688 2.266609 -3.386155
v 2.692364 2.266609 -3.386155
v 2.638202 1.976791 -3.437105
v 2.854850 1.976791 -3.437105
v 2.692364 1.947801 -3.347886
v 2.800688 1.947801 -3.347886
v 2.800688 2.005780 -3.526324
v 2.692364 2.005780 -3.526324
v 2.638202 1.696864 -3.503639
v 2.854850 1.697034 -3.503639
v 2.692364 1.697034 -3.409827
v 2.800688 1.697034 -3.409827
v 2.800688 1.697034 -3.597450
v 2.692364 1.696864 -3.597450
v 2.692364 1.296864 -3.597450
v 2.638202 1.296864 -3.503639
v 2.800688 1.297034 -3.597450
v 2.854850 1.297034 -3.503639
v 2.800688 1.297034 -3.409827
v 2.692364 1.297034 -3.409827
v 2.638202 0.471748 -2.568380
v 2.692364 0.377936 -0.185752
v 2.692364 0.565559 -2.568380
v 2.800688 0.377936 -0.185752
v 2.800688 0.565559 -2.568380
v 2.854848 0.471747 -0.185752
v 2.854850 0.471748 -2.568380
v 2.800688 0.565558 -0.185752
v 2.800688 0.377937 -2.568380
v 2.692363 0.565558 -0.185752
v 2.692364 0.377937 -2.568380
v 2.638202 0.471747 -0.185752
v 2.638202 0.512018 -2.856882
v 2.854850 0.512018 -2.856882
v 2.692364 0.601238 -2.827893
v 2.800688 0.601238 -2.827893
v 2.800688 0.422798 -2.885871
v 2.692364 0.422798 -2.885871
v 2.638202 0.623106 -3.127749
v 2.854850 0.623106 -3.127749
v 2.692364 0.699001 -3.072609
v 2.800688 0.699001 -3.072609
v 2.800688 0.547211 -3.182889
v 2.692364 0.547211 -3.182889
v 2.638202 0.782259 -3.310261
v 2.854850 0.782259 -3.310261
v 2.692364 0.837400 -3.234367
v 2.800688 0.837400 -3.234367
v 2.800688 0.727118 -3.386155
v 2.692364 0.727118 -3.386155
v 2.638202 1.016937 -3.437105
v 2.854850 1.016937 -3.437105
v 2.692364 1.045927 -3.347886
v 2.800688 1.045927 -3.347886
v 2.800688 0.987948 -3.526324
v 2.692364 0.987948 -3.526324
vt 0.189097 0.982737
vt 0.189097 0.338031
vt 0.214253 0.338031
vt 0.214252 0.982737
vt 0.412473 0.466570
vt 0.412473 0.471664
vt 0.348924 0.471664
vt 0.348924 0.466570
vt 0.123817 0.997505
vt 0.086702 0.997505
vt 0.086702 0.338031
vt 0.123817 0.338031
vt 0.348924 0.441415
vt 0.368121 0.435373
vt 0.393276 0.435373
vt 0.412473 0.441415
vt 0.002495 0.997505
vt 0.002495 0.338031
vt 0.039609 0.338031
vt 0.039609 0.997505
vt 0.466659 0.466570
vt 0.466659 0.471664
vt 0.417462 0.471664
vt 0.417462 0.466570
vt 0.353355 0.398259
vt 0.353355 0.435373
vt 0.348924 0.441415
vt 0.348924 0.392217
vt 0.002495 0.997505
vt 0.002495 0.338031
vt 0.039609 0.338031
vt 0.039609 0.997505
vt 0.348924 0.392217
vt 0.412473 0.392217
vt 0.393276 0.398259
vt 0.368121 0.398259
vt 0.123817 0.997505
vt 0.086702 0.997505
vt 0.086702 0.338031
vt 0.123817 0.338031
vt 0.002495 0.234586
vt 0.002495 0.222009
vt 0.708449 0.222006
vt 0.708449 0.234585
vt 0.408041 0.398259
vt 0.412473 0.392217
vt 0.412473 0.441415
vt 0.408041 0.435373
vt 0.002495 0.103811
vt 0.002495 0.091234
vt 0.708448 0.091219
vt 0.708449 0.103799
vt 0.288760 0.331322
vt 0.289822 0.318967
vt 0.311192 0.320049
vt 0.308702 0.333041
vt 0.454576 0.380134
vt 0.454576 0.434820
vt 0.417462 0.434820
vt 0.417462 0.380134
vt 0.002495 0.154120
vt 0.002495 0.141543
vt 0.708449 0.141538
vt 0.708449 0.154118
vt 0.290286 0.307927
vt 0.312122 0.307871
vt 0.002495 0.184277
vt 0.002495 0.171700
vt 0.708448 0.171687
vt 0.708449 0.184267
vt 0.454576 0.380134
vt 0.454576 0.434820
vt 0.417462 0.434820
vt 0.417462 0.380134
vt 0.002495 0.247163
vt 0.708449 0.247165
vt 0.408041 0.398259
vt 0.408041 0.435373
vt 0.288171 0.270562
vt 0.288446 0.256670
vt 0.307189 0.256573
vt 0.306307 0.270002
vt 0.002495 0.209431
vt 0.002495 0.196854
vt 0.708449 0.196846
vt 0.708449 0.209426
vt 0.002495 0.166698
vt 0.708449 0.166697
vt 0.289874 0.296926
vt 0.310875 0.295846
vt 0.002495 0.128966
vt 0.002495 0.116389
vt 0.708449 0.116379
vt 0.708449 0.128958
vt 0.393276 0.398259
vt 0.368121 0.398259
vt 0.481010 0.444903
vt 0.417462 0.444903
vt 0.417462 0.439810
vt 0.481010 0.439810
vt 0.288905 0.284844
vt 0.308165 0.283270
vt 0.353355 0.398259
vt 0.353355 0.435373
vt 0.219242 0.982737
vt 0.219242 0.338031
vt 0.244397 0.338031
vt 0.244398 0.982737
vt 0.219242 0.982737
vt 0.219242 0.338031
vt 0.244397 0.338031
vt 0.244398 0.982737
vt 0.412473 0.466570
vt 0.412473 0.471664
vt 0.348924 0.471664
vt 0.348924 0.466570
vt 0.481010 0.444903
vt 0.417462 0.444903
vt 0.417462 0.439810
vt 0.481010 0.439810
vt 0.368121 0.435373
vt 0.393276 0.435373
vt 0.466659 0.466570
vt 0.466659 0.471664
vt 0.417462 0.471664
vt 0.417462 0.466570
vt 0.189097 0.982737
vt 0.189097 0.338031
vt 0.214253 0.338031
vt 0.214252 0.982737
vt 0.398122 0.481747
vt 0.348924 0.481747
vt 0.348924 0.476653
vt 0.398122 0.476653
vt 0.398122 0.481747
vt 0.348924 0.481747
vt 0.348924 0.476653
vt 0.398122 0.476653
vt 0.253150 0.284686
vt 0.253175 0.270656
vt 0.272561 0.270667
vt 0.272733 0.285406
vt 0.253519 0.296772
vt 0.273018 0.297745
vt 0.253448 0.256802
vt 0.272774 0.255823
vt 0.002495 0.326781
vt 0.002761 0.314375
vt 0.230526 0.319239
vt 0.231549 0.331690
vt 0.003035 0.301881
vt 0.003327 0.289275
vt 0.231098 0.295033
vt 0.230170 0.307103
vt 0.253177 0.318317
vt 0.253744 0.307539
vt 0.273037 0.307823
vt 0.272789 0.317974
vt 0.003632 0.276778
vt 0.003936 0.264446
vt 0.233650 0.270252
vt 0.232688 0.282867
vt 0.004234 0.252154
vt 0.233357 0.257653
vt 0.252327 0.330548
vt 0.272199 0.330610
vt 0.562510 0.316772
vt 0.562682 0.329660
vt 0.562321 0.303652
vt 0.561377 0.252154
vt 0.561603 0.264530
vt 0.562099 0.290288
vt 0.561850 0.277159
vt 0.715158 0.377484
vt 0.727513 0.378547
vt 0.726430 0.399917
vt 0.713439 0.397427
vt 0.775918 0.376896
vt 0.789810 0.377171
vt 0.789907 0.395914
vt 0.776478 0.395031
vt 0.761636 0.377629
vt 0.763210 0.396890
vt 0.749554 0.378599
vt 0.750634 0.399600
vt 0.738552 0.379010
vt 0.738609 0.400846
vt 0.744599 0.091760
vt 0.757205 0.092052
vt 0.751447 0.319823
vt 0.739376 0.318895
vt 0.732105 0.091485
vt 0.727241 0.319251
vt 0.769702 0.092357
vt 0.763613 0.321413
vt 0.782034 0.092661
vt 0.776228 0.322375
vt 0.794326 0.092959
vt 0.788826 0.322082
vt 0.719699 0.091219
vt 0.714790 0.320274
vt 0.738941 0.342469
vt 0.749707 0.342244
vt 0.748734 0.361743
vt 0.738657 0.361762
vt 0.728163 0.341902
vt 0.728505 0.361514
vt 0.761793 0.341875
vt 0.761074 0.361458
vt 0.775824 0.341900
vt 0.775812 0.361286
vt 0.789677 0.342173
vt 0.790657 0.361499
vt 0.715931 0.341052
vt 0.715870 0.360924
vt 0.729708 0.651235
vt 0.716819 0.651407
vt 0.742827 0.651046
vt 0.794326 0.650102
vt 0.781949 0.650328
vt 0.756192 0.650823
vt 0.769321 0.650574
vt 0.650198 0.021165
vt 0.649372 0.008751
vt 0.920084 0.012179
vt 0.919928 0.024487
vt 0.648484 0.069648
vt 0.649666 0.057440
vt 0.919411 0.061840
vt 0.919217 0.074141
vt 0.648295 0.082110
vt 0.919030 0.086230
vt 0.650777 0.045398
vt 0.650973 0.033242
vt 0.919770 0.036786
vt 0.919599 0.049313
vt 0.439104 0.043604
vt 0.487030 0.044056
vt 0.488448 0.057406
vt 0.437620 0.057269
vt 0.490058 0.071342
vt 0.435818 0.071572
vt 0.490346 0.086111
vt 0.435416 0.086225
vt 0.435881 0.002495
vt 0.490478 0.003031
vt 0.488582 0.017229
vt 0.437556 0.016972
vt 0.439007 0.030424
vt 0.487004 0.030919
vt 0.616589 0.044725
vt 0.616848 0.033126
vt 0.617156 0.068990
vt 0.616888 0.056526
vt 0.617181 0.081952
vt 0.617385 0.021347
vt 0.617963 0.008720
vt 0.583305 0.044257
vt 0.583624 0.032862
vt 0.584431 0.068768
vt 0.583843 0.056002
vt 0.584734 0.082296
vt 0.584439 0.021164
vt 0.585447 0.008299
vt 0.555548 0.043987
vt 0.555898 0.032444
vt 0.556734 0.069220
vt 0.556088 0.055995
vt 0.557396 0.083307
vt 0.556739 0.020443
vt 0.557884 0.007119
vt 0.523698 0.044080
vt 0.523801 0.031582
vt 0.525181 0.070547
vt 0.524347 0.056883
vt 0.525801 0.084975
vt 0.524800 0.018655
vt 0.526134 0.004701
vt 0.274576 0.019618
vt 0.002575 0.021288
vt 0.002495 0.008877
vt 0.275486 0.007104
vt 0.276003 0.068519
vt 0.002984 0.071360
vt 0.002865 0.058955
vt 0.274887 0.056202
vt 0.276115 0.081088
vt 0.003097 0.083551
vt 0.273842 0.044051
vt 0.002753 0.046323
vt 0.002658 0.033690
vt 0.273720 0.031791
vt 0.308135 0.031886
vt 0.308324 0.043585
vt 0.307948 0.055485
vt 0.307600 0.068054
vt 0.307492 0.081126
vt 0.307160 0.007266
vt 0.307666 0.020004
vt 0.341645 0.031825
vt 0.341896 0.043320
vt 0.341281 0.055164
vt 0.340608 0.068037
vt 0.340217 0.081680
vt 0.339957 0.007039
vt 0.340894 0.020021
vt 0.369610 0.031570
vt 0.369899 0.043214
vt 0.369284 0.055328
vt 0.368547 0.068670
vt 0.367787 0.082876
vt 0.367764 0.006017
vt 0.368835 0.019464
vt 0.401910 0.030874
vt 0.402113 0.043458
vt 0.401347 0.056417
vt 0.400388 0.070237
vt 0.399646 0.084775
vt 0.399809 0.003786
vt 0.401027 0.017870
vn 1.0000 0.0000 0.0000
vn 0.0000 0.0000 -1.0000
vn 0.0000 1.0000 0.0000
vn 0.0000 0.0000 1.0000
vn -1.0000 0.0000 0.0000
vn -0.0000 -0.5000 0.8660
vn 0.0000 -0.5000 -0.8660
vn 0.0000 -1.0000 0.0000
vn 0.2180 -0.4921 0.8428
vn -0.2391 -0.4915 -0.8374
vn 0.2180 0.4921 0.8428
vn 0.0000 0.5000 -0.8660
vn -0.0000 0.5000 0.8660
vn -0.2391 0.4915 -0.8374
vn -0.7882 0.4887 -0.3739
vn -0.7882 -0.4887 -0.3739
vn 0.8660 0.5000 -0.0000
vn 0.7698 -0.4908 0.4080
vn 0.8660 -0.5000 0.0000
vn -0.8660 0.5000 -0.0000
vn -0.8660 -0.5000 0.0000
vn 0.7698 0.4908 0.4080
vn -0.8693 -0.4900 -0.0649
vn -0.8693 0.4900 -0.0649
vn 0.8658 -0.4913 0.0947
vn 0.8658 0.4913 0.0947
vn 0.4571 0.4925 0.7406
vn 0.4571 -0.4925 0.7406
vn -0.4427 0.4922 -0.7495
vn -0.4427 -0.4922 -0.7495
vn 0.8660 0.0000 -0.5000
vn 0.8660 0.0000 0.5000
vn -0.8660 0.0000 0.5000
vn -0.8660 0.0000 -0.5000
vn 0.0000 0.9902 -0.1399
vn 0.8633 -0.4999 0.0693
vn 0.0000 -0.9907 0.1362
vn -0.8633 -0.4999 0.0693
vn 0.8633 0.4998 -0.0702
vn -0.8633 0.4998 -0.0702
vn 0.0000 0.9224 -0.3863
vn 0.8625 -0.4690 0.1900
vn 0.0000 -0.9286 0.3710
vn -0.8625 -0.4690 0.1900
vn 0.8626 0.4672 -0.1938
vn -0.8626 0.4672 -0.1938
vn 0.0000 0.7488 -0.6628
vn 0.8627 -0.3826 0.3306
vn 0.0000 -0.7598 0.6501
vn -0.8627 -0.3826 0.3306
vn 0.8629 0.3796 -0.3337
vn -0.8629 0.3796 -0.3337
vn 0.0000 0.4734 -0.8809
vn 0.8632 -0.2406 0.4437
vn 0.0000 -0.4781 0.8783
vn -0.8632 -0.2406 0.4437
vn 0.8633 0.2394 -0.4443
vn -0.8633 0.2394 -0.4443
vn -0.0002 0.2244 -0.9745
vn 0.8626 -0.1191 0.4917
vn 0.0000 -0.2398 0.9708
vn -0.8626 -0.1190 0.4917
vn 0.8627 0.1152 -0.4924
vn -0.8627 0.1151 -0.4924
vn 0.0000 -0.9902 -0.1399
vn 0.8633 0.4999 0.0693
vn 0.0000 0.9907 0.1362
vn -0.8633 0.4999 0.0693
vn 0.8633 -0.4998 -0.0702
vn -0.8633 -0.4998 -0.0702
vn 0.0000 -0.9224 -0.3863
vn 0.8625 0.4690 0.1900
vn 0.0000 0.9286 0.3710
vn -0.8625 0.4690 0.1900
vn 0.8626 -0.4672 -0.1938
vn -0.8626 -0.4672 -0.1938
vn 0.0000 -0.7488 -0.6628
vn 0.8627 0.3826 0.3306
vn 0.0000 0.7598 0.6501
vn -0.8627 0.3826 0.3306
vn 0.8629 -0.3796 -0.3337
vn -0.8629 -0.3796 -0.3337
vn 0.0000 -0.4734 -0.8809
vn 0.8632 0.2406 0.4437
vn 0.0000 0.4781 0.8783
vn -0.8632 0.2406 0.4437
vn 0.8633 -0.2394 -0.4443
vn -0.8633 -0.2394 -0.4443
vn 0.0002 -0.2243 -0.9745
vn 0.8626 0.1189 0.4917
vn 0.0000 0.2395 0.9709
vn -0.8627 0.1189 0.4916
vn 0.8627 -0.1150 -0.4924
vn -0.8627 -0.1151 -0.4924
usemtl None
s off
f 15/1/1 19/2/1 6/3/1 23/4/1
f 70/5/1 3/6/1 21/7/1 12/8/1
f 22/9/2 23/10/2 6/11/2 2/12/2
f 12/13/3 6/14/3 19/15/3 70/16/3
f 4/17/4 18/18/4 19/19/4 15/20/4
f 14/21/5 8/22/5 67/23/5 9/24/5
f 72/25/3 16/26/3 10/27/3 13/28/3
f 25/29/5 5/30/5 73/31/5 7/32/5
f 11/33/3 69/34/3 18/35/3 2/36/3
f 17/37/1 74/38/1 16/39/1 72/40/1
f 59/41/6 61/42/6 60/43/6 62/44/6
f 5/45/3 14/46/3 9/47/3 73/48/3
f 43/49/7 45/50/7 52/51/7 54/52/7
f 75/53/8 78/54/8 35/55/8 33/56/8
f 7/57/3 74/58/3 17/59/3 25/60/3
f 47/61/6 49/62/6 48/63/6 50/64/6
f 78/54/9 76/65/9 37/66/9 35/55/9
f 55/67/7 57/68/7 64/69/7 66/70/7
f 15/71/3 23/72/3 22/73/3 4/74/3
f 57/75/8 59/41/8 62/44/8 64/76/8
f 18/77/3 69/34/3 70/16/3 19/78/3
f 77/79/10 75/80/10 33/81/10 31/82/10
f 63/83/3 65/84/3 56/85/3 58/86/3
f 45/87/8 47/61/8 50/64/8 52/88/8
f 76/65/11 99/89/11 39/90/11 37/66/11
f 65/84/12 55/67/12 66/70/12 56/85/12
f 51/91/3 53/92/3 44/93/3 46/94/3
f 13/28/3 14/46/3 5/95/3 72/96/3
f 14/97/2 13/98/2 68/99/2 8/100/2
f 49/62/13 51/91/13 46/94/13 48/63/13
f 99/89/3 100/101/3 41/102/3 39/90/3
f 100/101/14 77/79/14 31/82/14 41/102/14
f 61/42/13 63/83/13 58/86/13 60/43/13
f 53/92/12 43/49/12 54/52/12 44/93/12
f 2/103/3 6/104/3 12/13/3 11/33/3
f 17/105/2 72/106/2 5/107/2 25/108/2
f 22/109/5 2/110/5 18/111/5 4/112/5
f 9/113/4 67/114/4 26/115/4 10/116/4
f 69/117/5 11/118/5 20/119/5 71/120/5
f 10/27/3 16/121/3 73/122/3 9/47/3
f 69/123/4 71/124/4 3/125/4 70/126/4
f 7/127/4 73/128/4 16/129/4 74/130/4
f 11/131/2 12/132/2 21/133/2 20/134/2
f 13/135/1 10/136/1 26/137/1 68/138/1
f 83/139/15 81/140/15 95/141/15 91/142/15
f 84/143/3 83/139/3 91/142/3 92/144/3
f 81/140/16 79/145/16 93/146/16 95/141/16
f 40/147/8 38/148/8 30/149/8 97/150/8
f 36/151/17 34/152/17 27/153/17 28/154/17
f 82/155/18 80/156/18 94/157/18 96/158/18
f 38/148/19 36/151/19 28/154/19 30/149/19
f 32/159/20 42/160/20 29/161/20 98/162/20
f 34/152/3 32/159/3 98/162/3 27/153/3
f 42/160/21 40/163/21 97/164/21 29/161/21
f 80/156/22 84/143/22 92/144/22 94/157/22
f 79/165/8 82/155/8 96/158/8 93/166/8
f 35/55/8 87/167/8 86/168/8 33/56/8
f 37/66/6 88/169/6 87/167/6 35/55/6
f 33/81/7 86/170/7 85/171/7 31/82/7
f 39/90/13 89/172/13 88/169/13 37/66/13
f 41/102/3 90/173/3 89/172/3 39/90/3
f 31/82/12 85/171/12 90/173/12 41/102/12
f 97/150/8 30/149/8 82/155/8 79/165/8
f 29/161/23 97/164/23 79/145/23 81/140/23
f 98/162/24 29/161/24 81/140/24 83/139/24
f 27/153/3 98/162/3 83/139/3 84/143/3
f 30/149/25 28/154/25 80/156/25 82/155/25
f 28/154/26 27/153/26 84/143/26 80/156/26
f 94/157/27 92/144/27 99/89/27 76/65/27
f 96/158/28 94/157/28 76/65/28 78/54/28
f 92/144/3 91/142/3 100/101/3 99/89/3
f 91/142/29 95/141/29 77/79/29 100/101/29
f 95/141/30 93/146/30 75/80/30 77/79/30
f 93/166/8 96/158/8 78/54/8 75/53/8
f 140/174/8 137/175/8 108/176/8 110/177/8
f 138/178/10 140/179/10 110/180/10 112/181/10
f 142/182/14 138/178/14 112/181/14 102/183/14
f 141/184/3 142/182/3 102/183/3 104/185/3
f 137/175/9 139/186/9 106/187/9 108/176/9
f 139/186/11 141/184/11 104/185/11 106/187/11
f 107/188/17 109/189/17 116/190/17 115/191/17
f 105/192/19 107/188/19 115/191/19 113/193/19
f 109/189/3 111/194/3 117/195/3 116/190/3
f 111/194/20 101/196/20 114/197/20 117/195/20
f 101/196/21 103/198/21 118/199/21 114/197/21
f 103/200/8 105/192/8 113/193/8 118/201/8
f 135/202/22 131/203/22 123/204/22 121/205/22
f 133/206/18 135/202/18 121/205/18 119/207/18
f 131/203/3 132/208/3 124/209/3 123/204/3
f 132/208/15 134/210/15 120/211/15 124/209/15
f 134/210/16 136/212/16 122/213/16 120/211/16
f 136/214/8 133/206/8 119/207/8 122/215/8
f 108/176/8 128/216/8 129/217/8 110/177/8
f 106/187/6 127/218/6 128/216/6 108/176/6
f 110/180/7 129/219/7 130/220/7 112/181/7
f 104/185/13 126/221/13 127/218/13 106/187/13
f 102/183/3 125/222/3 126/221/3 104/185/3
f 112/181/12 130/220/12 125/222/12 102/183/12
f 118/201/8 113/193/8 133/206/8 136/214/8
f 114/197/23 118/199/23 136/212/23 134/210/23
f 117/195/24 114/197/24 134/210/24 132/208/24
f 116/190/3 117/195/3 132/208/3 131/203/3
f 113/193/25 115/191/25 135/202/25 133/206/25
f 115/191/26 116/190/26 131/203/26 135/202/26
f 121/205/27 123/204/27 141/184/27 139/186/27
f 119/207/28 121/205/28 139/186/28 137/175/28
f 123/204/3 124/209/3 142/182/3 141/184/3
f 124/209/29 120/211/29 138/178/29 142/182/29
f 120/211/30 122/213/30 140/179/30 138/178/30
f 122/215/8 119/207/8 137/175/8 140/174/8
f 143/223/21 145/224/21 152/225/21 154/226/21
f 147/227/19 149/228/19 148/229/19 150/230/19
f 145/231/8 147/227/8 150/230/8 152/232/8
f 151/233/3 153/234/3 144/235/3 146/236/3
f 149/228/17 151/233/17 146/236/17 148/229/17
f 153/234/20 143/223/20 154/226/20 144/235/20
f 187/237/31 183/238/31 180/239/31 188/240/31
f 188/240/32 180/239/32 182/241/32 189/242/32
f 189/242/4 182/241/4 181/243/4 190/244/4
f 190/245/33 181/246/33 179/247/33 186/248/33
f 185/249/2 184/250/2 183/238/2 187/237/2
f 186/248/34 179/247/34 184/250/34 185/249/34
f 153/234/35 151/233/35 159/251/35 160/252/35
f 149/228/36 147/227/36 158/253/36 156/254/36
f 147/227/37 145/231/37 157/255/37 158/253/37
f 145/224/38 143/223/38 155/256/38 157/257/38
f 151/233/39 149/228/39 156/254/39 159/251/39
f 143/223/40 153/234/40 160/252/40 155/256/40
f 160/252/41 159/251/41 165/258/41 166/259/41
f 156/254/42 158/253/42 164/260/42 162/261/42
f 158/253/43 157/255/43 163/262/43 164/260/43
f 157/257/44 155/256/44 161/263/44 163/264/44
f 159/251/45 156/254/45 162/261/45 165/258/45
f 155/256/46 160/252/46 166/259/46 161/263/46
f 166/259/47 165/258/47 171/265/47 172/266/47
f 162/261/48 164/260/48 170/267/48 168/268/48
f 164/260/49 163/262/49 169/269/49 170/267/49
f 163/264/50 161/263/50 167/270/50 169/271/50
f 165/258/51 162/261/51 168/268/51 171/265/51
f 161/263/52 166/259/52 172/266/52 167/270/52
f 172/266/53 171/265/53 177/272/53 178/273/53
f 168/268/54 170/267/54 176/274/54 174/275/54
f 170/267/55 169/269/55 175/276/55 176/274/55
f 169/271/56 167/270/56 173/277/56 175/278/56
f 171/265/57 168/268/57 174/275/57 177/272/57
f 167/270/58 172/266/58 178/273/58 173/277/58
f 178/273/59 177/272/59 183/238/59 184/250/59
f 174/275/60 176/274/60 182/241/60 180/239/60
f 176/274/61 175/276/61 181/243/61 182/241/61
f 175/278/62 173/277/62 179/247/62 181/246/62
f 177/272/63 174/275/63 180/239/63 183/238/63
f 173/277/64 178/273/64 184/250/64 179/247/64
f 191/279/20 202/280/20 200/281/20 193/282/20
f 195/283/17 198/284/17 196/285/17 197/286/17
f 193/287/3 200/288/3 198/284/3 195/283/3
f 199/289/8 194/290/8 192/291/8 201/292/8
f 197/286/19 196/285/19 194/290/19 199/289/19
f 201/292/21 192/291/21 202/280/21 191/279/21
f 201/292/65 208/293/65 207/294/65 199/289/65
f 197/286/66 204/295/66 206/296/66 195/283/66
f 195/283/67 206/296/67 205/297/67 193/287/67
f 193/282/68 205/298/68 203/299/68 191/279/68
f 199/289/69 207/294/69 204/295/69 197/286/69
f 191/279/70 203/299/70 208/293/70 201/292/70
f 208/293/71 214/300/71 213/301/71 207/294/71
f 204/295/72 210/302/72 212/303/72 206/296/72
f 206/296/73 212/303/73 211/304/73 205/297/73
f 205/298/74 211/305/74 209/306/74 203/299/74
f 207/294/75 213/301/75 210/302/75 204/295/75
f 203/299/76 209/306/76 214/300/76 208/293/76
f 214/300/77 220/307/77 219/308/77 213/301/77
f 210/302/78 216/309/78 218/310/78 212/303/78
f 212/303/79 218/310/79 217/311/79 211/304/79
f 211/305/80 217/312/80 215/313/80 209/306/80
f 213/301/81 219/308/81 216/309/81 210/302/81
f 209/306/82 215/313/82 220/307/82 214/300/82
f 220/307/83 226/314/83 225/315/83 219/308/83
f 216/309/84 222/316/84 224/317/84 218/310/84
f 218/310/85 224/317/85 223/318/85 217/311/85
f 217/312/86 223/319/86 221/320/86 215/313/86
f 219/308/87 225/315/87 222/316/87 216/309/87
f 215/313/88 221/320/88 226/314/88 220/307/88
f 226/314/89 185/249/89 187/237/89 225/315/89
f 222/316/90 188/240/90 189/242/90 224/317/90
f 224/317/91 189/242/91 190/244/91 223/318/91
f 223/319/92 190/245/92 186/248/92 221/320/92
f 225/315/93 187/237/93 188/240/93 222/316/93
f 221/320/94 186/248/94 185/249/94 226/314/94
