# Blender v2.79 (sub 0) OBJ File: 'metalFence_smaller.blend'
# www.blender.org
mtllib metalFenceGrid_smaller.mtl
o object_static_metalFenceGrid_Plane
v 0.109366 5.908732 4.786911
v 0.109367 -5.777005 4.786911
v 0.109366 5.908732 -4.906272
v 0.109367 -5.777005 -4.906272
v 0.141875 5.908732 4.786911
v 0.141875 -5.777005 4.786911
v 0.141874 5.908732 -4.906272
v 0.141875 -5.777005 -4.906272
vt 0.000329 0.499671
vt 0.000329 0.000329
vt 0.602317 0.000329
vt 0.602317 0.499671
vt 0.000329 0.500329
vt 0.602317 0.500329
vt 0.602317 0.999671
vt 0.000329 0.999671
vn -1.0000 -0.0000 0.0000
vn 1.0000 0.0000 -0.0000
usemtl None
s off
f 1/1/1 3/2/1 4/3/1 2/4/1
f 5/5/2 6/6/2 8/7/2 7/8/2
