# Blender v2.82 (sub 7) OBJ File: 'ceiling_generatorRoom2.blend'
# www.blender.org
mtllib ceiling_generatorRoom2.mtl
o object_static_sewerceiling_Cube.000
v -21.738909 1.137740 18.631916
v -15.481161 0.987730 -28.358416
v -15.481161 0.987740 18.631918
v -7.636843 0.987731 -28.358412
v -7.636843 0.987741 18.631922
v -7.636843 1.137740 18.631922
v -7.636843 1.137731 -28.358412
v -15.481161 1.137740 18.631918
v -15.481161 1.137730 -28.358416
v -6.236843 1.137731 -28.358416
v -6.236842 1.137740 18.631918
v -16.881161 1.137740 18.631920
v -16.881161 1.137730 -28.358414
v -6.236843 0.987731 -28.358416
v -6.236842 0.987741 18.631918
v -16.881161 0.987740 18.631920
v -16.881161 0.987730 -28.358414
v 18.561224 1.137741 18.631920
v 18.561226 1.137732 -28.358412
v 4.459163 0.987730 -28.358416
v 4.459163 0.987740 18.631918
v 12.303481 0.987731 -28.358412
v 12.303482 0.987741 18.631922
v 12.303482 1.137740 18.631922
v 12.303481 1.137731 -28.358412
v 4.459163 1.137740 18.631918
v 4.459163 1.137730 -28.358416
v 13.703481 1.137731 -28.358416
v 13.703481 1.137740 18.631918
v 3.059163 1.137740 18.631918
v 3.059162 1.137730 -28.358416
v 13.703481 0.987731 -28.358416
v 13.703481 0.987741 18.631918
v 3.059163 0.987740 18.631918
v 3.059162 0.987730 -28.358416
v -21.738907 1.137735 8.841613
v -26.958818 1.137736 -28.358412
v -26.958820 1.137741 8.841612
vt 0.000932 0.981042
vt 0.000932 0.984144
vt 0.975457 0.984143
vt 0.975457 0.981032
vt 0.000932 0.995958
vt 0.000932 0.999060
vt 0.975457 0.999068
vt 0.975457 0.995957
vt 0.000932 0.986017
vt 0.000932 0.989119
vt 0.975457 0.989118
vt 0.975457 0.986007
vt 0.000932 0.990983
vt 0.000932 0.994085
vt 0.975457 0.994093
vt 0.975457 0.990982
vt 0.975466 0.969200
vt 0.975466 0.966098
vt 0.000932 0.966079
vt 0.000932 0.969190
vt 0.975466 0.974184
vt 0.975466 0.971082
vt 0.000932 0.971064
vt 0.000932 0.974175
vt 0.974791 0.928353
vt 0.974792 0.899338
vt 0.000932 0.899338
vt 0.000932 0.928353
vt 0.974789 0.404308
vt 0.974789 0.211652
vt 0.000932 0.211652
vt 0.000932 0.404309
vt 0.974790 0.733178
vt 0.974790 0.570608
vt 0.000932 0.570607
vt 0.000932 0.733178
vt 0.974791 0.866595
vt 0.974791 0.837581
vt 0.000932 0.837581
vt 0.000932 0.866596
vt 0.974788 0.835717
vt 0.974788 0.735042
vt 0.000932 0.735042
vt 0.000932 0.835717
vt 0.975466 0.964216
vt 0.975466 0.961114
vt 0.000932 0.961095
vt 0.000932 0.964206
vt 0.975466 0.979169
vt 0.975466 0.976067
vt 0.000932 0.976048
vt 0.000932 0.979159
vt 0.974792 0.897474
vt 0.974792 0.868460
vt 0.000932 0.868460
vt 0.000932 0.897475
vt 0.974789 0.209788
vt 0.974789 0.109113
vt 0.771888 0.109113
vt 0.000932 0.209788
vt 0.974790 0.568743
vt 0.974790 0.406173
vt 0.000932 0.406173
vt 0.000932 0.568743
vt 0.974791 0.959231
vt 0.974791 0.930217
vt 0.000932 0.930217
vt 0.000932 0.959231
vt 0.771888 0.000932
vt 0.000932 0.000933
vn -1.0000 0.0000 0.0000
vn 1.0000 0.0000 0.0000
vn 0.0000 -1.0000 0.0000
usemtl Material.010
s off
f 13/1/1 17/2/1 16/3/1 12/4/1
f 7/5/1 4/6/1 5/7/1 6/8/1
f 31/9/1 35/10/1 34/11/1 30/12/1
f 25/13/1 22/14/1 23/15/1 24/16/1
f 26/17/2 21/18/2 20/19/2 27/20/2
f 29/21/2 33/22/2 32/23/2 28/24/2
f 33/25/3 23/26/3 22/27/3 32/28/3
f 30/29/3 11/30/3 10/31/3 31/32/3
f 24/33/3 26/34/3 27/35/3 25/36/3
f 21/37/3 34/38/3 35/39/3 20/40/3
f 18/41/3 29/42/3 28/43/3 19/44/3
f 8/45/2 3/46/2 2/47/2 9/48/2
f 11/49/2 15/50/2 14/51/2 10/52/2
f 15/53/3 5/54/3 4/55/3 14/56/3
f 12/57/3 1/58/3 36/59/3 13/60/3
f 6/61/3 8/62/3 9/63/3 7/64/3
f 3/65/3 16/66/3 17/67/3 2/68/3
f 36/59/3 38/69/3 37/70/3 13/60/3
