# Blender v2.79 (sub 0) OBJ File: 'lightTube.blend'
# www.blender.org
mtllib lightTube.mtl
o object_static_lightTube_Cylinder.3109
v -0.092380 -0.244774 7.087789
v -0.179050 -0.244774 7.087789
v -0.092380 -0.244774 7.164088
v -0.417304 0.185273 -7.288713
v 0.178670 0.375316 -7.288712
v 0.220786 0.393950 -7.288712
v -0.417304 0.185273 7.219143
v -0.492216 0.565778 -7.288716
v -0.347588 0.151979 7.219143
v -0.347588 0.151978 -7.288713
v 0.178670 0.227319 7.219140
v 0.220786 0.393950 7.219141
v -0.492216 0.565778 7.219146
v 0.076158 0.151979 7.219140
v 0.178670 0.375316 7.219141
v -0.492216 0.393950 7.219144
v -0.450100 0.375316 7.219144
v 0.220786 0.565778 7.219143
v -0.450100 0.227319 7.219143
v 0.145874 0.185273 7.219140
v -0.295379 0.151979 7.087789
v -0.295379 -0.088885 7.087789
v 0.023949 0.151979 7.087789
v -0.295379 -0.088885 7.164088
v -0.295379 0.151979 7.164089
v 0.023949 -0.088885 7.164088
v 0.023949 -0.088885 7.087789
v 0.023949 0.151979 7.164089
v -0.004822 -0.184117 7.087789
v -0.266608 -0.184117 7.087789
v -0.295379 -0.088885 -7.157359
v -0.004822 -0.184117 7.164088
v -0.266608 -0.184117 7.164088
v -0.179050 -0.244774 7.164088
v -0.004822 -0.184117 -7.157359
v -0.092380 -0.244774 -7.157359
v -0.266608 -0.184117 -7.233658
v 0.023949 0.151978 -7.233659
v 0.023949 -0.088885 -7.233658
v -0.004822 -0.184117 -7.233658
v -0.179050 -0.244774 -7.233658
v -0.092380 -0.244774 -7.233658
v 0.023949 -0.088885 -7.157359
v 0.023949 0.151978 -7.157359
v 0.178670 0.227319 -7.288710
v 0.076158 0.151978 -7.288710
v -0.450100 0.375316 -7.288714
v 0.145874 0.185273 -7.288710
v -0.450100 0.227319 -7.288713
v -0.492216 0.393950 -7.288714
v 0.220786 0.565778 -7.288713
v -0.179050 -0.244774 -7.157359
v -0.266608 -0.184117 -7.157359
v -0.295379 0.151978 -7.157359
v -0.295379 0.151978 -7.233659
v -0.295379 -0.088885 -7.233658
v -0.238586 0.022048 -6.995763
v -0.135715 -0.226305 -6.995763
v -0.032844 -0.183694 -6.995763
v 0.009767 -0.080823 -6.995763
v -0.135715 0.038447 6.926198
v -0.016446 -0.080822 6.926198
v -0.135715 -0.200091 6.926198
v -0.254984 -0.080822 6.926198
v -0.220051 0.003514 6.926198
v -0.051379 0.003514 7.087791
v -0.135715 0.038447 7.087791
v -0.016446 -0.080822 7.087791
v -0.051379 -0.165158 7.087791
v -0.135715 -0.200091 7.087791
v -0.220051 -0.165158 7.087791
v -0.254984 -0.080822 7.087791
v -0.220051 0.003514 7.087791
v -0.135715 0.064658 -6.995763
v -0.032844 0.022048 -6.995763
v -0.220051 -0.165159 -6.995763
v -0.238586 -0.183694 -6.995763
v -0.281197 -0.080823 -6.995763
v -0.051379 0.003513 -6.995763
v -0.135715 0.038446 -6.995763
v -0.016446 -0.080823 -6.995763
v -0.051379 -0.165159 -6.995763
v -0.135715 -0.200092 -6.995763
v -0.254984 -0.080823 -6.995763
v -0.220051 0.003513 -6.995763
v -0.051379 0.003513 -7.157355
v -0.135715 0.038446 -7.157355
v -0.016446 -0.080823 -7.157355
v -0.051379 -0.165159 -7.157355
v -0.135715 -0.200092 -7.157355
v -0.220051 -0.165159 -7.157355
v -0.254984 -0.080823 -7.157355
v -0.220051 0.003513 -7.157355
v -0.051379 0.003514 6.926198
v -0.051379 -0.165158 6.926198
v -0.220051 -0.165158 6.926198
v -0.032844 0.022049 6.926198
v -0.135715 0.064659 6.926198
v 0.009767 -0.080822 6.926198
v -0.032844 -0.183693 6.926198
v -0.238586 0.022049 6.926198
v -0.135715 -0.226304 6.926198
v -0.238586 -0.183693 6.926198
v -0.281197 -0.080822 6.926198
v -0.238586 0.022049 6.500104
v -0.238586 0.022048 -6.569668
v -0.281197 -0.080822 6.500104
v -0.238586 -0.183693 6.500104
v -0.238586 -0.183694 -6.569668
v -0.135715 -0.226304 6.500104
v -0.135715 -0.226304 -6.569668
v -0.032844 -0.183693 6.500104
v 0.009767 -0.080822 6.500104
v 0.009767 -0.080823 -6.569668
v -0.032844 0.022049 6.500104
v -0.135715 0.064659 -6.569670
v -0.135715 0.064659 6.500103
v -0.281197 -0.080823 -6.569668
v -0.032844 -0.183694 -6.569668
v -0.032844 0.022048 -6.569668
v -0.220051 0.003513 -6.995763
v -0.254984 -0.080823 -6.995763
v -0.135715 0.038446 -6.995763
v -0.051379 0.003513 -6.995763
v -0.016446 -0.080823 -6.995763
v -0.051379 -0.165159 -6.995763
v -0.135715 -0.200092 -6.995763
v -0.220051 -0.165159 -6.995763
v -0.032844 -0.183694 -6.995763
v 0.009767 -0.080823 -6.995763
v -0.135715 -0.226305 -6.995763
v -0.281197 -0.080823 -6.995763
v -0.238586 -0.183694 -6.995763
v -0.032844 0.022048 -6.995763
v -0.135715 0.064658 -6.995763
v -0.238586 0.022048 -6.995763
v -0.032844 0.022049 6.926198
v -0.135715 0.064659 6.926198
v 0.009767 -0.080822 6.926198
v -0.032844 -0.183693 6.926198
v -0.135715 -0.226304 6.926198
v -0.238586 -0.183693 6.926198
v -0.281197 -0.080822 6.926198
v -0.238586 0.022049 6.926198
v -0.051379 -0.165158 6.926198
v -0.016446 -0.080822 6.926198
v -0.220051 0.003514 6.926198
v -0.254984 -0.080822 6.926198
v -0.135715 -0.200091 6.926198
v -0.135715 0.038447 6.926198
v -0.051379 0.003514 6.926198
v -0.220051 -0.165158 6.926198
v -0.092380 -0.244774 7.087789
v -0.179050 -0.244774 7.087789
v 0.023949 -0.088885 7.087789
v -0.004822 -0.184117 7.087789
v -0.295379 -0.088885 7.087789
v -0.295379 0.151979 7.087789
v -0.266608 -0.184117 7.087789
v 0.023949 0.151979 7.087789
v -0.266608 -0.184117 7.164088
v -0.179050 -0.244774 7.164088
v -0.092380 -0.244774 7.164088
v -0.004822 -0.184117 7.164088
v 0.023949 -0.088885 7.164088
v 0.023949 0.151979 7.164089
v -0.295379 0.151979 7.164089
v -0.295379 -0.088885 7.164088
v -0.092380 -0.244774 -7.233658
v -0.179050 -0.244774 -7.233658
v -0.004822 -0.184117 -7.233658
v 0.023949 -0.088885 -7.233658
v -0.266608 -0.184117 -7.233658
v 0.023949 0.151978 -7.233659
v -0.295379 -0.088885 -7.233658
v -0.295379 0.151978 -7.233659
v -0.004822 -0.184117 -7.157359
v -0.092380 -0.244774 -7.157359
v 0.023949 0.151978 -7.157359
v 0.023949 -0.088885 -7.157359
v -0.179050 -0.244774 -7.157359
v -0.266608 -0.184117 -7.157359
v -0.295379 -0.088885 -7.157359
v -0.295379 0.151978 -7.157359
v -0.347588 0.151978 -7.288713
v -0.417304 0.185273 -7.288713
v 0.220786 0.393950 -7.288712
v 0.178670 0.375316 -7.288712
v 0.178670 0.227319 -7.288710
v 0.145874 0.185273 -7.288710
v -0.450100 0.375316 -7.288714
v -0.450100 0.227319 -7.288713
v 0.076158 0.151978 -7.288710
v -0.492216 0.393950 -7.288714
v 0.220786 0.565778 -7.288713
v -0.492216 0.565778 -7.288716
v -0.347588 0.151979 7.219143
v -0.417304 0.185273 7.219143
v 0.178670 0.375316 7.219141
v 0.178670 0.227319 7.219140
v -0.450100 0.375316 7.219144
v -0.450100 0.227319 7.219143
v 0.076158 0.151979 7.219140
v 0.145874 0.185273 7.219140
v -0.492216 0.393950 7.219144
v -0.492216 0.565778 7.219146
v 0.220786 0.565778 7.219143
v 0.220786 0.393950 7.219141
vt 0.402048 0.167587
vt 0.402048 0.152905
vt 0.339670 0.152905
vt 0.339670 0.167587
vt 0.406226 0.151056
vt 0.406226 0.134010
vt 0.335491 0.134010
vt 0.335491 0.151056
vt 0.398794 0.171758
vt 0.342923 0.171758
vt 0.349840 0.175061
vt 0.391878 0.175061
vt 0.350953 0.209145
vt 0.374848 0.209153
vt 0.374859 0.177474
vt 0.350964 0.177465
vt 0.341515 0.180316
vt 0.335494 0.189001
vt 0.335491 0.197599
vt 0.341506 0.206287
vt 0.374852 0.211557
vt 0.350957 0.211557
vt 0.341509 0.214411
vt 0.335491 0.223098
vt 0.335491 0.231696
vt 0.341509 0.240382
vt 0.350957 0.243236
vt 0.374852 0.243236
vt 0.402047 0.098028
vt 0.339669 0.098028
vt 0.339670 0.112710
vt 0.402047 0.112710
vt 0.406226 0.114559
vt 0.335491 0.114559
vt 0.335492 0.131605
vt 0.406226 0.131605
vt 0.398794 0.093856
vt 0.342923 0.093857
vt 0.391877 0.090554
vt 0.349839 0.090554
vt 0.367171 0.295190
vt 0.364316 0.285742
vt 0.355630 0.279724
vt 0.347032 0.279724
vt 0.338346 0.285742
vt 0.335491 0.295190
vt 0.335491 0.319085
vt 0.367171 0.319085
vt 0.374852 0.277320
vt 0.374852 0.245641
vt 0.350957 0.245641
vt 0.341509 0.248495
vt 0.335491 0.257181
vt 0.335491 0.265779
vt 0.341509 0.274466
vt 0.350957 0.277320
vt 0.377386 0.306392
vt 0.388432 0.306392
vt 0.387437 0.303990
vt 0.378381 0.303990
vt 0.377386 0.279724
vt 0.369575 0.287535
vt 0.371978 0.288530
vt 0.378381 0.282127
vt 0.396243 0.298582
vt 0.396243 0.287535
vt 0.393841 0.288530
vt 0.393841 0.297586
vt 0.369575 0.298582
vt 0.371978 0.297586
vt 0.388432 0.279724
vt 0.387437 0.282127
vt 0.385067 0.211557
vt 0.386062 0.213960
vt 0.395118 0.213960
vt 0.396113 0.211557
vt 0.385067 0.238225
vt 0.386062 0.235823
vt 0.379659 0.229419
vt 0.377256 0.230414
vt 0.403924 0.219368
vt 0.401522 0.220363
vt 0.401522 0.229419
vt 0.403924 0.230414
vt 0.377256 0.219368
vt 0.379659 0.220363
vt 0.396113 0.238225
vt 0.395118 0.235823
vt 0.408858 0.368334
vt 0.408858 0.375903
vt 0.432753 0.375903
vt 0.432753 0.368334
vt 0.379823 0.368334
vt 0.379823 0.375903
vt 0.388421 0.375903
vt 0.388421 0.368334
vt 0.398988 0.368334
vt 0.398988 0.375903
vt 0.369256 0.368334
vt 0.369256 0.375903
vt 0.359387 0.368334
vt 0.359387 0.375903
vt 0.335491 0.368334
vt 0.335491 0.375903
vt 0.070758 0.998361
vt 0.088148 0.998223
vt 0.088148 0.001776
vt 0.070758 0.001914
vt 0.204199 0.998798
vt 0.204203 0.002350
vt 0.186812 0.002253
vt 0.186808 0.998700
vt 0.117253 0.998223
vt 0.117257 0.001777
vt 0.053371 0.001674
vt 0.053371 0.998122
vt 0.001202 0.001202
vt 0.001202 0.997651
vt 0.018593 0.997748
vt 0.018593 0.001300
vt 0.035980 0.001548
vt 0.035980 0.997996
vt 0.152031 0.998325
vt 0.152035 0.001878
vt 0.134648 0.001639
vt 0.134643 0.998086
vt 0.169421 0.998452
vt 0.169425 0.002004
vt 0.408858 0.365929
vt 0.432753 0.365929
vt 0.432753 0.358360
vt 0.408858 0.358360
vt 0.398988 0.358360
vt 0.398988 0.365929
vt 0.388421 0.358360
vt 0.388421 0.365929
vt 0.379823 0.358360
vt 0.369256 0.358360
vt 0.369256 0.365929
vt 0.379823 0.365929
vt 0.359387 0.358360
vt 0.359387 0.365929
vt 0.335491 0.358360
vt 0.335491 0.365929
vt 0.357584 0.043473
vt 0.357584 0.001202
vt 0.346538 0.001202
vt 0.346538 0.043473
vt 0.335491 0.001202
vt 0.335491 0.043473
vt 0.368630 0.043473
vt 0.368630 0.001202
vt 0.379677 0.043473
vt 0.379677 0.001202
vt 0.390723 0.043473
vt 0.390723 0.001202
vt 0.401769 0.043473
vt 0.401769 0.001202
vt 0.412815 0.043473
vt 0.412815 0.001202
vt 0.423862 0.043474
vt 0.423862 0.001202
vt 0.380772 0.355955
vt 0.389828 0.355955
vt 0.389828 0.339924
vt 0.380772 0.339924
vt 0.398884 0.355955
vt 0.407940 0.355955
vt 0.407940 0.339924
vt 0.398884 0.339924
vt 0.335491 0.355955
vt 0.344547 0.355955
vt 0.344547 0.339924
vt 0.335491 0.339924
vt 0.353603 0.355955
vt 0.362659 0.355955
vt 0.362659 0.339924
vt 0.353603 0.339924
vt 0.371715 0.355955
vt 0.371715 0.339924
vt 0.380772 0.321489
vt 0.380771 0.337520
vt 0.389828 0.337520
vt 0.389828 0.321489
vt 0.398884 0.321489
vt 0.398884 0.337520
vt 0.407940 0.337520
vt 0.407939 0.321489
vt 0.335491 0.321489
vt 0.335491 0.337520
vt 0.344547 0.337520
vt 0.344547 0.321489
vt 0.353603 0.321489
vt 0.353603 0.337520
vt 0.362659 0.337520
vt 0.362659 0.321489
vt 0.371715 0.321489
vt 0.371715 0.337520
vt 0.423862 0.088149
vt 0.423862 0.045878
vt 0.412815 0.045878
vt 0.412815 0.088149
vt 0.333087 0.908259
vt 0.333087 0.002332
vt 0.317277 0.002190
vt 0.317277 0.908117
vt 0.401769 0.045878
vt 0.401769 0.088149
vt 0.301467 0.002049
vt 0.301467 0.907976
vt 0.390723 0.045878
vt 0.390723 0.088149
vt 0.285657 0.001908
vt 0.285657 0.907835
vt 0.379677 0.045878
vt 0.379677 0.088149
vt 0.269847 0.001767
vt 0.269847 0.907694
vt 0.368630 0.045878
vt 0.368630 0.088149
vt 0.254038 0.001626
vt 0.254038 0.907552
vt 0.357584 0.045878
vt 0.357584 0.088149
vt 0.238228 0.001484
vt 0.238228 0.907411
vt 0.346538 0.088149
vt 0.346538 0.045878
vt 0.335491 0.045878
vt 0.335491 0.088149
vt 0.222418 0.907270
vt 0.222418 0.001343
vt 0.206608 0.001202
vt 0.206608 0.907129
vn 0.0000 -0.0000 1.0000
vn 0.0000 0.0000 -1.0000
vn -0.9893 -0.1462 0.0000
vn -1.0000 0.0000 0.0000
vn 0.2983 -0.9545 0.0000
vn -0.2983 -0.9545 0.0000
vn -0.8085 -0.5885 0.0000
vn 0.8085 -0.5885 0.0000
vn 0.9893 -0.1462 0.0000
vn 1.0000 0.0000 0.0000
vn -0.6264 -0.7795 0.0000
vn -0.2209 -0.9753 0.0000
vn 0.8380 -0.5456 0.0000
vn 0.2209 -0.9753 0.0000
vn -0.9456 -0.3252 0.0000
vn -0.8380 -0.5456 0.0000
vn 0.9456 -0.3252 0.0000
vn 0.6264 -0.7795 0.0000
vn -0.7071 0.7071 0.0000
vn 0.0000 1.0000 0.0000
vn -0.7071 -0.7071 0.0000
vn 0.0000 -1.0000 0.0000
vn 0.7071 -0.7071 0.0000
vn 0.7071 0.7071 0.0000
usemtl Material.001
s off
f 11/1/1 15/2/1 17/3/1 19/4/1
f 12/5/1 18/6/1 13/7/1 205/8/1
f 15/2/1 12/5/1 205/8/1 17/3/1
f 20/9/1 11/1/1 19/4/1 7/10/1
f 20/9/1 7/10/1 9/11/1 14/12/1
f 26/13/1 28/14/1 167/15/1 24/16/1 33/17/1 34/18/1 3/19/1 32/20/1
f 160/21/2 27/22/2 29/23/2 1/24/2 2/25/2 30/26/2 22/27/2 21/28/2
f 45/29/2 49/30/2 47/31/2 5/32/2
f 6/33/2 50/34/2 8/35/2 51/36/2
f 5/32/2 47/31/2 50/34/2 6/33/2
f 48/37/2 4/38/2 49/30/2 45/29/2
f 48/37/2 46/39/2 10/40/2 4/38/2
f 39/41/2 40/42/2 42/43/2 41/44/2 37/45/2 56/46/2 55/47/2 38/48/2
f 44/49/1 54/50/1 31/51/1 53/52/1 52/53/1 36/54/1 35/55/1 43/56/1
f 102/57/1 100/58/1 95/59/1 63/60/1
f 101/61/1 104/62/1 64/63/1 65/64/1
f 99/65/1 97/66/1 151/67/1 62/68/1
f 103/69/1 102/57/1 63/60/1 152/70/1
f 98/71/1 101/61/1 65/64/1 61/72/1
f 97/66/1 98/71/1 61/72/1 151/67/1
f 100/58/1 99/65/1 62/68/1 95/59/1
f 104/62/1 103/69/1 152/70/1 64/63/1
f 131/73/2 83/74/2 126/75/2 129/76/2
f 57/77/2 85/78/2 84/79/2 132/80/2
f 130/81/2 81/82/2 124/83/2 134/84/2
f 77/85/2 128/86/2 83/74/2 131/73/2
f 135/87/2 80/88/2 85/78/2 57/77/2
f 134/84/2 124/83/2 80/88/2 135/87/2
f 129/76/2 126/75/2 81/82/2 130/81/2
f 132/80/2 84/79/2 128/86/2 77/85/2
s 1
f 157/89/3 168/90/3 25/91/4 158/92/4
f 153/93/5 163/94/5 162/95/6 154/96/6
f 159/97/7 161/98/7 168/90/3 157/89/3
f 154/96/6 162/95/6 161/98/7 159/97/7
f 156/99/8 164/100/8 163/94/5 153/93/5
f 155/101/9 165/102/9 164/100/8 156/99/8
f 165/102/9 155/101/9 23/103/10 166/104/10
f 186/105/11 185/106/12 197/107/12 198/108/11
f 195/109/10 207/110/10 208/111/13 187/112/13
f 193/113/14 203/114/14 197/107/12 185/106/12
f 202/115/15 192/116/15 186/105/11 198/108/11
f 206/117/4 196/118/4 194/119/16 16/120/16
f 201/121/16 191/122/16 192/116/15 202/115/15
f 16/120/16 194/119/16 191/122/16 201/121/16
f 189/123/17 200/124/17 204/125/18 190/126/18
f 204/125/18 203/114/14 193/113/14 190/126/18
f 188/127/13 199/128/13 200/124/17 189/123/17
f 187/112/13 208/111/13 199/128/13 188/127/13
f 172/129/9 174/130/10 179/131/10 180/132/9
f 180/132/9 177/133/8 171/134/8 172/129/9
f 177/133/8 178/135/5 169/136/5 171/134/8
f 181/137/6 182/138/7 173/139/7 170/140/6
f 182/138/7 183/141/3 175/142/3 173/139/7
f 178/135/5 181/137/6 170/140/6 169/136/5
f 183/141/3 184/143/4 176/144/4 175/142/3
f 107/145/4 143/146/4 144/147/19 105/148/19
f 105/148/19 144/147/19 138/149/20 117/150/20
f 108/151/21 142/152/21 143/146/4 107/145/4
f 110/153/22 141/154/22 142/152/21 108/151/21
f 112/155/23 140/156/23 141/154/22 110/153/22
f 113/157/10 139/158/10 140/156/23 112/155/23
f 115/159/24 137/160/24 139/158/10 113/157/10
f 117/161/20 138/162/20 137/160/24 115/159/24
f 145/163/23 146/164/10 68/165/10 69/166/23
f 94/167/24 150/168/20 67/169/20 66/170/24
f 150/171/20 147/172/19 73/173/19 67/174/20
f 148/175/4 96/176/21 71/177/21 72/178/4
f 149/179/22 145/163/23 69/166/23 70/180/22
f 146/164/10 94/167/24 66/170/24 68/165/10
f 147/172/19 148/175/4 72/178/4 73/173/19
f 96/176/21 149/179/22 70/180/22 71/177/21
f 82/181/23 89/182/23 88/183/10 125/184/10
f 79/185/24 86/186/24 87/187/20 123/188/20
f 123/189/20 87/190/20 93/191/19 121/192/19
f 122/193/4 92/194/4 91/195/21 76/196/21
f 127/197/22 90/198/22 89/182/23 82/181/23
f 125/184/10 88/183/10 86/186/24 79/185/24
f 121/192/19 93/191/19 92/194/4 122/193/4
f 76/196/21 91/195/21 90/198/22 127/197/22
f 74/199/20 116/200/20 120/201/24 75/202/24
f 116/203/20 117/204/20 115/205/24 120/206/24
f 75/202/24 120/201/24 114/207/10 60/208/10
f 120/206/24 115/205/24 113/209/10 114/210/10
f 60/208/10 114/207/10 119/211/23 59/212/23
f 114/210/10 113/209/10 112/213/23 119/214/23
f 59/212/23 119/211/23 111/215/22 58/216/22
f 119/214/23 112/213/23 110/217/22 111/218/22
f 58/216/22 111/215/22 109/219/21 133/220/21
f 111/218/22 110/217/22 108/221/21 109/222/21
f 133/220/21 109/219/21 118/223/4 78/224/4
f 109/222/21 108/221/21 107/225/4 118/226/4
f 136/227/19 106/228/19 116/229/20 74/230/20
f 106/231/19 105/232/19 117/233/20 116/234/20
f 78/224/4 118/223/4 106/228/19 136/227/19
f 118/226/4 107/225/4 105/232/19 106/231/19
