# Blender v2.79 (sub 0) OBJ File: 'bridgeRoom.blend'
# www.blender.org
mtllib bridgeRoomFloor.mtl
o object_static_bridgeRoomFloor_Cube.006
v 1.291530 0.711414 21.593487
v -11.108472 0.711415 21.593489
v 1.291537 0.711414 30.893482
v -11.108464 0.711415 30.893486
v 7.380721 -0.836360 30.893471
v 6.654674 -1.494661 30.893471
v 5.857415 -1.818565 30.893471
v 5.857411 -1.818565 21.593473
v 6.654666 -1.494661 21.593473
v 7.380713 -0.836359 21.593473
v 2.831940 -0.836360 21.593473
v 3.557985 -1.494661 21.593473
v 4.355239 -1.818565 21.593473
v 4.355245 -1.818565 30.893471
v 3.557991 -1.494661 30.893471
v 2.831946 -0.836359 30.893471
v 7.619809 0.183682 21.593473
v 7.921092 0.183682 21.593473
v 5.106326 -1.880973 21.593473
v 5.106330 -1.880973 30.893473
v 2.291564 0.183682 30.893471
v 2.291559 0.183682 21.593473
v 7.619815 0.183682 30.893473
v 2.592849 0.183682 30.893471
v 2.592844 0.183682 21.593473
v 2.291533 1.011415 21.593483
v 1.291533 1.011415 21.593483
v 1.291538 1.011415 30.893482
v 2.291538 1.011415 30.893482
v 7.921063 0.183681 30.893482
v 7.921063 0.711414 30.893482
v 8.451344 0.711414 30.893482
v 7.921056 0.711414 21.593485
v 8.451337 0.711414 21.593485
v 5.857411 -1.818565 19.969492
v 6.654666 -1.494661 19.969492
v 7.380713 -0.836359 19.969492
v 2.831940 -0.836360 19.969492
v 3.557985 -1.494661 19.969492
v 4.355239 -1.818565 19.969492
v 7.619809 0.183682 19.969492
v 7.921092 0.183682 19.969492
v 5.106326 -1.880973 19.969492
v 2.291559 0.183682 19.969492
v 2.592844 0.183682 19.969492
v 5.947442 -2.131346 19.969492
v 6.840261 -1.756843 19.969492
v 7.653337 -0.995705 19.969492
v 2.559316 -0.995705 19.969492
v 3.372390 -1.756843 19.969492
v 4.265208 -2.131346 19.969492
v 5.106326 -2.203503 19.969492
v 5.947442 -2.131346 21.593473
v 6.840261 -1.756843 21.593473
v 7.653337 -0.995705 21.593473
v 2.559316 -0.995705 21.593473
v 3.372390 -1.756843 21.593473
v 4.265208 -2.131346 21.593473
v 5.106326 -2.203503 21.593473
v 2.291551 0.711414 30.893475
v 2.291546 0.711414 21.593479
v 4.834547 0.711414 -30.969604
v -7.565453 0.711415 -30.969604
v 4.834554 0.711414 -21.669598
v -7.565447 0.711415 -21.669594
vt 0.903901 0.001728
vt 0.903900 0.599247
vt 0.455761 0.599247
vt 0.455761 0.001727
vt 0.081359 0.983353
vt 0.529516 0.983353
vt 0.529516 0.997870
vt 0.081359 0.997870
vt 0.081367 0.964444
vt 0.529497 0.964444
vt 0.529497 0.978962
vt 0.081367 0.978962
vt 0.983522 0.666648
vt 0.535375 0.666649
vt 0.535375 0.652192
vt 0.983522 0.652193
vt 0.981953 0.830045
vt 0.533815 0.830045
vt 0.533815 0.781858
vt 0.981953 0.781858
vt 0.981954 0.746500
vt 0.981953 0.771930
vt 0.533817 0.771930
vt 0.533817 0.746500
vt 0.533817 0.702100
vt 0.981956 0.702100
vt 0.981956 0.727652
vt 0.533817 0.727652
vt 0.981955 0.672279
vt 0.981955 0.697708
vt 0.533817 0.697709
vt 0.533816 0.672279
vt 0.003110 0.978962
vt 0.003110 0.964444
vt 0.003110 0.997870
vt 0.003110 0.983353
vt 0.645857 0.938113
vt 0.682050 0.941120
vt 0.682050 0.956662
vt 0.641519 0.953185
vt 0.572454 0.890783
vt 0.607440 0.922505
vt 0.598496 0.935138
vt 0.559317 0.898461
vt 0.718242 0.938113
vt 0.756660 0.922505
vt 0.765603 0.935138
vt 0.722580 0.953185
vt 0.560932 0.841630
vt 0.546414 0.841630
vt 0.791646 0.890783
vt 0.803167 0.841630
vt 0.817685 0.841630
vt 0.804783 0.898462
vt 0.981954 0.732044
vt 0.533817 0.732044
vt 0.657078 0.840122
vt 0.705265 0.840121
vt 0.705265 0.854578
vt 0.657078 0.854578
vt 0.451370 0.001727
vt 0.451370 0.599247
vt 0.003231 0.599247
vt 0.003230 0.001727
vt 0.081452 0.705841
vt 0.529591 0.705995
vt 0.529576 0.747462
vt 0.081437 0.747308
vt 0.081412 0.819942
vt 0.529551 0.820097
vt 0.529537 0.861564
vt 0.081398 0.861409
vt 0.529521 0.908790
vt 0.081382 0.908635
vt 0.081485 0.608130
vt 0.529624 0.608285
vt 0.529607 0.658769
vt 0.081468 0.658615
vt 0.081425 0.783625
vt 0.529564 0.783780
vt 0.529503 0.959275
vt 0.081364 0.959120
vt 0.003197 0.705814
vt 0.003213 0.658588
vt 0.003158 0.819915
vt 0.003170 0.783598
vt 0.003182 0.747281
vt 0.003230 0.608103
vt 0.003110 0.959093
vt 0.003127 0.908608
vt 0.003143 0.861382
vt 0.908291 0.062800
vt 0.908292 0.004522
vt 0.986546 0.004523
vt 0.986546 0.062800
vt 0.908292 0.203801
vt 0.908292 0.163122
vt 0.986546 0.163122
vt 0.986546 0.203801
vt 0.908292 0.291135
vt 0.908292 0.244481
vt 0.986546 0.244481
vt 0.986546 0.291135
vt 0.908291 0.116468
vt 0.986546 0.116468
vt 0.908292 0.403080
vt 0.908292 0.344803
vt 0.986546 0.344803
vt 0.986546 0.403080
vn 0.0000 1.0000 0.0000
vn -1.0000 0.0000 0.0000
vn 1.0000 0.0000 -0.0000
vn 0.0000 0.0000 -1.0000
vn 0.5322 0.8466 0.0000
vn 0.2322 0.9726 0.0000
vn -0.2322 0.9726 0.0000
vn -0.5322 0.8466 0.0000
vn -0.8616 0.5075 0.0000
vn 0.6212 0.7836 0.0000
vn 0.8616 0.5075 0.0000
vn -0.6212 0.7837 0.0000
vn -0.6212 0.7836 0.0000
vn 0.3529 0.5614 -0.7485
vn 0.5386 0.3172 -0.7806
vn -0.1555 0.6513 -0.7427
vn 0.0000 0.6874 -0.7262
vn 0.1555 0.6513 -0.7427
vn 0.5014 0.6325 -0.5904
vn -0.5014 0.6325 -0.5904
vn -0.5386 0.3172 -0.7806
vn -0.3529 0.5614 -0.7485
vn 0.6616 -0.3795 -0.6467
vn 0.6440 0.5141 -0.5665
vn -0.0139 0.9999 0.0000
vn 0.8674 -0.4976 0.0000
vn 0.0000 -0.7254 -0.6883
vn 0.1766 -0.7175 -0.6738
vn 0.2390 -0.9710 0.0000
vn 0.0000 -1.0000 0.0000
vn -0.4039 -0.6235 -0.6694
vn -0.1766 -0.7175 -0.6738
vn -0.2390 -0.9710 0.0000
vn -0.5437 -0.8393 0.0000
vn 0.4039 -0.6235 -0.6694
vn 0.5437 -0.8393 0.0000
vn -0.6440 0.5141 -0.5665
vn -0.6616 -0.3795 -0.6467
vn -0.8674 -0.4976 0.0000
vn 0.0139 0.9999 0.0000
usemtl Material
s off
f 4/1/1 3/2/1 1/3/1 2/4/1
f 17/5/1 23/6/1 30/7/1 18/8/1
f 22/9/1 21/10/1 24/11/1 25/12/1
f 28/13/2 27/14/2 1/15/2 3/16/2
f 29/17/1 26/18/1 27/19/1 28/20/1
f 60/21/3 21/22/3 22/23/3 61/24/3
f 33/25/1 31/26/1 32/27/1 34/28/1
f 30/29/2 31/30/2 33/31/2 18/32/2
f 22/9/1 25/12/1 45/33/1 44/34/1
f 17/5/1 18/8/1 42/35/1 41/36/1
f 40/37/4 43/38/4 52/39/4 51/40/4
f 38/41/4 39/42/4 50/43/4 49/44/4
f 35/45/4 36/46/4 47/47/4 46/48/4
f 45/49/4 38/41/4 49/44/4 44/50/4
f 43/38/4 35/45/4 46/48/4 52/39/4
f 39/42/4 40/37/4 51/40/4 50/43/4
f 37/51/4 41/52/4 42/53/4 48/54/4
f 36/46/4 37/51/4 48/54/4 47/47/4
f 29/55/3 60/21/3 61/24/3 26/56/3
f 27/57/4 26/58/4 61/59/4 1/60/4
f 65/61/1 64/62/1 62/63/1 63/64/1
s 1
f 12/65/5 15/66/5 14/67/6 13/68/6
f 8/69/7 7/70/7 6/71/8 9/72/8
f 9/72/8 6/71/8 5/73/9 10/74/9
f 25/75/10 24/76/10 16/77/11 11/78/11
f 11/78/11 16/77/11 15/66/5 12/65/5
f 19/79/1 20/80/1 7/70/7 8/69/7
f 13/68/6 14/67/6 20/80/1 19/79/1
f 10/74/9 5/73/9 23/81/12 17/82/13
f 11/78/11 12/65/5 39/83/14 38/84/15
f 19/79/1 8/69/7 35/85/16 43/86/17
f 12/65/5 13/68/6 40/87/18 39/83/14
f 25/75/10 11/78/11 38/84/15 45/88/19
f 10/74/9 17/82/13 41/89/20 37/90/21
f 13/68/6 19/79/1 43/86/17 40/87/18
f 9/72/8 10/74/9 37/90/21 36/91/22
f 8/69/7 9/72/8 36/91/22 35/85/16
f 48/92/23 42/93/24 18/94/25 55/95/26
f 52/96/27 46/97/28 53/98/29 59/99/30
f 50/100/31 51/101/32 58/102/33 57/103/34
f 47/104/35 48/92/23 55/95/26 54/105/36
f 44/106/37 49/107/38 56/108/39 22/109/40
f 51/101/32 52/96/27 59/99/30 58/102/33
f 49/107/38 50/100/31 57/103/34 56/108/39
f 46/97/28 47/104/35 54/105/36 53/98/29
