# Blender v2.82 (sub 7) OBJ File: 'crate.blend'
# www.blender.org
mtllib crate.mtl
o object_static_crate_Cube
v -1.000000 -1.000000 1.000000
v -1.000000 1.066212 1.000000
v -1.000000 -1.000000 -1.000000
v -1.000000 1.066212 -1.000000
v 1.000000 -1.000000 1.000000
v 1.000000 1.066212 1.000000
v 1.000000 -1.000000 -1.000000
v 1.000000 1.066212 -1.000000
v -1.000000 -0.828743 1.000000
v -1.000000 -0.828743 -1.000000
v 1.000000 -0.828743 -1.000000
v 1.000000 -0.828743 1.000000
v 1.000000 -0.828743 0.850000
v -1.000000 -0.828743 0.850000
v 1.000000 -0.828743 -0.850000
v -1.000000 -0.828743 -0.850000
v -1.000000 0.838170 1.000000
v -1.000000 0.838170 -1.000000
v 1.000000 0.838170 -1.000000
v 1.000000 0.838170 1.000000
v 1.000000 0.838170 0.850000
v -1.000000 0.838170 0.850000
v 1.000000 0.838170 -0.850000
v -1.000000 0.838170 -0.850000
v 0.850000 -1.000000 0.850000
v 0.850000 -1.000000 -0.850000
v 0.850000 -0.828743 1.000000
v 0.850000 -0.828743 -1.000000
v 0.850000 0.838170 1.000000
v 0.850000 0.838170 -1.000000
v -0.850000 -1.000000 0.850000
v -0.850000 -1.000000 -0.850000
v -0.850000 -0.828743 1.000000
v -0.850000 0.838170 1.000000
v -0.850000 -0.828743 -1.000000
v -0.850000 0.838170 -1.000000
v 0.960000 0.838170 0.850000
v 0.960000 -0.828743 0.850000
v 0.960000 0.838170 -0.850000
v 0.960000 -0.828743 -0.850000
v -0.850000 -0.828743 -0.960000
v 0.850000 -0.828743 -0.960000
v -0.850000 0.838170 -0.960000
v 0.850000 0.838170 -0.960000
v -0.960000 0.838170 0.850000
v -0.960000 -0.828743 0.850000
v -0.960000 0.838170 -0.850000
v -0.960000 -0.828743 -0.850000
v 0.850000 0.838170 0.960000
v 0.850000 -0.828743 0.960000
v -0.850000 -0.828743 0.960000
v -0.850000 0.838170 0.960000
v -0.083792 1.066212 -1.000000
v 0.083792 1.066212 -1.000000
v -0.083792 -1.000000 1.000000
v 0.083792 -1.000000 1.000000
v -0.083792 -0.828743 -1.000000
v 0.083792 -0.828743 -1.000000
v -0.083792 0.838170 -1.000000
v 0.083792 0.838170 -1.000000
v 0.083792 -1.000000 -1.000000
v -0.083792 -1.000000 -1.000000
v 0.083792 1.066212 1.000000
v -0.083792 1.066212 1.000000
v 0.083792 -1.000000 0.850000
v -0.083792 -1.000000 0.850000
v 0.083792 -1.000000 -0.850000
v -0.083792 -1.000000 -0.850000
v 0.083792 -0.828743 1.000000
v -0.083792 -0.828743 1.000000
v 0.083792 0.838170 1.000000
v -0.083792 0.838170 1.000000
v -0.083792 -0.828743 -0.960000
v 0.083792 -0.828743 -0.960000
v -0.083792 0.838170 -0.960000
v 0.083792 0.838170 -0.960000
v 0.083792 -0.828743 0.960000
v -0.083792 -0.828743 0.960000
v 0.083792 0.838170 0.960000
v -0.083792 0.838170 0.960000
v 1.000000 0.838170 0.700000
v -1.000000 -1.000000 0.700000
v 1.000000 -0.828743 0.700000
v -1.000000 0.838170 0.700000
v -1.000000 -0.828743 0.700000
v 1.000000 -1.000000 0.700000
v 1.000000 0.838170 -0.700000
v -1.000000 -1.000000 -0.700000
v 1.000000 -0.828743 -0.700000
v 1.000000 -1.000000 -0.700000
v -1.000000 -0.828743 -0.700000
v -1.000000 0.838170 -0.700000
v -0.700000 -1.000000 -1.000000
v -0.700000 -0.828743 1.000000
v -0.700000 0.838170 1.000000
v -0.700000 -1.000000 1.000000
v -0.700000 -0.828743 -1.000000
v -0.700000 0.838170 -1.000000
v 0.700000 -1.000000 1.000000
v 0.700000 -0.828743 -1.000000
v 0.700000 0.838170 -1.000000
v 0.700000 -1.000000 -1.000000
v 0.700000 -0.828743 1.000000
v 0.700000 0.838170 1.000000
v -1.000000 1.045534 1.000000
v -1.000000 1.045534 -1.000000
v 1.000000 1.045534 -1.000000
v 1.000000 1.045534 1.000000
v 0.083792 1.045534 1.000000
v -0.083792 1.045534 1.000000
v -0.083792 1.045534 -1.000000
v 0.083792 1.045534 -1.000000
v -1.000000 1.045534 0.700000
v 1.000000 1.045534 0.700000
v 1.000000 1.045534 -0.700000
v -1.000000 1.045534 -0.700000
v -0.700000 1.045534 -1.000000
v -0.700000 1.045534 1.000000
v 0.700000 1.045534 1.000000
v 0.700000 1.045534 -1.000000
v 0.700000 0.838170 1.010000
v 0.700000 1.045534 1.010000
v 1.010000 1.045534 1.010000
v 1.010000 1.045534 0.700000
v 1.010000 0.838170 0.700000
v 1.010000 0.838170 1.010000
v 1.010000 0.838170 -0.700000
v 1.010000 1.045534 -0.700000
v 0.700000 0.838170 -1.010000
v 0.700000 1.045534 -1.010000
v 1.010000 1.045534 -1.010000
v 1.010000 0.838170 -1.010000
v -0.700000 0.838170 -1.010000
v -0.700000 1.045534 -1.010000
v -1.010000 0.838170 -0.700000
v -1.010000 1.045534 -0.700000
v -1.010000 1.045534 -1.010000
v -1.010000 0.838170 -1.010000
v -1.010000 1.045534 0.700000
v -1.010000 0.838170 0.700000
v -1.010000 1.045534 1.010000
v -0.700000 0.838170 1.010000
v -0.700000 1.045534 1.010000
v -1.010000 0.838170 1.010000
v -1.010000 -1.000000 -0.700000
v -1.010000 -0.828743 0.700000
v -1.010000 -1.000000 0.700000
v -1.010000 -0.828743 -0.700000
v -1.010000 -0.828743 -1.010000
v 0.700000 -0.828743 -1.010000
v -0.700000 -1.000000 -1.010000
v -0.700000 -0.828743 -1.010000
v 0.700000 -1.000000 -1.010000
v -1.010000 -1.000000 -1.010000
v 1.010000 -0.828743 -0.700000
v 1.010000 -0.828743 -1.010000
v 1.010000 -1.000000 -1.010000
v 1.010000 -0.828743 0.700000
v 1.010000 -1.000000 0.700000
v 1.010000 -1.000000 -0.700000
v 1.010000 -0.828743 1.010000
v 0.700000 -1.000000 1.010000
v -0.700000 -0.828743 1.010000
v -0.700000 -1.000000 1.010000
v 0.700000 -0.828743 1.010000
v -1.010000 -1.000000 1.010000
v -1.010000 -0.828743 1.010000
v 1.010000 -1.000000 1.010000
v -0.850000 -0.960000 0.850000
v -0.850000 -0.960000 -0.850000
v 0.850000 -0.960000 -0.850000
v 0.083792 -0.960000 0.850000
v 0.083792 -0.960000 -0.850000
v -0.083792 -0.960000 -0.850000
v 0.850000 -0.960000 0.850000
v -0.083792 -0.960000 0.850000
vt 0.911384 0.668989
vt 0.915048 0.722152
vt 0.911384 0.722152
vt 0.337292 0.946559
vt 0.340925 0.999271
vt 0.337292 0.999271
vt 0.993940 0.652241
vt 0.997574 0.704953
vt 0.993941 0.704953
vt 0.951828 0.668989
vt 0.955492 0.722152
vt 0.951828 0.722152
vt 0.613848 0.302963
vt 0.613848 0.272874
vt 0.615605 0.272874
vt 0.615605 0.302963
vt 0.948885 0.299402
vt 0.948885 0.273048
vt 0.955913 0.299402
vt 0.911386 0.367862
vt 0.915048 0.367862
vt 0.911386 0.420997
vt 0.951830 0.367862
vt 0.955492 0.367862
vt 0.951830 0.420997
vt 0.746357 0.649642
vt 0.720004 0.649642
vt 0.720004 0.647886
vt 0.774468 0.647886
vt 0.604205 0.302963
vt 0.604205 0.272874
vt 0.605962 0.272874
vt 0.605962 0.302963
vt 0.610634 0.302963
vt 0.610634 0.272874
vt 0.612391 0.272874
vt 0.612391 0.302963
vt 0.277120 0.817261
vt 0.224414 0.817261
vt 0.224414 0.815504
vt 0.278877 0.815504
vt 0.618819 0.272874
vt 0.618819 0.302963
vt 0.617062 0.302963
vt 0.617062 0.272874
vt 0.762327 0.325756
vt 0.762327 0.299403
vt 0.764084 0.297646
vt 0.888650 0.833728
vt 0.888650 0.860082
vt 0.881622 0.860082
vt 0.848817 0.946559
vt 0.848817 0.920205
vt 0.855845 0.946559
vt 0.401093 0.940746
vt 0.401093 0.647886
vt 0.427447 0.647886
vt 0.427447 0.940746
vt 0.510879 0.647886
vt 0.510879 0.940746
vt 0.484526 0.940746
vt 0.484526 0.647886
vt 0.981507 0.706410
vt 0.981507 0.999266
vt 0.974480 0.999266
vt 0.974479 0.706410
vt 0.373282 0.940746
vt 0.373282 0.647886
vt 0.399636 0.647886
vt 0.399636 0.940746
vt 0.594312 0.647886
vt 0.594312 0.940746
vt 0.567958 0.940746
vt 0.567958 0.647886
vt 0.483069 0.647886
vt 0.483069 0.940746
vt 0.456715 0.940746
vt 0.456715 0.647886
vt 0.566501 0.647886
vt 0.566501 0.940746
vt 0.540148 0.940746
vt 0.540148 0.647886
vt 0.428904 0.940746
vt 0.428904 0.647886
vt 0.455258 0.647886
vt 0.455258 0.940746
vt 0.735974 0.299403
vt 0.772711 0.705564
vt 0.720004 0.705564
vt 0.720004 0.703807
vt 0.774468 0.703807
vt 0.993941 0.353567
vt 0.997574 0.353567
vt 0.993941 0.406275
vt 0.337292 0.647886
vt 0.340925 0.647886
vt 0.337292 0.700593
vt 0.000729 0.191141
vt 0.000729 0.161698
vt 0.352110 0.161698
vt 0.352110 0.191141
vt 0.690436 0.812436
vt 0.716790 0.812436
vt 0.718546 0.814192
vt 0.932054 0.751820
vt 0.932054 0.725466
vt 0.939082 0.725466
vt 0.538690 0.647886
vt 0.538690 0.940746
vt 0.512337 0.940746
vt 0.512337 0.647886
vt 0.772711 0.675996
vt 0.772711 0.649642
vt 0.000729 0.352110
vt 0.352110 0.352110
vt 0.864652 0.920205
vt 0.864652 0.674239
vt 0.871680 0.647885
vt 0.871680 0.946559
vt 0.989992 0.706410
vt 0.989992 0.999266
vt 0.982965 0.999266
vt 0.982965 0.706410
vt 0.948886 0.027082
vt 0.948886 0.000729
vt 0.955913 0.000729
vt 0.000729 0.646428
vt 0.000729 0.353567
vt 0.299403 0.353567
vt 0.299403 0.646428
vt 0.890107 0.751820
vt 0.890107 0.725466
vt 0.897135 0.725466
vt 0.998478 0.706410
vt 0.998478 0.999266
vt 0.991450 0.999266
vt 0.991450 0.706410
vt 0.989854 0.000729
vt 0.989854 0.293584
vt 0.982826 0.293584
vt 0.982826 0.000729
vt 0.848817 0.674239
vt 0.848817 0.647886
vt 0.855845 0.647886
vt 0.964398 0.000729
vt 0.964398 0.293584
vt 0.957371 0.293584
vt 0.957370 0.000729
vt 0.991311 0.293584
vt 0.991312 0.000729
vt 0.998339 0.000729
vt 0.998339 0.293584
vt 0.972884 0.000729
vt 0.972884 0.293584
vt 0.965856 0.293584
vt 0.965856 0.000729
vt 0.873137 0.751820
vt 0.873137 0.725466
vt 0.880165 0.725466
vt 0.974341 0.293584
vt 0.974341 0.000729
vt 0.981369 0.000729
vt 0.981369 0.293584
vt 0.905619 0.887893
vt 0.905619 0.996156
vt 0.898592 0.996156
vt 0.898592 0.861539
vt 0.788314 0.000729
vt 0.788314 0.293590
vt 0.653698 0.293590
vt 0.653698 0.000729
vt 0.000729 0.878453
vt 0.000729 0.871426
vt 0.293584 0.871425
vt 0.293584 0.878453
vt 0.949024 0.969801
vt 0.949024 0.861538
vt 0.956051 0.861538
vt 0.956051 0.996155
vt 0.871680 0.353567
vt 0.871680 0.646428
vt 0.737064 0.646428
vt 0.737064 0.353567
vt 0.997574 0.514537
vt 0.993941 0.514537
vt 0.997574 0.543980
vt 0.993941 0.543980
vt 0.632537 0.647886
vt 0.662625 0.647886
vt 0.662625 0.756148
vt 0.632537 0.756148
vt 0.662625 0.785590
vt 0.632537 0.785590
vt 0.923569 0.833729
vt 0.923569 0.725466
vt 0.930597 0.725466
vt 0.930597 0.860082
vt 0.353567 0.321210
vt 0.353567 0.314182
vt 0.646423 0.314182
vt 0.646423 0.321210
vt 0.340925 0.808855
vt 0.337292 0.808855
vt 0.652241 0.322667
vt 0.652241 0.352110
vt 0.353567 0.352110
vt 0.353567 0.322667
vt 0.353567 0.271417
vt 0.353567 0.136802
vt 0.652241 0.136802
vt 0.652241 0.271417
vt 0.000729 0.814047
vt 0.000729 0.783958
vt 0.108991 0.783958
vt 0.108991 0.814047
vt 0.947567 0.751819
vt 0.947567 0.860082
vt 0.940539 0.860082
vt 0.940539 0.725466
vt 0.973022 0.706410
vt 0.973022 0.999266
vt 0.965994 0.999266
vt 0.965994 0.706410
vt 0.957509 0.999266
vt 0.957509 0.706410
vt 0.964537 0.706410
vt 0.964537 0.999266
vt 0.371825 0.940746
vt 0.342382 0.940746
vt 0.342382 0.647886
vt 0.371825 0.647886
vt 0.340925 0.838298
vt 0.337292 0.838298
vt 0.940400 0.273048
vt 0.940401 0.027082
vt 0.947428 0.000729
vt 0.947428 0.299402
vt 0.353567 0.302963
vt 0.353567 0.272874
vt 0.599534 0.272874
vt 0.599534 0.302963
vt 0.864652 0.647885
vt 0.353567 0.135344
vt 0.353567 0.000729
vt 0.652241 0.000729
vt 0.652241 0.135344
vt 0.899558 0.161698
vt 0.899558 0.191141
vt 0.873204 0.191141
vt 0.873204 0.161698
vt 0.940401 0.000729
vt 0.871747 0.161698
vt 0.871747 0.191141
vt 0.845393 0.191141
vt 0.845393 0.161698
vt 0.831847 0.946554
vt 0.831847 0.647886
vt 0.838875 0.647886
vt 0.838875 0.946554
vt 0.138433 0.783958
vt 0.138433 0.814047
vt 0.940400 0.299402
vt 0.599534 0.353567
vt 0.599534 0.646428
vt 0.300860 0.646428
vt 0.300860 0.353567
vt 0.864652 0.946559
vt 0.600991 0.647886
vt 0.631080 0.647886
vt 0.631080 0.893852
vt 0.600991 0.893852
vt 0.742777 0.933883
vt 0.608161 0.933883
vt 0.608161 0.926855
vt 0.742777 0.926855
vt 0.947567 0.725466
vt 0.922112 0.725466
vt 0.922112 0.860081
vt 0.915084 0.860081
vt 0.915084 0.725466
vt 0.000729 0.000729
vt 0.352110 0.000729
vt 0.905619 0.861539
vt 0.293590 0.782501
vt 0.000729 0.782501
vt 0.000729 0.647886
vt 0.293590 0.647886
vt 0.890107 0.860082
vt 0.897135 0.860082
vt 0.662625 0.893852
vt 0.632537 0.893852
vt 0.932054 0.860082
vt 0.939082 0.860082
vt 0.898592 0.860081
vt 0.898592 0.725466
vt 0.905619 0.725466
vt 0.905620 0.860081
vt 0.923569 0.860082
vt 0.949024 0.996155
vt 0.873137 0.860082
vt 0.880165 0.860082
vt 0.600991 0.646428
vt 0.600991 0.353567
vt 0.735607 0.353567
vt 0.735607 0.646428
vt 0.956052 0.725466
vt 0.956051 0.860081
vt 0.949024 0.860081
vt 0.949024 0.725466
vt 0.246695 0.783958
vt 0.246695 0.814047
vt 0.888650 0.725466
vt 0.881622 0.725466
vt 0.300860 0.838298
vt 0.300860 0.946559
vt 0.296804 0.723664
vt 0.296804 0.760095
vt 0.295047 0.760095
vt 0.295047 0.723664
vt 0.957509 0.543980
vt 0.957509 0.652241
vt 0.597777 0.684317
vt 0.597777 0.647886
vt 0.599534 0.647886
vt 0.599534 0.684317
vt 0.874654 0.420997
vt 0.874652 0.668989
vt 0.777682 0.700593
vt 0.804036 0.700593
vt 0.830389 0.702349
vt 0.775925 0.702349
vt 0.765541 0.334077
vt 0.765541 0.297646
vt 0.767298 0.297646
vt 0.767298 0.334077
vt 0.915098 0.420997
vt 0.915096 0.668989
vt 0.300860 0.700593
vt 0.300860 0.808855
vt 0.957509 0.514537
vt 0.957509 0.406275
vt 0.828632 0.786082
vt 0.828632 0.759728
vt 0.830389 0.759728
vt 0.828632 0.705564
vt 0.775925 0.705564
vt 0.775925 0.703807
vt 0.830389 0.703807
vt 0.056650 0.868211
vt 0.109357 0.868211
vt 0.111114 0.869968
vt 0.056650 0.869968
vt 0.053436 0.817261
vt 0.000729 0.817261
vt 0.000729 0.815504
vt 0.055193 0.815504
vt 0.830389 0.700593
vt 0.681809 0.350353
vt 0.708163 0.350353
vt 0.708163 0.352110
vt 0.775925 0.852082
vt 0.775925 0.815650
vt 0.830389 0.815650
vt 0.830389 0.852082
vt 0.930458 0.293590
vt 0.901015 0.293590
vt 0.901015 0.000729
vt 0.930458 0.000729
vt 0.716790 0.675996
vt 0.716790 0.649642
vt 0.718547 0.647886
vt 0.718547 0.702350
vt 0.165278 0.868211
vt 0.165278 0.815504
vt 0.167035 0.815504
vt 0.167035 0.869968
vt 0.716790 0.702350
vt 0.111114 0.879911
vt 0.111114 0.916342
vt 0.056650 0.916342
vt 0.056650 0.879911
vt 0.112571 0.868211
vt 0.112571 0.869968
vt 0.690436 0.649642
vt 0.664082 0.647886
vt 0.664082 0.649642
vt 0.000729 0.916342
vt 0.000729 0.879911
vt 0.055193 0.879911
vt 0.055193 0.916342
vt 0.777682 0.647886
vt 0.777682 0.674239
vt 0.775925 0.647886
vt 0.296804 0.647886
vt 0.296804 0.684317
vt 0.295047 0.684317
vt 0.295047 0.647886
vt 0.109357 0.815504
vt 0.111114 0.815504
vt 0.774468 0.815650
vt 0.774468 0.852082
vt 0.720004 0.852082
vt 0.720004 0.815650
vt 0.768755 0.334077
vt 0.768755 0.297646
vt 0.770512 0.297646
vt 0.770512 0.334077
vt 0.718546 0.853539
vt 0.718546 0.889971
vt 0.664082 0.889971
vt 0.664082 0.853539
vt 0.296804 0.685775
vt 0.296804 0.722206
vt 0.295047 0.722206
vt 0.295047 0.685775
vt 0.655455 0.297646
vt 0.655455 0.323999
vt 0.653699 0.297646
vt 0.655455 0.350353
vt 0.653699 0.352110
vt 0.718547 0.815650
vt 0.718547 0.852082
vt 0.664082 0.852082
vt 0.664082 0.815650
vt 0.828632 0.758271
vt 0.830389 0.758271
vt 0.774468 0.853539
vt 0.774468 0.889971
vt 0.720004 0.889971
vt 0.720004 0.853539
vt 0.802278 0.812436
vt 0.828632 0.812436
vt 0.830389 0.814193
vt 0.775925 0.814193
vt 0.599534 0.723664
vt 0.599534 0.760095
vt 0.597777 0.760095
vt 0.597777 0.723664
vt 0.775925 0.812436
vt 0.830389 0.853539
vt 0.830389 0.889971
vt 0.775925 0.889971
vt 0.775925 0.853539
vt 0.597777 0.722206
vt 0.597777 0.685775
vt 0.599534 0.685775
vt 0.599534 0.722206
vt 0.053436 0.869968
vt 0.055193 0.869968
vt 0.167035 0.911456
vt 0.167035 0.941544
vt 0.112571 0.941544
vt 0.112571 0.911456
vt 0.774468 0.891428
vt 0.774468 0.921516
vt 0.720004 0.921516
vt 0.720004 0.891428
vt 0.221199 0.817261
vt 0.168493 0.817261
vt 0.168493 0.815504
vt 0.222956 0.815504
vt 0.772711 0.758271
vt 0.774468 0.758271
vt 0.690436 0.705564
vt 0.664082 0.705564
vt 0.664082 0.703807
vt 0.718546 0.703807
vt 0.716790 0.731918
vt 0.716790 0.705564
vt 0.762327 0.352110
vt 0.764084 0.352110
vt 0.278878 0.879911
vt 0.278878 0.909999
vt 0.224414 0.909999
vt 0.224414 0.879911
vt 0.662625 0.895310
vt 0.662625 0.925398
vt 0.608161 0.925398
vt 0.608161 0.895310
vt 0.772711 0.761485
vt 0.720004 0.761485
vt 0.720004 0.759728
vt 0.774468 0.759728
vt 0.600991 0.302963
vt 0.600991 0.272874
vt 0.602748 0.272874
vt 0.602748 0.302963
vt 0.709620 0.299403
vt 0.709620 0.297646
vt 0.664082 0.812436
vt 0.664082 0.814193
vt 0.221199 0.869968
vt 0.222956 0.869968
vt 0.112571 0.909999
vt 0.112571 0.879911
vt 0.167035 0.879911
vt 0.167035 0.909999
vt 0.664082 0.921516
vt 0.664082 0.891428
vt 0.718546 0.891428
vt 0.718546 0.921516
vt 0.716790 0.758271
vt 0.718547 0.758271
vt 0.716790 0.786082
vt 0.716790 0.759728
vt 0.718546 0.759728
vt 0.625247 0.272874
vt 0.625247 0.302963
vt 0.623490 0.302963
vt 0.623490 0.272874
vt 0.772711 0.814193
vt 0.774468 0.814193
vt 0.168493 0.909999
vt 0.168493 0.879911
vt 0.222957 0.879911
vt 0.222957 0.909999
vt 0.775925 0.921516
vt 0.775925 0.891428
vt 0.830389 0.891428
vt 0.830389 0.921516
vt 0.772711 0.702350
vt 0.774468 0.702350
vt 0.607419 0.302963
vt 0.607419 0.272874
vt 0.609176 0.272874
vt 0.609176 0.302963
vt 0.620276 0.302963
vt 0.620276 0.272874
vt 0.622033 0.272874
vt 0.622033 0.302963
vt 0.277120 0.869968
vt 0.278877 0.869968
vt 0.931915 0.299397
vt 0.931916 0.000729
vt 0.938943 0.000729
vt 0.938943 0.299397
vt 0.847360 0.647886
vt 0.847360 0.946554
vt 0.840332 0.946554
vt 0.840332 0.647886
vt 0.652235 0.311448
vt 0.353567 0.311448
vt 0.353567 0.304420
vt 0.652235 0.304420
vt 0.843936 0.000729
vt 0.843936 0.053436
vt 0.817582 0.027082
vt 0.899558 0.027082
vt 0.873204 0.053436
vt 0.873204 0.000729
vt 0.899558 0.325756
vt 0.873204 0.299403
vt 0.873204 0.352110
vt 0.789772 0.000729
vt 0.816125 0.027082
vt 0.789772 0.053436
vt 0.816125 0.325756
vt 0.789771 0.299402
vt 0.789771 0.352109
vt 0.871747 0.299403
vt 0.871747 0.352110
vt 0.845393 0.325756
vt 0.845393 0.027082
vt 0.871747 0.053436
vt 0.871747 0.000729
vt 0.843936 0.299403
vt 0.843936 0.352110
vt 0.817582 0.325756
vn -1.0000 0.0000 0.0000
vn 0.0000 0.0000 -1.0000
vn 0.0000 0.0000 1.0000
vn 1.0000 0.0000 0.0000
vn 0.0000 1.0000 0.0000
vn 0.0000 -1.0000 0.0000
usemtl Material
s off
f 116/1/1 4/2/1 106/3/1
f 120/4/2 8/5/2 107/6/2
f 118/7/3 2/8/3 105/9/3
f 114/10/4 6/11/4 108/12/4
f 88/13/3 91/14/3 148/15/3 145/16/3
f 13/17/5 83/18/5 38/19/5
f 105/20/1 2/21/1 113/22/1
f 107/23/4 8/24/4 115/25/4
f 14/26/5 85/27/5 146/28/5 167/29/5
f 86/30/2 83/31/2 158/32/2 159/33/2
f 85/34/2 82/35/2 147/36/2 146/37/2
f 5/38/6 86/39/6 159/40/6 168/41/6
f 97/42/4 93/43/4 151/44/4 152/45/4
f 16/46/5 10/47/5 149/48/5
f 101/49/6 30/50/6 44/51/6
f 22/52/6 84/53/6 45/54/6
f 11/55/4 19/56/4 23/57/4 15/58/4
f 9/59/1 17/60/1 22/61/1 14/62/1
f 15/63/3 23/64/3 39/65/3 40/66/3
f 13/67/4 21/68/4 20/69/4 12/70/4
f 33/71/3 34/72/3 17/73/3 9/74/3
f 28/75/2 30/76/2 19/77/2 11/78/2
f 16/79/1 24/80/1 18/81/1 10/82/1
f 12/83/3 20/84/3 29/85/3 27/86/3
f 10/47/5 35/87/5 149/48/5
f 1/88/6 96/89/6 164/90/6 166/91/6
f 108/92/3 6/93/3 119/94/3
f 106/95/2 4/96/2 117/97/2
f 54/98/5 53/99/5 64/100/5 63/101/5
f 28/102/5 11/103/5 156/104/5
f 95/105/6 34/106/6 52/107/6
f 10/108/2 18/109/2 36/110/2 35/111/2
f 33/112/5 9/113/5 167/29/5
f 8/114/5 54/98/5 63/101/5 6/115/5
f 87/116/6 81/117/6 37/118/6 39/119/6
f 21/120/2 13/121/2 38/122/2 37/123/2
f 89/124/5 15/125/5 40/126/5
f 40/127/4 39/128/4 37/129/4 38/130/4
f 97/131/5 35/132/5 41/133/5
f 35/134/4 36/135/4 43/136/4 41/137/4
f 30/138/1 28/139/1 42/140/1 44/141/1
f 92/142/6 24/143/6 47/144/6
f 24/145/3 16/146/3 48/147/3 47/148/3
f 14/149/2 22/150/2 45/151/2 46/152/2
f 34/153/4 33/154/4 51/155/4 52/156/4
f 103/157/5 27/158/5 50/159/5
f 27/160/1 29/161/1 49/162/1 50/163/1
f 94/164/5 70/165/5 78/166/5 51/167/5
f 50/168/3 49/169/3 79/170/3 77/171/3
f 78/172/1 70/173/1 72/174/1 80/175/1
f 100/176/5 58/177/5 74/178/5 42/179/5
f 41/180/2 43/181/2 75/182/2 73/183/2
f 119/94/3 6/93/3 63/184/3 109/185/3
f 109/185/3 63/184/3 64/186/3 110/187/3
f 99/188/3 103/189/3 69/190/3 56/191/3
f 56/191/3 69/190/3 70/192/3 55/193/3
f 104/194/6 71/195/6 79/196/6 49/197/6
f 69/198/4 77/199/4 79/200/4 71/201/4
f 117/97/2 4/96/2 53/202/2 111/203/2
f 68/204/6 67/205/6 65/206/6 66/207/6
f 173/208/6 171/209/6 175/210/6 172/211/6
f 93/212/2 97/213/2 57/214/2 62/215/2
f 98/216/6 59/217/6 75/218/6 43/219/6
f 58/220/4 60/221/4 76/222/4 74/223/4
f 73/224/1 75/225/1 59/226/1 57/227/1
f 58/228/2 57/229/2 59/230/2 60/231/2
f 111/203/2 53/202/2 54/232/2 112/233/2
f 91/234/5 85/235/5 46/236/5 48/237/5
f 90/238/4 89/239/4 83/240/4 86/241/4
f 81/117/6 21/242/6 37/118/6
f 170/243/6 174/244/6 176/245/6 169/246/6
f 66/247/6 65/248/6 56/249/6 55/250/6
f 85/235/5 14/251/5 46/236/5
f 115/25/4 8/24/4 6/11/4 114/10/4
f 62/252/6 61/253/6 67/254/6 68/255/6
f 68/256/1 66/257/1 176/258/1 174/259/1
f 62/215/2 57/214/2 58/260/2 61/261/2
f 16/262/5 91/234/5 48/237/5
f 84/53/6 92/142/6 47/144/6 45/54/6
f 46/263/1 45/264/1 47/265/1 48/266/1
f 83/18/5 89/124/5 40/126/5 38/19/5
f 23/267/6 87/116/6 39/119/6
f 82/268/1 85/269/1 91/270/1 88/271/1
f 113/22/1 2/21/1 4/2/1 116/1/1
f 25/272/2 65/273/2 172/274/2 175/275/2
f 36/276/6 98/216/6 43/219/6
f 66/277/2 31/278/2 169/279/2 176/280/2
f 53/99/5 4/281/5 2/282/5 64/100/5
f 33/283/5 94/164/5 51/167/5
f 78/284/3 80/285/3 52/286/3 51/287/3
f 57/288/5 97/131/5 41/133/5 73/289/5
f 110/187/3 64/186/3 2/8/3 118/7/3
f 55/193/3 70/192/3 94/290/3 96/291/3
f 72/292/6 95/105/6 52/107/6 80/293/6
f 32/294/3 68/295/3 174/296/3 170/297/3
f 29/298/6 104/194/6 49/197/6
f 28/299/5 100/176/5 42/179/5
f 69/300/5 103/157/5 50/159/5 77/301/5
f 74/302/2 76/303/2 44/304/2 42/305/2
f 112/233/2 54/232/2 8/5/2 120/4/2
f 67/306/3 26/307/3 171/308/3 173/309/3
f 61/261/2 58/260/2 100/310/2 102/311/2
f 60/312/6 101/49/6 44/51/6 76/313/6
f 60/314/2 112/233/2 120/4/2 101/315/2
f 119/316/1 104/317/1 121/318/1 122/319/1
f 72/320/3 110/187/3 118/7/3 95/321/3
f 92/322/3 116/323/3 136/324/3 135/325/3
f 84/326/1 113/22/1 116/1/1 92/327/1
f 19/328/6 30/329/6 129/330/6 132/331/6
f 81/332/2 114/333/2 124/334/2 125/335/2
f 87/336/4 115/25/4 114/10/4 81/337/4
f 98/338/2 117/97/2 111/203/2 59/339/2
f 71/340/3 109/185/3 110/187/3 72/320/3
f 104/341/3 119/94/3 109/185/3 71/340/3
f 34/342/6 95/343/6 142/344/6
f 106/345/5 117/346/5 134/347/5 137/348/5
f 120/349/5 107/350/5 131/351/5 130/352/5
f 105/353/5 113/354/5 139/355/5 141/356/5
f 30/329/6 101/357/6 129/330/6
f 24/358/6 92/359/6 135/360/6
f 126/361/3 123/362/3 122/363/3 121/364/3
f 70/365/3 69/366/3 71/367/3 72/368/3
f 29/369/6 20/370/6 126/371/6 121/372/6
f 108/373/5 119/374/5 122/375/5 123/376/5
f 104/377/6 29/369/6 121/372/6
f 125/378/4 124/379/4 123/380/4 126/381/4
f 114/382/5 108/373/5 123/376/5 124/383/5
f 20/370/6 21/384/6 125/385/6 126/371/6
f 21/384/6 81/386/6 125/385/6
f 132/387/4 131/388/4 128/389/4 127/390/4
f 87/391/6 23/392/6 127/393/6
f 115/394/3 87/395/3 127/396/3 128/397/3
f 107/350/5 115/398/5 128/399/5 131/351/5
f 23/392/6 19/328/6 132/331/6 127/393/6
f 129/400/2 130/401/2 131/402/2 132/403/2
f 101/404/1 120/405/1 130/406/1 129/407/1
f 138/408/2 137/409/2 134/410/2 133/411/2
f 117/412/4 98/413/4 133/414/4 134/415/4
f 98/416/6 36/417/6 133/418/6
f 36/417/6 18/419/6 138/420/6 133/418/6
f 135/421/1 136/422/1 137/423/1 138/424/1
f 116/425/5 106/345/5 137/348/5 136/426/5
f 18/419/6 24/358/6 135/360/6 138/420/6
f 144/427/1 141/428/1 139/429/1 140/430/1
f 59/339/2 111/203/2 112/233/2 60/314/2
f 22/431/6 17/432/6 144/433/6 140/434/6
f 113/435/2 84/436/2 140/437/2 139/438/2
f 84/439/6 22/431/6 140/434/6
f 142/440/3 143/441/3 141/442/3 144/443/3
f 95/444/4 118/445/4 143/446/4 142/447/4
f 118/448/5 105/353/5 141/356/5 143/449/5
f 17/432/6 34/342/6 142/344/6 144/433/6
f 166/450/1 167/451/1 146/452/1 147/453/1
f 145/454/1 148/455/1 149/456/1 154/457/1
f 3/458/6 88/459/6 145/460/6 154/461/6
f 82/462/6 1/88/6 166/91/6 147/463/6
f 9/113/5 14/26/5 167/29/5
f 27/464/5 103/465/5 165/466/5 161/467/5
f 13/468/5 12/469/5 161/467/5
f 91/470/5 16/46/5 149/48/5 148/471/5
f 153/472/2 150/473/2 156/474/2 157/475/2
f 154/476/2 149/477/2 152/478/2 151/479/2
f 7/480/6 102/481/6 153/482/6 157/483/6
f 102/484/1 100/485/1 150/486/1 153/487/1
f 35/87/5 97/488/5 152/489/5 149/48/5
f 100/490/5 28/102/5 156/104/5 150/491/5
f 93/492/6 3/458/6 154/461/6 151/493/6
f 159/494/4 158/495/4 161/496/4 168/497/4
f 157/498/4 156/499/4 155/500/4 160/501/4
f 83/502/5 13/468/5 161/467/5 158/503/5
f 11/103/5 15/504/5 156/104/5
f 15/504/5 89/505/5 155/506/5 156/104/5
f 89/507/3 90/508/3 160/509/3 155/510/3
f 90/511/6 7/480/6 157/483/6 160/512/6
f 164/513/3 163/514/3 167/515/3 166/516/3
f 168/517/3 161/518/3 165/519/3 162/520/3
f 94/521/5 33/112/5 167/29/5 163/522/5
f 12/469/5 27/464/5 161/467/5
f 103/523/1 99/524/1 162/525/1 165/526/1
f 96/527/4 94/528/4 163/529/4 164/530/4
f 99/531/6 5/38/6 168/41/6 162/532/6
f 26/533/1 25/534/1 175/535/1 171/536/1
f 31/537/4 32/538/4 170/539/4 169/540/4
f 65/541/4 67/542/4 173/543/4 172/544/4
f 1/545/6 82/546/6 31/547/6
f 31/548/6 96/549/6 1/550/6
f 96/549/6 31/548/6 66/247/6 55/250/6
f 65/248/6 25/551/6 99/552/6 56/249/6
f 99/552/6 25/551/6 5/553/6
f 5/554/6 25/555/6 86/556/6
f 86/556/6 25/555/6 26/557/6 90/558/6
f 90/558/6 26/557/6 7/559/6
f 102/560/6 7/561/6 26/562/6
f 61/253/6 102/560/6 26/562/6 67/254/6
f 68/255/6 32/563/6 93/564/6 62/252/6
f 32/563/6 3/565/6 93/564/6
f 88/566/6 3/567/6 32/568/6
f 82/546/6 88/566/6 32/568/6 31/547/6
