# Blender v2.79 (sub 0) OBJ File: 'generator.blend'
# www.blender.org
mtllib roomWallCurve.mtl
o object_static_generatorRoomWallCurve_Cube.004
v 24.936558 -1.707976 -45.708778
v 24.936558 -0.551876 -45.708778
v 24.936558 11.431801 -45.708786
v 24.936558 12.587903 -45.708786
v 25.136543 11.431800 -45.908775
v 25.136559 -0.551875 -45.908768
v -15.363575 -0.551876 -8.508754
v -15.363575 -1.707976 -8.508754
v -15.363575 11.431801 -8.508746
v -15.363575 12.587903 -8.508746
v -15.563568 11.431801 -8.308768
v -15.563576 -0.551875 -8.308753
v -20.583485 -0.551876 -45.908772
v -20.583496 12.587903 -45.708778
v -20.583496 -1.707976 -45.708778
v -20.583496 -0.551876 -45.708778
v -20.583488 11.431801 -8.308769
v -20.583496 -0.551876 -8.508755
v -15.363576 -0.551876 1.281540
v -15.363576 -1.707976 1.281540
v -15.363576 12.587903 1.281548
v -15.563577 -0.551875 1.281563
v 24.936558 11.431801 1.281542
v 25.136555 11.431800 1.281546
v -20.583496 11.431800 -45.908768
v -20.583496 11.431801 -45.708778
v -20.583496 -1.707976 -8.508755
v -20.583496 -0.551875 -8.308754
v -20.583496 11.431801 -8.508747
v -20.583496 12.587903 -8.508747
v -15.363576 11.431801 1.281548
v -15.563569 11.431801 1.281548
v 25.136559 -0.551875 1.281557
v 24.936558 12.587903 1.281546
v 24.936558 -0.551876 1.281553
v 24.936558 -1.707976 1.281553
vt 0.000262 0.838302
vt 0.964325 0.838302
vt 0.964325 0.862787
vt 0.000262 0.862790
vt 0.000262 0.877614
vt 0.964295 0.877620
vt 0.968531 0.881856
vt 0.000262 0.881850
vt 0.000262 0.813289
vt 0.964326 0.813290
vt 0.964326 0.837775
vt 0.000262 0.837778
vt 0.000262 0.872851
vt 0.969216 0.872852
vt 0.964989 0.877078
vt 0.000262 0.877090
vt 0.000262 0.254596
vt 0.968598 0.254596
vt 0.968598 0.508407
vt 0.000262 0.508407
vt 0.000262 0.508930
vt 0.203382 0.508930
vt 0.203382 0.762741
vt 0.000262 0.762741
vt 0.619145 0.645019
vt 0.416020 0.645019
vt 0.411784 0.640784
vt 0.619145 0.640784
vt 0.619139 0.640260
vt 0.411784 0.640260
vt 0.411784 0.615774
vt 0.619139 0.615774
vt 0.411248 0.645020
vt 0.203905 0.645045
vt 0.208141 0.640808
vt 0.411248 0.640784
vt 0.411261 0.640260
vt 0.203905 0.640260
vt 0.203905 0.615774
vt 0.411261 0.615774
vt 0.568796 0.533940
vt 0.568796 0.558425
vt 0.458239 0.558425
vt 0.458239 0.533940
vt 0.457716 0.615251
vt 0.203905 0.615251
vt 0.203905 0.508930
vt 0.457716 0.508930
vt 0.564560 0.558949
vt 0.568796 0.563185
vt 0.458239 0.563185
vt 0.458239 0.558949
vt 0.568796 0.563709
vt 0.564561 0.567944
vt 0.458239 0.567944
vt 0.458239 0.563709
vt 0.568796 0.508930
vt 0.568796 0.533416
vt 0.458239 0.533416
vt 0.458239 0.508930
vt 0.000262 0.000262
vt 0.999738 0.000262
vt 0.999738 0.254072
vt 0.000262 0.254072
vt 0.000262 0.863314
vt 0.998876 0.863314
vt 0.998876 0.867546
vt 0.004509 0.867560
vt 0.000262 0.763265
vt 0.995461 0.763265
vt 0.995462 0.787750
vt 0.000262 0.787753
vt 0.004505 0.868084
vt 0.998047 0.868084
vt 0.998047 0.872327
vt 0.000262 0.872327
vt 0.000262 0.788277
vt 0.995462 0.788277
vt 0.995462 0.812762
vt 0.000262 0.812766
vn -0.0000 0.0000 1.0000
vn 0.0000 1.0000 0.0000
vn 0.0000 -1.0000 0.0000
vn 1.0000 -0.0000 0.0000
vn 0.0000 0.0000 -1.0000
vn -1.0000 -0.0000 0.0000
usemtl Material.012
s off
f 15/1/1 1/2/1 2/3/1 16/4/1
f 16/5/2 2/6/2 6/7/2 13/8/2
f 26/9/1 3/10/1 4/11/1 14/12/1
f 25/13/3 5/14/3 3/15/3 26/16/3
f 13/17/1 6/18/1 5/19/1 25/20/1
f 22/21/4 12/22/4 11/23/4 32/24/4
f 32/25/3 11/26/3 9/27/3 31/28/3
f 31/29/4 9/30/4 10/31/4 21/32/4
f 19/33/2 7/34/2 12/35/2 22/36/2
f 20/37/4 8/38/4 7/39/4 19/40/4
f 7/41/5 8/42/5 27/43/5 18/44/5
f 11/45/5 12/46/5 28/47/5 17/48/5
f 12/49/2 7/50/2 18/51/2 28/52/2
f 9/53/3 11/54/3 17/55/3 29/56/3
f 10/57/5 9/58/5 29/59/5 30/60/5
f 6/61/6 33/62/6 24/63/6 5/64/6
f 5/65/3 24/66/3 23/67/3 3/68/3
f 3/69/6 23/70/6 34/71/6 4/72/6
f 2/73/2 35/74/2 33/75/2 6/76/2
f 1/77/6 36/78/6 35/79/6 2/80/6
