# Blender v2.79 (sub 0) OBJ File: 'generator.blend'
# www.blender.org
mtllib roomWall.mtl
o object_static_generatorRoomWall_Cube.008
v -40.161129 12.587903 -45.708775
v -40.161129 11.431801 -45.708775
v -40.161129 -0.551876 -45.708782
v -40.161129 -1.707976 -45.708782
v -40.161125 11.431800 -8.508751
v -40.361115 11.431799 -45.908760
v -40.361107 -0.551877 -45.908775
v -40.361122 11.431801 -8.308773
v -40.161125 -0.551877 -8.508759
v -40.161125 -1.707977 -8.508759
v -40.161125 12.587902 -8.508751
v -40.361130 -0.551876 -8.308758
v -20.583509 11.431799 -45.908772
v -20.583509 11.431800 -45.708782
v -20.583509 11.431800 -8.508751
v -20.583509 -1.707977 -8.508759
v -20.583509 12.587902 -8.508751
v -20.583509 -0.551876 -8.308758
v -20.583498 -0.551877 -45.908775
v -20.583509 12.587902 -45.708782
v -20.583509 -0.551877 -45.708782
v -20.583509 -1.707977 -45.708782
v -20.583509 -0.551877 -8.508759
v -20.583502 11.431801 -8.308773
vt 0.839345 0.700569
vt 0.839345 0.731286
vt 0.319178 0.731286
vt 0.319178 0.700569
vt 0.844745 0.768904
vt 0.844745 0.774218
vt 0.319178 0.774218
vt 0.324489 0.768908
vt 0.988646 0.907132
vt 0.000259 0.907133
vt 0.000259 0.876415
vt 0.988646 0.876415
vt 0.994434 0.918808
vt 0.005575 0.918818
vt 0.000259 0.913503
vt 0.999741 0.913502
vt 0.988647 0.875896
vt 0.000259 0.875897
vt 0.000259 0.845179
vt 0.988647 0.845179
vt 0.998181 0.912983
vt 0.000259 0.912983
vt 0.005567 0.907675
vt 0.992851 0.907651
vt 0.999272 0.318659
vt 0.000259 0.318660
vt 0.000260 0.000260
vt 0.999271 0.000259
vt 0.844613 0.774739
vt 0.844613 0.780052
vt 0.324494 0.780052
vt 0.319178 0.774737
vt 0.318659 0.844660
vt 0.000259 0.844660
vt 0.000259 0.319179
vt 0.318659 0.319179
vt 0.839345 0.731805
vt 0.839345 0.762522
vt 0.319178 0.762522
vt 0.319178 0.731805
vt 0.319178 0.319179
vt 0.844659 0.319179
vt 0.844659 0.637579
vt 0.319178 0.637579
vt 0.319178 0.780571
vt 0.844604 0.780571
vt 0.844604 0.785884
vt 0.324493 0.785887
vt 0.319178 0.638097
vt 0.839348 0.638097
vt 0.839348 0.668815
vt 0.319178 0.668814
vt 0.324492 0.763070
vt 0.844559 0.763041
vt 0.844559 0.768355
vt 0.319178 0.768385
vt 0.319178 0.669333
vt 0.839348 0.669333
vt 0.839348 0.700050
vt 0.319178 0.700050
vn 0.0000 0.0000 -1.0000
vn 0.0000 -1.0000 0.0000
vn 1.0000 0.0000 -0.0000
vn 0.0000 1.0000 -0.0000
vn 0.0000 -0.0000 1.0000
usemtl Material.009
s off
f 17/1/1 15/2/1 5/3/1 11/4/1
f 15/5/2 24/6/2 8/7/2 5/8/2
f 10/9/3 4/10/3 3/11/3 9/12/3
f 9/13/4 3/14/4 7/15/4 12/16/4
f 5/17/3 2/18/3 1/19/3 11/20/3
f 8/21/2 6/22/2 2/23/2 5/24/2
f 12/25/3 7/26/3 6/27/3 8/28/3
f 18/29/4 23/30/4 9/31/4 12/32/4
f 24/33/1 18/34/1 12/35/1 8/36/1
f 23/37/1 16/38/1 10/39/1 9/40/1
f 7/41/5 19/42/5 13/43/5 6/44/5
f 6/45/2 13/46/2 14/47/2 2/48/2
f 2/49/5 14/50/5 20/51/5 1/52/5
f 3/53/4 21/54/4 19/55/4 7/56/4
f 4/57/5 22/58/5 21/59/5 3/60/5
