# Blender v2.82 (sub 7) OBJ File: 'metalFence_collider.blend'
# www.blender.org
mtllib metalFence_collider.mtl
o object_static_metalFence_Cylinder.001
v 0.197044 -5.583612 -9.431545
v 0.197044 -5.583612 -9.000902
v 0.005727 -5.583612 -9.462783
v 0.209984 -5.583612 -8.969664
v -0.006517 -6.545260 -8.940105
v -0.168264 -6.545260 -9.101851
v -0.168264 -6.545260 -9.330596
v 0.383974 -6.545260 -9.330596
v 0.383974 -6.545260 -9.101851
v -0.006517 -6.890881 -8.940105
v -0.168264 -6.890881 -9.101851
v -0.168264 -6.890881 -9.330596
v -0.006517 -6.890881 -9.492342
v 0.222227 -6.890881 -9.492342
v 0.383974 -6.890881 -9.330596
v 0.383974 -6.890881 -9.101851
v 0.222227 -6.890881 -8.940104
v 0.034691 -6.255488 -8.789235
v 0.184037 -6.255488 -8.789235
v 0.034691 -5.656937 -8.789235
v 0.184037 -5.656937 -8.789235
v 0.034691 -5.777005 -8.587704
v 0.034691 -6.135419 -8.587704
v 0.184037 -5.777005 -8.587704
v 0.184037 -6.135419 -8.587704
v 0.034691 -6.255488 -8.969662
v 0.184037 -6.255488 -8.969662
v 0.034691 -5.656937 -8.969662
v 0.184037 -5.656937 -8.969662
v -0.006517 -6.545260 -9.492342
v 0.222227 -6.545260 -9.492342
v 0.222227 -6.545260 -8.940104
v 0.005727 -5.583612 -8.969664
v -0.138705 -5.583612 -9.114095
v -0.138705 -5.583612 -9.318352
v 0.209984 -5.583612 -9.462784
v 0.354415 -5.583612 -9.318352
v 0.354415 -5.583612 -9.114095
v 0.018666 -5.583612 -9.000902
v -0.107466 -5.583612 -9.127034
v -0.107466 -5.583612 -9.305412
v 0.018666 -5.583612 -9.431545
v 0.323177 -5.583612 -9.305412
v 0.323177 -5.583612 -9.127034
v 0.018669 -5.583612 10.257758
v -0.107464 -5.583612 10.383890
v -0.107464 -5.583612 10.562268
v 0.197047 -5.583612 10.688401
v 0.323180 -5.583612 10.562268
v 0.197047 -5.583612 10.257758
v -0.138702 -5.583612 10.370951
v 0.209986 -5.583612 10.719640
v 0.354418 -5.583612 10.370951
v -0.168261 -6.545260 10.587452
v 0.383977 -6.545260 10.358707
v 0.222230 -6.545260 10.196960
v -0.006514 -6.890881 10.196961
v -0.168261 -6.890881 10.358707
v -0.168261 -6.890881 10.587452
v -0.006514 -6.890881 10.749198
v 0.222230 -6.890881 10.749198
v 0.383977 -6.890881 10.587452
v 0.383977 -6.890881 10.358707
v 0.222230 -6.890881 10.196960
v 0.034694 -6.255488 10.046091
v 0.184040 -6.255488 10.046091
v 0.034694 -5.656937 10.046091
v 0.184040 -5.656937 10.046091
v 0.034694 -5.777005 9.844560
v 0.034694 -6.135419 9.844560
v 0.184040 -5.777005 9.844560
v 0.184040 -6.135419 9.844560
v 0.034694 -6.255488 10.226518
v 0.184040 -6.255488 10.226518
v 0.034694 -5.656937 10.226518
v 0.184040 -5.656937 10.226518
v -0.006514 -6.545260 10.196961
v -0.168261 -6.545260 10.358707
v -0.006514 -6.545260 10.749198
v 0.222230 -6.545260 10.749198
v 0.383977 -6.545260 10.587452
v 0.005730 -5.583612 10.226520
v -0.138702 -5.583612 10.575208
v 0.005729 -5.583612 10.719639
v 0.354418 -5.583612 10.575208
v 0.209986 -5.583612 10.226520
v 0.018669 -5.583612 10.688401
v 0.323179 -5.583612 10.383890
v -0.107466 5.715340 -9.305412
v 0.323177 5.715340 -9.305412
v 0.323177 5.715340 -9.127034
v 0.197044 5.715340 -9.000902
v 0.005727 5.715340 -8.969664
v -0.138705 5.715340 -9.114095
v -0.006517 6.676988 -8.940105
v -0.168264 6.676988 -9.330596
v 0.222227 6.676988 -9.492342
v 0.383974 6.676988 -9.101851
v 0.222227 7.022608 -9.492342
v 0.383974 7.022608 -9.330596
v 0.222227 7.022608 -8.940104
v 0.034691 6.387215 -8.789235
v 0.184037 6.387215 -8.789235
v 0.034691 5.788664 -8.789235
v 0.184037 5.788664 -8.789235
v 0.034691 5.908732 -8.587704
v 0.034691 6.267147 -8.587704
v 0.184037 5.908732 -8.587704
v 0.184037 6.267147 -8.587704
v 0.034691 6.387215 -8.969662
v 0.184037 6.387215 -8.969662
v 0.034691 5.788664 -8.969662
v 0.184037 5.788664 -8.969662
v -0.168264 6.676988 -9.101851
v -0.006517 6.676988 -9.492342
v 0.383974 6.676988 -9.330596
v 0.222227 6.676988 -8.940104
v -0.138705 5.715340 -9.318352
v 0.005727 5.715340 -9.462783
v 0.209984 5.715340 -9.462784
v 0.354415 5.715340 -9.318352
v 0.354415 5.715340 -9.114095
v 0.209984 5.715340 -8.969664
v 0.018666 5.715340 -9.000902
v -0.107466 5.715340 -9.127034
v 0.018666 5.715340 -9.431545
v 0.197044 5.715340 -9.431545
v 0.018669 5.715340 10.257758
v -0.107464 5.715340 10.562268
v 0.018669 5.715340 10.688401
v 0.197047 5.715340 10.688401
v 0.323179 5.715340 10.383890
v 0.197047 5.715340 10.257758
v -0.138702 5.715340 10.370951
v 0.209986 5.715340 10.719640
v 0.354418 5.715340 10.575208
v 0.354418 5.715340 10.370951
v -0.006514 6.676988 10.196961
v -0.006514 6.676988 10.749198
v 0.383977 6.676988 10.587452
v 0.222230 6.676988 10.196960
v -0.006514 7.022608 10.196961
v -0.168261 7.022608 10.358707
v -0.168261 7.022608 10.587452
v -0.006514 7.022608 10.749198
v 0.383977 7.022608 10.587452
v 0.034694 6.387215 10.046091
v 0.184040 6.387215 10.046091
v 0.034694 5.788664 10.046091
v 0.184040 5.788664 10.046091
v 0.034694 5.908732 9.844560
v 0.034694 6.267147 9.844560
v 0.184040 5.908732 9.844560
v 0.184040 6.267147 9.844560
v 0.034694 6.387215 10.226518
v 0.184040 6.387215 10.226518
v 0.034694 5.788664 10.226518
v 0.184040 5.788664 10.226518
v -0.168261 6.676988 10.358707
v -0.168261 6.676988 10.587452
v 0.222230 6.676988 10.749198
v 0.383977 6.676988 10.358707
v 0.005730 5.715340 10.226520
v -0.138702 5.715340 10.575208
v 0.005729 5.715340 10.719639
v 0.209986 5.715340 10.226520
v -0.107464 5.715340 10.383890
v 0.323180 5.715340 10.562268
v 0.222230 7.022608 10.749198
v 0.383977 7.022608 10.358707
v 0.222230 7.022608 10.196960
v -0.006517 7.022608 -8.940105
v -0.168264 7.022608 -9.101851
v -0.168264 7.022608 -9.330596
v -0.006517 7.022608 -9.492342
v 0.383974 7.022608 -9.101851
vt 0.388508 0.070487
vt 0.388508 0.055995
vt 0.391046 0.054944
vt 0.391046 0.071538
vt 0.378261 0.080733
vt 0.379312 0.083271
vt 0.363770 0.080733
vt 0.362719 0.083271
vt 0.353523 0.070486
vt 0.350985 0.071538
vt 0.353523 0.055995
vt 0.350985 0.054944
vt 0.363770 0.045748
vt 0.362719 0.043210
vt 0.378261 0.045748
vt 0.379312 0.043210
vt 0.370122 0.220887
vt 0.370122 0.237480
vt 0.367584 0.236429
vt 0.367584 0.221938
vt 0.358388 0.209153
vt 0.357337 0.211691
vt 0.341795 0.209153
vt 0.342846 0.211691
vt 0.330061 0.220887
vt 0.332599 0.221938
vt 0.330061 0.237481
vt 0.332599 0.236429
vt 0.341795 0.249214
vt 0.342846 0.246676
vt 0.358388 0.249214
vt 0.357337 0.246676
vt 0.229562 0.278046
vt 0.210979 0.278046
vt 0.210979 0.249968
vt 0.229562 0.249968
vt 0.248145 0.278046
vt 0.248145 0.249968
vt 0.266728 0.278046
vt 0.266728 0.249968
vt 0.285312 0.278046
vt 0.285312 0.249968
vt 0.303895 0.278046
vt 0.303895 0.249968
vt 0.322478 0.278046
vt 0.322478 0.249968
vt 0.192396 0.278046
vt 0.173813 0.278046
vt 0.173813 0.249968
vt 0.192396 0.249968
vt 0.318038 0.489487
vt 0.318038 0.477354
vt 0.337096 0.477354
vt 0.337096 0.489487
vt 0.403520 0.298943
vt 0.387147 0.308698
vt 0.387147 0.260072
vt 0.403520 0.269826
vt 0.000858 0.646365
vt 0.000858 0.626953
vt 0.999142 0.626953
vt 0.999142 0.646365
vt 0.681127 0.681081
vt 0.000939 0.681080
vt 0.000858 0.669209
vt 0.681046 0.669209
vt 0.391754 0.240338
vt 0.391754 0.252470
vt 0.372696 0.252470
vt 0.372696 0.240338
vt 0.999142 0.648081
vt 0.999142 0.667492
vt 0.000858 0.667493
vt 0.000858 0.648081
vt 0.232820 0.489563
vt 0.216447 0.479809
vt 0.216447 0.450691
vt 0.232820 0.440937
vt 0.000858 0.709970
vt 0.681046 0.709971
vt 0.681127 0.721842
vt 0.000939 0.721841
vt 0.332696 0.492061
vt 0.332696 0.504194
vt 0.318038 0.504194
vt 0.318038 0.492061
vt 0.247478 0.440937
vt 0.247478 0.489563
vt 0.231105 0.492137
vt 0.231105 0.504269
vt 0.216447 0.504269
vt 0.216447 0.492137
vt 0.372489 0.308698
vt 0.372489 0.260072
vt 0.294856 0.447289
vt 0.292318 0.448340
vt 0.292318 0.431747
vt 0.294856 0.432798
vt 0.305103 0.457536
vt 0.304051 0.460074
vt 0.319594 0.457536
vt 0.320645 0.460074
vt 0.329841 0.447289
vt 0.332379 0.448340
vt 0.329841 0.432798
vt 0.332379 0.431747
vt 0.319594 0.422551
vt 0.320645 0.420013
vt 0.305103 0.422551
vt 0.304051 0.420013
vt 0.339755 0.426944
vt 0.342293 0.427995
vt 0.342293 0.442486
vt 0.339755 0.443538
vt 0.351489 0.415210
vt 0.352540 0.417748
vt 0.368083 0.415210
vt 0.367032 0.417748
vt 0.379816 0.426944
vt 0.377279 0.427995
vt 0.379816 0.443538
vt 0.377279 0.442486
vt 0.368083 0.455271
vt 0.367032 0.452733
vt 0.351489 0.455271
vt 0.352540 0.452733
vt 0.266728 0.370002
vt 0.266728 0.341924
vt 0.285312 0.341924
vt 0.285312 0.370002
vt 0.248145 0.370002
vt 0.248145 0.341924
vt 0.229562 0.370002
vt 0.229562 0.341924
vt 0.210979 0.370002
vt 0.210979 0.341924
vt 0.192396 0.370002
vt 0.192396 0.341924
vt 0.173813 0.370002
vt 0.173813 0.341924
vt 0.303895 0.370002
vt 0.303895 0.341924
vt 0.322478 0.341924
vt 0.322478 0.370002
vt 0.311376 0.497400
vt 0.292318 0.497400
vt 0.292318 0.485267
vt 0.311376 0.485267
vt 0.382390 0.411447
vt 0.382390 0.382330
vt 0.398763 0.372575
vt 0.398763 0.421202
vt 0.394328 0.240338
vt 0.413385 0.240338
vt 0.413385 0.252470
vt 0.394328 0.252470
vt 0.397048 0.472402
vt 0.397048 0.423775
vt 0.413420 0.433530
vt 0.413420 0.462647
vt 0.410623 0.072589
vt 0.425281 0.072589
vt 0.425281 0.084722
vt 0.410623 0.084722
vt 0.382390 0.472402
vt 0.382390 0.423775
vt 0.268688 0.408157
vt 0.268688 0.393499
vt 0.280820 0.393499
vt 0.280820 0.408157
vt 0.413420 0.372575
vt 0.413420 0.421202
vt 0.021175 0.582880
vt 0.011016 0.582863
vt 0.011016 0.000875
vt 0.021175 0.000892
vt 0.000858 0.582846
vt 0.000858 0.000858
vt 0.082125 0.582982
vt 0.071966 0.582965
vt 0.071966 0.000977
vt 0.082125 0.000993
vt 0.061808 0.582948
vt 0.061808 0.000960
vt 0.051650 0.582931
vt 0.051650 0.000943
vt 0.041491 0.582914
vt 0.041491 0.000926
vt 0.031333 0.582897
vt 0.031333 0.000909
vt 0.388508 0.013360
vt 0.391046 0.012309
vt 0.391046 0.028903
vt 0.388508 0.027852
vt 0.378261 0.003113
vt 0.379312 0.000576
vt 0.363770 0.003113
vt 0.362719 0.000576
vt 0.353523 0.013360
vt 0.350985 0.012309
vt 0.353523 0.027852
vt 0.350985 0.028903
vt 0.363770 0.038099
vt 0.362719 0.040637
vt 0.378261 0.038099
vt 0.379312 0.040637
vt 0.368083 0.412636
vt 0.367032 0.410099
vt 0.377279 0.399852
vt 0.379816 0.400903
vt 0.351489 0.412636
vt 0.352540 0.410099
vt 0.339755 0.400903
vt 0.342293 0.399852
vt 0.339755 0.384309
vt 0.342293 0.385360
vt 0.351489 0.372575
vt 0.352540 0.375113
vt 0.368083 0.372575
vt 0.367032 0.375113
vt 0.379816 0.384309
vt 0.377279 0.385360
vt 0.266728 0.339350
vt 0.266728 0.311272
vt 0.285312 0.311272
vt 0.285311 0.339350
vt 0.248145 0.339350
vt 0.248145 0.311272
vt 0.229562 0.339350
vt 0.229562 0.311272
vt 0.210979 0.339350
vt 0.210979 0.311272
vt 0.192396 0.339350
vt 0.192396 0.311272
vt 0.173813 0.339350
vt 0.173813 0.311272
vt 0.303895 0.339350
vt 0.303895 0.311272
vt 0.322478 0.311272
vt 0.322478 0.339350
vt 0.408110 0.474975
vt 0.427168 0.474975
vt 0.427168 0.487108
vt 0.408110 0.487108
vt 0.403520 0.321026
vt 0.403520 0.350144
vt 0.387147 0.359898
vt 0.387147 0.311272
vt 0.000858 0.584697
vt 0.999142 0.584698
vt 0.999142 0.604109
vt 0.000858 0.604109
vt 0.681187 0.696383
vt 0.681076 0.708254
vt 0.000858 0.708254
vt 0.000969 0.696383
vt 0.337096 0.474781
vt 0.318038 0.474781
vt 0.318038 0.462648
vt 0.337096 0.462648
vt 0.999142 0.625237
vt 0.000858 0.625237
vt 0.000858 0.605825
vt 0.999142 0.605825
vt 0.266424 0.440937
vt 0.266424 0.489563
vt 0.250051 0.479809
vt 0.250051 0.450691
vt 0.000858 0.694667
vt 0.000969 0.682797
vt 0.681187 0.682797
vt 0.681076 0.694667
vt 0.265569 0.504269
vt 0.250911 0.504269
vt 0.250911 0.492137
vt 0.265569 0.492137
vt 0.281082 0.440937
vt 0.281082 0.489563
vt 0.282800 0.504269
vt 0.268142 0.504269
vt 0.268142 0.492137
vt 0.282800 0.492137
vt 0.372489 0.359898
vt 0.372489 0.311272
vt 0.144790 0.582877
vt 0.144790 0.000890
vt 0.154949 0.000874
vt 0.154949 0.582861
vt 0.165107 0.000858
vt 0.165107 0.582845
vt 0.083840 0.582974
vt 0.083840 0.000987
vt 0.093999 0.000971
vt 0.093999 0.582958
vt 0.104157 0.000955
vt 0.104157 0.582942
vt 0.114315 0.000939
vt 0.114315 0.582926
vt 0.124474 0.000922
vt 0.124474 0.582910
vt 0.134632 0.582893
vt 0.134632 0.000906
vt 0.176350 0.453721
vt 0.176350 0.468213
vt 0.173813 0.469264
vt 0.173813 0.452670
vt 0.186597 0.443475
vt 0.185546 0.440937
vt 0.201089 0.443475
vt 0.202140 0.440937
vt 0.211336 0.453722
vt 0.213874 0.452670
vt 0.211336 0.468213
vt 0.213874 0.469264
vt 0.201089 0.478460
vt 0.202140 0.480998
vt 0.186597 0.478460
vt 0.185546 0.480998
vt 0.330061 0.194846
vt 0.330061 0.178252
vt 0.332599 0.179303
vt 0.332599 0.193794
vt 0.341795 0.206579
vt 0.342846 0.204041
vt 0.358388 0.206579
vt 0.357337 0.204041
vt 0.370122 0.194846
vt 0.367584 0.193794
vt 0.370122 0.178252
vt 0.367584 0.179303
vt 0.358388 0.166518
vt 0.357337 0.169056
vt 0.341795 0.166518
vt 0.342846 0.169056
vt 0.229562 0.308698
vt 0.210979 0.308698
vt 0.210979 0.280620
vt 0.229562 0.280620
vt 0.248145 0.308698
vt 0.248145 0.280620
vt 0.266729 0.308698
vt 0.266729 0.280620
vt 0.285312 0.308698
vt 0.285312 0.280620
vt 0.303895 0.308698
vt 0.303895 0.280620
vt 0.322478 0.308698
vt 0.322478 0.280620
vt 0.192396 0.308698
vt 0.173813 0.308698
vt 0.173813 0.280620
vt 0.192396 0.280620
vt 0.425151 0.332085
vt 0.425151 0.344218
vt 0.406093 0.344218
vt 0.406093 0.332085
vt 0.377499 0.125073
vt 0.393871 0.115318
vt 0.393871 0.163945
vt 0.377499 0.154190
vt 0.406093 0.358924
vt 0.406093 0.346792
vt 0.425151 0.346792
vt 0.425151 0.358925
vt 0.387354 0.166518
vt 0.403726 0.176273
vt 0.403726 0.205390
vt 0.387354 0.215144
vt 0.233679 0.504269
vt 0.233679 0.492137
vt 0.248337 0.492137
vt 0.248337 0.504269
vt 0.372696 0.215144
vt 0.372696 0.166518
vt 0.408110 0.501815
vt 0.408110 0.489682
vt 0.422768 0.489682
vt 0.422768 0.501815
vt 0.408529 0.115318
vt 0.408529 0.163945
vt 0.338192 0.311272
vt 0.356775 0.311272
vt 0.369916 0.324412
vt 0.369916 0.342995
vt 0.356775 0.356135
vt 0.338192 0.356135
vt 0.325052 0.342995
vt 0.325052 0.324412
vt 0.369916 0.295557
vt 0.356775 0.308698
vt 0.338192 0.308698
vt 0.325052 0.295558
vt 0.325052 0.276974
vt 0.338192 0.263834
vt 0.356775 0.263834
vt 0.369916 0.276974
vn 0.0000 1.0000 0.0000
vn -0.0000 0.0307 0.9995
vn 0.7068 0.0307 0.7068
vn 0.9995 0.0307 0.0000
vn 0.7068 0.0307 -0.7068
vn -0.0000 0.0307 -0.9995
vn -0.7068 0.0307 -0.7068
vn -0.9995 0.0307 -0.0000
vn -0.7068 0.0307 0.7068
vn -0.0000 0.0000 1.0000
vn 0.7071 0.0000 0.7071
vn 1.0000 0.0000 0.0000
vn 0.7071 0.0000 -0.7071
vn 0.0000 0.0000 -1.0000
vn -0.7071 0.0000 -0.7071
vn -1.0000 0.0000 -0.0000
vn -0.7071 0.0000 0.7071
vn 0.0000 0.8591 0.5118
vn 0.0000 -0.8591 0.5118
vn 0.0000 -1.0000 0.0000
vn 0.0000 0.8591 -0.5118
vn 0.0000 -0.8591 -0.5118
vn -0.0000 -0.0307 0.9995
vn 0.7068 -0.0307 0.7068
vn 0.9995 -0.0307 0.0000
vn 0.7068 -0.0307 -0.7068
vn -0.0000 -0.0307 -0.9995
vn -0.7068 -0.0307 -0.7068
vn -0.9995 -0.0307 -0.0000
vn -0.7068 -0.0307 0.7068
usemtl Material
s off
f 2/1/1 39/2/1 33/3/1 4/4/1
f 44/5/1 2/1/1 4/4/1 38/6/1
f 43/7/1 44/5/1 38/6/1 37/8/1
f 1/9/1 43/7/1 37/8/1 36/10/1
f 42/11/1 1/9/1 36/10/1 3/12/1
f 41/13/1 42/11/1 3/12/1 35/14/1
f 40/15/1 41/13/1 35/14/1 34/16/1
f 39/2/1 40/15/1 34/16/1 33/3/1
f 4/17/2 33/18/2 5/19/2 32/20/2
f 38/21/3 4/17/3 32/20/3 9/22/3
f 37/23/4 38/21/4 9/22/4 8/24/4
f 36/25/5 37/23/5 8/24/5 31/26/5
f 3/27/6 36/25/6 31/26/6 30/28/6
f 35/29/7 3/27/7 30/28/7 7/30/7
f 34/31/8 35/29/8 7/30/8 6/32/8
f 33/18/9 34/31/9 6/32/9 5/19/9
f 32/33/10 5/34/10 10/35/10 17/36/10
f 9/37/11 32/33/11 17/36/11 16/38/11
f 8/39/12 9/37/12 16/38/12 15/40/12
f 31/41/13 8/39/13 15/40/13 14/42/13
f 30/43/14 31/41/14 14/42/14 13/44/14
f 7/45/15 30/43/15 13/44/15 12/46/15
f 6/47/16 7/48/16 12/49/16 11/50/16
f 5/34/17 6/47/17 11/50/17 10/35/17
f 21/51/18 20/52/18 22/53/18 24/54/18
f 22/55/16 20/56/16 18/57/16 23/58/16
f 22/59/16 23/60/16 70/61/16 69/62/16
f 71/63/1 24/64/1 22/65/1 69/66/1
f 25/67/19 23/68/19 18/69/19 19/70/19
f 71/71/12 72/72/12 25/73/12 24/74/12
f 21/75/12 24/76/12 25/77/12 19/78/12
f 25/79/20 72/80/20 70/81/20 23/82/20
f 19/83/20 18/84/20 26/85/20 27/86/20
f 21/75/12 19/78/12 27/87/12 29/88/12
f 20/89/1 21/90/1 29/91/1 28/92/1
f 18/57/16 20/56/16 28/93/16 26/94/16
f 50/95/1 86/96/1 82/97/1 45/98/1
f 88/99/1 53/100/1 86/96/1 50/95/1
f 49/101/1 85/102/1 53/100/1 88/99/1
f 48/103/1 52/104/1 85/102/1 49/101/1
f 87/105/1 84/106/1 52/104/1 48/103/1
f 47/107/1 83/108/1 84/106/1 87/105/1
f 46/109/1 51/110/1 83/108/1 47/107/1
f 45/98/1 82/97/1 51/110/1 46/109/1
f 86/111/6 56/112/6 77/113/6 82/114/6
f 53/115/5 55/116/5 56/112/5 86/111/5
f 85/117/4 81/118/4 55/116/4 53/115/4
f 52/119/3 80/120/3 81/118/3 85/117/3
f 84/121/2 79/122/2 80/120/2 52/119/2
f 83/123/9 54/124/9 79/122/9 84/121/9
f 51/125/8 78/126/8 54/124/8 83/123/8
f 82/114/7 77/113/7 78/126/7 51/125/7
f 56/127/14 64/128/14 57/129/14 77/130/14
f 55/131/13 63/132/13 64/128/13 56/127/13
f 81/133/12 62/134/12 63/132/12 55/131/12
f 80/135/11 61/136/11 62/134/11 81/133/11
f 79/137/10 60/138/10 61/136/10 80/135/10
f 54/139/17 59/140/17 60/138/17 79/137/17
f 78/141/16 58/142/16 59/143/16 54/144/16
f 77/130/15 57/129/15 58/142/15 78/141/15
f 68/145/21 71/146/21 69/147/21 67/148/21
f 69/149/16 70/150/16 65/151/16 67/152/16
f 72/153/22 66/154/22 65/155/22 70/156/22
f 68/157/12 66/158/12 72/159/12 71/160/12
f 66/161/20 74/162/20 73/163/20 65/164/20
f 68/157/12 76/165/12 74/166/12 66/158/12
f 67/167/1 75/168/1 76/169/1 68/170/1
f 65/151/16 73/171/16 75/172/16 67/152/16
f 124/173/17 125/174/17 40/175/17 39/176/17
f 125/174/16 89/177/16 41/178/16 40/175/16
f 89/179/15 126/180/15 42/181/15 41/182/15
f 126/180/14 127/183/14 1/184/14 42/181/14
f 127/183/13 90/185/13 43/186/13 1/184/13
f 90/185/12 91/187/12 44/188/12 43/186/12
f 92/189/10 124/173/10 39/176/10 2/190/10
f 91/187/11 92/189/11 2/190/11 44/188/11
f 92/191/20 123/192/20 93/193/20 124/194/20
f 91/195/20 122/196/20 123/192/20 92/191/20
f 90/197/20 121/198/20 122/196/20 91/195/20
f 127/199/20 120/200/20 121/198/20 90/197/20
f 126/201/20 119/202/20 120/200/20 127/199/20
f 89/203/20 118/204/20 119/202/20 126/201/20
f 125/205/20 94/206/20 118/204/20 89/203/20
f 124/194/20 93/193/20 94/206/20 125/205/20
f 123/207/23 117/208/23 95/209/23 93/210/23
f 122/211/24 98/212/24 117/208/24 123/207/24
f 121/213/25 116/214/25 98/212/25 122/211/25
f 120/215/26 97/216/26 116/214/26 121/213/26
f 119/217/27 115/218/27 97/216/27 120/215/27
f 118/219/28 96/220/28 115/218/28 119/217/28
f 94/221/29 114/222/29 96/220/29 118/219/29
f 93/210/30 95/209/30 114/222/30 94/221/30
f 117/223/10 101/224/10 172/225/10 95/226/10
f 98/227/11 176/228/11 101/224/11 117/223/11
f 116/229/12 100/230/12 176/228/12 98/227/12
f 97/231/13 99/232/13 100/230/13 116/229/13
f 115/233/14 175/234/14 99/232/14 97/231/14
f 96/235/15 174/236/15 175/234/15 115/233/15
f 114/237/16 173/238/16 174/239/16 96/240/16
f 95/226/17 172/225/17 173/238/17 114/237/17
f 105/241/19 108/242/19 106/243/19 104/244/19
f 106/245/16 107/246/16 102/247/16 104/248/16
f 106/249/16 151/250/16 152/251/16 107/252/16
f 153/253/20 151/254/20 106/255/20 108/256/20
f 109/257/18 103/258/18 102/259/18 107/260/18
f 153/261/12 108/262/12 109/263/12 154/264/12
f 105/265/12 103/266/12 109/267/12 108/268/12
f 109/269/1 107/270/1 152/271/1 154/272/1
f 103/273/1 111/274/1 110/275/1 102/276/1
f 105/265/12 113/277/12 111/278/12 103/266/12
f 104/279/20 112/280/20 113/281/20 105/282/20
f 102/247/16 110/283/16 112/284/16 104/248/16
f 128/285/15 45/286/15 46/287/15 167/288/15
f 167/288/16 46/287/16 47/289/16 129/290/16
f 129/291/17 47/292/17 87/293/17 130/294/17
f 130/294/10 87/293/10 48/295/10 131/296/10
f 131/296/11 48/295/11 49/297/11 168/298/11
f 168/298/12 49/297/12 88/299/12 132/300/12
f 133/301/14 50/302/14 45/286/14 128/285/14
f 132/300/13 88/299/13 50/302/13 133/301/13
f 133/303/20 128/304/20 163/305/20 166/306/20
f 132/307/20 133/303/20 166/306/20 137/308/20
f 168/309/20 132/307/20 137/308/20 136/310/20
f 131/311/20 168/309/20 136/310/20 135/312/20
f 130/313/20 131/311/20 135/312/20 165/314/20
f 129/315/20 130/313/20 165/314/20 164/316/20
f 167/317/20 129/315/20 164/316/20 134/318/20
f 128/304/20 167/317/20 134/318/20 163/305/20
f 166/319/27 163/320/27 138/321/27 141/322/27
f 137/323/26 166/319/26 141/322/26 162/324/26
f 136/325/25 137/323/25 162/324/25 140/326/25
f 135/327/24 136/325/24 140/326/24 161/328/24
f 165/329/23 135/327/23 161/328/23 139/330/23
f 164/331/30 165/329/30 139/330/30 160/332/30
f 134/333/29 164/331/29 160/332/29 159/334/29
f 163/320/28 134/333/28 159/334/28 138/321/28
f 141/335/14 138/336/14 142/337/14 171/338/14
f 162/339/13 141/335/13 171/338/13 170/340/13
f 140/341/12 162/339/12 170/340/12 146/342/12
f 161/343/11 140/341/11 146/342/11 169/344/11
f 139/345/10 161/343/10 169/344/10 145/346/10
f 160/347/17 139/345/17 145/346/17 144/348/17
f 159/349/16 160/350/16 144/351/16 143/352/16
f 138/336/15 159/349/15 143/352/15 142/337/15
f 150/353/22 149/354/22 151/355/22 153/356/22
f 151/357/16 149/358/16 147/359/16 152/360/16
f 154/361/21 152/362/21 147/363/21 148/364/21
f 150/365/12 153/366/12 154/367/12 148/368/12
f 148/369/1 147/370/1 155/371/1 156/372/1
f 150/365/12 148/368/12 156/373/12 158/374/12
f 149/375/20 150/376/20 158/377/20 157/378/20
f 147/359/16 149/358/16 157/379/16 155/380/16
f 142/381/1 143/382/1 144/383/1 145/384/1 169/385/1 146/386/1 170/387/1 171/388/1
f 172/389/1 101/390/1 176/391/1 100/392/1 99/393/1 175/394/1 174/395/1 173/396/1
