# Blender v2.79 (sub 0) OBJ File: 'metalFence.blend'
# www.blender.org
mtllib metalFenceGrid.mtl
o object_static_metalFenceGrid_Plane
v 0.109366 5.908732 10.257758
v 0.109367 -5.777005 10.257758
v 0.109366 5.908732 -9.000902
v 0.109367 -5.777005 -9.000902
v 0.141875 5.908732 10.257758
v 0.141875 -5.777005 10.257758
v 0.141874 5.908732 -9.000902
v 0.141875 -5.777005 -9.000902
vt 0.000385 0.000385
vt 0.823141 0.000385
vt 0.823141 0.499615
vt 0.000385 0.499615
vt 0.000385 0.999615
vt 0.000385 0.500385
vt 0.823141 0.500385
vt 0.823141 0.999615
vn -1.0000 -0.0000 0.0000
vn 1.0000 0.0000 -0.0000
usemtl None
s off
f 1/1/1 3/2/1 4/3/1 2/4/1
f 5/5/2 6/6/2 8/7/2 7/8/2
