# Blender v2.79 (sub 0) OBJ File: 'cables.blend'
# www.blender.org
mtllib cablefix.mtl
o object_static_cableFix_Cube.004
v -0.142686 -0.122999 0.195648
v -0.201752 -0.122999 0.195648
v -0.201752 -0.122999 0.138530
v -0.142686 -0.122999 0.138530
v -0.142686 0.250345 0.195648
v -0.201752 0.250345 0.195648
v -0.201752 0.250345 0.138530
v -0.141002 -0.144410 0.195648
v -0.192155 -0.173943 0.195648
v -0.192155 -0.173943 0.138530
v -0.141002 -0.144410 0.138530
v -0.124831 -0.163402 0.195648
v -0.154364 -0.214554 0.195648
v -0.154364 -0.214554 0.138530
v -0.124831 -0.163402 0.138530
v -0.105125 -0.167238 0.195648
v -0.105124 -0.226304 0.195648
v -0.105124 -0.226304 0.138530
v -0.105124 -0.167238 0.138530
v 0.144035 -0.122999 0.195648
v 0.203101 -0.122999 0.195648
v 0.203101 -0.122999 0.138530
v 0.144035 -0.122999 0.138530
v 0.144035 0.250345 0.195648
v 0.203101 0.250345 0.195648
v 0.203101 0.250345 0.138530
v 0.142352 -0.144410 0.195648
v 0.193505 -0.173943 0.195648
v 0.193505 -0.173943 0.138530
v 0.142352 -0.144410 0.138530
v 0.126180 -0.163402 0.195648
v 0.155713 -0.214554 0.195648
v 0.155713 -0.214554 0.138530
v 0.126180 -0.163402 0.138530
v 0.106474 -0.167238 0.195648
v 0.106474 -0.226304 0.195648
v 0.106474 -0.226304 0.138530
v 0.106474 -0.167238 0.138530
v -0.142686 -0.122999 -0.130449
v -0.201752 -0.122999 -0.130449
v -0.201752 -0.122999 -0.187567
v -0.142686 -0.122999 -0.187567
v -0.201752 0.250344 -0.130449
v -0.201752 0.250344 -0.187567
v -0.142686 0.250344 -0.187567
v -0.141002 -0.144410 -0.130449
v -0.192155 -0.173943 -0.130449
v -0.192155 -0.173943 -0.187567
v -0.141002 -0.144410 -0.187567
v -0.124831 -0.163402 -0.130449
v -0.154364 -0.214554 -0.130449
v -0.154364 -0.214554 -0.187567
v -0.124831 -0.163402 -0.187567
v -0.105125 -0.167238 -0.130449
v -0.105125 -0.226304 -0.130449
v -0.105125 -0.226304 -0.187567
v -0.105125 -0.167238 -0.187567
v 0.144035 -0.122999 -0.130449
v 0.203101 -0.122999 -0.130449
v 0.203101 -0.122999 -0.187567
v 0.144035 -0.122999 -0.187567
v 0.203101 0.250344 -0.130449
v 0.203101 0.250344 -0.187567
v 0.144035 0.250344 -0.187567
v 0.142352 -0.144410 -0.130449
v 0.193504 -0.173943 -0.130449
v 0.193504 -0.173943 -0.187567
v 0.142352 -0.144410 -0.187567
v 0.126180 -0.163402 -0.130449
v 0.155713 -0.214554 -0.130449
v 0.155713 -0.214554 -0.187567
v 0.126180 -0.163402 -0.187567
v 0.106474 -0.167238 -0.130449
v 0.106474 -0.226304 -0.130449
v 0.106474 -0.226304 -0.187567
v 0.106474 -0.167238 -0.187567
v -0.142686 0.250345 0.138530
v -0.142686 0.250345 -0.130449
v 0.144035 0.250345 0.138530
v 0.144035 0.250345 -0.130449
vt 0.762459 0.348245
vt 0.721608 0.348245
vt 0.720444 0.333437
vt 0.755821 0.313012
vt 0.709260 0.320302
vt 0.729685 0.284925
vt 0.264836 0.271663
vt 0.264836 0.232160
vt 0.300688 0.232160
vt 0.300688 0.271663
vt 0.047481 0.356370
vt 0.006631 0.356370
vt 0.013268 0.321137
vt 0.048645 0.341562
vt 0.339055 0.232160
vt 0.339055 0.271663
vt 0.039404 0.293050
vt 0.059829 0.328428
vt 0.374065 0.232160
vt 0.374065 0.271663
vt 0.073458 0.284925
vt 0.073458 0.325775
vt 0.775720 0.348244
vt 0.782357 0.313011
vt 0.817734 0.333436
vt 0.816570 0.348244
vt 0.808493 0.284925
vt 0.828918 0.320302
vt 0.629636 0.271663
vt 0.593783 0.271663
vt 0.593783 0.232160
vt 0.629636 0.232160
vt 0.245777 0.356370
vt 0.244613 0.341562
vt 0.279990 0.321137
vt 0.286627 0.356370
vt 0.555417 0.271663
vt 0.555417 0.232160
vt 0.233429 0.328428
vt 0.253854 0.293050
vt 0.520407 0.271663
vt 0.520407 0.232160
vt 0.219800 0.325775
vt 0.219800 0.284925
vt 0.552374 0.619032
vt 0.366348 0.619032
vt 0.366348 0.578182
vt 0.552374 0.578182
vt 0.192656 0.627836
vt 0.192656 0.668686
vt 0.006631 0.668686
vt 0.006631 0.627836
vt 0.993369 0.006631
vt 0.993369 0.264835
vt 0.953866 0.264835
vt 0.953866 0.006631
vt 0.993369 0.761360
vt 0.953866 0.761360
vt 0.953866 0.503156
vt 0.993369 0.503156
vt 0.993369 0.279689
vt 0.953866 0.279689
vt 0.993369 0.296940
vt 0.953866 0.296940
vt 0.993369 0.310825
vt 0.953866 0.310825
vt 0.953866 0.488303
vt 0.993369 0.488303
vt 0.953866 0.471051
vt 0.993369 0.471051
vt 0.953866 0.457167
vt 0.993369 0.457167
vt 0.371334 0.284925
vt 0.371334 0.325775
vt 0.356526 0.326939
vt 0.336101 0.291562
vt 0.343392 0.338123
vt 0.308014 0.317698
vt 0.264835 0.046134
vt 0.264835 0.006631
vt 0.300688 0.006631
vt 0.300688 0.046134
vt 0.683650 0.348245
vt 0.642800 0.348245
vt 0.649437 0.313012
vt 0.684815 0.333437
vt 0.340739 0.351752
vt 0.299888 0.351752
vt 0.339055 0.006631
vt 0.339055 0.046134
vt 0.675574 0.284925
vt 0.695999 0.320302
vt 0.374065 0.006631
vt 0.374065 0.046134
vt 0.371334 0.564921
vt 0.336101 0.558284
vt 0.356526 0.522906
vt 0.371334 0.524071
vt 0.308014 0.532147
vt 0.343391 0.511722
vt 0.629635 0.046134
vt 0.593783 0.046134
vt 0.593783 0.006631
vt 0.629635 0.006631
vt 0.312237 0.641502
vt 0.311073 0.626694
vt 0.346450 0.606269
vt 0.353087 0.641502
vt 0.299888 0.498094
vt 0.340739 0.498094
vt 0.555416 0.046134
vt 0.555416 0.006631
vt 0.299888 0.613559
vt 0.320314 0.578182
vt 0.520407 0.046134
vt 0.520407 0.006631
vt 0.901102 0.457167
vt 0.901102 0.310825
vt 0.940605 0.310825
vt 0.940605 0.457167
vt 0.901102 0.471051
vt 0.940605 0.471051
vt 0.901101 0.488302
vt 0.940605 0.488302
vt 0.901102 0.503156
vt 0.940605 0.503156
vt 0.901102 0.296940
vt 0.940605 0.296940
vt 0.901101 0.279689
vt 0.940605 0.279689
vt 0.901101 0.264835
vt 0.940605 0.264835
vt 0.940605 0.761360
vt 0.901102 0.761360
vt 0.940605 0.006631
vt 0.901101 0.006631
vt 0.762458 0.606449
vt 0.721608 0.606449
vt 0.006632 0.271663
vt 0.006632 0.232160
vt 0.047481 0.614574
vt 0.006631 0.614574
vt 0.629539 0.284925
vt 0.629539 0.325775
vt 0.006631 0.046134
vt 0.006631 0.006631
vt 0.683650 0.606449
vt 0.642800 0.606449
vt 0.816570 0.606449
vt 0.775720 0.606449
vt 0.887840 0.232160
vt 0.887840 0.271663
vt 0.286627 0.614575
vt 0.245777 0.614575
vt 0.629538 0.524071
vt 0.629538 0.564921
vt 0.887839 0.006631
vt 0.887839 0.046135
vt 0.353086 0.899707
vt 0.312236 0.899706
vn -0.7237 -0.0676 -0.6868
vn 0.6975 0.0274 -0.7160
vn 0.5742 0.2373 -0.7835
vn -0.6786 -0.3428 -0.6496
vn 0.0352 0.8676 -0.4960
vn -0.6715 -0.6924 -0.2639
vn -0.7237 -0.0676 0.6868
vn -0.6786 -0.3428 0.6496
vn 0.6975 0.0274 0.7160
vn 0.5742 0.2373 0.7835
vn -0.3838 -0.6584 0.6474
vn 0.3096 0.5299 0.7895
vn -0.1168 -0.9931 0.0000
vn -0.0855 -0.7266 0.6817
vn 0.0656 0.6810 0.7293
vn 0.7237 -0.0676 -0.6868
vn 0.6786 -0.3428 -0.6496
vn -0.5742 0.2373 -0.7835
vn -0.6975 0.0274 -0.7160
vn 0.6715 -0.6924 -0.2639
vn -0.0352 0.8676 -0.4960
vn 0.7237 -0.0676 0.6868
vn 0.6786 -0.3428 0.6496
vn -0.6975 0.0274 0.7160
vn -0.5742 0.2373 0.7835
vn 0.3838 -0.6584 0.6474
vn -0.3096 0.5299 0.7895
vn 0.0855 -0.7266 0.6817
vn 0.1168 -0.9931 0.0000
vn -0.0656 0.6810 0.7293
vn 0.6715 -0.6924 0.2639
vn -0.0352 0.8676 0.4960
vn 0.0352 0.8676 0.4960
vn -0.6715 -0.6924 0.2639
vn 0.7071 0.0000 0.7071
vn 0.7071 0.0000 -0.7071
vn -0.7071 0.0000 0.7071
vn -0.7071 0.0000 -0.7071
vn 0.0960 0.9954 0.0000
vn -0.0960 0.9954 0.0000
vn 0.3096 0.5299 -0.7895
vn -0.3838 -0.6584 -0.6474
vn 0.0656 0.6810 -0.7293
vn -0.0855 -0.7266 -0.6817
vn 0.3838 -0.6584 -0.6474
vn -0.3096 0.5299 -0.7895
vn 0.0855 -0.7266 -0.6817
vn -0.0656 0.6810 -0.7293
usemtl Material.028
s 1
f 3/1/1 4/2/2 11/3/3 10/4/4
f 10/4/4 11/3/3 15/5/5 14/6/6
f 2/7/7 3/8/1 10/9/4 9/10/8
f 1/11/9 2/12/7 9/13/8 8/14/10
f 9/10/8 10/9/4 14/15/6 13/16/11
f 8/14/10 9/13/8 13/17/11 12/18/12
f 13/16/11 14/15/6 18/19/13 17/20/14
f 12/18/12 13/17/11 17/21/14 16/22/15
f 22/23/16 29/24/17 30/25/18 23/26/19
f 29/24/17 33/27/20 34/28/21 30/25/18
f 21/29/22 28/30/23 29/31/17 22/32/16
f 20/33/24 27/34/25 28/35/23 21/36/22
f 28/30/23 32/37/26 33/38/20 29/31/17
f 27/34/25 31/39/27 32/40/26 28/35/23
f 32/37/26 36/41/28 37/42/29 33/38/20
f 31/39/27 35/43/30 36/44/28 32/40/26
f 33/45/20 70/46/31 69/47/32 34/48/21
f 35/43/30 16/22/15 17/21/14 36/44/28
f 36/41/28 17/20/14 18/19/13 37/42/29
f 14/49/6 15/50/5 50/51/33 51/52/34
f 5/53/35 1/54/9 4/55/2 77/56/36
f 24/57/37 79/58/38 23/59/19 20/60/24
f 4/55/2 1/54/9 8/61/10 11/62/3
f 11/62/3 8/61/10 12/63/12 15/64/5
f 15/64/5 12/63/12 16/65/15 19/66/39
f 23/59/19 30/67/18 27/68/25 20/60/24
f 30/67/18 34/69/21 31/70/27 27/68/25
f 34/69/21 38/71/40 35/72/30 31/70/27
f 38/71/40 19/66/39 16/65/15 35/72/30
f 41/73/1 42/74/2 49/75/3 48/76/4
f 48/76/4 49/75/3 53/77/41 52/78/42
f 40/79/7 41/80/1 48/81/4 47/82/8
f 39/83/9 40/84/7 47/85/8 46/86/10
f 52/78/42 53/77/41 57/87/43 56/88/44
f 47/82/8 48/81/4 52/89/42 51/90/34
f 46/86/10 47/85/8 51/91/34 50/92/33
f 51/90/34 52/89/42 56/93/44 55/94/13
f 14/15/6 51/90/34 55/94/13 18/19/13
f 60/95/16 67/96/17 68/97/18 61/98/19
f 67/96/17 71/99/45 72/100/46 68/97/18
f 59/101/22 66/102/23 67/103/17 60/104/16
f 58/105/24 65/106/25 66/107/23 59/108/22
f 71/99/45 75/109/47 76/110/48 72/100/46
f 66/102/23 70/111/31 71/112/45 67/103/17
f 65/106/25 69/113/32 70/114/31 66/107/23
f 70/111/31 74/115/29 75/116/47 71/112/45
f 33/38/20 37/42/29 74/115/29 70/111/31
f 37/42/29 18/19/13 55/94/13 74/115/29
f 74/115/29 55/94/13 56/93/44 75/116/47
f 75/109/47 56/88/44 57/87/43 76/110/48
f 76/117/48 57/118/43 54/119/39 73/120/40
f 72/121/46 76/117/48 73/120/40 69/122/32
f 68/123/18 72/121/46 69/122/32 65/124/25
f 61/125/19 68/123/18 65/124/25 58/126/24
f 53/127/41 50/128/33 54/119/39 57/118/43
f 49/129/3 46/130/10 50/128/33 53/127/41
f 42/131/2 39/132/9 46/130/10 49/129/3
f 80/133/37 64/134/38 61/125/19 58/126/24
f 78/135/35 39/132/9 42/131/2 45/136/36
f 3/1/1 7/137/38 77/138/36 4/2/2
f 2/7/7 6/139/37 7/140/38 3/8/1
f 1/11/9 5/141/35 6/142/37 2/12/7
f 41/73/1 44/143/38 45/144/36 42/74/2
f 40/79/7 43/145/37 44/146/38 41/80/1
f 39/83/9 78/147/35 43/148/37 40/84/7
f 22/23/16 23/26/19 79/149/38 26/150/36
f 21/29/22 22/32/16 26/151/36 25/152/35
f 20/33/24 21/36/22 25/153/35 24/154/37
f 60/95/16 61/98/19 64/155/38 63/156/36
f 59/101/22 60/104/16 63/157/36 62/158/35
f 58/105/24 59/108/22 62/159/35 80/160/37
