# Blender v2.79 (sub 0) OBJ File: 'cables.blend'
# www.blender.org
mtllib cable_short.mtl
o Cube.001_Cube.003
v -0.082363 0.235909 1.244026
v 0.032203 0.235909 1.244026
v -0.082363 0.121343 1.244026
v 0.032203 0.121343 1.244026
v 0.032203 0.187199 0.728917
v -0.082363 0.072633 0.728917
v -0.082363 0.187199 0.728917
v 0.032203 0.072633 0.728917
v 0.032203 0.293542 -0.999515
v -0.082363 0.178976 -0.999515
v 0.032203 0.178976 -0.999515
v -0.082363 0.293542 -0.999515
v 0.057218 0.201890 -1.044336
v 0.171784 0.076907 -1.044336
v 0.057218 0.076907 -1.044336
v 0.171784 0.201890 -1.044336
v 0.171784 -0.076727 0.728917
v 0.057218 0.037839 0.728917
v 0.057218 -0.076727 0.728917
v 0.171784 0.037839 0.728917
v 0.032203 0.170347 0.055421
v -0.082363 0.377977 -1.389423
v 0.171784 0.121343 1.244026
v 0.057218 0.121343 1.244026
v -0.082363 0.055781 0.055421
v 0.032203 0.263411 -1.389423
v 0.171784 0.235909 1.244026
v 0.057218 0.235909 1.244026
v -0.082363 0.263411 -1.389423
v 0.032203 0.055781 0.055421
v 0.032203 0.377977 -1.389423
v -0.082363 0.170347 0.055421
v 0.032203 0.094305 -0.512283
v -0.082363 0.094305 -0.512283
v -0.082363 0.208871 -0.512283
v 0.032203 0.208871 -0.512283
v 0.171784 0.042269 -0.579094
v 0.057218 0.042269 -0.579094
v 0.057218 -0.072297 -0.579094
v 0.171784 -0.072297 -0.579094
v 0.057218 -0.025142 0.014329
v 0.171783 0.377977 -1.389423
v 0.171784 -0.139708 0.014329
v 0.057218 0.237411 -1.389423
v 0.171783 0.237411 -1.389423
v 0.057218 -0.139708 0.014329
v 0.057218 0.377977 -1.389423
v 0.171784 -0.025142 0.014329
v -0.082363 0.235909 1.397936
v 0.032203 0.235909 1.397936
v -0.082363 0.121343 1.397936
v 0.032203 0.121343 1.397936
v 0.171784 0.121343 1.397936
v 0.057218 0.121343 1.397936
v 0.171784 0.235909 1.397936
v 0.057218 0.235909 1.397936
vt 0.906929 0.293224
vt 0.906972 0.331818
vt 0.730217 0.330961
vt 0.730176 0.292101
vt 0.500843 0.175824
vt 0.730029 0.176447
vt 0.727829 0.215030
vt 0.501736 0.215055
vt 0.501657 0.253818
vt 0.727831 0.253735
vt 0.905187 0.254074
vt 0.944524 0.133181
vt 0.751540 0.128058
vt 0.742901 0.092014
vt 0.937640 0.094474
vt 0.511454 0.091315
vt 0.511909 0.052786
vt 0.743118 0.054663
vt 0.001993 0.176162
vt 0.138329 0.176739
vt 0.145688 0.214945
vt 0.010118 0.214462
vt 0.010087 0.253784
vt 0.145534 0.253901
vt 0.306731 0.292154
vt 0.306688 0.331143
vt 0.138044 0.330912
vt 0.138059 0.291819
vt 0.311414 0.253924
vt 0.306606 0.127941
vt 0.136871 0.128040
vt 0.153023 0.089025
vt 0.315166 0.090622
vt 0.306589 0.166946
vt 0.137408 0.167740
vt 0.022692 0.087479
vt 0.023263 0.046975
vt 0.153861 0.050060
vt 0.003625 0.001881
vt 0.138932 0.010159
vt 0.511665 0.013352
vt 0.751492 0.018297
vt 0.944576 0.170682
vt 0.751589 0.166865
vt 0.946096 0.010783
vt 0.937638 0.050812
vt 0.306850 0.176896
vt 0.311565 0.215338
vt 0.500812 0.293040
vt 0.001881 0.330914
vt 0.001881 0.291812
vt 0.500855 0.331798
vt 0.905143 0.213957
vt 0.907101 0.174443
vt 0.510748 0.130712
vt 0.510751 0.168918
vt 0.001881 0.130861
vt 0.002750 0.170681
vt 0.315720 0.052057
vt 0.307641 0.014220
vt 0.958582 0.292263
vt 0.959138 0.331257
vt 0.991307 0.093611
vt 0.993588 0.129664
vt 0.993063 0.056301
vt 0.957984 0.253875
vt 0.958411 0.215201
vt 0.995841 0.168452
vt 0.959639 0.176093
vt 0.998119 0.017576
vn -0.6966 0.7166 -0.0338
vn 0.6966 0.7166 -0.0338
vn 0.7150 0.6979 -0.0417
vn -0.7150 0.6979 -0.0417
vn 0.7177 0.6962 0.0149
vn 0.6994 -0.7135 0.0426
vn 0.6968 -0.7171 -0.0153
vn -0.6968 -0.7171 -0.0153
vn -0.6994 -0.7135 0.0426
vn -0.7179 -0.6954 0.0328
vn -0.6682 0.7314 -0.1358
vn -0.7398 0.6555 -0.1517
vn -0.6771 -0.7169 0.1660
vn -0.7506 -0.6496 0.1206
vn -0.6852 -0.7283 -0.0092
vn 0.6852 -0.7283 -0.0092
vn 0.6771 -0.7169 0.1660
vn 0.6539 0.7394 0.1601
vn 0.7118 0.6894 0.1345
vn 0.7025 -0.6985 -0.1363
vn 0.7505 -0.6458 -0.1398
vn -0.7505 -0.6458 -0.1398
vn -0.7025 -0.6985 -0.1363
vn -0.7190 0.6900 0.0831
vn 0.7190 0.6900 0.0831
vn -0.7118 0.6894 0.1345
vn -0.6955 -0.7133 -0.0859
vn -0.7324 0.6642 0.1498
vn -0.7233 0.6356 0.2696
vn -0.6933 -0.6711 -0.2625
vn -0.6856 -0.7117 -0.1530
vn 0.7324 0.6642 0.1498
vn 0.7233 0.6356 0.2696
vn -0.7873 -0.5590 -0.2600
vn 0.7873 -0.5590 -0.2600
vn 0.6933 -0.6711 -0.2625
vn 0.5732 0.7299 0.3724
vn 0.7304 0.6829 0.0086
vn 0.7398 0.6555 -0.1517
vn 0.6682 0.7314 -0.1358
vn 0.7506 -0.6496 0.1206
vn 0.6955 -0.7133 -0.0859
vn -0.7177 0.6962 0.0149
vn -0.6539 0.7394 0.1601
vn 0.7179 -0.6954 0.0328
vn -0.7304 0.6829 0.0086
vn -0.5732 0.7299 0.3724
vn 0.6856 -0.7117 -0.1530
vn -0.7071 0.7071 0.0000
vn 0.7071 0.7071 0.0000
vn -0.7071 -0.7071 0.0000
vn 0.7071 -0.7071 0.0000
usemtl None
s 1
f 1/1/1 2/2/2 5/3/3 7/4/4
f 21/5/5 5/6/3 8/7/6 30/8/7
f 25/9/8 30/8/7 8/7/6 6/10/9
f 1/1/1 7/4/4 6/10/9 3/11/10
f 28/12/11 18/13/12 19/14/13 24/15/14
f 46/16/15 43/17/16 17/18/17 19/14/13
f 31/19/18 9/20/19 11/21/20 26/22/21
f 29/23/22 26/22/21 11/21/20 10/24/23
f 35/25/24 36/26/25 9/27/19 12/28/26
f 35/25/24 12/28/26 10/24/23 34/29/27
f 38/30/28 13/31/29 15/32/30 39/33/31
f 38/30/28 37/34/32 16/35/33 13/31/29
f 44/36/34 45/37/35 14/38/36 15/32/30
f 42/39/37 16/40/33 14/38/36 45/37/35
f 48/41/38 20/42/39 17/18/17 43/17/16
f 28/12/11 27/43/40 20/44/39 18/13/12
f 20/42/39 27/45/40 23/46/41 17/18/17
f 36/47/25 21/5/5 30/8/7 33/48/42
f 19/14/13 17/18/17 23/46/41 24/15/14
f 9/20/19 36/47/25 33/48/42 11/21/20
f 7/4/4 32/49/43 25/9/8 6/10/9
f 10/24/23 11/21/20 33/48/42 34/29/27
f 34/29/27 33/48/42 30/8/7 25/9/8
f 12/28/26 9/27/19 31/50/18 22/51/44
f 7/4/4 5/3/3 21/52/5 32/49/43
f 12/28/26 22/51/44 29/23/22 10/24/23
f 32/49/43 21/52/5 36/26/25 35/25/24
f 32/49/43 35/25/24 34/29/27 25/9/8
f 6/10/9 8/7/6 4/53/45 3/11/10
f 5/6/3 2/54/2 4/53/45 8/7/6
f 41/55/46 38/30/28 39/33/31 46/16/15
f 41/55/46 48/56/38 37/34/32 38/30/28
f 13/31/29 47/57/47 44/36/34 15/32/30
f 18/13/12 20/44/39 48/56/38 41/55/46
f 13/31/29 16/35/33 42/58/37 47/57/47
f 39/33/31 40/59/48 43/17/16 46/16/15
f 15/32/30 14/38/36 40/59/48 39/33/31
f 18/13/12 41/55/46 46/16/15 19/14/13
f 16/40/33 37/60/32 40/59/48 14/38/36
f 37/60/32 48/41/38 43/17/16 40/59/48
f 2/2/2 1/1/1 49/61/49 50/62/50
f 28/12/11 24/15/14 54/63/51 56/64/49
f 24/15/14 23/46/41 53/65/52 54/63/51
f 1/1/1 3/11/10 51/66/51 49/61/49
f 3/11/10 4/53/45 52/67/52 51/66/51
f 27/43/40 28/12/11 56/64/49 55/68/50
f 4/53/45 2/54/2 50/69/50 52/67/52
f 23/46/41 27/45/40 55/70/50 53/65/52
