# Blender v2.79 (sub 0) OBJ File: 'floor_curve.blend'
# www.blender.org
mtllib floor_curve.mtl
o object_static_sewerBigTunnelFloor_Cube.001
v 7.049910 0.141981 -11.084598
v -5.350091 0.141981 -11.084596
v 11.615791 -2.387998 -11.084610
v 12.413046 -2.064094 -11.084610
v 13.139093 -1.405793 -11.084610
v 8.590321 -1.405793 -11.084610
v 9.316366 -2.064094 -11.084610
v 10.113619 -2.387998 -11.084610
v 13.378189 -0.385752 -11.084611
v 13.679472 -0.385752 -11.084611
v 10.864706 -2.450406 -11.084610
v 8.049940 -0.385752 -11.084609
v 8.351225 -0.385752 -11.084609
v 8.049913 0.441982 -11.084599
v 7.049913 0.441982 -11.084599
v 13.679436 0.141981 -11.084599
v 14.209717 0.141981 -11.084599
v 16.349918 0.141981 4.415397
v 16.349922 0.141982 16.815392
v 16.349934 -2.387998 -0.150483
v 16.349937 -2.064094 -0.947740
v 16.349937 -1.405793 -1.673787
v 16.349934 -1.405793 2.874987
v 16.349934 -2.064094 2.148940
v 16.349934 -2.387998 1.351687
v 16.349937 -0.385752 -1.912881
v 16.349937 -0.385752 -2.214166
v 16.349934 -2.450406 0.600600
v 16.349934 -0.385752 3.415366
v 16.349934 -0.385752 3.114081
v 16.349922 0.441982 3.415393
v 16.349918 0.441982 4.415393
v 14.209724 0.141980 -2.744415
v 16.349926 0.141980 -2.214132
v 16.349926 0.141980 -2.744413
v -5.350088 0.141982 16.815395
v 7.049918 0.141980 4.415401
v 8.049918 0.441981 3.415380
v 7.049919 0.441981 4.415400
v 13.679443 -0.385752 -2.214134
v 13.679443 0.141981 -2.214134
v 13.378195 -0.385752 -1.912880
v 8.049931 -0.385753 3.415374
v 13.139101 -1.405793 -1.673786
v 12.413054 -2.064094 -0.947738
v 11.615793 -2.387998 -0.150481
v 10.113623 -2.387998 1.351689
v 10.864711 -2.450406 0.600602
v 8.351229 -0.385752 3.114083
v 8.590326 -1.405793 2.874989
v 9.316372 -2.064094 2.148942
v -6.350077 0.441982 -2.744407
vt 0.931184 0.010019
vt 0.531284 0.409919
vt 0.031409 0.409919
vt 0.031409 0.010019
vt 0.664519 0.732412
vt 0.960303 0.732412
vt 0.950588 0.742127
vt 0.664519 0.742128
vt 0.518842 0.713280
vt 0.986484 0.713279
vt 0.976767 0.722996
vt 0.518842 0.722996
vt 0.937004 0.842405
vt 0.437137 0.842404
vt 0.437137 0.832729
vt 0.937004 0.832729
vt 0.483157 0.453078
vt 0.015534 0.453078
vt 0.015534 0.420828
vt 0.515408 0.420828
vt 0.904759 0.772473
vt 0.904759 0.799167
vt 0.437137 0.799167
vt 0.437138 0.772472
vt 0.391543 0.884887
vt 0.391543 0.598812
vt 0.408644 0.615914
vt 0.408644 0.884887
vt 0.778077 0.874260
vt 0.778077 0.891280
vt 0.492005 0.891280
vt 0.492004 0.874261
vt 0.931184 0.709844
vt 0.531284 0.709844
vt 0.960303 0.828252
vt 0.950587 0.828252
vt 0.986484 0.980944
vt 0.976768 0.980944
vt 0.442777 0.765278
vt 0.442777 0.755603
vt 0.742699 0.755603
vt 0.742699 0.765278
vt 0.515408 0.720753
vt 0.483158 0.720753
vt 0.437137 0.802601
vt 0.704812 0.802601
vt 0.704813 0.829295
vt 0.437138 0.829296
vt 0.477666 0.598812
vt 0.477666 0.615913
vt 0.492004 0.894714
vt 0.578128 0.894714
vt 0.578128 0.911734
vt 0.492004 0.911734
vt 0.016093 0.531060
vt 0.442874 0.531060
vt 0.417163 0.558812
vt 0.016093 0.558812
vt 0.016093 0.607424
vt 0.368718 0.607424
vt 0.343006 0.635177
vt 0.016093 0.635177
vt 0.319592 0.666784
vt 0.016093 0.666784
vt 0.016093 0.465665
vt 0.474000 0.465665
vt 0.466290 0.499453
vt 0.016093 0.499453
vt 0.016093 0.583119
vt 0.392940 0.583118
vt 0.311881 0.700571
vt 0.016093 0.700571
vt 0.086065 0.714617
vt 0.113817 0.714617
vt 0.113817 0.915738
vt 0.086065 0.941450
vt 0.162429 0.714617
vt 0.190182 0.714617
vt 0.190182 0.841581
vt 0.162429 0.867293
vt 0.221788 0.714617
vt 0.221789 0.818166
vt 0.020670 0.714617
vt 0.054458 0.714617
vt 0.054458 0.964865
vt 0.020670 0.972576
vt 0.138123 0.714617
vt 0.138123 0.891516
vt 0.255576 0.714617
vt 0.255577 0.810456
vn 0.0000 1.0000 -0.0000
vn -1.0000 0.0000 0.0000
vn 1.0000 0.0000 0.0000
vn 0.0000 0.0000 1.0000
vn 0.0000 0.0000 -1.0000
vn 0.5322 0.8466 0.0000
vn 0.3304 0.8841 -0.3304
vn 0.1559 0.9753 -0.1559
vn 0.2322 0.9726 0.0000
vn -0.2322 0.9726 0.0000
vn -0.0807 0.9935 0.0807
vn -0.2474 0.9368 0.2474
vn -0.5322 0.8466 0.0000
vn -0.5041 0.7012 0.5041
vn -0.8616 0.5075 0.0000
vn 0.6212 0.7836 0.0000
vn 0.2324 0.9444 -0.2324
vn 0.5913 0.5483 -0.5913
vn 0.8616 0.5075 0.0000
vn 0.0207 0.9995 -0.0207
vn -0.5083 0.6951 0.5083
vn -0.6212 0.7836 0.0000
vn 0.0000 0.8466 -0.5322
vn 0.0000 0.9726 -0.2322
vn 0.0000 0.9726 0.2322
vn 0.0000 0.8466 0.5322
vn 0.0000 0.5075 0.8616
vn 0.0000 0.7836 -0.6212
vn 0.0000 0.5075 -0.8616
vn 0.0000 0.7836 0.6212
usemtl Material.002
s off
f 36/1/1 37/2/1 1/3/1 2/4/1
f 9/5/1 42/6/1 40/7/1 10/8/1
f 12/9/1 43/10/1 49/11/1 13/12/1
f 39/13/2 15/14/2 1/15/2 37/16/2
f 38/17/1 14/18/1 15/19/1 39/20/1
f 38/21/3 43/22/3 12/23/3 14/24/3
f 16/25/1 41/26/1 33/27/1 17/28/1
f 40/29/2 41/30/2 16/31/2 10/32/2
f 36/1/1 19/33/1 18/34/1 37/2/1
f 26/35/1 27/36/1 40/7/1 42/6/1
f 29/37/1 30/38/1 49/11/1 43/10/1
f 39/39/4 37/40/4 18/41/4 32/42/4
f 38/17/1 39/20/1 32/43/1 31/44/1
f 38/45/5 31/46/5 29/47/5 43/48/5
f 34/49/1 35/50/1 33/27/1 41/26/1
f 40/51/4 27/52/4 34/53/4 41/54/4
s 1
f 7/55/6 51/56/7 47/57/8 8/58/9
f 3/59/10 46/60/11 45/61/12 4/62/13
f 4/62/13 45/61/12 44/63/14 5/64/15
f 13/65/16 49/66/17 50/67/18 6/68/19
f 6/68/19 50/67/18 51/56/7 7/55/6
f 11/69/1 48/70/20 46/60/11 3/59/10
f 8/58/9 47/57/8 48/70/20 11/69/1
f 5/64/15 44/63/14 42/71/21 9/72/22
f 24/73/23 25/74/24 47/75/8 51/76/7
f 20/77/25 21/78/26 45/79/12 46/80/11
f 21/78/26 22/81/27 44/82/14 45/79/12
f 30/83/28 23/84/29 50/85/18 49/86/17
f 23/84/29 24/73/23 51/76/7 50/85/18
f 28/87/1 20/77/25 46/80/11 48/88/20
f 25/74/24 28/87/1 48/88/20 47/75/8
f 22/81/27 26/89/30 42/90/21 44/82/14
