# Blender v2.82 (sub 7) OBJ File: 'floor_intersec_small.blend'
# www.blender.org
mtllib floor_intersecSmall.mtl
o object_static_sewerBigTunnelFloor_Cube.001
v 6.486281 0.141981 -20.384602
v -5.913721 0.141981 -20.384598
v 6.486288 0.141981 16.815395
v -5.913713 0.141981 16.815399
v 12.575472 -1.405793 16.815384
v 11.849424 -2.064094 16.815384
v 11.052166 -2.387998 16.815384
v 11.052162 -2.387998 -20.384613
v 11.849417 -2.064094 -20.384613
v 12.575464 -1.405793 -20.384613
v 8.026691 -1.405793 -20.384613
v 8.752737 -2.064094 -20.384613
v 9.549990 -2.387998 -20.384613
v 9.549995 -2.387998 16.815384
v 8.752742 -2.064094 16.815384
v 8.026697 -1.405793 16.815384
v 12.814560 -0.385752 -20.384613
v 13.115843 -0.385752 -20.384613
v 10.301077 -2.450406 -20.384613
v 10.301081 -2.450406 16.815386
v 7.486315 -0.385752 16.815382
v 7.486310 -0.385752 -20.384613
v 12.814566 -0.385752 16.815386
v 7.787600 -0.385752 16.815382
v 7.787595 -0.385752 -20.384613
v 7.486284 0.441982 -20.384604
v 6.486284 0.441982 -20.384604
v 6.486289 0.441981 16.815393
v 7.486289 0.441981 16.815393
v 13.115814 -0.385752 16.815395
v 13.115814 0.141981 16.815395
v 13.646095 0.141981 16.815395
v 13.115807 0.141981 -20.384602
v 13.646088 0.141981 -20.384602
v 6.486285 0.141981 -7.984596
v -5.913717 0.141981 -7.984594
v 12.814563 0.441981 -7.984599
v 6.486287 0.441981 -7.984598
v 12.814563 0.141981 -7.984599
v -5.913715 0.141981 4.415407
v 6.486288 0.441981 4.415403
v 6.486287 0.141981 4.415405
v 12.814560 0.441981 5.415415
v 13.646092 0.141981 4.415403
v 12.814561 0.441982 -8.984612
v 8.026691 -1.405793 -8.984621
v 12.575466 -1.405793 -8.984622
v 8.752737 -2.064094 -8.984621
v 9.549992 -2.387998 -8.984621
v 11.849419 -2.064094 -8.984621
v 11.052164 -2.387998 -8.984621
v 10.301079 -2.450406 -8.984620
v 7.486311 -0.385752 -8.984622
v 12.814562 -0.385752 -8.984621
v 7.787596 -0.385752 -8.984622
v 13.115836 -0.385752 -8.984619
v 13.646090 0.141981 -8.984611
v 13.115808 0.141981 -8.984611
v 7.486285 0.441982 -8.984612
v 13.646078 0.441981 -7.984599
v 13.646076 0.441982 -8.984612
v 13.646078 0.141981 -7.984599
v 13.646078 0.441981 5.415415
v 13.646075 0.441982 4.415402
v 13.646078 0.141981 5.415415
v 7.486288 0.441981 5.415414
v 8.026695 -1.405793 5.415404
v 12.575471 -1.405793 5.415403
v 8.752741 -2.064094 5.415404
v 9.549994 -2.387998 5.415404
v 11.849423 -2.064094 5.415404
v 11.052166 -2.387998 5.415404
v 10.301081 -2.450406 5.415406
v 7.486314 -0.385752 5.415402
v 12.814565 -0.385752 5.415405
v 7.787599 -0.385752 5.415402
v 13.115818 -0.385752 5.415414
v 12.814557 0.441982 4.415402
v 13.115813 0.141981 5.415415
v 12.814574 0.141981 4.415403
v 12.814562 -0.385752 -8.984621
v 12.814560 -0.385752 -20.384613
v 7.787596 -0.385752 -8.984622
v 7.787595 -0.385752 -20.384613
v 7.787599 -0.385752 5.415402
v 12.814565 -0.385752 5.415405
v 12.814566 -0.385752 16.815386
v 7.787600 -0.385752 16.815382
vt 0.666343 0.333657
vt 0.666343 0.000969
vt 0.999031 0.000969
vt 0.999031 0.333657
vt 0.968479 0.641438
vt 0.968481 0.335596
vt 0.976563 0.335595
vt 0.976563 0.641438
vt 0.841757 0.949242
vt 0.841758 0.643391
vt 0.849841 0.643391
vt 0.849841 0.949242
vt 0.958491 0.668273
vt 0.958492 0.335595
vt 0.966540 0.335595
vt 0.966540 0.668273
vt 0.698224 0.641450
vt 0.698224 0.335595
vt 0.725054 0.335595
vt 0.725054 0.668281
vt 0.922417 0.949249
vt 0.900210 0.949248
vt 0.900210 0.643391
vt 0.922417 0.643391
vt 0.882105 0.643391
vt 0.882105 0.949248
vt 0.867877 0.949248
vt 0.867878 0.643391
vt 0.865939 0.949252
vt 0.851780 0.949252
vt 0.851780 0.643391
vt 0.865939 0.643391
vt 0.057311 0.746190
vt 0.057311 0.915975
vt 0.049262 0.915975
vt 0.049262 0.746190
vt 0.938515 0.949249
vt 0.924356 0.949249
vt 0.924356 0.643393
vt 0.938515 0.643393
vt 0.555268 0.668281
vt 0.555268 0.641450
vt 0.198333 0.529629
vt 0.220642 0.529629
vt 0.220642 0.556459
vt 0.198333 0.556459
vt 0.000969 0.731965
vt 0.023177 0.723881
vt 0.023177 0.866836
vt 0.000969 0.866836
vt 0.333656 0.333656
vt 0.333656 0.000969
vt 0.047324 0.723881
vt 0.047324 0.746190
vt 0.039275 0.738108
vt 0.039275 0.723881
vt 0.057311 0.723881
vt 0.049262 0.723881
vt 0.000969 0.723881
vt 0.958491 0.976069
vt 0.958491 0.670212
vt 0.966574 0.670212
vt 0.966574 0.976069
vt 0.084570 0.864254
vt 0.390427 0.864254
vt 0.390427 0.872338
vt 0.084570 0.872338
vt 0.898271 0.643391
vt 0.898271 0.949247
vt 0.884044 0.949247
vt 0.884043 0.643391
vt 0.015128 0.874919
vt 0.000969 0.874919
vt 0.023177 0.889146
vt 0.015128 0.889146
vt 0.532959 0.668281
vt 0.532959 0.641450
vt 0.924356 0.335595
vt 0.946564 0.335596
vt 0.946564 0.641454
vt 0.924356 0.641454
vt 0.363597 0.862316
vt 0.363598 0.556459
vt 0.390427 0.529629
vt 0.390427 0.862316
vt 0.948504 0.335595
vt 0.948503 0.668285
vt 0.956552 0.668285
vt 0.956552 0.335595
vt 0.000969 0.333657
vt 0.000969 0.000969
vt 0.956552 0.860385
vt 0.956552 0.838075
vt 0.948503 0.838075
vt 0.948503 0.860385
vt 0.025116 0.738107
vt 0.025116 0.746190
vt 0.047324 0.889146
vt 0.025116 0.881061
vt 0.025116 0.889145
vt 0.531020 0.357905
vt 0.198333 0.357905
vt 0.198333 0.527690
vt 0.531020 0.527690
vt 0.531020 0.335595
vt 0.198333 0.335596
vt 0.392366 0.915976
vt 0.392366 0.529629
vt 0.527237 0.529629
vt 0.527237 0.915976
vt 0.868014 0.335595
vt 0.868014 0.641452
vt 0.844926 0.641452
vt 0.844926 0.335595
vt 0.804484 0.335595
vt 0.804484 0.641452
vt 0.781396 0.641452
vt 0.781396 0.335595
vt 0.755102 0.641452
vt 0.755102 0.335595
vt 0.922417 0.335595
vt 0.922417 0.641452
vt 0.894308 0.641452
vt 0.894308 0.335595
vt 0.824705 0.335595
vt 0.824705 0.641452
vt 0.726993 0.641452
vt 0.726993 0.335596
vt 0.029078 0.335595
vt 0.029079 0.721942
vt 0.000970 0.721942
vt 0.000969 0.335595
vt 0.118903 0.335595
vt 0.118903 0.721942
vt 0.098682 0.721942
vt 0.098682 0.335595
vt 0.078461 0.721942
vt 0.078461 0.335595
vt 0.168285 0.335595
vt 0.168285 0.721942
vt 0.141991 0.721942
vt 0.141991 0.335595
vt 0.196394 0.335595
vt 0.196394 0.721942
vt 0.055373 0.335595
vt 0.055373 0.721942
vt 0.838816 0.811240
vt 0.532959 0.811240
vt 0.532959 0.788152
vt 0.838816 0.788152
vt 0.838816 0.747711
vt 0.532959 0.747711
vt 0.532959 0.724623
vt 0.838816 0.724623
vt 0.532959 0.698328
vt 0.838816 0.698328
vt 0.838816 0.865644
vt 0.532959 0.865644
vt 0.532959 0.837535
vt 0.838816 0.837535
vt 0.838816 0.767932
vt 0.532959 0.767932
vt 0.532959 0.670219
vt 0.838816 0.670219
vn 0.0000 1.0000 0.0000
vn -1.0000 0.0000 0.0000
vn 1.0000 0.0000 -0.0000
vn -1.0000 -0.0001 -0.0000
vn 0.0000 0.0000 1.0000
vn 0.0000 0.0000 -1.0000
vn 0.0000 -1.0000 -0.0000
vn 0.5322 0.8466 0.0000
vn 0.2322 0.9726 0.0000
vn -0.2322 0.9726 0.0000
vn -0.5322 0.8466 0.0000
vn -0.8616 0.5075 0.0000
vn 0.9736 0.2282 0.0000
vn 0.8616 0.5075 0.0000
vn -0.9736 0.2282 0.0000
usemtl Material.002
s off
f 36/1/1 35/2/1 1/3/1 2/4/1
f 75/5/1 23/6/1 30/7/1 77/8/1
f 74/9/1 21/10/1 88/11/1 76/12/1
f 38/13/2 27/14/2 1/15/2 35/16/2
f 59/17/1 26/18/1 27/19/1 38/20/1
f 59/21/3 53/22/3 22/23/3 26/24/3
f 79/25/1 31/26/1 32/27/1 65/28/1
f 56/29/4 58/30/4 33/31/4 18/32/4
f 37/33/5 38/34/5 35/35/5 39/36/5
f 30/37/2 31/38/2 79/39/2 77/40/2
f 59/17/1 38/20/1 37/41/1 45/42/1
f 64/43/1 78/44/1 43/45/1 63/46/1
f 55/47/6 59/48/6 45/49/6 81/50/6
f 40/51/1 42/52/1 35/2/1 36/1/1
f 63/53/5 43/54/5 79/55/5 65/56/5
f 60/57/5 37/33/5 39/36/5 62/58/5
f 53/59/6 59/48/6 55/47/6
f 17/60/1 81/61/1 56/62/1 18/63/1
f 22/64/1 53/65/1 55/66/1 84/67/1
f 33/68/1 58/69/1 57/70/1 34/71/1
f 81/50/6 45/49/6 58/72/6 56/73/6
f 58/72/6 45/49/6 61/74/6 57/75/6
f 45/42/1 37/41/1 60/76/1 61/77/1
f 29/78/3 21/79/3 74/80/3 66/81/3
f 29/82/1 66/83/1 41/84/1 28/85/1
f 28/86/2 41/87/2 42/88/2 3/89/2
f 4/90/1 3/91/1 42/52/1 40/51/1
f 44/92/6 80/93/6 78/94/6 64/95/6
f 77/96/5 79/55/5 43/54/5 75/97/5
f 78/44/1 41/84/1 66/83/1 43/45/1
f 75/97/5 43/54/5 66/98/5 76/99/5
f 80/93/6 42/88/6 41/87/6 78/94/6
f 76/99/5 66/98/5 74/100/5
f 80/101/1 39/102/1 35/103/1 42/104/1
f 44/105/1 62/106/1 39/102/1 80/101/1
f 81/107/7 75/108/7 76/109/7 55/110/7
s 1
f 69/111/8 15/112/8 14/113/9 70/114/9
f 72/115/10 7/116/10 6/117/11 71/118/11
f 71/118/11 6/117/11 5/119/12 68/120/12
f 85/121/13 24/122/13 16/123/14 67/124/14
f 67/124/14 16/123/14 15/112/8 69/111/8
f 73/125/1 20/126/1 7/116/10 72/115/10
f 70/114/9 14/113/9 20/126/1 73/125/1
f 68/120/12 5/119/12 87/127/15 86/128/15
f 47/129/12 68/130/12 86/131/15 54/132/15
f 49/133/9 70/134/9 73/135/1 52/136/1
f 52/136/1 73/135/1 72/137/10 51/138/10
f 46/139/14 67/140/14 69/141/8 48/142/8
f 83/143/13 85/144/13 67/140/14 46/139/14
f 50/145/11 71/146/11 68/130/12 47/129/12
f 51/138/10 72/137/10 71/146/11 50/145/11
f 48/142/8 69/141/8 70/134/9 49/133/9
f 12/147/8 48/148/8 49/149/9 13/150/9
f 8/151/10 51/152/10 50/153/11 9/154/11
f 9/154/11 50/153/11 47/155/12 10/156/12
f 25/157/13 83/158/13 46/159/14 11/160/14
f 11/160/14 46/159/14 48/148/8 12/147/8
f 19/161/1 52/162/1 51/152/10 8/151/10
f 13/150/9 49/149/9 52/162/1 19/161/1
f 10/156/12 47/155/12 54/163/15 82/164/15
