# Blender v2.79 (sub 0) OBJ File: 'floor_intersec2_rest.blend'
# www.blender.org
mtllib floor_intersec2.mtl
o object_static_sewerBigTunnelFloor_Cube.001
v 16.349930 0.141981 3.288130
v -14.650084 0.141981 3.288135
v -14.650072 -1.405793 9.377318
v -14.650072 -2.064094 8.651271
v -14.650072 -2.387998 7.854012
v 16.349941 -2.387998 7.854012
v 16.349941 -2.064094 8.651267
v 16.349941 -1.405793 9.377315
v 16.349941 -1.405793 4.828540
v 16.349941 -2.064094 5.554585
v 16.349941 -2.387998 6.351840
v -14.650073 -2.387998 6.351842
v -14.650073 -2.064094 5.554589
v -14.650073 -1.405793 4.828544
v 16.349941 -0.385752 9.616410
v 16.349941 -0.385752 9.917693
v 16.349941 -2.450406 7.102927
v -14.650075 -2.450406 7.102927
v -14.650071 -0.385752 4.288162
v 16.349941 -0.385752 4.288159
v -14.650074 -0.385752 9.616412
v -14.650071 -0.385752 4.589447
v 16.349941 -0.385752 4.589444
v 16.349930 0.441982 4.288133
v 16.349930 0.441982 3.288132
v -14.650083 0.441981 3.288136
v -14.650083 0.441981 4.288136
v -14.650084 -0.385752 9.917661
v -14.650084 0.141981 9.917661
v -14.650084 0.141981 10.447942
v 16.349930 0.141981 9.917657
v 16.349930 0.141981 10.447938
v 7.049910 0.141981 -9.111859
v 13.139093 -1.405793 -10.111880
v 12.413046 -2.064094 -10.111880
v 11.615788 -2.387998 -10.111880
v 10.113617 -2.387998 -10.111879
v 9.316364 -2.064094 -10.111879
v 8.590319 -1.405793 -10.111879
v 10.864702 -2.450406 -10.111878
v 8.049936 -0.385752 -10.111869
v 13.378187 -0.385752 -10.111882
v 13.139092 -1.405793 4.288161
v 7.049912 0.441981 -9.111861
v 8.049911 0.441981 -10.111858
v 13.679436 -0.385752 -10.111873
v 13.679436 0.141981 -10.111886
v 8.590317 -1.405793 -17.452059
v 13.139092 -1.405793 -17.452061
v 9.316363 -2.064094 -17.452059
v 10.113616 -2.387998 -17.452059
v 12.413045 -2.064094 -17.452061
v 11.615788 -2.387998 -17.452061
v 10.864703 -2.450406 -17.452061
v 8.049935 -0.385752 -17.452059
v 13.378186 -0.385752 -17.452061
v 8.351220 -0.385752 -17.452059
v 7.049911 0.441981 -17.452051
v 8.049910 0.441981 -17.452051
v 13.679452 -0.385752 -17.452057
v 14.209716 0.141981 -17.452049
v 13.679435 0.141981 -17.452049
v 14.209709 0.141981 -10.111873
v 14.209715 0.441981 -9.111862
v 14.209715 0.441981 -10.111860
v 8.351213 -0.385752 -10.111881
v 12.413045 -2.064094 4.288161
v 11.615787 -2.387998 4.288161
v 10.113616 -2.387998 4.288161
v 9.316363 -2.064094 4.288161
v 8.590319 -1.405793 4.288162
v 10.864701 -2.450406 4.288163
v 13.378186 -0.385752 4.288159
v 8.351213 -0.385752 4.288160
v 13.378201 0.441982 4.288134
v 13.378201 0.441982 3.288134
v 11.615787 -2.387998 6.351840
v 12.413045 -2.064094 5.554586
v 13.139092 -1.405793 4.828541
v 13.378199 0.141981 3.288131
v 8.351227 0.441982 3.288134
v 13.378211 -0.385752 4.589444
v 8.351227 0.441982 4.288134
v 10.113616 -2.387998 6.351841
v 9.316363 -2.064094 5.554586
v 8.590319 -1.405793 4.828541
v 8.351237 -0.385752 4.589444
v 10.864703 -1.405793 9.377315
v 10.864703 -2.064094 8.651267
v 10.864703 -2.387998 7.854011
v 10.864701 -2.450406 7.102925
v 10.864702 -0.385752 9.616410
v 10.864700 -0.385752 9.917684
v 10.864692 0.141981 10.447938
v 10.864692 0.141981 9.917657
v 8.351225 0.141981 3.288131
v 7.049907 0.141981 -17.452047
v 14.209717 0.141981 -9.111860
v 16.349930 0.141981 3.288130
v -14.650084 0.141981 -9.111859
v 16.349930 0.141981 -9.111860
v -5.350082 0.141981 -17.452047
v -5.350082 0.141981 -9.111860
vt 0.160763 0.992314
vt 0.092841 0.992314
vt 0.092841 0.985457
vt 0.160763 0.985457
vt 0.160765 0.915467
vt 0.092841 0.915444
vt 0.092849 0.892587
vt 0.160773 0.892610
vt 0.160766 0.919593
vt 0.160767 0.938512
vt 0.092841 0.938512
vt 0.092842 0.919593
vt 0.218219 0.958690
vt 0.218219 0.970753
vt 0.092842 0.970753
vt 0.092841 0.958691
vt 0.218226 0.942461
vt 0.801377 0.942663
vt 0.801373 0.954783
vt 0.218222 0.954582
vt 0.090395 0.835156
vt 0.616173 0.835154
vt 0.616173 0.842041
vt 0.090395 0.842041
vt 0.218265 0.974661
vt 0.801290 0.974659
vt 0.801290 0.981543
vt 0.218265 0.981550
vt 0.801378 0.958689
vt 0.801378 0.970751
vt 0.801381 0.919593
vt 0.801381 0.938512
vt 0.275668 0.938512
vt 0.275668 0.919593
vt 0.801393 0.915687
vt 0.275664 0.915506
vt 0.275672 0.892650
vt 0.801400 0.892831
vt 0.801379 0.992314
vt 0.275657 0.992314
vt 0.275657 0.985457
vt 0.801379 0.985457
vt 0.090395 0.879535
vt 0.258165 0.879535
vt 0.258165 0.886421
vt 0.090395 0.886421
vt 0.406767 0.877941
vt 0.574533 0.877941
vt 0.574533 0.884828
vt 0.406767 0.884828
vt 0.406767 0.845947
vt 0.574536 0.845947
vt 0.574537 0.858067
vt 0.406767 0.858067
vt 0.574537 0.861973
vt 0.574537 0.874035
vt 0.406767 0.874035
vt 0.406767 0.861973
vt 0.258165 0.845947
vt 0.258164 0.864866
vt 0.090395 0.864866
vt 0.090395 0.845947
vt 0.570429 0.321620
vt 0.570423 0.489390
vt 0.547566 0.489389
vt 0.547574 0.298763
vt 0.281019 0.875629
vt 0.090395 0.875629
vt 0.090395 0.868772
vt 0.281019 0.868772
vt 0.402861 0.864866
vt 0.395975 0.845947
vt 0.402861 0.845947
vt 0.262071 0.864866
vt 0.262071 0.858009
vt 0.274191 0.858009
vt 0.274191 0.845947
vt 0.281076 0.845947
vt 0.579164 0.332037
vt 0.742810 0.332036
vt 0.742810 0.338893
vt 0.579164 0.338894
vt 0.711220 0.321625
vt 0.711221 0.298769
vt 0.092845 0.942418
vt 0.092841 0.954539
vt 0.092841 0.974662
vt 0.092841 0.981551
vt 0.579164 0.342800
vt 0.647087 0.342800
vt 0.647087 0.349686
vt 0.579164 0.349686
vt 0.658059 0.002733
vt 0.727170 0.002733
vt 0.727170 0.291110
vt 0.677397 0.291110
vt 0.006228 0.002733
vt 0.222511 0.291110
vt 0.006229 0.291110
vt 0.541151 0.002733
vt 0.510887 0.291110
vt 0.222511 0.485070
vt 0.510887 0.485070
vt 0.867292 0.372341
vt 0.867292 0.469519
vt 0.588921 0.469519
vt 0.588921 0.372341
vt 0.215770 0.636911
vt 0.798936 0.636911
vt 0.798936 0.660857
vt 0.215770 0.660857
vt 0.232938 0.560387
vt 0.798936 0.560390
vt 0.798936 0.577616
vt 0.215771 0.577613
vt 0.798936 0.594842
vt 0.215771 0.594840
vt 0.267756 0.518317
vt 0.798936 0.518320
vt 0.798936 0.540720
vt 0.251160 0.540718
vt 0.273220 0.494371
vt 0.798937 0.494374
vt 0.215770 0.614510
vt 0.798936 0.614511
vt 0.090395 0.711110
vt 0.258165 0.711110
vt 0.258165 0.730779
vt 0.090395 0.730779
vt 0.090395 0.765232
vt 0.258165 0.765232
vt 0.258165 0.784901
vt 0.090395 0.784901
vt 0.258165 0.807301
vt 0.090395 0.807301
vt 0.090395 0.664763
vt 0.258165 0.664764
vt 0.258165 0.688710
vt 0.090395 0.688710
vt 0.090395 0.748005
vt 0.258165 0.748006
vt 0.258165 0.831247
vt 0.090395 0.831248
vt 0.587297 0.784900
vt 0.587297 0.807300
vt 0.587298 0.711111
vt 0.587298 0.730780
vt 0.587298 0.688711
vt 0.587297 0.765231
vt 0.587298 0.664764
vt 0.587298 0.748006
vt 0.587297 0.831246
vt 0.090395 0.577614
vt 0.090395 0.594840
vt 0.090395 0.636910
vt 0.090395 0.660857
vt 0.090395 0.614510
vt 0.090395 0.494370
vt 0.158319 0.494370
vt 0.163785 0.518317
vt 0.090395 0.518317
vt 0.180380 0.540718
vt 0.090395 0.540718
vt 0.198603 0.560387
vt 0.090395 0.560387
vt 0.616243 0.711111
vt 0.634465 0.730780
vt 0.651632 0.748006
vt 0.634465 0.765232
vt 0.616243 0.784900
vt 0.599649 0.688711
vt 0.599648 0.807300
vt 0.594184 0.664765
vt 0.594184 0.831246
vn -0.0000 0.0000 -1.0000
vn -0.0000 1.0000 0.0000
vn 0.0000 0.0000 1.0000
vn 0.0000 -0.0001 -1.0000
vn -1.0000 -0.0000 -0.0000
vn 1.0000 0.0000 -0.0000
vn -0.0000 0.0001 -1.0000
vn 0.0000 -1.0000 0.0000
vn 0.0000 0.5075 -0.8616
vn 0.0000 0.7837 -0.6212
vn 0.0000 0.7836 -0.6212
vn 0.0807 0.9935 0.0807
vn 0.0000 0.9726 0.2322
vn 0.0000 0.9998 -0.0207
vn 0.0000 0.9726 -0.2322
vn 0.5041 0.7012 0.5041
vn 0.0000 0.5075 0.8616
vn 0.0000 0.8466 0.5322
vn 0.2474 0.9368 0.2474
vn 0.5083 0.6951 0.5083
vn 0.0000 0.7836 0.6212
vn 0.0000 0.8466 -0.5322
vn 0.5322 0.8466 0.0000
vn 0.2322 0.9726 0.0000
vn -0.2322 0.9726 0.0000
vn -0.5322 0.8466 0.0000
vn -0.8616 0.5075 0.0000
vn 0.6212 0.7836 0.0000
vn 0.6884 0.1614 -0.7071
vn 0.8616 0.5075 0.0000
vn -0.6884 0.1614 -0.7071
vn -0.6212 0.7836 0.0000
vn 0.6884 0.1614 0.7071
vn -0.6884 0.1614 0.7071
vn -0.5083 0.6952 0.5083
vn -0.5041 0.7012 0.5041
vn -0.2474 0.9368 0.2474
vn -0.0807 0.9935 0.0807
usemtl Material.002
s off
f 76/1/1 25/2/1 1/3/1 80/4/1
f 75/5/2 24/6/2 25/7/2 76/8/2
f 75/9/3 73/10/3 20/11/3 24/12/3
f 93/13/4 95/14/4 31/15/4 16/16/4
f 95/17/2 29/18/2 30/19/2 94/20/2
f 74/21/2 19/22/2 22/23/2 87/24/2
f 92/25/2 21/26/2 28/27/2 93/28/2
f 28/29/1 29/30/1 95/14/1 93/13/1
f 27/31/3 19/32/3 74/33/3 83/34/3
f 27/35/2 83/36/2 81/37/2 26/38/2
f 26/39/1 81/40/1 96/41/1 2/42/1
f 56/43/2 42/44/2 46/45/2 60/46/2
f 55/47/2 41/48/2 66/49/2 57/50/2
f 62/51/2 47/52/2 63/53/2 61/54/2
f 46/55/5 47/56/5 62/57/5 60/58/5
f 45/59/6 41/60/6 55/61/6 59/62/6
f 45/63/2 59/64/2 58/65/2 44/66/2
f 44/67/5 58/68/5 97/69/5 33/70/5
f 45/71/1 66/72/1 41/73/1
f 65/74/1 63/75/1 47/76/1
f 47/76/1 46/77/1 42/78/1
f 64/79/3 44/80/3 33/81/3 98/82/3
f 65/83/2 45/63/2 44/66/2 64/84/2
f 47/76/1 42/78/1 66/72/1 45/71/1
f 65/74/7 47/76/7 45/71/7
f 31/85/2 95/17/2 94/20/2 32/86/2
f 15/87/2 92/25/2 93/28/2 16/88/2
f 20/89/2 73/90/2 82/91/2 23/92/2
f 83/34/3 74/33/3 73/10/3 75/9/3
f 83/36/2 75/5/2 76/8/2 81/37/2
f 81/40/1 76/1/1 80/4/1 96/41/1
f 80/93/2 99/94/2 101/95/2 98/96/2
f 2/97/2 103/98/2 100/99/2
f 2/97/2 96/100/2 33/101/2 103/98/2
f 102/102/2 103/98/2 33/101/2 97/103/2
f 96/100/2 80/93/2 98/96/2 33/101/2
f 73/104/8 74/105/8 66/106/8 42/107/8
s 1
f 88/108/9 3/109/9 21/110/10 92/111/11
f 84/112/12 12/113/13 18/114/2 91/115/14
f 91/115/14 18/114/2 5/116/15 90/117/15
f 86/118/16 14/119/17 13/120/18 85/121/19
f 87/122/20 22/123/21 14/119/17 86/118/16
f 89/124/22 4/125/22 3/109/9 88/108/9
f 90/117/15 5/116/15 4/125/22 89/124/22
f 85/121/19 13/120/18 12/113/13 84/112/12
f 50/126/23 38/127/23 37/128/24 51/129/24
f 53/130/25 36/131/25 35/132/26 52/133/26
f 52/133/26 35/132/26 34/134/27 49/135/27
f 57/136/28 66/137/29 39/138/30 48/139/30
f 48/139/30 39/138/30 38/127/23 50/126/23
f 54/140/2 40/141/2 36/131/25 53/130/25
f 51/129/24 37/128/24 40/141/2 54/140/2
f 49/135/27 34/134/27 42/142/31 56/143/32
f 34/134/27 35/132/26 67/144/26 43/145/27
f 37/128/24 38/127/23 70/146/23 69/147/24
f 38/127/23 39/138/30 71/148/30 70/146/23
f 35/132/26 36/131/25 68/149/25 67/144/26
f 39/138/30 66/137/29 74/150/33 71/148/30
f 40/141/2 37/128/24 69/147/24 72/151/2
f 36/131/25 40/141/2 72/151/2 68/149/25
f 42/142/31 34/134/27 43/145/27 73/152/34
f 17/153/2 91/115/14 90/117/15 6/154/15
f 8/155/9 88/108/9 92/111/11 15/156/11
f 6/154/15 90/117/15 89/124/22 7/157/22
f 23/158/21 82/159/35 79/160/36 9/161/17
f 9/161/17 79/160/36 78/162/37 10/163/18
f 7/157/22 89/124/22 88/108/9 8/155/9
f 10/163/18 78/162/37 77/164/38 11/165/13
f 11/165/13 77/164/38 91/115/14 17/153/2
f 69/147/24 70/146/23 85/166/19 84/167/12
f 72/151/2 69/147/24 84/167/12 91/168/14
f 68/149/25 72/151/2 91/168/14 77/169/38
f 67/144/26 68/149/25 77/169/38 78/170/37
f 70/146/23 71/148/30 86/171/16 85/166/19
f 43/145/27 67/144/26 78/170/37 79/172/36
f 71/148/30 74/150/33 87/173/20 86/171/16
f 73/152/34 43/145/27 79/172/36 82/174/35
