# Blender v2.79 (sub 0) OBJ File: 'floor.blend'
# www.blender.org
mtllib floor_withExtraPart.mtl
o object_static_sewerBigTunnelFloor_Cube.001
v 6.486281 0.141981 -20.384602
v -5.913721 0.141981 -20.384598
v 6.486288 0.141981 16.815395
v -5.913713 0.141981 16.815399
v 12.575472 -1.405793 16.815384
v 11.849424 -2.064094 16.815384
v 11.052166 -2.387998 16.815384
v 11.052162 -2.387998 -20.384613
v 11.849417 -2.064094 -20.384613
v 12.575464 -1.405793 -20.384613
v 8.026691 -1.405793 -20.384613
v 8.752737 -2.064094 -20.384613
v 9.549990 -2.387998 -20.384613
v 9.549995 -2.387998 16.815384
v 8.752742 -2.064094 16.815384
v 8.026697 -1.405793 16.815384
v 12.814560 -0.385752 -20.384613
v 13.115843 -0.385752 -20.384613
v 10.301077 -2.450406 -20.384613
v 10.301081 -2.450406 16.815386
v 7.486315 -0.385752 16.815382
v 7.486310 -0.385752 -20.384613
v 12.814566 -0.385752 16.815386
v 7.787600 -0.385752 16.815382
v 7.787595 -0.385752 -20.384613
v 7.486284 0.441982 -20.384604
v 6.486284 0.441982 -20.384604
v 6.486289 0.441981 16.815393
v 7.486289 0.441981 16.815393
v 13.115814 -0.385752 16.815395
v 13.115814 0.141981 16.815395
v 13.646095 0.141981 16.815395
v 13.115807 0.141981 -20.384602
v 13.646088 0.141981 -20.384602
vt 0.999654 0.000346
vt 0.999654 0.333449
vt 0.000346 0.333449
vt 0.000346 0.000346
vt 0.000367 0.610191
vt 0.681064 0.610197
vt 0.681146 0.622077
vt 0.000448 0.622071
vt 0.000367 0.622810
vt 0.681086 0.622810
vt 0.681168 0.634691
vt 0.000448 0.634691
vt 0.679716 0.647279
vt 0.000448 0.647279
vt 0.000367 0.635424
vt 0.679634 0.635424
vt 0.999633 0.553531
vt 0.000367 0.553531
vt 0.000367 0.526669
vt 0.999633 0.526668
vt 0.999633 0.554265
vt 0.999633 0.576500
vt 0.000367 0.576500
vt 0.000367 0.554265
vt 0.000367 0.577233
vt 0.903429 0.577237
vt 0.903475 0.592999
vt 0.000412 0.592995
vt 0.901313 0.593732
vt 0.901262 0.609457
vt 0.000367 0.609457
vt 0.000418 0.593733
vt 0.000367 0.410027
vt 0.997020 0.410023
vt 0.997020 0.427851
vt 0.000367 0.427853
vt 0.000381 0.462646
vt 0.997034 0.462644
vt 0.997034 0.480472
vt 0.000381 0.480472
vt 0.997034 0.500072
vt 0.000381 0.500074
vt 0.000367 0.364564
vt 0.997019 0.364562
vt 0.997019 0.390423
vt 0.000367 0.390424
vt 0.000374 0.445249
vt 0.997027 0.445247
vt 0.997034 0.525932
vt 0.000381 0.525935
vn 0.0000 1.0000 0.0000
vn -1.0000 0.0000 0.0000
vn 1.0000 0.0000 -0.0000
vn 0.5322 0.8466 0.0000
vn 0.2322 0.9726 0.0000
vn -0.2322 0.9726 0.0000
vn -0.5322 0.8466 0.0000
vn -0.8616 0.5075 0.0000
vn 0.6212 0.7836 0.0000
vn 0.8616 0.5075 0.0000
vn -0.6212 0.7837 0.0000
vn -0.6212 0.7836 0.0000
usemtl Material.002
s off
f 4/1/1 3/2/1 1/3/1 2/4/1
f 17/5/1 23/6/1 30/7/1 18/8/1
f 22/9/1 21/10/1 24/11/1 25/12/1
f 28/13/2 27/14/2 1/15/2 3/16/2
f 29/17/1 26/18/1 27/19/1 28/20/1
f 29/21/3 21/22/3 22/23/3 26/24/3
f 33/25/1 31/26/1 32/27/1 34/28/1
f 30/29/2 31/30/2 33/31/2 18/32/2
s 1
f 12/33/4 15/34/4 14/35/5 13/36/5
f 8/37/6 7/38/6 6/39/7 9/40/7
f 9/40/7 6/39/7 5/41/8 10/42/8
f 25/43/9 24/44/9 16/45/10 11/46/10
f 11/46/10 16/45/10 15/34/4 12/33/4
f 19/47/1 20/48/1 7/38/6 8/37/6
f 13/36/5 14/35/5 20/48/1 19/47/1
f 10/42/8 5/41/8 23/49/11 17/50/12
