# Blender v2.82 (sub 7) OBJ File: 'warningSign_collider.blend'
# www.blender.org
mtllib warningSign_collider.mtl
o object_static_warningSign_Cube.006
v 0.212721 2.227351 -0.574837
v 0.212722 2.227351 0.367101
v 0.102164 2.678158 0.367101
v 0.102164 2.678158 -0.574837
v 0.212721 2.678158 -0.574837
v 0.212722 2.678158 0.367101
v 0.102164 2.843625 0.145440
v 0.102164 2.843625 -0.353176
v 0.212721 2.843625 -0.353176
v 0.212722 2.843625 0.145440
v 0.110824 3.269217 -0.558707
v 0.110824 3.102045 -0.489462
v 0.202977 3.102045 -0.489462
v 0.110824 2.974096 -0.361513
v 0.202977 2.974096 -0.361514
v 0.110824 2.974096 0.153778
v 0.110824 3.102045 0.281726
v 0.110824 3.269217 0.350972
v 0.202977 3.450163 0.350971
v 0.110824 3.617336 0.281727
v 0.110824 3.745284 0.153778
v 0.110824 3.814529 -0.013394
v 0.110824 3.745284 -0.361513
v 0.202977 3.745285 -0.361514
v 0.110824 3.617336 -0.489462
v 0.110824 3.450163 -0.558707
v 0.202977 3.269217 -0.558707
v 0.202977 2.904851 -0.013395
v 0.202977 3.269217 0.350972
v 0.202977 3.745284 0.153778
v 0.110824 2.843625 0.001712
v 0.110824 2.843625 -0.209448
v 0.202977 2.843625 -0.209448
v 0.202977 2.904851 -0.194341
v 0.202977 2.843625 0.001712
v 0.110824 2.904851 -0.194341
v 0.110824 2.904851 -0.013394
v 0.202977 3.814529 -0.194341
v 0.202977 3.814529 -0.013395
v 0.202977 3.102045 0.281726
v 0.202977 2.974096 0.153778
v 0.202977 3.450163 -0.558707
v 0.202977 3.617336 0.281726
v 0.110824 3.450163 0.350972
v 0.110824 3.814529 -0.194341
v 0.202977 3.617336 -0.489462
v -0.041084 -1.743255 0.463208
v -0.041085 -1.743255 -0.670943
v 0.102164 -1.743255 -0.670943
v 0.102164 -1.743255 0.463208
v -0.041084 2.453014 0.463208
v -0.041085 2.453014 -0.670943
v 0.102164 2.453014 -0.670943
v 0.102164 2.453014 0.463208
v 0.053695 -2.168547 -0.046531
v 0.007385 -2.168547 -0.161204
v 0.007385 -2.168547 -0.046531
v 0.053695 -2.168547 -0.161204
v 0.007385 -2.123775 -0.046531
v 0.007385 -2.123775 -0.161204
v 0.053695 -2.123775 -0.161204
v 0.053695 -2.123775 -0.046531
v 1.498634 -2.641733 -0.887268
v 1.498635 -2.641733 0.679531
v 1.498635 -2.511590 -0.887267
v 1.498634 -2.511590 0.679532
v 0.385003 -2.641733 -0.887267
v 0.385003 -2.641733 0.679531
v 0.385003 -2.168547 -0.887267
v 0.385002 -2.168547 0.679532
v -1.428235 -2.641733 -0.887267
v -1.428234 -2.641733 0.679532
v -1.428236 -2.511590 -0.887266
v -1.428234 -2.511590 0.679533
v -0.314603 -2.641733 -0.887267
v -0.314602 -2.641733 0.679532
v -0.314603 -2.168547 -0.887267
v -0.314602 -2.168547 0.679532
v 0.108913 2.161378 0.352249
v 0.108912 2.161378 -0.559984
v 0.205973 2.161378 -0.559984
v 0.205973 2.161378 0.352249
v 0.102164 2.227351 -0.574837
v 0.102164 2.227351 0.367101
vt 0.985305 0.255852
vt 0.970361 0.255852
vt 0.970361 0.285193
vt 0.985305 0.285193
vt 0.970362 0.314534
vt 0.985305 0.314534
vt 0.985305 0.607948
vt 0.970361 0.607948
vt 0.970361 0.637289
vt 0.985305 0.637289
vt 0.996319 0.848383
vt 0.994739 0.871689
vt 0.994739 0.905930
vt 0.996319 0.929236
vt 0.813122 0.971157
vt 0.813122 0.926304
vt 0.795194 0.926304
vt 0.795194 0.971157
vt 0.776075 0.926304
vt 0.776075 0.971157
vt 0.794003 0.971157
vt 0.794003 0.926304
vt 0.970361 0.666630
vt 0.985305 0.666630
vt 0.970362 0.695972
vt 0.985305 0.695972
vt 0.970362 0.343876
vt 0.985305 0.343875
vt 0.985305 0.373217
vt 0.970362 0.373217
vt 0.970362 0.402558
vt 0.985305 0.402558
vt 0.985305 0.490582
vt 0.970361 0.490582
vt 0.970361 0.519924
vt 0.985305 0.519924
vt 0.970361 0.549265
vt 0.985305 0.549265
vt 0.970361 0.578606
vt 0.985305 0.578606
vt 0.149296 0.741317
vt 0.296805 0.770658
vt 0.237721 0.682233
vt 0.790707 0.747784
vt 0.790707 0.762727
vt 0.800933 0.762727
vt 0.800933 0.747784
vt 0.732035 0.694991
vt 0.732035 0.724332
vt 0.741963 0.726781
vt 0.741963 0.692541
vt 0.732035 0.730423
vt 0.732035 0.759764
vt 0.741963 0.762214
vt 0.741963 0.727973
vt 0.800933 0.746593
vt 0.800933 0.731650
vt 0.790707 0.731650
vt 0.790707 0.746593
vt 0.970362 0.431899
vt 0.985305 0.431899
vt 0.970361 0.461241
vt 0.985305 0.461241
vt 0.978392 0.929236
vt 0.979796 0.905930
vt 0.979796 0.871689
vt 0.978392 0.848383
vt 0.059680 0.829742
vt 0.032572 0.693462
vt 0.011824 0.797766
vt 0.532015 0.511296
vt 0.496072 0.538128
vt 0.648812 0.538128
vt 0.612868 0.511296
vt 0.730457 0.683848
vt 0.741809 0.682754
vt 0.741809 0.667015
vt 0.730457 0.665920
vt 0.749935 0.547240
vt 0.723104 0.511296
vt 0.723104 0.664036
vt 0.749935 0.628093
vt 0.000596 0.855354
vt 0.000596 0.878582
vt 0.681051 0.878583
vt 0.681051 0.855354
vt 0.000596 0.830934
vt 0.000596 0.854162
vt 0.681051 0.854162
vt 0.681051 0.830934
vt 0.485431 0.527008
vt 0.492941 0.527008
vt 0.492941 0.519748
vt 0.485431 0.519748
vt 0.716721 0.689149
vt 0.716721 0.665920
vt 0.613574 0.673780
vt 0.613574 0.681289
vt 0.952278 0.954370
vt 0.952278 0.770462
vt 0.890077 0.853118
vt 0.890077 0.871713
vt 0.906968 0.255852
vt 0.906968 0.439760
vt 0.969170 0.357103
vt 0.969170 0.338508
vt 0.492941 0.511296
vt 0.485431 0.511296
vt 0.485431 0.518556
vt 0.492941 0.518556
vt 0.184504 0.000596
vt 0.000596 0.000596
vt 0.000596 0.681042
vt 0.184504 0.681042
vt 0.599219 0.793690
vt 0.599219 0.770462
vt 0.496072 0.778321
vt 0.496072 0.785831
vt 0.806753 0.730458
vt 0.827856 0.730458
vt 0.827856 0.549877
vt 0.751126 0.549877
vt 0.905777 0.255852
vt 0.884673 0.255852
vt 0.829047 0.436433
vt 0.905777 0.436433
vt 0.905777 0.549877
vt 0.827856 0.436433
vt 0.948067 0.176334
vt 0.969170 0.176334
vt 0.969170 0.078922
vt 0.948066 0.078922
vt 0.749920 0.334273
vt 0.560961 0.334273
vt 0.560961 0.431685
vt 0.749919 0.431684
vt 0.806752 0.255852
vt 0.751126 0.436433
vt 0.827856 0.255852
vt 0.905777 0.730458
vt 0.829047 0.549877
vt 0.884673 0.730458
vt 0.370795 0.687034
vt 0.484240 0.687034
vt 0.484240 0.589622
vt 0.370795 0.589622
vt 0.991465 0.176334
vt 0.991465 0.078922
vt 0.970361 0.078922
vt 0.970361 0.176334
vt 0.559754 0.431684
vt 0.559754 0.334272
vt 0.370796 0.334271
vt 0.370795 0.431684
vt 0.769721 0.761867
vt 0.751126 0.761867
vt 0.751126 0.769127
vt 0.769721 0.769127
vt 0.613574 0.659261
vt 0.632168 0.659261
vt 0.632168 0.652001
vt 0.613574 0.652001
vt 0.369604 0.681042
vt 0.369604 0.000596
vt 0.185696 0.000596
vt 0.185696 0.681042
vt 0.650003 0.511296
vt 0.650003 0.664036
vt 0.749962 0.926304
vt 0.732035 0.926304
vt 0.732035 0.999404
vt 0.749962 0.999404
vt 0.600411 0.770462
vt 0.600411 0.788389
vt 0.673511 0.788389
vt 0.673511 0.770462
vt 0.930197 0.539555
vt 0.906968 0.539555
vt 0.906968 0.723463
vt 0.930197 0.723463
vt 0.496072 0.611228
vt 0.648811 0.611228
vt 0.924514 0.153337
vt 0.935355 0.150929
vt 0.935355 0.003004
vt 0.924514 0.000596
vt 0.729265 0.665920
vt 0.717913 0.667015
vt 0.717913 0.682754
vt 0.729265 0.683848
vt 0.986496 0.408592
vt 0.997337 0.406184
vt 0.997337 0.258260
vt 0.986496 0.255852
vt 0.643995 0.794882
vt 0.496072 0.794882
vt 0.496072 0.810621
vt 0.643995 0.810621
vt 0.089021 0.682233
vt 0.059679 0.682233
vt 0.136876 0.714209
vt 0.116129 0.693462
vt 0.116129 0.818514
vt 0.148105 0.741317
vt 0.148105 0.770658
vt 0.136876 0.797766
vt 0.089021 0.829742
vt 0.032572 0.818514
vt 0.000596 0.741317
vt 0.000596 0.770658
vt 0.011824 0.714209
vt 0.208380 0.829742
vt 0.181272 0.818514
vt 0.160525 0.797766
vt 0.149296 0.770658
vt 0.181272 0.693462
vt 0.160525 0.714209
vt 0.208380 0.682233
vt 0.285577 0.714209
vt 0.264829 0.693462
vt 0.296805 0.741317
vt 0.264829 0.818514
vt 0.285577 0.797766
vt 0.237721 0.829742
vn 0.0000 -0.9239 0.3827
vn 0.0000 -0.7071 0.7071
vn -0.0000 -0.3827 -0.9239
vn 0.0000 1.0000 0.0000
vn 0.0000 0.8013 0.5982
vn -0.0000 0.8013 -0.5982
vn -0.0000 -0.7071 -0.7071
vn -0.0000 -0.9239 -0.3827
vn 0.0000 -0.3827 0.9239
vn 0.0000 0.3827 0.9239
vn -0.0000 0.9239 -0.3827
vn -0.0000 0.7071 -0.7071
vn -0.0000 0.3827 -0.9239
vn -1.0000 -0.0000 0.0000
vn -0.0000 0.2396 -0.9709
vn 1.0000 0.0000 -0.0000
vn 0.0000 0.2396 0.9709
vn 0.0000 -0.0000 1.0000
vn 0.0000 0.7071 0.7071
vn 0.0000 0.9239 0.3827
vn -0.0000 -0.0000 -1.0000
vn 0.0000 -0.2196 0.9756
vn 0.0000 -0.8013 0.5982
vn 0.9920 -0.1264 -0.0000
vn -0.9920 -0.1264 0.0000
vn -0.0000 -0.8013 -0.5982
vn 0.0000 -1.0000 0.0000
vn 0.2944 0.9557 0.0000
vn -0.2944 0.9557 0.0000
vn -0.9948 -0.1018 0.0000
vn 0.0000 -0.2196 -0.9756
vn 0.9948 -0.1018 -0.0000
usemtl None
s off
f 37/1/1 28/2/1 41/3/1 16/4/1
f 16/4/2 41/3/2 40/5/2 17/6/2
f 11/7/3 27/8/3 13/9/3 12/10/3
f 9/11/4 33/12/4 35/13/4 10/14/4
f 6/15/5 10/16/5 7/17/5 3/18/5
f 9/19/6 5/20/6 4/21/6 8/22/6
f 12/10/7 13/9/7 15/23/7 14/24/7
f 14/24/8 15/23/8 34/25/8 36/26/8
f 17/6/9 40/5/9 29/27/9 18/28/9
f 44/29/10 19/30/10 43/31/10 20/32/10
f 45/33/11 38/34/11 24/35/11 23/36/11
f 23/36/12 24/35/12 46/37/12 25/38/12
f 25/38/13 46/37/13 42/39/13 26/40/13
f 23/41/14 16/42/14 20/43/14
f 36/44/15 34/45/15 33/46/15 32/47/15
f 37/48/14 36/49/14 32/50/14 31/51/14
f 34/52/16 28/53/16 35/54/16 33/55/16
f 28/56/17 37/57/17 31/58/17 35/59/17
f 18/28/18 29/27/18 19/30/18 44/29/18
f 20/32/19 43/31/19 30/60/19 21/61/19
f 21/61/20 30/60/20 39/62/20 22/63/20
f 22/63/4 39/62/4 38/34/4 45/33/4
f 26/40/21 42/39/21 27/8/21 11/7/21
f 7/64/4 31/65/4 32/66/4 8/67/4
f 8/67/4 32/66/4 33/12/4 9/11/4
f 10/14/4 35/13/4 31/65/4 7/64/4
f 30/68/16 27/69/16 38/70/16
f 8/71/14 4/72/14 3/73/14 7/74/14
f 84/75/22 79/76/22 82/77/22 2/78/22
f 10/79/16 6/80/16 5/81/16 9/82/16
f 52/83/21 53/84/21 49/85/21 48/86/21
f 54/87/18 51/88/18 47/89/18 50/90/18
f 60/91/21 61/92/21 58/93/21 56/94/21
f 50/95/23 47/96/23 59/97/23 62/98/23
f 49/99/24 50/100/24 62/101/24 61/102/24
f 47/103/25 48/104/25 60/105/25 59/106/25
f 62/107/18 59/108/18 57/109/18 55/110/18
f 51/111/14 52/112/14 48/113/14 47/114/14
f 48/115/26 49/116/26 61/117/26 60/118/26
f 65/119/21 63/120/21 67/121/21 69/122/21
f 64/123/18 66/124/18 70/125/18 68/126/18
f 67/121/27 68/126/27 76/127/27 75/128/27
f 63/129/16 65/130/16 66/131/16 64/132/16
f 65/133/28 69/134/28 70/135/28 66/136/28
f 73/137/21 77/138/21 75/128/21 71/139/21
f 72/140/18 76/127/18 78/141/18 74/142/18
f 71/139/27 75/128/27 76/127/27 72/140/27
f 68/126/18 70/125/18 78/141/18 76/127/18
f 69/143/4 77/144/4 78/145/4 70/146/4
f 71/147/14 72/148/14 74/149/14 73/150/14
f 64/123/27 68/126/27 67/121/27 63/120/27
f 73/151/29 74/152/29 78/153/29 77/154/29
f 69/122/21 67/121/21 75/128/21 77/138/21
f 59/155/14 60/156/14 56/157/14 57/158/14
f 61/159/16 62/160/16 55/161/16 58/162/16
f 49/163/16 53/164/16 54/165/16 50/166/16
f 5/81/16 6/80/16 2/167/16 1/168/16
f 6/169/18 3/170/18 84/171/18 2/172/18
f 4/173/21 5/174/21 1/175/21 83/176/21
f 51/177/4 54/178/4 53/179/4 52/180/4
f 4/72/14 83/181/14 84/182/14 3/73/14
f 83/183/30 80/184/30 79/185/30 84/186/30
f 1/187/31 81/188/31 80/189/31 83/190/31
f 2/191/32 82/192/32 81/193/32 1/194/32
f 79/195/27 80/196/27 81/197/27 82/198/27
f 27/69/16 15/199/16 13/200/16
f 15/199/16 28/201/16 34/202/16
f 28/201/16 19/203/16 41/204/16
f 41/204/16 19/203/16 40/205/16
f 40/205/16 19/203/16 29/206/16
f 19/203/16 30/68/16 43/207/16
f 30/68/16 38/70/16 39/208/16
f 38/70/16 46/209/16 24/210/16
f 46/209/16 38/70/16 42/211/16
f 42/211/16 38/70/16 27/69/16
f 27/69/16 19/203/16 15/199/16
f 15/199/16 19/203/16 28/201/16
f 19/203/16 27/69/16 30/68/16
f 12/212/14 23/41/14 11/213/14
f 11/213/14 23/41/14 26/214/14
f 26/214/14 23/41/14 25/215/14
f 23/41/14 22/216/14 45/217/14
f 22/216/14 23/41/14 21/218/14
f 21/218/14 23/41/14 20/43/14
f 20/43/14 18/219/14 44/220/14
f 18/219/14 20/43/14 17/221/14
f 17/221/14 20/43/14 16/42/14
f 16/42/14 36/222/14 37/223/14
f 36/222/14 16/42/14 14/224/14
f 14/224/14 16/42/14 12/212/14
f 12/212/14 16/42/14 23/41/14
