# Blender v2.79 (sub 0) OBJ File: 'pipeCage.blend'
# www.blender.org
mtllib pipeCageFence.mtl
o object_static_pipeCageFence_Plane
v 2.650708 7.440006 6.170071
v 2.650708 -5.834491 6.170071
v 2.650708 7.440006 -6.482499
v 2.650708 -5.834491 -6.482499
v 2.292008 7.440005 -6.998504
v 2.292008 -5.834491 -6.998505
v -1.887871 7.440005 -6.998503
v -1.887871 -5.834491 -6.998504
v 2.292008 7.440004 6.669020
v 2.292008 -5.834492 6.669020
v -1.887871 7.440005 6.669017
v -1.887871 -5.834491 6.669018
v 2.292008 7.440005 -6.977845
v 2.292008 -5.834491 -6.977846
v -1.887871 7.440005 -6.977844
v -1.887871 -5.834491 -6.977845
v 2.630867 7.440006 6.170071
v 2.630867 -5.834491 6.170071
v 2.630866 7.440006 -6.482499
v 2.630867 -5.834491 -6.482499
v 2.292008 7.440004 6.692888
v 2.292008 -5.834492 6.692888
v -1.887871 7.440005 6.692886
v -1.887871 -5.834491 6.692887
vt 0.001416 0.001253
vt 0.498829 0.001425
vt 0.498665 0.475533
vt 0.001253 0.475361
vt 0.501335 0.478647
vt 0.998747 0.478647
vt 0.998747 0.635272
vt 0.501335 0.635272
vt 0.501335 0.160384
vt 0.998747 0.160384
vt 0.998747 0.317010
vt 0.501335 0.317010
vt 0.501335 0.476141
vt 0.501335 0.319515
vt 0.998747 0.319515
vt 0.998747 0.476141
vt 0.001253 0.952146
vt 0.001416 0.478038
vt 0.498829 0.478210
vt 0.498665 0.952318
vt 0.501335 0.157878
vt 0.501335 0.001253
vt 0.998747 0.001253
vt 0.998747 0.157878
vn 1.0000 0.0000 -0.0000
vn -0.0000 0.0000 -1.0000
vn 0.0000 -0.0000 1.0000
vn -1.0000 -0.0000 0.0000
usemtl None
s off
f 1/1/1 2/2/1 4/3/1 3/4/1
f 5/5/2 6/6/2 8/7/2 7/8/2
f 9/9/2 10/10/2 12/11/2 11/12/2
f 13/13/3 15/14/3 16/15/3 14/16/3
f 17/17/4 19/18/4 20/19/4 18/20/4
f 21/21/3 23/22/3 24/23/3 22/24/3
