# Blender v2.79 (sub 0) OBJ File: 'bridgeRoom.blend'
# www.blender.org
mtllib bridgeRoomWalls.mtl
o object_static_bridgeRoomWall_Cube.004
v -11.108472 13.851192 21.593487
v -11.308473 1.867516 21.793465
v -11.308457 13.851192 21.793472
v -11.108472 1.867516 21.593487
v -11.108472 0.711416 21.593487
v -11.108472 15.007296 21.593487
v 8.651340 1.867516 21.793465
v 8.451340 13.851192 21.593487
v 8.451340 15.007296 21.593487
v 8.451340 0.711416 21.593487
v 8.451340 1.867516 21.593487
v -7.565443 0.711415 -30.969604
v -7.565443 1.867515 -30.969604
v -7.765429 13.851192 -30.969612
v -7.765444 1.867515 -30.969604
v -7.565447 13.851192 -21.669605
v -7.765448 1.867516 -21.869583
v -7.765432 13.851192 -21.869591
v -7.565443 13.851192 -30.969612
v -7.565447 1.867516 -21.669605
v -7.565447 0.711416 -21.669605
v -7.565447 15.007296 -21.669605
v -7.565443 15.007294 -30.969612
v -25.261091 15.007294 -21.669609
v 8.651325 13.851192 21.793472
v 22.603958 13.851192 21.593493
v 22.803959 1.867516 21.793493
v 22.803951 13.851192 21.793478
v 22.603962 1.867516 21.593493
v 22.603958 15.007294 21.593494
v 4.834551 0.711415 -30.969604
v 4.834551 1.867515 -30.969604
v 5.034536 13.851192 -30.969612
v 5.034552 1.867515 -30.969604
v 4.834554 13.851192 -21.669605
v 5.034554 1.867516 -21.869587
v 5.034539 13.851192 -21.869595
v 4.834551 13.851192 -30.969612
v 4.834554 1.867516 -21.669605
v 4.834554 0.711416 -21.669605
v 4.834554 15.007296 -21.669605
v 4.834551 15.007294 -30.969612
v 22.603958 13.851192 -21.669613
v 22.803959 1.867516 -21.869614
v 22.803955 13.851192 -21.869598
v 22.603966 1.867516 -21.669613
v 22.603958 15.007294 -21.669613
v 22.603962 -2.668680 21.593493
v 22.603966 -2.668680 -21.669613
v 22.803951 -2.668681 21.793478
v 22.803955 -2.668681 -21.869598
v 2.291533 0.711416 21.593487
v 2.559316 -0.995705 21.593487
v 2.291559 0.183682 21.593487
v 3.372390 -1.756843 21.593487
v 5.106327 -2.668680 21.593487
v 7.921055 0.711416 21.593487
v 7.921055 0.183682 21.593487
v 7.653337 -0.995705 21.593487
v 6.840261 -1.756843 21.593487
v 5.106328 -2.203502 21.593487
v 5.947441 -2.131345 21.593487
v 4.265208 -2.131345 21.593487
v -25.261089 15.007294 21.593493
v -25.261089 13.851192 21.593493
v -25.461084 13.851192 21.793478
v -25.461090 1.867516 21.793491
v -25.261097 1.867516 21.593491
v -25.461084 -2.668681 21.793478
v -25.261097 -2.668680 21.593491
v -25.261091 13.851192 -21.669609
v -25.461086 13.851192 -21.869595
v -25.461092 1.867516 -21.869610
v -25.261097 1.867516 -21.669609
v -25.261097 -2.668680 -21.669609
v -25.461086 -2.668681 -21.869595
v 5.106327 -2.668680 21.793472
v 8.451338 15.007294 30.893486
v 8.451338 13.851192 30.893486
v 8.651323 13.851192 30.893490
v 8.451338 0.711415 30.893482
v 8.451338 1.867516 30.893482
v 8.651339 1.867516 30.893482
v -11.308471 1.867516 30.893482
v -11.108470 1.867516 30.893486
v -11.108470 0.711415 30.893486
v -11.308455 13.851192 30.893490
v -11.108470 13.851192 30.893490
v -11.108470 15.007294 30.893490
vt 0.705147 0.715593
vt 0.573267 0.715593
vt 0.573267 0.699499
vt 0.705147 0.699499
vt 0.933610 0.760493
vt 0.801722 0.760493
vt 0.804505 0.757709
vt 0.935002 0.757709
vt 0.199461 0.802676
vt 0.199461 0.670637
vt 0.366287 0.670637
vt 0.366287 0.802676
vt 0.705147 0.692076
vt 0.573267 0.692076
vt 0.573267 0.675982
vt 0.705147 0.675982
vt 0.934996 0.770699
vt 0.804506 0.770699
vt 0.801722 0.767915
vt 0.933604 0.767915
vt 0.639062 0.476055
vt 0.686120 0.673083
vt 0.622969 0.673084
vt 0.622967 0.476056
vt 0.982395 0.817735
vt 0.785378 0.817735
vt 0.782593 0.814950
vt 0.979611 0.814951
vt 0.693542 0.203771
vt 0.693542 0.006751
vt 0.860368 0.006751
vt 0.860368 0.203771
vt 0.775171 0.831045
vt 0.578151 0.831045
vt 0.578151 0.814950
vt 0.775171 0.814950
vt 0.603682 0.993820
vt 0.406688 0.993820
vt 0.409472 0.991035
vt 0.606466 0.991035
vt 0.934995 0.791432
vt 0.933603 0.794216
vt 0.802749 0.794216
vt 0.805533 0.791432
vt 0.699052 0.838467
vt 0.699052 0.854561
vt 0.568193 0.854561
vt 0.568193 0.838467
vt 0.137232 0.670669
vt 0.137175 0.837494
vt 0.007709 0.837463
vt 0.007766 0.670637
vt 0.933604 0.781225
vt 0.934996 0.784009
vt 0.805533 0.784009
vt 0.802749 0.781225
vt 0.504573 0.838499
vt 0.504567 0.854593
vt 0.373709 0.854561
vt 0.373715 0.838467
vt 0.007709 0.884559
vt 0.007709 0.868465
vt 0.137175 0.868465
vt 0.137175 0.884559
vt 0.007709 0.915180
vt 0.007709 0.912395
vt 0.134393 0.912396
vt 0.137177 0.915180
vt 0.373709 0.670637
vt 0.540535 0.670637
vt 0.540535 0.797319
vt 0.373709 0.797319
vt 0.693542 0.653011
vt 0.693542 0.636916
vt 0.823008 0.636916
vt 0.823008 0.653010
vt 0.007709 0.894767
vt 0.007709 0.891983
vt 0.137174 0.891982
vt 0.134390 0.894766
vt 0.913651 0.423242
vt 0.929745 0.423242
vt 0.929745 0.669582
vt 0.866597 0.669582
vt 0.706181 0.980829
vt 0.703397 0.983613
vt 0.457024 0.983612
vt 0.459807 0.980829
vt 0.508842 0.355247
vt 0.508843 0.522073
vt 0.262500 0.522073
vt 0.262500 0.355247
vt 0.794299 0.757708
vt 0.794299 0.773803
vt 0.547957 0.773803
vt 0.547957 0.757708
vt 0.959942 0.980829
vt 0.962726 0.983613
vt 0.716388 0.983613
vt 0.713604 0.980829
vt 0.639069 0.203752
vt 0.622976 0.203752
vt 0.622977 0.006751
vt 0.686120 0.006752
vt 0.782593 0.827941
vt 0.785377 0.825157
vt 0.982388 0.825157
vt 0.979604 0.827942
vt 0.860368 0.408213
vt 0.693542 0.408213
vt 0.693542 0.211193
vt 0.860368 0.211193
vt 0.373709 0.831045
vt 0.373709 0.814950
vt 0.570729 0.814950
vt 0.570729 0.831045
vt 0.202245 0.993819
vt 0.199461 0.991035
vt 0.396482 0.991035
vt 0.399266 0.993819
vt 0.762673 0.838467
vt 0.892139 0.838467
vt 0.892139 0.854561
vt 0.762673 0.854561
vt 0.007709 0.902189
vt 0.137179 0.902189
vt 0.134395 0.904973
vt 0.007709 0.904973
vt 0.693542 0.415635
vt 0.820224 0.415635
vt 0.820224 0.582461
vt 0.693542 0.582461
vt 0.007709 0.844949
vt 0.137175 0.844949
vt 0.137175 0.861043
vt 0.007709 0.861043
vt 0.007709 0.922602
vt 0.134390 0.922602
vt 0.137174 0.925386
vt 0.007709 0.925386
vt 0.913652 0.250618
vt 0.866597 0.003249
vt 0.929746 0.003249
vt 0.929746 0.250618
vt 0.550263 0.724185
vt 0.797653 0.724186
vt 0.800437 0.726970
vt 0.553047 0.726969
vt 0.007709 0.355247
vt 0.255078 0.355247
vt 0.255078 0.522073
vt 0.007709 0.522073
vt 0.547957 0.781225
vt 0.795326 0.781225
vt 0.795326 0.797319
vt 0.547957 0.797319
vt 0.202245 0.980829
vt 0.449601 0.980829
vt 0.446817 0.983613
vt 0.199461 0.983613
vt 0.199461 0.939994
vt 0.807133 0.939994
vt 0.804349 0.942777
vt 0.202248 0.942780
vt 0.646408 0.289506
vt 0.662827 0.285778
vt 0.639061 0.289506
vt 0.673425 0.274457
vt 0.007709 0.006751
vt 0.615545 0.006751
vt 0.615545 0.173577
vt 0.007709 0.173577
vt 0.199461 0.912150
vt 0.202245 0.909366
vt 0.624939 0.909366
vt 0.624939 0.912151
vt 0.868562 0.909366
vt 0.871346 0.912149
vt 0.646415 0.211134
vt 0.639068 0.211134
vt 0.662832 0.214861
vt 0.673427 0.226179
vt 0.199461 0.919573
vt 0.870919 0.919573
vt 0.868137 0.922355
vt 0.202251 0.922363
vt 0.199461 0.885849
vt 0.801730 0.885849
vt 0.801730 0.901943
vt 0.199461 0.901943
vt 0.678640 0.238607
vt 0.678640 0.262025
vt 0.686120 0.250316
vt 0.679644 0.250316
vt 0.202248 0.960411
vt 0.804349 0.960414
vt 0.807132 0.963198
vt 0.199461 0.963198
vt 0.007709 0.529495
vt 0.609976 0.529495
vt 0.609976 0.592644
vt 0.007709 0.592644
vt 0.804347 0.970623
vt 0.807130 0.973406
vt 0.199461 0.973406
vt 0.202248 0.970620
vt 0.978589 0.807528
vt 0.376493 0.807525
vt 0.373709 0.804742
vt 0.981375 0.804742
vt 0.202245 0.952986
vt 0.199461 0.950203
vt 0.807133 0.950203
vt 0.804347 0.952989
vt 0.007709 0.663215
vt 0.007709 0.600066
vt 0.609976 0.600066
vt 0.609976 0.663215
vt 0.199461 0.878427
vt 0.199461 0.862332
vt 0.801743 0.862334
vt 0.801743 0.878427
vt 0.199461 0.932572
vt 0.202245 0.929788
vt 0.804347 0.929785
vt 0.807133 0.932572
vt 0.007709 0.347825
vt 0.007709 0.180999
vt 0.615545 0.180999
vt 0.615545 0.347825
vn 1.0000 0.0000 -0.0000
vn 0.0000 1.0000 0.0000
vn 0.0000 -1.0000 0.0000
vn -0.0000 0.0000 -1.0000
vn -1.0000 0.0000 -0.0000
vn -0.0000 0.0000 1.0000
usemtl Material.001
s off
f 86/1/1 5/2/1 4/3/1 85/4/1
f 85/5/2 4/6/2 2/7/2 84/8/2
f 84/9/1 2/10/1 3/11/1 87/12/1
f 88/13/1 1/14/1 6/15/1 89/16/1
f 87/17/3 3/18/3 1/19/3 88/20/3
f 5/21/4 70/22/4 68/23/4 4/24/4
f 4/25/2 68/26/2 67/27/2 2/28/2
f 2/29/4 67/30/4 66/31/4 3/32/4
f 1/33/4 65/34/4 64/35/4 6/36/4
f 3/37/3 66/38/3 65/39/3 1/40/3
f 80/41/3 79/42/3 8/43/3 25/44/3
f 79/45/5 78/46/5 9/47/5 8/48/5
f 83/49/5 80/50/5 25/51/5 7/52/5
f 82/53/2 83/54/2 7/55/2 11/56/2
f 81/57/5 82/58/5 11/59/5 10/60/5
f 12/61/1 13/62/1 20/63/1 21/64/1
f 13/65/2 15/66/2 17/67/2 20/68/2
f 15/69/1 14/70/1 18/71/1 17/72/1
f 19/73/1 23/74/1 22/75/1 16/76/1
f 14/77/3 19/78/3 16/79/3 18/80/3
f 21/81/6 20/82/6 74/83/6 75/84/6
f 20/85/2 17/86/2 73/87/2 74/88/2
f 17/89/6 18/90/6 72/91/6 73/92/6
f 16/93/6 22/94/6 24/95/6 71/96/6
f 18/97/3 16/98/3 71/99/3 72/100/3
f 10/101/4 11/102/4 29/103/4 48/104/4
f 11/105/2 7/106/2 27/107/2 29/108/2
f 7/109/4 25/110/4 28/111/4 27/112/4
f 8/113/4 9/114/4 30/115/4 26/116/4
f 25/117/3 8/118/3 26/119/3 28/120/3
f 31/121/5 40/122/5 39/123/5 32/124/5
f 32/125/2 39/126/2 36/127/2 34/128/2
f 34/129/5 36/130/5 37/131/5 33/132/5
f 38/133/5 35/134/5 41/135/5 42/136/5
f 33/137/3 37/138/3 35/139/3 38/140/3
f 40/141/6 49/142/6 46/143/6 39/144/6
f 39/145/2 46/146/2 44/147/2 36/148/2
f 36/149/6 44/150/6 45/151/6 37/152/6
f 35/153/6 43/154/6 47/155/6 41/156/6
f 37/157/3 45/158/3 43/159/3 35/160/3
f 73/161/2 67/162/2 68/163/2 74/164/2
f 70/22/4 54/165/4 53/166/4
f 5/21/4 52/167/4 54/165/4 70/22/4
f 70/22/4 53/166/4 55/168/4
f 72/169/1 66/170/1 67/171/1 73/172/1
f 69/173/3 70/174/3 56/175/3 77/176/3
f 77/176/3 56/175/3 48/177/3 50/178/3
f 10/101/4 48/104/4 58/179/4 57/180/4
f 48/104/4 59/181/4 58/179/4
f 48/104/4 60/182/4 59/181/4
f 21/81/6 75/84/6 49/142/6 40/141/6
f 76/183/3 51/184/3 49/185/3 75/186/3
f 24/187/1 64/188/1 65/189/1 71/190/1
f 48/104/4 62/191/4 60/182/4
f 70/22/4 55/168/4 63/192/4
f 62/191/4 48/104/4 56/193/4 61/194/4
f 56/193/4 70/22/4 63/192/4 61/194/4
f 71/195/3 65/196/3 66/197/3 72/198/3
f 74/199/1 68/200/1 70/201/1 75/202/1
f 70/203/3 69/204/3 76/205/3 75/206/3
f 48/207/3 49/208/3 51/209/3 50/210/3
f 43/211/3 45/212/3 28/213/3 26/214/3
f 46/215/5 49/216/5 48/217/5 29/218/5
f 47/219/5 43/220/5 26/221/5 30/222/5
f 44/223/2 46/224/2 29/225/2 27/226/2
f 45/227/5 44/228/5 27/229/5 28/230/5
