# Blender v2.79 (sub 0) OBJ File: 'door.blend'
# www.blender.org
mtllib doorhandle.mtl
o object_doorHandle_Cylinder.000
v 1.834488 1.779882 -1.477381
v 1.653228 1.835036 -1.454535
v 1.834488 1.724727 -1.454535
v 1.653228 1.857882 -1.399380
v 1.834488 1.701881 -1.399380
v 1.653228 1.835036 -1.344226
v 1.834488 1.724727 -1.344226
v 1.653228 1.779881 -1.321380
v 1.834488 1.779882 -1.321380
v 1.653228 1.724727 -1.344226
v 1.834488 1.835036 -1.344226
v 1.653228 1.701881 -1.399380
v 1.834488 1.857882 -1.399380
v 1.653228 1.724727 -1.454535
v 1.834488 1.835036 -1.454535
v 1.653228 1.779881 -1.477381
v 1.834488 1.878000 -1.399380
v 1.834488 1.689252 -1.321753
v 1.834488 1.722499 -1.300432
v 1.834488 1.779882 -1.294258
v 1.834488 1.837264 -1.300432
v 1.834488 1.870511 -1.321753
v 1.947985 1.689252 -1.321753
v 1.947985 1.722499 -1.300432
v 1.947985 1.779882 -1.294258
v 1.947985 1.837264 -1.300432
v 1.947985 1.870511 -1.321753
v 1.834487 1.779882 -2.230382
v 1.834487 1.734544 -2.214076
v 1.834487 1.715764 -2.176138
v 1.834487 1.844000 -2.176138
v 1.834487 1.825220 -2.214076
v 1.947984 1.779882 -2.230382
v 1.947984 1.734544 -2.214076
v 1.947984 1.715764 -2.176138
v 1.947984 1.844000 -2.176138
v 1.947984 1.825220 -2.214076
v 1.947985 1.856182 -1.493975
v 1.947985 1.703582 -1.493975
v 1.834487 1.703582 -1.493975
v 1.834488 1.856182 -1.493975
v 1.947985 1.878000 -1.399380
v 1.834488 1.833834 -1.540395
v 1.834488 1.779882 -1.560023
v 1.834488 1.725929 -1.540395
v 1.947985 1.715797 -1.399380
v 1.947985 1.725929 -1.493975
v 1.947985 1.779882 -1.399380
v 1.947984 1.779882 -1.493975
v 1.947984 1.843966 -1.399380
v 1.947984 1.833834 -1.493975
v 1.947984 1.730389 -2.176139
v 1.947984 1.779882 -2.176139
v 1.947984 1.829374 -2.176139
v 1.834488 1.683324 -1.399380
v 1.947985 1.683324 -1.399380
v 1.947985 1.703582 -1.493975
v 1.947985 1.683324 -1.399380
v 1.834488 1.878000 -1.399380
v 1.834488 1.683324 -1.399380
v 1.834488 1.870511 -1.321753
v 1.834487 1.703582 -1.493975
v 1.947985 1.722499 -1.300432
v 1.947985 1.856182 -1.493975
v 1.947985 1.779882 -1.294258
v 1.834488 1.856182 -1.493975
v 1.947985 1.870511 -1.321753
v 1.947984 1.825220 -2.214076
v 1.947985 1.837264 -1.300432
v 1.947984 1.844000 -2.176138
v 1.947985 1.689252 -1.321753
v 1.834487 1.715764 -2.176138
v 1.834488 1.837264 -1.300432
v 1.834487 1.734544 -2.214076
v 1.834488 1.779882 -1.294258
v 1.834487 1.844000 -2.176138
v 1.834488 1.722499 -1.300432
v 1.834487 1.779882 -2.230382
v 1.834488 1.689252 -1.321753
v 1.834487 1.825220 -2.214076
v 1.947985 1.878000 -1.399380
v 1.947984 1.734544 -2.214076
v 1.947984 1.715764 -2.176138
v 1.947984 1.779882 -2.230382
v 1.834488 1.835036 -1.454535
v 1.834488 1.857882 -1.399380
v 1.834488 1.835036 -1.344226
v 1.834488 1.779882 -1.321380
v 1.834488 1.724727 -1.344226
v 1.834488 1.701881 -1.399380
v 1.834488 1.724727 -1.454535
v 1.834488 1.779882 -1.477381
v 1.215908 1.779882 -1.477381
v 1.397167 1.835036 -1.454535
v 1.215908 1.724727 -1.454535
v 1.397167 1.857882 -1.399380
v 1.215908 1.701881 -1.399380
v 1.397167 1.835036 -1.344225
v 1.215908 1.724727 -1.344225
v 1.397167 1.779881 -1.321379
v 1.215908 1.779882 -1.321379
v 1.397167 1.724727 -1.344225
v 1.215908 1.835036 -1.344225
v 1.397167 1.701881 -1.399380
v 1.215908 1.857882 -1.399380
v 1.397167 1.724727 -1.454535
v 1.215908 1.835036 -1.454535
v 1.397167 1.779881 -1.477381
v 1.215908 1.878000 -1.399380
v 1.215908 1.689252 -1.321753
v 1.215908 1.722499 -1.300431
v 1.215908 1.779882 -1.294258
v 1.215908 1.837264 -1.300431
v 1.215908 1.870511 -1.321753
v 1.102411 1.689252 -1.321753
v 1.102411 1.722499 -1.300431
v 1.102411 1.779882 -1.294258
v 1.102411 1.837264 -1.300431
v 1.102411 1.870511 -1.321753
v 1.215908 1.779882 -2.230382
v 1.215908 1.734544 -2.214076
v 1.215908 1.715764 -2.176138
v 1.215908 1.844000 -2.176138
v 1.215908 1.825220 -2.214075
v 1.102411 1.779882 -2.230382
v 1.102411 1.734544 -2.214076
v 1.102411 1.715764 -2.176138
v 1.102411 1.844000 -2.176138
v 1.102411 1.825220 -2.214075
v 1.102411 1.856182 -1.493975
v 1.102411 1.703582 -1.493975
v 1.215908 1.703582 -1.493975
v 1.215908 1.856182 -1.493975
v 1.102411 1.878000 -1.399380
v 1.215908 1.833834 -1.540395
v 1.215908 1.779882 -1.560023
v 1.215908 1.725929 -1.540395
v 1.102411 1.715797 -1.399380
v 1.102411 1.725929 -1.493975
v 1.102411 1.779882 -1.399380
v 1.102411 1.779882 -1.493975
v 1.102411 1.843966 -1.399380
v 1.102411 1.833834 -1.493975
v 1.102411 1.730389 -2.176138
v 1.102411 1.779882 -2.176138
v 1.102411 1.829374 -2.176138
v 1.215908 1.683324 -1.399380
v 1.102411 1.683324 -1.399380
v 1.102411 1.703582 -1.493975
v 1.102411 1.683324 -1.399380
v 1.215908 1.878000 -1.399380
v 1.215908 1.683324 -1.399380
v 1.215908 1.870511 -1.321753
v 1.215908 1.703582 -1.493975
v 1.102411 1.722499 -1.300431
v 1.102411 1.856182 -1.493975
v 1.102411 1.779882 -1.294258
v 1.215908 1.856182 -1.493975
v 1.102411 1.870511 -1.321753
v 1.102411 1.825220 -2.214075
v 1.102411 1.837264 -1.300431
v 1.102411 1.844000 -2.176138
v 1.102411 1.689252 -1.321753
v 1.215908 1.715764 -2.176138
v 1.215908 1.837264 -1.300431
v 1.215908 1.734544 -2.214076
v 1.215908 1.779882 -1.294258
v 1.215908 1.844000 -2.176138
v 1.215908 1.722499 -1.300431
v 1.215908 1.779882 -2.230382
v 1.215908 1.689252 -1.321753
v 1.215908 1.825220 -2.214075
v 1.102411 1.878000 -1.399380
v 1.102411 1.734544 -2.214076
v 1.102411 1.715764 -2.176138
v 1.102411 1.779882 -2.230382
v 1.215908 1.835036 -1.454535
v 1.215908 1.857882 -1.399380
v 1.215908 1.835036 -1.344225
v 1.215908 1.779882 -1.321379
v 1.215908 1.724727 -1.344225
v 1.215908 1.701881 -1.399380
v 1.215908 1.724727 -1.454535
v 1.215908 1.779882 -1.477381
vt 0.053060 0.207892
vt 0.052659 0.217492
vt 0.015865 0.209918
vt 0.025882 0.227296
vt 0.005027 0.225360
vt 0.013880 0.253162
vt 0.000937 0.252622
vt 0.023684 0.279940
vt 0.002739 0.280130
vt 0.049550 0.291942
vt 0.012252 0.296421
vt 0.119477 0.231779
vt 0.440810 0.249316
vt 0.447689 0.271279
vt 0.127769 0.257918
vt 0.097770 0.220189
vt 0.423079 0.239598
vt 0.117327 0.283275
vt 0.439003 0.292591
vt 0.420523 0.300797
vt 0.094728 0.293015
vt 0.078526 0.229494
vt 0.088329 0.256271
vt 0.076327 0.282138
vt 0.097369 0.324978
vt 0.096242 0.350724
vt 0.051101 0.348748
vt 0.052439 0.318167
vt 0.095114 0.376470
vt 0.049763 0.379329
vt 0.049052 0.395570
vt 0.094648 0.387134
vt 0.012165 0.390376
vt 0.002685 0.374065
vt 0.000937 0.346553
vt 0.005081 0.319299
vt 0.049180 0.300798
vt 0.421764 0.364973
vt 0.420730 0.388591
vt 0.422798 0.341355
vt 0.420425 0.395570
vt 0.097835 0.314314
vt 0.423103 0.334376
vt 0.440814 0.344130
vt 0.447649 0.366106
vt 0.438921 0.387401
vt 0.053117 0.302671
vt 0.015950 0.303879
vt 0.049051 0.490342
vt 0.012164 0.485147
vt 0.049471 0.480742
vt 0.023629 0.468688
vt 0.002684 0.468836
vt 0.013879 0.441891
vt 0.000937 0.441325
vt 0.025933 0.416049
vt 0.005081 0.414071
vt 0.052730 0.406299
vt 0.015950 0.398651
vt 0.117265 0.472211
vt 0.127758 0.446876
vt 0.447649 0.460877
vt 0.438920 0.482172
vt 0.094647 0.481906
vt 0.420424 0.490342
vt 0.119519 0.420720
vt 0.097834 0.409086
vt 0.423102 0.429146
vt 0.440814 0.438901
vt 0.076268 0.470992
vt 0.088322 0.445149
vt 0.078572 0.418353
vt 0.095175 0.187570
vt 0.049828 0.190520
vt 0.051105 0.159936
vt 0.096250 0.161822
vt 0.052382 0.129352
vt 0.097325 0.136074
vt 0.053061 0.113110
vt 0.097771 0.125408
vt 0.005026 0.130579
vt 0.015865 0.115137
vt 0.000937 0.157842
vt 0.002740 0.185350
vt 0.053117 0.397444
vt 0.422786 0.151799
vt 0.421799 0.175418
vt 0.420813 0.199038
vt 0.423077 0.144819
vt 0.094729 0.198235
vt 0.420521 0.206018
vt 0.439001 0.197812
vt 0.447687 0.176499
vt 0.440808 0.154537
vt 0.049181 0.206017
vt 0.012253 0.201641
vt 0.952630 0.055150
vt 0.915444 0.055150
vt 0.915444 0.000938
vt 0.952630 0.000938
vt 0.500113 0.055149
vt 0.500113 0.000937
vt 0.523127 0.000937
vt 0.523127 0.055150
vt 0.543346 0.000937
vt 0.543346 0.055150
vt 0.456879 0.055149
vt 0.456879 0.000937
vt 0.477098 0.000937
vt 0.477098 0.055149
vt 0.971496 0.000938
vt 0.971496 0.055150
vt 0.999063 0.000938
vt 0.999063 0.055151
vt 0.000937 0.055149
vt 0.000937 0.000937
vt 0.028504 0.000937
vt 0.028504 0.055149
vt 0.047369 0.000937
vt 0.047369 0.055149
vt 0.869235 0.055150
vt 0.869235 0.000938
vt 0.084620 0.000937
vt 0.130990 0.000937
vt 0.130990 0.055149
vt 0.084620 0.055149
vt 0.536102 0.445248
vt 0.449523 0.445248
vt 0.449523 0.416733
vt 0.536102 0.416733
vt 0.536102 0.502279
vt 0.449523 0.502279
vt 0.449523 0.473764
vt 0.536102 0.473763
vt 0.536102 0.530794
vt 0.449523 0.530794
vt 0.536102 0.331187
vt 0.449523 0.331187
vt 0.449523 0.302671
vt 0.536102 0.302671
vt 0.536102 0.359702
vt 0.449523 0.359702
vt 0.536102 0.388217
vt 0.449523 0.388217
vt 0.047369 0.111237
vt 0.047369 0.057025
vt 0.084556 0.057025
vt 0.084556 0.111237
vt 0.499886 0.111237
vt 0.476872 0.111237
vt 0.476872 0.057025
vt 0.499886 0.057025
vt 0.456652 0.111237
vt 0.456652 0.057025
vt 0.543120 0.111237
vt 0.522900 0.111237
vt 0.522900 0.057025
vt 0.543120 0.057025
vt 0.028504 0.111237
vt 0.028504 0.057025
vt 0.000937 0.111237
vt 0.000937 0.057025
vt 0.999062 0.111236
vt 0.971495 0.111236
vt 0.971495 0.057024
vt 0.999062 0.057024
vt 0.952629 0.111236
vt 0.952629 0.057024
vt 0.130764 0.111237
vt 0.130764 0.057025
vt 0.915379 0.057024
vt 0.915379 0.111236
vt 0.869009 0.111236
vt 0.869009 0.057024
vt 0.086483 0.492215
vt 0.114998 0.492215
vt 0.114998 0.578794
vt 0.086483 0.578794
vt 0.029452 0.492215
vt 0.057968 0.492215
vt 0.057968 0.578794
vt 0.029452 0.578794
vt 0.000937 0.492215
vt 0.000937 0.578794
vt 0.200545 0.492215
vt 0.229060 0.492215
vt 0.229060 0.578794
vt 0.200545 0.578794
vt 0.172029 0.492215
vt 0.172029 0.578794
vt 0.143514 0.492215
vt 0.143514 0.578794
vn -1.0000 0.0000 0.0000
vn 1.0000 0.0000 -0.0000
vn 0.0000 -0.8585 0.5127
vn 0.0000 -0.9977 -0.0673
vn 0.0000 0.0000 -1.0000
vn 0.0000 -0.6655 -0.7464
vn 0.0000 -0.9716 -0.2365
vn 0.0000 0.9716 -0.2365
vn 0.0000 0.6655 -0.7464
vn 0.0000 -0.3323 0.9432
vn 0.0000 0.0000 1.0000
vn 0.0000 0.3323 0.9432
vn 0.0000 0.8534 0.5213
vn 0.0000 -0.9934 -0.1141
vn 0.0000 0.9979 -0.0652
vn 0.0000 0.9925 -0.1220
vn 0.0000 -0.7071 -0.7071
vn 0.0000 -0.7071 0.7071
vn 0.0000 -1.0000 0.0000
vn 0.0000 0.7071 0.7071
vn 0.0000 1.0000 0.0000
vn 0.0000 0.7071 -0.7071
usemtl Material.002
s off
f 17/1/1 13/2/1 22/3/1
f 11/4/1 21/5/1 22/3/1 13/2/1
f 9/6/1 20/7/1 21/5/1 11/4/1
f 7/8/1 19/9/1 20/7/1 9/6/1
f 5/10/1 18/11/1 19/9/1 7/8/1
f 43/12/1 32/13/1 28/14/1 44/15/1
f 41/16/1 31/17/1 32/13/1 43/12/1
f 45/18/1 29/19/1 30/20/1 40/21/1
f 44/15/1 28/14/1 29/19/1 45/18/1
f 15/22/1 43/12/1 44/15/1 1/23/1
f 13/2/1 41/16/1 43/12/1 15/22/1
f 3/24/1 45/18/1 40/21/1 5/10/1
f 1/23/1 44/15/1 45/18/1 3/24/1
f 41/16/1 13/2/1 17/1/1
f 47/25/2 49/26/2 48/27/2 46/28/2
f 49/26/2 51/29/2 50/30/2 48/27/2
f 42/31/2 50/30/2 51/29/2 38/32/2
f 42/31/2 27/33/2 26/34/2 50/30/2
f 26/34/2 25/35/2 48/27/2 50/30/2
f 25/35/2 24/36/2 46/28/2 48/27/2
f 18/11/1 5/10/1 55/37/1
f 49/26/2 53/38/2 54/39/2 51/29/2
f 47/25/2 52/40/2 53/38/2 49/26/2
f 36/41/2 38/32/2 51/29/2 54/39/2
f 39/42/2 35/43/2 52/40/2 47/25/2
f 35/43/2 34/44/2 52/40/2
f 34/44/2 33/45/2 53/38/2 52/40/2
f 33/45/2 37/46/2 54/39/2 53/38/2
f 37/46/2 36/41/2 54/39/2
f 39/42/2 47/25/2 46/28/2 56/47/2
f 56/47/2 46/28/2 24/36/2 23/48/2
f 40/21/1 55/37/1 5/10/1
f 109/49/2 114/50/2 105/51/2
f 103/52/2 105/51/2 114/50/2 113/53/2
f 101/54/2 103/52/2 113/53/2 112/55/2
f 99/56/2 101/54/2 112/55/2 111/57/2
f 97/58/2 99/56/2 111/57/2 110/59/2
f 135/60/2 136/61/2 120/62/2 124/63/2
f 133/64/2 135/60/2 124/63/2 123/65/2
f 137/66/2 132/67/2 122/68/2 121/69/2
f 136/61/2 137/66/2 121/69/2 120/62/2
f 107/70/2 93/71/2 136/61/2 135/60/2
f 105/51/2 107/70/2 135/60/2 133/64/2
f 95/72/2 97/58/2 132/67/2 137/66/2
f 93/71/2 95/72/2 137/66/2 136/61/2
f 133/64/2 109/49/2 105/51/2
f 139/73/1 138/74/1 140/75/1 141/76/1
f 141/76/1 140/75/1 142/77/1 143/78/1
f 134/79/1 130/80/1 143/78/1 142/77/1
f 134/79/1 142/77/1 118/81/1 119/82/1
f 118/81/1 142/77/1 140/75/1 117/83/1
f 117/83/1 140/75/1 138/74/1 116/84/1
f 110/59/2 147/85/2 97/58/2
f 141/76/1 143/78/1 146/86/1 145/87/1
f 139/73/1 141/76/1 145/87/1 144/88/1
f 128/89/1 146/86/1 143/78/1 130/80/1
f 131/90/1 139/73/1 144/88/1 127/91/1
f 127/91/1 144/88/1 126/92/1
f 126/92/1 144/88/1 145/87/1 125/93/1
f 125/93/1 145/87/1 146/86/1 129/94/1
f 129/94/1 146/86/1 128/89/1
f 131/90/1 148/95/1 138/74/1 139/73/1
f 148/95/1 115/96/1 116/84/1 138/74/1
f 132/67/2 97/58/2 147/85/2
s 1
f 79/97/3 60/98/4 58/99/4 71/100/3
f 78/101/5 84/102/5 82/103/6 74/104/6
f 74/104/6 82/103/6 83/105/7 72/106/7
f 76/107/8 70/108/8 68/109/9 80/110/9
f 80/110/9 68/109/9 84/102/5 78/101/5
f 79/97/3 71/100/3 63/111/10 77/112/10
f 77/112/10 63/111/10 65/113/11 75/114/11
f 75/115/11 65/116/11 69/117/12 73/118/12
f 73/118/12 69/117/12 67/119/13 61/120/13
f 62/121/14 72/106/7 83/105/7 57/122/14
f 60/98/4 62/121/14 57/122/14 58/99/4
f 81/123/15 64/124/16 66/125/16 59/126/15
f 64/124/16 70/108/8 76/107/8 66/125/16
f 67/119/13 81/123/15 59/126/15 61/120/13
f 91/127/17 14/128/17 16/129/5 92/130/5
f 89/131/18 10/132/18 12/133/19 90/134/19
f 88/135/11 8/136/11 10/132/18 89/131/18
f 87/137/20 6/138/20 8/139/11 88/140/11
f 86/141/21 4/142/21 6/138/20 87/137/20
f 85/143/22 2/144/22 4/142/21 86/141/21
f 90/134/19 12/133/19 14/128/17 91/127/17
f 92/130/5 16/129/5 2/144/22 85/143/22
f 171/145/3 163/146/3 150/147/4 152/148/4
f 170/149/5 166/150/6 174/151/6 176/152/5
f 166/150/6 164/153/7 175/154/7 174/151/6
f 168/155/8 172/156/9 160/157/9 162/158/8
f 172/156/9 170/149/5 176/152/5 160/157/9
f 171/145/3 169/159/10 155/160/10 163/146/3
f 169/159/10 167/161/11 157/162/11 155/160/10
f 167/163/11 165/164/12 161/165/12 157/166/11
f 165/164/12 153/167/13 159/168/13 161/165/12
f 154/169/14 149/170/14 175/154/7 164/153/7
f 152/148/4 150/147/4 149/170/14 154/169/14
f 173/171/15 151/172/15 158/173/16 156/174/16
f 156/174/16 158/173/16 168/155/8 162/158/8
f 159/168/13 153/167/13 151/172/15 173/171/15
f 183/175/17 184/176/5 108/177/5 106/178/17
f 181/179/18 182/180/19 104/181/19 102/182/18
f 180/183/11 181/179/18 102/182/18 100/184/11
f 179/185/20 180/186/11 100/187/11 98/188/20
f 178/189/21 179/185/20 98/188/20 96/190/21
f 177/191/22 178/189/21 96/190/21 94/192/22
f 182/180/19 183/175/17 106/178/17 104/181/19
f 184/176/5 177/191/22 94/192/22 108/177/5
