# Blender v2.82 (sub 7) OBJ File: 'door_collider.blend'
# www.blender.org
mtllib doorframe_collider.mtl
o object_static_doorFrame_Cube.001
v 1.397167 -3.923384 -1.004215
v 1.397167 7.249210 -1.004215
v 1.397167 7.549210 -0.704215
v 1.697167 7.549210 -0.704215
v 1.397167 -4.044202 -0.704215
v 1.697167 -4.044202 -0.704215
v 1.397167 -3.923384 -6.288801
v 1.397167 7.249210 -6.288801
v 1.397167 7.549210 -6.588801
v 1.697167 7.549210 -6.588801
v 1.397167 -4.044202 -6.588801
v 1.697167 -4.044202 -6.588801
v 2.797168 -3.923384 -1.004215
v 2.797168 7.249210 -1.004215
v 2.797168 7.549210 -0.704215
v 2.497168 7.549210 -0.704215
v 2.797168 -4.044202 -0.704215
v 2.497168 -4.044202 -0.704215
v 2.797167 -3.923384 -6.288801
v 2.797167 7.249210 -6.288801
v 2.797167 7.549210 -6.588801
v 2.497167 7.549210 -6.588801
v 2.797167 -4.044202 -6.588801
v 2.497167 -4.044202 -6.588801
vt 0.346562 0.699208
vt 0.365095 0.717740
vt 0.365091 0.001588
vt 0.346559 0.009051
vt 0.368270 0.717739
vt 0.731775 0.717738
vt 0.713243 0.699206
vt 0.386802 0.699207
vt 0.368270 0.829103
vt 0.731776 0.829103
vt 0.731776 0.810571
vt 0.368270 0.810571
vt 0.936219 0.717742
vt 0.954750 0.717749
vt 0.954997 0.001594
vt 0.936466 0.001588
vt 0.386802 0.009051
vt 0.368270 0.001588
vt 0.998412 0.717742
vt 0.998412 0.001588
vt 0.979880 0.001588
vt 0.979880 0.717742
vt 0.020120 0.699208
vt 0.001588 0.717740
vt 0.001588 0.810573
vt 0.001588 0.829105
vt 0.365093 0.829105
vt 0.365093 0.810573
vt 0.020122 0.009051
vt 0.001591 0.001588
vt 0.824608 0.691744
vt 0.911089 0.691744
vt 0.911089 0.001588
vt 0.824608 0.001588
vt 0.976705 0.717743
vt 0.976704 0.001588
vt 0.958173 0.001588
vt 0.958173 0.717743
vt 0.731775 0.001590
vt 0.713244 0.009053
vt 0.914265 0.717742
vt 0.932796 0.717749
vt 0.933043 0.001594
vt 0.914511 0.001588
vt 0.001588 0.720916
vt 0.001588 0.807397
vt 0.328028 0.807397
vt 0.328028 0.720916
vt 0.368270 0.720914
vt 0.368270 0.807395
vt 0.694711 0.807395
vt 0.694711 0.720914
vt 0.821432 0.691744
vt 0.821432 0.001588
vt 0.734951 0.001588
vt 0.734951 0.691744
vn -1.0000 0.0000 0.0000
vn 1.0000 0.0000 -0.0000
vn 0.0000 1.0000 0.0000
vn 0.0000 0.0000 -1.0000
vn 0.0000 0.0000 1.0000
vn 0.0000 -1.0000 0.0000
usemtl None
s off
f 8/1/1 9/2/1 11/3/1 7/4/1
f 21/5/2 15/6/2 14/7/2 20/8/2
f 22/9/3 16/10/3 15/11/3 21/12/3
f 9/13/4 10/14/4 12/15/4 11/16/4
f 20/8/2 19/17/2 23/18/2 21/5/2
f 21/19/4 23/20/4 24/21/4 22/22/4
f 9/2/1 8/1/1 2/23/1 3/24/1
f 10/25/3 9/26/3 3/27/3 4/28/3
f 2/23/1 1/29/1 5/30/1 3/24/1
f 20/31/5 8/32/5 7/33/5 19/34/5
f 3/35/5 5/36/5 6/37/5 4/38/5
f 14/7/2 15/6/2 17/39/2 13/40/2
f 15/41/5 16/42/5 18/43/5 17/44/5
f 19/17/2 13/40/2 17/39/2 23/18/2
f 7/4/1 11/3/1 5/30/1 1/29/1
f 8/45/6 20/46/6 14/47/6 2/48/6
f 19/49/3 7/50/3 1/51/3 13/52/3
f 14/53/4 13/54/4 1/55/4 2/56/4
