# Blender v2.79 (sub 0) OBJ File: 'door.blend'
# www.blender.org
mtllib door.mtl
o object_door_Cube.011
v 1.397167 -3.923384 -6.288801
v 1.397167 -3.923384 -1.004215
v 1.397168 7.249209 -6.288802
v 1.397167 7.249209 -1.004215
v 1.653227 7.249209 -6.288802
v 1.653228 7.249209 -1.004215
v 1.653228 -3.923384 -6.288801
v 1.653229 -3.923384 -1.004215
vt 0.450423 0.975001
vt 0.001075 0.975001
vt 0.001075 0.953228
vt 0.450423 0.953228
vt 0.450423 0.977152
vt 0.450423 0.998925
vt 0.001075 0.998925
vt 0.001075 0.977152
vt 0.450422 0.001075
vt 0.450422 0.951078
vt 0.001075 0.951078
vt 0.001075 0.001075
vt 0.927994 0.001075
vt 0.949767 0.001075
vt 0.949766 0.951089
vt 0.927994 0.951089
vt 0.452573 0.951078
vt 0.452573 0.001075
vt 0.901920 0.001075
vt 0.901920 0.951078
vt 0.904070 0.001075
vt 0.925844 0.001075
vt 0.925842 0.951089
vt 0.904070 0.951089
vn 0.0000 -1.0000 0.0000
vn 0.0000 1.0000 -0.0000
vn -1.0000 0.0000 -0.0000
vn 0.0000 -0.0000 -1.0000
vn 1.0000 0.0000 -0.0000
vn 0.0000 0.0000 1.0000
usemtl Material
s off
f 7/1/1 8/2/1 2/3/1 1/4/1
f 5/5/2 3/6/2 4/7/2 6/8/2
f 2/9/3 4/10/3 3/11/3 1/12/3
f 7/13/4 1/14/4 3/15/4 5/16/4
f 6/17/5 8/18/5 7/19/5 5/20/5
f 2/21/6 8/22/6 6/23/6 4/24/6
