# Blender v2.82 (sub 7) OBJ File: 'door_collider.blend'
# www.blender.org
mtllib doorhandle_collider.mtl
o object_doorHandle_Cylinder.000
v 1.397167 1.835036 -1.454535
v 1.397167 1.857882 -1.399380
v 1.397167 1.835036 -1.344225
v 1.397167 1.779881 -1.321379
v 1.397167 1.724727 -1.344225
v 1.397167 1.701881 -1.399380
v 1.397167 1.724727 -1.454535
v 1.397167 1.779881 -1.477381
v 1.215908 1.689252 -1.294258
v 1.102411 1.689252 -1.294258
v 1.102411 1.779882 -1.294258
v 1.215908 1.715764 -2.214076
v 1.215908 1.844000 -2.214076
v 1.102411 1.715764 -2.214076
v 1.102411 1.844000 -2.214076
v 1.102411 1.856182 -1.493975
v 1.102411 1.703582 -1.493975
v 1.215908 1.703582 -1.493975
v 1.215908 1.856182 -1.493975
v 1.102411 1.878000 -1.399380
v 1.102411 1.779882 -1.399380
v 1.102411 1.779882 -1.493975
v 1.102411 1.683324 -1.399380
v 1.215908 1.878000 -1.399380
v 1.215908 1.683324 -1.399380
v 1.215908 1.870511 -1.294258
v 1.102411 1.870511 -1.294258
v 1.215908 1.779882 -1.294258
v 1.215908 1.779882 -2.230382
v 1.102411 1.779882 -2.230382
v 1.215908 1.779882 -1.495192
v 1.653228 1.835036 -1.454535
v 1.653228 1.857882 -1.399380
v 1.653228 1.835036 -1.344225
v 1.653228 1.779881 -1.321379
v 1.653228 1.724727 -1.344225
v 1.653228 1.701881 -1.399380
v 1.653228 1.724727 -1.454535
v 1.653228 1.779881 -1.477381
v 1.834488 1.689252 -1.294258
v 1.947985 1.689252 -1.294258
v 1.947985 1.779882 -1.294258
v 1.834488 1.715764 -2.214076
v 1.834488 1.844000 -2.214076
v 1.947985 1.715764 -2.214076
v 1.947985 1.844000 -2.214076
v 1.947985 1.856182 -1.493975
v 1.947985 1.703582 -1.493975
v 1.834488 1.703582 -1.493975
v 1.834488 1.856182 -1.493975
v 1.947985 1.878000 -1.399380
v 1.947985 1.779882 -1.399380
v 1.947985 1.779882 -1.493975
v 1.947985 1.683324 -1.399380
v 1.834488 1.878000 -1.399380
v 1.834488 1.683324 -1.399380
v 1.834488 1.870511 -1.294258
v 1.947985 1.870511 -1.294258
v 1.834488 1.779882 -1.294258
v 1.834488 1.779882 -2.230382
v 1.947985 1.779882 -2.230382
v 1.834488 1.779882 -1.495192
vt 0.117265 0.472211
vt 0.127758 0.446876
vt 0.447649 0.460877
vt 0.438920 0.482172
vt 0.119519 0.420720
vt 0.440814 0.438901
vt 0.095175 0.187570
vt 0.049828 0.190520
vt 0.051105 0.159936
vt 0.096250 0.161822
vt 0.052382 0.129352
vt 0.097325 0.136074
vt 0.005026 0.130579
vt 0.000937 0.157842
vt 0.002740 0.185350
vt 0.422786 0.151799
vt 0.421799 0.175418
vt 0.420813 0.199038
vt 0.047369 0.111237
vt 0.047369 0.057025
vt 0.084556 0.057025
vt 0.084556 0.111237
vt 0.499886 0.111237
vt 0.476872 0.111237
vt 0.476872 0.057025
vt 0.499886 0.057025
vt 0.522900 0.111237
vt 0.522900 0.057025
vt 0.028504 0.111237
vt 0.000937 0.111237
vt 0.000937 0.057025
vt 0.028504 0.057025
vt 0.999062 0.111236
vt 0.971495 0.111236
vt 0.971495 0.057024
vt 0.999062 0.057024
vt 0.130764 0.111237
vt 0.130764 0.057025
vt 0.456652 0.057025
vt 0.456652 0.111237
vt 0.915379 0.057024
vt 0.915379 0.111236
vt 0.869009 0.111236
vt 0.869009 0.057024
vt 0.543120 0.111237
vt 0.543120 0.057025
vt 0.952629 0.057024
vt 0.952629 0.111236
vt 0.086483 0.492215
vt 0.114998 0.492215
vt 0.114998 0.578794
vt 0.086483 0.578794
vt 0.029452 0.492215
vt 0.057968 0.492215
vt 0.057968 0.578794
vt 0.029452 0.578794
vt 0.000937 0.492215
vt 0.000937 0.578794
vt 0.200545 0.492215
vt 0.229060 0.492215
vt 0.229060 0.578794
vt 0.200545 0.578794
vt 0.172029 0.492215
vt 0.172029 0.578794
vt 0.143514 0.492215
vt 0.143514 0.578794
vt 0.117265 0.472211
vt 0.438920 0.482172
vt 0.447649 0.460877
vt 0.127758 0.446876
vt 0.440814 0.438901
vt 0.119519 0.420720
vt 0.095175 0.187570
vt 0.096250 0.161822
vt 0.051105 0.159936
vt 0.049828 0.190520
vt 0.097325 0.136074
vt 0.052382 0.129352
vt 0.005026 0.130579
vt 0.000937 0.157842
vt 0.002740 0.185350
vt 0.421799 0.175418
vt 0.422786 0.151799
vt 0.420813 0.199038
vt 0.047369 0.111237
vt 0.084556 0.111237
vt 0.084556 0.057025
vt 0.047369 0.057025
vt 0.499886 0.111237
vt 0.499886 0.057025
vt 0.476872 0.057025
vt 0.476872 0.111237
vt 0.522900 0.111237
vt 0.522900 0.057025
vt 0.028504 0.111237
vt 0.028504 0.057025
vt 0.000937 0.057025
vt 0.000937 0.111237
vt 0.999062 0.111236
vt 0.999062 0.057024
vt 0.971495 0.057024
vt 0.971495 0.111236
vt 0.130764 0.111237
vt 0.456652 0.111237
vt 0.456652 0.057025
vt 0.130764 0.057025
vt 0.915379 0.057024
vt 0.869009 0.057024
vt 0.869009 0.111236
vt 0.915379 0.111236
vt 0.543120 0.057025
vt 0.543120 0.111237
vt 0.952629 0.057024
vt 0.952629 0.111236
vt 0.086483 0.492215
vt 0.086483 0.578794
vt 0.114998 0.578794
vt 0.114998 0.492215
vt 0.029452 0.492215
vt 0.029452 0.578794
vt 0.057968 0.578794
vt 0.057968 0.492215
vt 0.000937 0.492215
vt 0.000937 0.578794
vt 0.200545 0.492215
vt 0.200545 0.578794
vt 0.229060 0.578794
vt 0.229060 0.492215
vt 0.172029 0.492215
vt 0.172029 0.578794
vt 0.143514 0.492215
vt 0.143514 0.578794
vn 1.0000 0.0000 0.0000
vn -1.0000 0.0000 0.0000
vn 0.0000 -0.9984 0.0563
vn -0.0000 -0.2465 -0.9691
vn 0.0000 0.2465 -0.9691
vn 0.0000 0.0000 1.0000
vn 0.0000 -0.9999 -0.0169
vn 0.0000 -0.9778 -0.2094
vn 0.0000 0.9744 -0.2247
vn 0.0000 0.9999 -0.0169
vn 0.0000 0.9975 0.0711
vn 0.1636 -0.1776 -0.9704
vn 0.1686 -0.9702 0.1742
vn 0.2197 -0.1510 0.9638
vn 0.2197 0.1510 0.9638
vn 0.1736 0.9676 0.1831
vn 0.1388 0.9490 -0.2830
vn 0.1341 -0.9523 -0.2741
vn 0.1636 0.1776 -0.9704
vn -0.1636 -0.1776 -0.9704
vn -0.1686 -0.9702 0.1742
vn -0.2197 -0.1510 0.9638
vn -0.2197 0.1510 0.9638
vn -0.1736 0.9676 0.1831
vn -0.1388 0.9490 -0.2830
vn -0.1341 -0.9523 -0.2741
vn -0.1636 0.1776 -0.9704
usemtl None
s off
f 19/1/1 31/2/1 29/3/1 13/4/1
f 31/2/1 18/5/1 12/6/1 29/3/1
f 17/7/2 23/8/2 21/9/2 22/10/2
f 22/10/2 21/9/2 20/11/2 16/12/2
f 27/13/2 20/11/2 21/9/2 11/14/2
f 11/14/2 21/9/2 23/8/2 10/15/2
f 22/10/2 16/12/2 15/16/2 30/17/2
f 17/7/2 22/10/2 30/17/2 14/18/2
f 9/19/3 10/20/3 23/21/3 25/22/3
f 29/23/4 12/24/4 14/25/4 30/26/4
f 13/27/5 29/23/5 30/26/5 15/28/5
f 9/29/6 28/30/6 11/31/6 10/32/6
f 28/33/6 26/34/6 27/35/6 11/36/6
f 18/37/7 17/38/7 14/39/7 12/40/7
f 25/22/8 23/21/8 17/38/8 18/37/8
f 20/41/9 24/42/9 19/43/9 16/44/9
f 16/44/10 19/43/10 13/45/10 15/46/10
f 27/47/11 26/48/11 24/42/11 20/41/11
f 18/49/12 31/50/12 8/51/12 7/52/12
f 9/53/13 25/54/13 6/55/13 5/56/13
f 28/57/14 9/53/14 5/56/14 4/58/14
f 26/59/15 28/60/15 4/61/15 3/62/15
f 24/63/16 26/59/16 3/62/16 2/64/16
f 19/65/17 24/63/17 2/64/17 1/66/17
f 25/54/18 18/49/18 7/52/18 6/55/18
f 31/50/19 19/65/19 1/66/19 8/51/19
f 50/67/2 44/68/2 60/69/2 62/70/2
f 62/70/2 60/69/2 43/71/2 49/72/2
f 48/73/1 53/74/1 52/75/1 54/76/1
f 53/74/1 47/77/1 51/78/1 52/75/1
f 58/79/1 42/80/1 52/75/1 51/78/1
f 42/80/1 41/81/1 54/76/1 52/75/1
f 53/74/1 61/82/1 46/83/1 47/77/1
f 48/73/1 45/84/1 61/82/1 53/74/1
f 40/85/3 56/86/3 54/87/3 41/88/3
f 60/89/4 61/90/4 45/91/4 43/92/4
f 44/93/5 46/94/5 61/90/5 60/89/5
f 40/95/6 41/96/6 42/97/6 59/98/6
f 59/99/6 42/100/6 58/101/6 57/102/6
f 49/103/7 43/104/7 45/105/7 48/106/7
f 56/86/8 49/103/8 48/106/8 54/87/8
f 51/107/9 47/108/9 50/109/9 55/110/9
f 47/108/10 46/111/10 44/112/10 50/109/10
f 58/113/11 51/107/11 55/110/11 57/114/11
f 49/115/20 38/116/20 39/117/20 62/118/20
f 40/119/21 36/120/21 37/121/21 56/122/21
f 59/123/22 35/124/22 36/120/22 40/119/22
f 57/125/23 34/126/23 35/127/23 59/128/23
f 55/129/24 33/130/24 34/126/24 57/125/24
f 50/131/25 32/132/25 33/130/25 55/129/25
f 56/122/26 37/121/26 38/116/26 49/115/26
f 62/118/27 39/117/27 32/132/27 50/131/27
