# Blender v2.79 (sub 0) OBJ File: 'wall_curve.blend'
# www.blender.org
mtllib wall_curve.mtl
o object_static_sewerMaintenanceWallCurve_Cube.001
v -5.550075 7.796732 10.161506
v -5.550090 -4.186944 10.161498
v -5.350091 7.796733 -17.938490
v -5.550092 -4.186944 -17.938498
v -5.550077 7.796733 -17.938490
v -5.350091 -4.186944 -17.938498
v -5.350091 -5.343044 -17.938498
v -5.350091 8.952835 -17.938490
v 14.209725 -4.186944 -9.598310
v 14.409728 -4.186944 -17.938499
v 14.209727 7.796733 -17.938492
v 14.409726 -4.186944 -9.798317
v 14.409711 7.796732 -9.798309
v 14.209725 -5.343045 -9.598310
v 14.409713 7.796733 -17.938492
v 14.209725 7.796732 -9.598303
v 14.209727 -4.186944 -17.938499
v 14.209727 -5.343044 -17.938499
v 14.209727 8.952835 -17.938492
v 14.209725 8.952835 -9.598303
v 16.349926 -5.343045 -9.598315
v 16.349926 -4.186944 -9.598315
v 16.349934 7.796731 -9.798301
v 16.349926 -4.186944 -9.798316
v 16.349934 7.796731 -9.598315
v 16.349934 8.952833 -9.598315
v -5.350089 -5.343045 9.961491
v -5.350089 -4.186944 9.961491
v -5.350104 7.796732 9.961483
v -5.350104 8.952835 9.961483
v 16.349922 -5.343045 9.961495
v 16.349922 -4.186944 9.961495
v 16.349930 7.796731 10.161481
v 16.349922 -4.186944 10.161496
v 16.349930 7.796731 9.961495
v 16.349930 8.952833 9.961495
vt 0.842057 0.885705
vt 0.001398 0.885707
vt 0.001398 0.850872
vt 0.842056 0.850872
vt 0.904062 0.760976
vt 0.365274 0.760976
vt 0.365371 0.751574
vt 0.907997 0.751574
vt 0.001398 0.848075
vt 0.001399 0.001398
vt 0.362477 0.001399
vt 0.362477 0.848075
vt 0.842049 0.923338
vt 0.001398 0.923338
vt 0.001398 0.888504
vt 0.842049 0.888504
vt 0.910686 0.748777
vt 0.365342 0.748678
vt 0.365274 0.739324
vt 0.901235 0.739325
vt 0.616571 0.701693
vt 0.616571 0.736527
vt 0.365274 0.736527
vt 0.365274 0.701693
vt 0.683851 0.785987
vt 0.677825 0.792013
vt 0.432557 0.792014
vt 0.432557 0.785987
vt 0.974420 0.001398
vt 0.974420 0.362477
vt 0.729149 0.362477
vt 0.729149 0.001398
vt 0.616571 0.664062
vt 0.616571 0.698896
vt 0.365274 0.698896
vt 0.365274 0.664062
vt 0.677820 0.794811
vt 0.683846 0.800837
vt 0.432557 0.800837
vt 0.432557 0.794810
vt 0.429760 0.785987
vt 0.429760 0.820821
vt 0.365274 0.820822
vt 0.365274 0.785987
vt 0.683854 0.664062
vt 0.683854 0.670088
vt 0.625394 0.670088
vt 0.619368 0.664062
vt 0.787610 0.365274
vt 0.787610 0.726352
vt 0.729149 0.726352
vt 0.729150 0.365274
vt 0.683866 0.701693
vt 0.683854 0.736527
vt 0.619368 0.736505
vt 0.619380 0.701671
vt 0.683854 0.672885
vt 0.683854 0.678911
vt 0.619368 0.678911
vt 0.625394 0.672885
vt 0.655236 0.998602
vt 0.001398 0.998601
vt 0.001398 0.963767
vt 0.655236 0.963767
vt 0.846790 0.772101
vt 0.373599 0.772101
vt 0.365274 0.763773
vt 0.846738 0.763842
vt 0.365274 0.661265
vt 0.365274 0.001398
vt 0.726352 0.001399
vt 0.726352 0.661265
vt 0.655237 0.960970
vt 0.001398 0.960970
vt 0.001398 0.926135
vt 0.655237 0.926136
vt 0.844796 0.783190
vt 0.365274 0.783190
vt 0.369706 0.774898
vt 0.844864 0.774898
vn 1.0000 0.0000 -0.0000
vn 0.0000 1.0000 0.0000
vn -0.0000 -1.0000 -0.0000
vn -1.0000 0.0000 -0.0000
vn 0.0000 0.0000 1.0000
vn 0.0000 0.0000 -1.0000
usemtl Material.002
s off
f 27/1/1 7/2/1 6/3/1 28/4/1
f 28/5/2 6/6/2 4/7/2 2/8/2
f 2/9/1 4/10/1 5/11/1 1/12/1
f 29/13/1 3/14/1 8/15/1 30/16/1
f 1/17/3 5/18/3 3/19/3 29/20/3
f 14/21/4 9/22/4 17/23/4 18/24/4
f 9/25/2 12/26/2 10/27/2 17/28/2
f 12/29/4 13/30/4 15/31/4 10/32/4
f 16/33/4 20/34/4 19/35/4 11/36/4
f 13/37/3 16/38/3 11/39/3 15/40/3
f 21/41/5 22/42/5 9/43/5 14/44/5
f 22/45/2 24/46/2 12/47/2 9/48/2
f 24/49/5 23/50/5 13/51/5 12/52/5
f 25/53/5 26/54/5 20/55/5 16/56/5
f 23/57/3 25/58/3 16/59/3 13/60/3
f 31/61/6 27/62/6 28/63/6 32/64/6
f 32/65/2 28/66/2 2/67/2 34/68/2
f 34/69/6 2/70/6 1/71/6 33/72/6
f 35/73/6 29/74/6 30/75/6 36/76/6
f 33/77/3 1/78/3 29/79/3 35/80/3
