# Blender v2.79 (sub 0) OBJ File: 'wall.blend'
# www.blender.org
mtllib wall.mtl
o object_static_sewerBigTunnelFloor_Cube.000
v -0.460220 -4.264203 19.825325
v -0.460220 -3.108102 19.825325
v -0.660205 8.875574 19.825333
v -0.660220 -3.108102 19.825325
v -0.460223 8.875575 -17.374664
v -0.660224 -3.108101 -17.374672
v -0.660208 8.875575 -17.374664
v -0.460220 8.875574 19.825333
v -0.460223 -3.108101 -17.374672
v -0.460223 -4.264202 -17.374672
v -0.460223 10.031677 -17.374664
v -0.460220 10.031677 19.825333
vt 0.999042 0.388352
vt 0.000958 0.388353
vt 0.000958 0.357334
vt 0.999042 0.357334
vt 0.554996 0.399937
vt 0.001035 0.399939
vt 0.000958 0.390271
vt 0.554920 0.390269
vt 0.999040 0.322482
vt 0.000958 0.322482
vt 0.000958 0.000958
vt 0.999040 0.000958
vt 0.999042 0.355417
vt 0.000958 0.355417
vt 0.000958 0.324399
vt 0.999042 0.324399
vt 0.554975 0.411525
vt 0.001035 0.411523
vt 0.000958 0.401855
vt 0.554899 0.401857
vn 1.0000 0.0000 -0.0000
vn 0.0000 1.0000 0.0000
vn 0.0000 -1.0000 -0.0000
usemtl Material
s off
f 1/1/1 10/2/1 9/3/1 2/4/1
f 2/5/2 9/6/2 6/7/2 4/8/2
f 4/9/1 6/10/1 7/11/1 3/12/1
f 8/13/1 5/14/1 11/15/1 12/16/1
f 3/17/3 7/18/3 5/19/3 8/20/3
