# Blender v2.79 (sub 0) OBJ File: 'wall_end.blend'
# www.blender.org
mtllib wall_end.mtl
o object_static_sewerBigTunnelFloor_Cube.000
v -10.709296 -4.264203 7.781129
v -10.709296 -3.108102 7.781129
v -10.709298 8.875575 -10.816513
v -10.909299 -3.108101 -10.816521
v -10.909284 8.875575 -10.816513
v -10.709296 8.875574 7.781137
v -10.709298 -3.108101 -10.816521
v -10.709298 -4.264202 -10.816521
v -10.709298 10.031677 -10.816513
v -10.709296 10.031677 7.781137
v 8.850513 -4.264203 -10.816521
v 8.850513 -3.108102 -10.816521
v 9.050499 8.875574 -10.816528
v 9.050514 -3.108102 -10.816521
v 8.850513 8.875576 7.781119
v 8.850513 8.875574 -10.816528
v 8.850513 -3.108101 7.781127
v 8.850513 -4.264202 7.781127
v 8.850513 10.031677 7.781119
v 8.850513 10.031677 -10.816528
v 9.050522 8.875574 7.981113
v 9.050514 -3.108102 7.981129
v -10.909297 -3.108101 7.981128
v -10.909289 8.875575 7.981112
v 1.832271 -3.108101 7.981129
v 1.832271 -4.264202 7.781128
v 1.832271 -3.108102 7.781128
v -4.052314 -3.108101 7.981129
v -4.052314 -4.264202 7.781129
v -4.052314 -3.108102 7.781129
v 1.832275 7.329210 7.981121
v -4.052310 7.329210 7.981121
vt 0.547186 0.482552
vt 0.012319 0.482552
vt 0.012319 0.449302
vt 0.547186 0.449302
vt 0.589518 0.929840
vt 0.589519 0.395010
vt 0.595273 0.395010
vt 0.595269 0.935591
vt 0.547187 0.444269
vt 0.012319 0.444268
vt 0.012319 0.411019
vt 0.547187 0.411019
vt 0.000760 0.559018
vt 0.000761 0.018311
vt 0.006513 0.018311
vt 0.006512 0.553266
vt 0.010642 0.494505
vt 0.545509 0.494505
vt 0.545509 0.527755
vt 0.010642 0.527755
vt 0.042689 0.918342
vt 0.577505 0.918341
vt 0.583257 0.924093
vt 0.042689 0.924096
vt 0.012319 0.372736
vt 0.547187 0.372736
vt 0.547187 0.405985
vt 0.012319 0.405986
vt 0.569136 0.018562
vt 0.569137 0.559018
vt 0.563387 0.553268
vt 0.563383 0.018562
vt 0.996714 0.623331
vt 0.805259 0.623331
vt 0.805259 0.590081
vt 0.996714 0.590081
vt 0.398084 0.929839
vt 0.398084 0.935591
vt 0.577505 0.722260
vt 0.583256 0.722260
vt 0.800226 0.623331
vt 0.604133 0.623331
vt 0.604133 0.590081
vt 0.800226 0.590081
vt 0.987660 0.020832
vt 0.987660 0.577623
vt 0.954411 0.577623
vt 0.954411 0.020832
vt 0.367208 0.608525
vt 0.197967 0.608525
vt 0.000760 0.564052
vt 0.569053 0.564051
vt 0.569053 0.908703
vt 0.367208 0.908703
vt 0.197967 0.908703
vt 0.000760 0.908703
vt 0.014996 0.019382
vt 0.555618 0.019382
vt 0.555617 0.364033
vt 0.014996 0.364033
vt 0.949377 0.037001
vt 0.949377 0.577623
vt 0.604726 0.577623
vt 0.604726 0.037001
vn 1.0000 0.0000 -0.0000
vn 0.0000 1.0000 0.0000
vn -0.0000 -1.0000 -0.0000
vn -1.0000 0.0000 0.0000
vn 0.0000 0.0000 -1.0000
usemtl Material
s off
f 1/1/1 8/2/1 7/3/1 2/4/1
f 2/5/2 7/6/2 4/7/2 23/8/2
f 6/9/1 3/10/1 9/11/1 10/12/1
f 24/13/3 5/14/3 3/15/3 6/16/3
f 11/17/4 18/18/4 17/19/4 12/20/4
f 12/21/2 17/22/2 22/23/2 14/24/2
f 16/25/4 15/26/4 19/27/4 20/28/4
f 13/29/3 21/30/3 15/31/3 16/32/3
f 29/33/5 1/34/5 2/35/5 30/36/5
f 30/37/2 2/5/2 23/8/2 28/38/2
f 17/22/2 27/39/2 25/40/2 22/23/2
f 18/41/5 26/42/5 27/43/5 17/44/5
f 21/30/3 24/13/3 6/16/3 15/31/3
f 15/45/5 6/46/5 10/47/5 19/48/5
f 31/49/5 32/50/5 24/51/5 21/52/5
f 22/53/5 25/54/5 31/49/5 21/52/5
f 28/55/5 23/56/5 24/51/5 32/50/5
f 14/57/4 22/58/4 21/59/4 13/60/4
f 23/61/1 4/62/1 5/63/1 24/64/1
