# Blender v2.79 (sub 0) OBJ File: 'wall_end_small.blend'
# www.blender.org
mtllib wall_end_small.mtl
o object_static_sewerMaintenanceWallIntersec_Cube.001
v 1.468040 -5.343045 -7.984593
v 1.468040 -4.186944 -7.984593
v 1.468055 7.796732 -8.184592
v 1.468040 -4.186944 -8.184600
v 1.468040 7.796732 -7.984586
v 1.468040 8.952835 -7.984586
v -4.621466 -5.343045 -7.984598
v -4.621466 -4.186944 -7.984598
v -4.621474 7.796731 -7.984598
v -4.621474 8.952833 -7.984598
v -4.621475 8.952833 4.415411
v -4.621475 7.796731 4.415411
v -4.821467 -4.186944 4.615411
v -4.821475 7.796731 4.615396
v -4.621467 -4.186944 4.415411
v -4.621467 -5.343045 4.415411
v 1.468039 8.952835 4.415399
v 1.468039 7.796732 4.415399
v 1.468039 -4.186944 4.415406
v 1.468039 -5.343045 4.415406
v 1.468054 7.796732 4.615405
v 1.468039 -4.186944 4.615413
v -4.821465 -4.186944 -8.184599
v -4.821450 7.796731 -8.184607
v -4.821466 -4.186944 1.190867
v -4.621467 -5.343045 1.190868
v -4.621467 -4.186944 1.190868
v -4.821466 -4.186944 -4.693719
v -4.621467 -5.343045 -4.693718
v -4.621467 -4.186944 -4.693718
v -4.821464 6.250368 1.190861
v -4.821464 6.250368 -4.693725
vt 0.584626 0.797660
vt 0.880464 0.797660
vt 0.880464 0.853826
vt 0.584626 0.853826
vt 0.594343 0.584628
vt 0.890171 0.584626
vt 0.890171 0.594344
vt 0.584627 0.594344
vt 0.584626 0.739869
vt 0.880465 0.739869
vt 0.880465 0.796034
vt 0.584626 0.796034
vt 0.584627 0.607313
vt 0.890182 0.607313
vt 0.890181 0.617030
vt 0.594342 0.617030
vt 0.584626 0.680451
vt 0.584626 0.624286
vt 0.880465 0.624285
vt 0.880465 0.680451
vt 0.584627 0.605687
vt 0.594343 0.595971
vt 0.890177 0.595970
vt 0.890178 0.605687
vt 0.584626 0.738243
vt 0.584626 0.682077
vt 0.880464 0.682077
vt 0.880464 0.738243
vt 0.594343 0.922960
vt 0.584626 0.913243
vt 0.890185 0.913243
vt 0.890185 0.922959
vt 0.746129 0.911617
vt 0.746129 0.855452
vt 0.902782 0.855452
vt 0.902782 0.911617
vt 0.776089 0.941183
vt 0.776089 0.931467
vt 0.942459 0.931467
vt 0.932743 0.941183
vt 0.075938 0.453066
vt 0.000813 0.622659
vt 0.000813 0.000814
vt 0.075938 0.167183
vt 0.000813 0.999187
vt 0.010529 0.989473
vt 0.612872 0.989466
vt 0.622591 0.999186
vt 0.000813 0.987632
vt 0.000832 0.931467
vt 0.603243 0.931674
vt 0.603224 0.987840
vt 0.584626 0.911617
vt 0.584626 0.855452
vt 0.744502 0.855452
vt 0.744502 0.911617
vt 0.614585 0.941183
vt 0.604869 0.931467
vt 0.774463 0.931467
vt 0.774463 0.941183
vt 0.582999 0.622659
vt 0.582999 0.453066
vt 0.583000 0.167183
vt 0.583001 0.000813
vt 0.000813 0.624286
vt 0.583000 0.624285
vt 0.583000 0.929841
vt 0.000813 0.929840
vt 0.584627 0.000813
vt 0.890181 0.000813
vt 0.890181 0.583000
vt 0.584627 0.583000
vn -0.0000 0.0000 1.0000
vn 0.0000 1.0000 -0.0000
vn 0.0000 -1.0000 0.0000
vn -0.0000 0.0000 -1.0000
vn 1.0000 0.0000 0.0000
usemtl Material.002
s off
f 7/1/1 1/2/1 2/3/1 8/4/1
f 8/5/2 2/6/2 4/7/2 23/8/2
f 9/9/1 5/10/1 6/11/1 10/12/1
f 24/13/3 3/14/3 5/15/3 9/16/3
f 12/17/4 11/18/4 17/19/4 18/20/4
f 14/21/3 12/22/3 18/23/3 21/24/3
f 16/25/4 15/26/4 19/27/4 20/28/4
f 15/29/2 13/30/2 22/31/2 19/32/2
f 26/33/5 27/34/5 15/35/5 16/36/5
f 27/37/2 25/38/2 13/39/2 15/40/2
f 32/41/5 24/42/5 14/43/5 31/44/5
f 24/45/3 9/46/3 12/47/3 14/48/3
f 9/49/5 10/50/5 11/51/5 12/52/5
f 7/53/5 8/54/5 30/55/5 29/56/5
f 8/57/2 23/58/2 28/59/2 30/60/2
f 23/61/5 24/42/5 32/41/5 28/62/5
f 25/63/5 31/44/5 14/43/5 13/64/5
f 13/65/4 14/66/4 21/67/4 22/68/4
f 23/69/1 4/70/1 3/71/1 24/72/1
