# Blender v2.79 (sub 0) OBJ File: 'floor_stairs.blend'
# www.blender.org
mtllib wall_stairs1.mtl
o object_static_sewerBigTunnelWallLeft_Cube.006
v -5.913721 13.281759 -20.384590
v -6.113721 1.298082 -20.384598
v -6.113706 13.281759 -20.384590
v -5.913721 1.298082 -20.384598
v -5.913721 0.141982 -20.384598
v -5.913721 14.437861 -20.384590
v 8.466286 0.141981 -1.784601
v 8.466286 1.298081 -1.784601
v 8.466274 13.281757 -1.584615
v 8.466286 1.298081 -1.584600
v -5.913710 13.281758 -1.784598
v -6.113718 1.298082 -1.584597
v -6.113710 13.281758 -1.584612
v 8.466274 13.281757 -1.784601
v -5.913717 1.298082 -1.784598
v -5.913717 0.141982 -1.784598
v -5.913710 14.437860 -1.784598
v 8.466274 14.437860 -1.784601
v 47.568462 -19.858019 -1.784601
v 47.568462 -18.701920 -1.784601
v 47.568470 -6.718243 -1.584615
v 47.568462 -18.701920 -1.584600
v 47.568470 -6.718243 -1.784601
v 47.568470 -5.562140 -1.784601
v 48.466286 -6.718243 -1.784601
v 48.466286 -5.562140 -1.784601
v 48.266285 -18.701920 -1.584600
v 48.266300 -6.718243 -1.584593
v 48.466286 -18.701920 -1.784601
v 48.466286 -19.858019 -1.784601
v 48.466286 -19.858019 4.415400
v 48.466286 -18.701920 4.415400
v 48.266300 -6.718243 4.415407
v 48.266285 -18.701920 4.415400
v 48.466286 -6.718243 4.415407
v 48.466286 -5.562141 4.415407
v 8.466286 -0.858019 -1.784598
v 46.466286 -19.858019 -1.784598
vt 0.619812 0.521286
vt 0.243304 0.521285
vt 0.243304 0.497883
vt 0.619812 0.497883
vt 0.595966 0.663115
vt 0.300433 0.663115
vt 0.300468 0.657957
vt 0.599172 0.657957
vt 0.380800 0.459273
vt 0.000242 0.459273
vt 0.000242 0.216694
vt 0.380800 0.216694
vt 0.619815 0.545172
vt 0.243304 0.545172
vt 0.243304 0.521769
vt 0.619815 0.521770
vt 0.299950 0.663132
vt 0.000269 0.663098
vt 0.000242 0.657958
vt 0.294776 0.657957
vt 0.534391 0.592943
vt 0.243304 0.592943
vt 0.243304 0.569541
vt 0.534391 0.569541
vt 0.564361 0.668141
vt 0.304976 0.668141
vt 0.300433 0.663598
vt 0.564347 0.663614
vt 0.676419 0.459273
vt 0.381284 0.459273
vt 0.381284 0.216694
vt 0.676419 0.216694
vt 0.534390 0.569058
vt 0.243304 0.569058
vt 0.243304 0.545655
vt 0.534390 0.545655
vt 0.263688 0.668151
vt 0.000242 0.668151
vt 0.003870 0.663616
vt 0.263704 0.663616
vt 0.000242 0.657474
vt 0.000344 0.649549
vt 0.454496 0.649549
vt 0.454394 0.657474
vt 0.010471 0.692455
vt 0.000193 0.672327
vt 0.858771 0.672893
vt 0.869048 0.693017
vt 0.000242 0.649065
vt 0.000344 0.641140
vt 0.454513 0.641140
vt 0.454411 0.649065
vt 0.010899 0.640657
vt 0.000242 0.619821
vt 0.889310 0.619823
vt 0.899966 0.640657
vt 0.110706 0.216210
vt 0.000242 0.000242
vt 0.889295 0.000242
vt 0.999758 0.216210
vt 0.553530 0.568361
vt 0.553530 0.564313
vt 0.567656 0.564312
vt 0.571704 0.568361
vt 0.558759 0.545655
vt 0.582161 0.545655
vt 0.582161 0.563829
vt 0.558759 0.563829
vt 0.883646 0.254820
vt 0.883646 0.497400
vt 0.869520 0.497400
vt 0.869520 0.254820
vt 0.534873 0.568361
vt 0.534873 0.564312
vt 0.553047 0.564312
vt 0.548999 0.568361
vt 0.534873 0.545655
vt 0.558275 0.545655
vt 0.558275 0.563829
vt 0.534873 0.563829
vt 0.495278 0.597475
vt 0.499326 0.593427
vt 0.620781 0.593427
vt 0.620781 0.597475
vt 0.243304 0.616829
vt 0.243304 0.593427
vt 0.368808 0.593427
vt 0.368808 0.616829
vt 0.000242 0.497883
vt 0.242821 0.497883
vt 0.242821 0.619338
vt 0.000242 0.619338
vt 0.499326 0.602007
vt 0.495278 0.597959
vt 0.620781 0.597958
vt 0.620781 0.602007
vt 0.369291 0.616829
vt 0.369291 0.593427
vt 0.494794 0.593427
vt 0.494794 0.616829
vt 0.849777 0.707655
vt 0.019262 0.709919
vn 1.0000 0.0000 -0.0000
vn 0.0000 1.0000 -0.0000
vn -0.0000 -1.0000 -0.0000
vn -0.0000 0.0000 -1.0000
vn -0.4554 -0.8903 0.0000
vn 0.4554 0.8903 0.0000
usemtl Material.004
s off
f 16/1/1 5/2/1 4/3/1 15/4/1
f 15/5/2 4/6/2 2/7/2 12/8/2
f 12/9/1 2/10/1 3/11/1 13/12/1
f 11/13/1 1/14/1 6/15/1 17/16/1
f 13/17/3 3/18/3 1/19/3 11/20/3
f 7/21/4 16/22/4 15/23/4 8/24/4
f 8/25/2 15/26/2 12/27/2 10/28/2
f 10/29/4 12/30/4 13/31/4 9/32/4
f 14/33/4 11/34/4 17/35/4 18/36/4
f 9/37/3 13/38/3 11/39/3 14/40/3
f 9/41/5 14/42/5 23/43/5 21/44/5
f 7/45/4 8/46/4 20/47/4 19/48/4
f 8/49/6 10/50/6 22/51/6 20/52/6
f 14/53/4 18/54/4 24/55/4 23/56/4
f 10/57/4 9/58/4 21/59/4 22/60/4
f 20/61/2 22/62/2 27/63/2 29/64/2
f 23/65/4 24/66/4 26/67/4 25/68/4
f 22/69/4 21/70/4 28/71/4 27/72/4
f 21/73/3 23/74/3 25/75/3 28/76/3
f 19/77/4 20/78/4 29/79/4 30/80/4
f 29/81/2 27/82/2 34/83/2 32/84/2
f 25/85/1 26/86/1 36/87/1 35/88/1
f 27/89/1 28/90/1 33/91/1 34/92/1
f 28/93/3 25/94/3 35/95/3 33/96/3
f 30/97/1 29/98/1 32/99/1 31/100/1
f 7/45/4 19/48/4 38/101/4 37/102/4
