# Blender v2.79 (sub 0) OBJ File: 'wall_intersec.blend'
# www.blender.org
mtllib wall_intersec.mtl
o object_static_sewerMaintenanceWallIntersec_Cube.001
v -5.350089 -5.343045 -9.598310
v -5.350089 -4.186944 -9.598310
v -5.550075 7.796732 -9.798309
v -5.550090 -4.186944 -9.798317
v -5.350091 7.796733 -17.938490
v -5.550092 -4.186944 -17.938498
v -5.550077 7.796733 -17.938490
v -5.350089 7.796732 -9.598303
v -5.350091 -4.186944 -17.938498
v -5.350091 -5.343044 -17.938498
v -5.350091 8.952835 -17.938490
v -5.350089 8.952835 -9.598303
v -14.650087 -5.343045 -9.598315
v -14.650087 -4.186944 -9.598315
v -14.650095 7.796731 -9.798301
v -14.650087 -4.186944 -9.798316
v 14.209725 -4.186944 -9.598310
v 14.409728 -4.186944 -17.938499
v 14.209727 7.796733 -17.938492
v -14.650095 7.796731 -9.598315
v 14.409726 -4.186944 -9.798317
v 14.409711 7.796732 -9.798309
v 14.209725 -5.343045 -9.598310
v -14.650095 8.952833 -9.598315
v 14.409713 7.796733 -17.938492
v 14.209725 7.796732 -9.598303
v 14.209727 -4.186944 -17.938499
v 14.209727 -5.343044 -17.938499
v 14.209727 8.952835 -17.938492
v 14.209725 8.952835 -9.598303
v 16.349926 -5.343045 -9.598315
v 16.349926 -4.186944 -9.598315
v 16.349934 7.796731 -9.798301
v 16.349926 -4.186944 -9.798316
v 16.349934 7.796731 -9.598315
v 16.349934 8.952833 -9.598315
v -14.650087 -5.343045 9.961491
v -14.650087 -4.186944 9.961491
v -14.650103 7.796732 10.161490
v -14.650087 -4.186944 10.161498
v -14.650103 7.796732 9.961483
v -14.650103 8.952835 9.961483
v 16.349922 -5.343045 9.961495
v 16.349922 -4.186944 9.961495
v 16.349930 7.796731 10.161481
v 16.349922 -4.186944 10.161496
v 16.349930 7.796731 9.961495
v 16.349930 8.952833 9.961495
vt 0.994691 0.432483
vt 0.762415 0.432483
vt 0.762415 0.400285
vt 0.994691 0.400285
vt 0.259311 0.669027
vt 0.259310 0.901298
vt 0.253740 0.901298
vt 0.253740 0.674597
vt 0.253744 0.334667
vt 0.480450 0.334666
vt 0.480450 0.668415
vt 0.253744 0.668415
vt 0.994691 0.399674
vt 0.762415 0.399674
vt 0.762415 0.367476
vt 0.994691 0.367476
vt 0.734505 0.895713
vt 0.734505 0.669027
vt 0.740074 0.669027
vt 0.740075 0.901284
vt 0.740686 0.822268
vt 0.999694 0.822268
vt 0.999694 0.854466
vt 0.740686 0.854466
vt 0.000306 0.669027
vt 0.000306 0.674597
vt 0.000306 0.334666
vt 0.000306 0.668415
vt 0.740686 0.789459
vt 0.999694 0.789459
vt 0.999694 0.821657
vt 0.740686 0.821657
vt 0.481061 0.895713
vt 0.481061 0.901283
vt 0.972963 0.855078
vt 0.972963 0.887275
vt 0.740686 0.887275
vt 0.740686 0.855078
vt 0.972960 0.669027
vt 0.967390 0.674597
vt 0.740686 0.674598
vt 0.740686 0.669027
vt 0.707769 0.334667
vt 0.707768 0.668416
vt 0.481061 0.668415
vt 0.481062 0.334666
vt 0.994691 0.334666
vt 0.994691 0.366864
vt 0.762415 0.366864
vt 0.762415 0.334667
vt 0.967387 0.783278
vt 0.972957 0.788848
vt 0.740686 0.788847
vt 0.740686 0.783277
vt 0.379755 0.669027
vt 0.379755 0.701224
vt 0.320150 0.701224
vt 0.320150 0.669027
vt 0.972960 0.728632
vt 0.967390 0.728632
vt 0.761804 0.334667
vt 0.761803 0.668416
vt 0.319538 0.669047
vt 0.319527 0.701245
vt 0.259922 0.701224
vt 0.259933 0.669027
vt 0.967388 0.729244
vt 0.972957 0.729244
vt 0.863672 0.966917
vt 0.000306 0.966917
vt 0.000306 0.934720
vt 0.863672 0.934720
vt 0.525300 0.976690
vt 0.000375 0.976692
vt 0.000306 0.967531
vt 0.525231 0.967529
vt 0.863665 0.334054
vt 0.000306 0.334055
vt 0.000306 0.000306
vt 0.863665 0.000306
vt 0.863681 0.934108
vt 0.000306 0.934108
vt 0.000306 0.901910
vt 0.863681 0.901912
vt 0.525290 0.986467
vt 0.000375 0.986465
vt 0.000306 0.977304
vt 0.525221 0.977305
vn 1.0000 0.0000 -0.0000
vn -0.0000 1.0000 0.0000
vn 0.0000 -1.0000 -0.0000
vn -0.0000 0.0000 1.0000
vn -1.0000 0.0000 -0.0000
vn 0.0000 0.0000 -1.0000
usemtl Material.002
s off
f 1/1/1 10/2/1 9/3/1 2/4/1
f 2/5/2 9/6/2 6/7/2 4/8/2
f 4/9/1 6/10/1 7/11/1 3/12/1
f 8/13/1 5/14/1 11/15/1 12/16/1
f 3/17/3 7/18/3 5/19/3 8/20/3
f 13/21/4 1/22/4 2/23/4 14/24/4
f 14/25/2 2/5/2 4/8/2 16/26/2
f 16/27/4 4/9/4 3/12/4 15/28/4
f 20/29/4 8/30/4 12/31/4 24/32/4
f 15/33/3 3/17/3 8/20/3 20/34/3
f 23/35/5 17/36/5 27/37/5 28/38/5
f 17/39/2 21/40/2 18/41/2 27/42/2
f 21/43/5 22/44/5 25/45/5 18/46/5
f 26/47/5 30/48/5 29/49/5 19/50/5
f 22/51/3 26/52/3 19/53/3 25/54/3
f 31/55/4 32/56/4 17/57/4 23/58/4
f 32/59/2 34/60/2 21/40/2 17/39/2
f 34/61/4 33/62/4 22/44/4 21/43/4
f 35/63/4 36/64/4 30/65/4 26/66/4
f 33/67/3 35/68/3 26/52/3 22/51/3
f 43/69/6 37/70/6 38/71/6 44/72/6
f 44/73/2 38/74/2 40/75/2 46/76/2
f 46/77/6 40/78/6 39/79/6 45/80/6
f 47/81/6 41/82/6 42/83/6 48/84/6
f 45/85/3 39/86/3 41/87/3 47/88/3
