# Blender v2.79 (sub 0) OBJ File: 'cables.blend'
# www.blender.org
mtllib cable_long.mtl
o object_static_cableLong_Cube.826
v -0.070414 1.089231 -8.704315
v 0.044152 1.089231 -8.704315
v 0.044153 1.089231 8.181056
v -0.070413 1.089231 8.181056
v -0.070414 1.203797 -8.704315
v 0.044152 1.203797 -8.704315
v 0.044153 1.203797 8.181056
v -0.070413 1.203797 8.181056
v 0.044152 0.064764 -0.487842
v 0.044152 -0.049802 -0.487841
v -0.070414 0.064764 -0.487841
v -0.070414 -0.049802 -0.487842
v 0.044152 0.050721 -2.951261
v 0.044152 0.611607 -7.038105
v -0.070414 0.165287 -2.951261
v -0.070414 0.726173 -7.038105
v 0.044152 0.726173 -7.038105
v 0.044152 0.165287 -2.951261
v -0.070414 0.611607 -7.038105
v -0.070414 0.050721 -2.951261
v 0.044153 0.300698 3.388031
v 0.044153 0.755025 6.585072
v -0.070413 0.186132 3.388031
v -0.070413 0.640459 6.585072
v 0.044153 0.640459 6.585073
v 0.044153 0.186132 3.388031
v -0.070413 0.755025 6.585073
v -0.070413 0.300698 3.388031
v 0.044152 0.257429 -4.832501
v -0.070414 0.371995 -4.832501
v 0.044152 0.371995 -4.832501
v -0.070414 0.257429 -4.832501
v 0.044153 0.040202 1.544421
v -0.070413 0.154768 1.544421
v 0.044153 0.154768 1.544419
v -0.070413 0.040202 1.544419
v 0.044153 0.514610 5.080877
v -0.070413 0.400044 5.080877
v 0.044153 0.400044 5.080878
v -0.070413 0.514610 5.080878
v 0.069165 1.089231 -8.704311
v 0.183731 1.089231 -8.704311
v 0.183732 1.089231 8.181056
v 0.069167 1.089231 8.181056
v 0.069165 1.203797 -8.704311
v 0.183731 1.203797 -8.704311
v 0.183732 1.203797 8.181056
v 0.069167 1.203797 8.181056
v 0.183732 0.420316 -0.279523
v 0.183732 0.305750 -0.279522
v 0.069166 0.420316 -0.279522
v 0.069166 0.305750 -0.279523
v 0.183732 0.336818 -3.099714
v 0.183732 0.611607 -5.919907
v 0.069166 0.451384 -3.099714
v 0.069166 0.726173 -5.919907
v 0.183732 0.726173 -5.919907
v 0.183732 0.451384 -3.099714
v 0.069166 0.611607 -5.919907
v 0.069166 0.336818 -3.099714
v 0.183732 0.493865 2.540671
v 0.183732 0.755025 5.360863
v 0.069166 0.379299 2.540671
v 0.069166 0.640459 5.360863
v 0.183732 0.640459 5.360863
v 0.183732 0.379299 2.540671
v 0.069166 0.755025 5.360863
v 0.069166 0.493865 2.540671
v -0.070414 1.089231 -8.863348
v 0.044152 1.089231 -8.863348
v -0.070414 1.203797 -8.863348
v 0.044152 1.203797 -8.863348
v 0.069165 1.089231 -8.863344
v 0.183731 1.089231 -8.863344
v 0.069165 1.203797 -8.863344
v 0.183731 1.203797 -8.863344
v 0.044153 1.089231 8.318674
v -0.070413 1.089231 8.318674
v 0.044153 1.203797 8.318674
v -0.070413 1.203797 8.318674
v 0.183732 1.089231 8.318674
v 0.069167 1.089231 8.318674
v 0.183732 1.203797 8.318674
v 0.069167 1.203797 8.318674
vt 0.902328 0.001203
vt 0.998955 0.001153
vt 0.997150 0.007582
vt 0.900901 0.007692
vt 0.101864 0.020807
vt 0.001018 0.020748
vt 0.002858 0.014342
vt 0.103310 0.014335
vt 0.900904 0.014319
vt 0.997158 0.014259
vt 0.101858 0.027474
vt 0.001014 0.027414
vt 0.605333 0.021075
vt 0.605333 0.027781
vt 0.486306 0.027756
vt 0.486308 0.021058
vt 0.342794 0.014363
vt 0.342795 0.007699
vt 0.486297 0.007713
vt 0.486297 0.014381
vt 0.604920 0.014390
vt 0.342295 0.001045
vt 0.486308 0.001036
vt 0.001020 0.001270
vt 0.101865 0.001242
vt 0.103310 0.007715
vt 0.002858 0.007677
vt 0.231866 0.001087
vt 0.232759 0.007691
vt 0.232759 0.014349
vt 0.342289 0.027705
vt 0.342292 0.021016
vt 0.231865 0.020954
vt 0.231860 0.027630
vt 0.998976 0.020685
vt 0.902338 0.020807
vt 0.813436 0.020976
vt 0.713619 0.021039
vt 0.712933 0.014381
vt 0.812486 0.014358
vt 0.998986 0.027363
vt 0.902349 0.027490
vt 0.813444 0.027670
vt 0.713622 0.027745
vt 0.604920 0.007699
vt 0.712932 0.007696
vt 0.812485 0.007680
vt 0.605332 0.001014
vt 0.713616 0.001038
vt 0.813433 0.001062
vt 0.825040 0.036511
vt 0.991892 0.036502
vt 0.990840 0.043113
vt 0.824207 0.043138
vt 0.165669 0.056509
vt 0.001022 0.056546
vt 0.002149 0.049964
vt 0.166555 0.049907
vt 0.824208 0.049811
vt 0.990840 0.049806
vt 0.165661 0.029975
vt 0.165664 0.036650
vt 0.001016 0.036706
vt 0.001014 0.030029
vt 0.659697 0.029819
vt 0.659698 0.036505
vt 0.495094 0.036519
vt 0.495092 0.029838
vt 0.331067 0.049876
vt 0.331066 0.043224
vt 0.495045 0.043194
vt 0.495046 0.049865
vt 0.659701 0.056497
vt 0.495097 0.056539
vt 0.659305 0.049835
vt 0.330705 0.036576
vt 0.166553 0.043252
vt 0.002147 0.043287
vt 0.330702 0.029901
vt 0.330708 0.056524
vt 0.991893 0.056417
vt 0.825042 0.056438
vt 0.991891 0.029809
vt 0.825040 0.029820
vt 0.659304 0.043167
vt 0.002149 0.049964
vt 0.002147 0.043287
vt 0.002858 0.007677
vt 0.001020 0.001270
vt 0.001016 0.036706
vt 0.001014 0.030029
vt 0.001018 0.020748
vt 0.002858 0.014342
vt 0.001014 0.027414
vt 0.001022 0.056546
vt 0.990840 0.043113
vt 0.990840 0.049806
vt 0.997158 0.014259
vt 0.998976 0.020685
vt 0.991891 0.029809
vt 0.991892 0.036502
vt 0.997150 0.007582
vt 0.991893 0.056417
vt 0.998986 0.027363
vt 0.998955 0.001153
vn 0.7203 0.6774 -0.1488
vn 0.6776 0.7285 -0.1005
vn 0.7392 -0.6672 0.0920
vn 0.6943 -0.7029 0.1544
vn -0.7208 0.6765 0.1507
vn -0.6771 0.7287 0.1024
vn -0.7398 -0.6662 -0.0936
vn -0.6938 -0.7029 -0.1566
vn -0.6943 -0.7029 0.1544
vn -0.7392 -0.6672 0.0920
vn 0.7208 0.6765 0.1507
vn 0.6771 0.7287 0.1024
vn -0.7110 0.7018 -0.0433
vn 0.7110 0.7018 -0.0433
vn 0.7168 0.6973 -0.0012
vn -0.7168 0.6973 -0.0012
vn -0.6995 -0.7126 -0.0536
vn 0.6995 -0.7126 -0.0536
vn 0.6977 -0.7164 0.0012
vn -0.6977 -0.7164 0.0012
vn -0.7032 -0.7096 0.0438
vn 0.7149 0.6972 0.0525
vn 0.6938 -0.7029 -0.1566
vn 0.7398 -0.6662 -0.0936
vn 0.7127 0.6951 0.0939
vn 0.7015 -0.7062 -0.0954
vn -0.7015 -0.7062 -0.0954
vn -0.7149 0.6972 0.0525
vn -0.7127 0.6951 0.0939
vn -0.6776 0.7285 -0.1005
vn -0.7203 0.6774 -0.1488
vn -0.7108 0.6963 -0.0996
vn -0.7124 0.6981 -0.0717
vn -0.7019 -0.7085 0.0728
vn -0.7034 -0.7036 0.1007
vn 0.7108 0.6963 -0.0996
vn 0.7124 0.6981 -0.0717
vn 0.7032 -0.7096 0.0438
vn 0.7019 -0.7085 0.0728
vn 0.7034 -0.7036 0.1007
vn 0.7145 0.6941 -0.0873
vn 0.6898 0.7217 -0.0570
vn 0.7253 -0.6863 0.0543
vn 0.6998 -0.7087 0.0891
vn -0.7154 0.6925 0.0930
vn -0.6885 0.7226 0.0615
vn -0.7267 -0.6844 -0.0583
vn -0.6990 -0.7087 -0.0952
vn -0.6998 -0.7087 0.0891
vn -0.7253 -0.6863 0.0543
vn 0.7154 0.6925 0.0930
vn 0.6885 0.7226 0.0615
vn -0.7146 0.6983 -0.0414
vn 0.7146 0.6983 -0.0414
vn 0.7113 0.7028 -0.0053
vn -0.7113 0.7028 -0.0053
vn -0.6975 -0.7155 -0.0387
vn 0.6975 -0.7155 -0.0387
vn 0.7029 -0.7112 0.0053
vn -0.7029 -0.7112 0.0053
vn -0.6997 -0.7132 0.0423
vn 0.7169 0.6961 0.0377
vn 0.6990 -0.7087 -0.0952
vn 0.7267 -0.6844 -0.0583
vn -0.7169 0.6961 0.0377
vn -0.6898 0.7217 -0.0570
vn -0.7145 0.6941 -0.0873
vn 0.6997 -0.7132 0.0423
vn -0.7071 -0.7071 0.0000
vn 0.7071 -0.7071 0.0000
vn 0.7071 0.7071 0.0000
vn -0.7071 0.7071 0.0000
usemtl Material
s 1
f 22/1/1 7/2/2 3/3/3 25/4/4
f 16/5/5 5/6/6 1/7/7 19/8/8
f 24/9/9 25/4/4 3/3/3 4/10/10
f 16/5/5 17/11/11 6/12/12 5/6/6
f 34/13/13 35/14/14 9/15/15 11/16/16
f 20/17/17 13/18/18 10/19/19 12/20/20
f 34/13/13 11/16/16 12/20/20 36/21/21
f 18/22/22 9/23/15 10/19/19 13/18/18
f 6/24/12 17/25/11 14/26/23 2/27/24
f 31/28/25 18/22/22 13/18/18 29/29/26
f 1/7/7 2/27/24 14/26/23 19/8/8
f 32/30/27 29/29/26 13/18/18 20/17/17
f 11/16/16 9/15/15 18/31/22 15/32/28
f 30/33/29 31/34/25 17/11/11 16/5/5
f 11/16/16 15/32/28 20/17/17 12/20/20
f 30/33/29 16/5/5 19/8/8 32/30/27
f 8/35/30 27/36/31 24/9/9 4/10/10
f 40/37/32 28/38/33 23/39/34 38/40/35
f 8/35/30 7/41/2 22/42/1 27/36/31
f 40/37/32 37/43/36 21/44/37 28/38/33
f 36/21/21 33/45/38 26/46/39 23/39/34
f 38/40/35 39/47/40 25/4/4 24/9/9
f 35/48/14 21/49/37 26/46/39 33/45/38
f 37/50/36 22/1/1 25/4/4 39/47/40
f 15/32/28 30/33/29 32/30/27 20/17/17
f 15/32/28 18/31/22 31/34/25 30/33/29
f 19/8/8 14/26/23 29/29/26 32/30/27
f 17/25/11 31/28/25 29/29/26 14/26/23
f 9/23/15 35/48/14 33/45/38 10/19/19
f 12/20/20 10/19/19 33/45/38 36/21/21
f 28/38/33 34/13/13 36/21/21 23/39/34
f 28/38/33 21/44/37 35/14/14 34/13/13
f 21/49/37 37/50/36 39/47/40 26/46/39
f 23/39/34 26/46/39 39/47/40 38/40/35
f 27/36/31 22/42/1 37/43/36 40/37/32
f 27/36/31 40/37/32 38/40/35 24/9/9
f 62/51/41 47/52/42 43/53/43 65/54/44
f 56/55/45 45/56/46 41/57/47 59/58/48
f 64/59/49 65/54/44 43/53/43 44/60/50
f 56/61/45 57/62/51 46/63/52 45/64/46
f 68/65/53 61/66/54 49/67/55 51/68/56
f 60/69/57 53/70/58 50/71/59 52/72/60
f 68/73/53 51/74/56 52/72/60 63/75/61
f 58/76/62 49/67/55 50/71/59 53/70/58
f 46/63/52 57/62/51 54/77/63 42/78/64
f 57/62/51 58/76/62 53/70/58 54/77/63
f 41/57/47 42/78/64 54/77/63 59/58/48
f 59/58/48 54/77/63 53/70/58 60/69/57
f 51/68/56 49/67/55 58/76/62 55/79/65
f 55/79/65 58/76/62 57/62/51 56/61/45
f 51/74/56 55/80/65 60/69/57 52/72/60
f 55/80/65 56/55/45 59/58/48 60/69/57
f 48/81/66 67/82/67 64/59/49 44/60/50
f 67/82/67 68/73/53 63/75/61 64/59/49
f 48/83/66 47/52/42 62/51/41 67/84/67
f 67/84/67 62/51/41 61/66/54 68/65/53
f 52/72/60 50/71/59 66/85/68 63/75/61
f 63/75/61 66/85/68 65/54/44 64/59/49
f 49/67/55 61/66/54 66/85/68 50/71/59
f 61/66/54 62/51/41 65/54/44 66/85/68
f 42/78/64 41/57/47 73/86/69 74/87/70
f 6/24/12 2/27/24 70/88/70 72/89/71
f 45/64/46 46/63/52 76/90/71 75/91/72
f 1/7/7 5/6/6 71/92/72 69/93/69
f 2/27/24 1/7/7 69/93/69 70/88/70
f 46/63/52 42/78/64 74/87/70 76/90/71
f 5/6/6 6/12/12 72/94/71 71/92/72
f 41/57/47 45/56/46 75/95/72 73/86/69
f 44/60/50 43/53/43 81/96/70 82/97/69
f 8/35/30 4/10/10 78/98/69 80/99/72
f 47/52/42 48/83/66 84/100/72 83/101/71
f 43/53/43 47/52/42 83/101/71 81/96/70
f 4/10/10 3/3/3 77/102/70 78/98/69
f 48/81/66 44/60/50 82/97/69 84/103/72
f 7/41/2 8/35/30 80/99/72 79/104/71
f 3/3/3 7/2/2 79/105/71 77/102/70
