# Blender v2.82 (sub 7) OBJ File: 'ceiling_curve.blend'
# www.blender.org
mtllib ceiling_curve.mtl
o object_static_sewerceiling_Cube.000
v 7.125632 1.131429 -2.900879
v 7.125633 1.131420 -11.241068
v -12.434172 1.131418 -11.241068
v -6.176429 0.981418 -11.241071
v -6.176429 0.981428 10.401175
v 0.867890 0.981419 -11.241069
v 0.867890 0.981429 3.356857
v 0.867890 1.131428 3.356857
v 0.867890 1.131418 -11.241069
v -6.176429 1.131428 10.401175
v -6.176429 1.131418 -11.241071
v 2.267889 1.131419 -11.241071
v -7.576429 1.131427 11.801177
v -7.576430 1.131418 -11.241071
v 2.267889 0.981419 -11.241071
v -7.576429 0.981428 11.801177
v -7.576430 0.981418 -11.241071
v -12.434185 1.131429 16.658918
v 9.265853 1.131420 16.658918
v 9.265853 1.131418 -2.900886
v 9.265859 0.981418 3.356857
v 9.265852 0.981419 10.401176
v 9.265852 1.131418 10.401176
v 9.265859 1.131418 3.356857
v 9.265856 1.131419 11.801176
v 2.267891 1.131427 1.956857
v 9.265858 1.131418 1.956856
v 9.265856 0.981419 11.801176
v 2.267891 0.981428 1.956857
v 9.265858 0.981418 1.956856
vt 0.244705 0.494484
vt 0.369463 0.369725
vt 0.030509 0.369726
vt 0.030509 0.494484
vt 0.566156 0.601957
vt 0.602124 0.566014
vt 0.010345 0.565810
vt 0.010332 0.601766
vt 0.400371 0.326173
vt 0.581286 0.145258
vt 0.025461 0.145258
vt 0.025461 0.326173
vt 0.602113 0.128837
vt 0.726871 0.004078
vt 0.010332 0.004079
vt 0.010332 0.128837
vt 0.778436 0.041594
vt 0.742455 0.005665
vt 0.742726 0.380574
vt 0.778681 0.380548
vt 0.017924 0.645597
vt 0.017971 0.651905
vt 0.379390 0.651906
vt 0.379343 0.645598
vt 0.290596 0.616576
vt 0.290572 0.611802
vt 0.017050 0.611802
vt 0.017074 0.616576
vt 0.368235 0.662441
vt 0.368190 0.656328
vt 0.017924 0.656328
vt 0.017969 0.662441
vt 0.024576 0.350630
vt 0.024605 0.355651
vt 0.312270 0.355651
vt 0.312241 0.350630
vt 0.602113 0.561387
vt 0.726871 0.561387
vt 0.958161 0.041464
vt 0.958135 0.005509
vt 0.400371 0.541853
vt 0.581286 0.541853
vt 0.244705 0.549450
vt 0.369463 0.549450
vt 0.566019 0.998551
vt 0.601974 0.998564
vt 0.196756 0.633127
vt 0.196756 0.629274
vt 0.017050 0.629274
vt 0.017050 0.633126
vt 0.017924 0.666864
vt 0.017958 0.672257
vt 0.326949 0.672257
vt 0.326914 0.666864
vt 0.017050 0.620999
vt 0.017050 0.624851
vt 0.232726 0.624851
vt 0.232726 0.620999
vt 0.313823 0.681844
vt 0.313792 0.676680
vt 0.017924 0.676680
vt 0.017955 0.681844
vn 0.0000 -1.0000 0.0000
vn -1.0000 0.0000 0.0000
vn 1.0000 0.0000 -0.0000
vn -0.0000 0.0000 -1.0000
vn 0.0000 0.0000 1.0000
usemtl Material.002
s off
f 1/1/1 26/2/1 12/3/1 2/4/1
f 5/5/1 16/6/1 17/7/1 4/8/1
f 8/9/1 10/10/1 11/11/1 9/12/1
f 13/13/1 18/14/1 3/15/1 14/16/1
f 29/17/1 7/18/1 6/19/1 15/20/1
f 14/21/2 17/22/2 16/23/2 13/24/2
f 26/25/3 29/26/3 15/27/3 12/28/3
f 10/29/3 5/30/3 4/31/3 11/32/3
f 9/33/2 6/34/2 7/35/2 8/36/2
f 18/14/1 13/13/1 25/37/1 19/38/1
f 7/18/1 29/17/1 30/39/1 21/40/1
f 10/10/1 8/9/1 24/41/1 23/42/1
f 26/2/1 1/1/1 20/43/1 27/44/1
f 16/6/1 5/5/1 22/45/1 28/46/1
f 27/47/4 30/48/4 29/49/4 26/50/4
f 13/51/5 16/52/5 28/53/5 25/54/5
f 8/55/5 7/56/5 21/57/5 24/58/5
f 23/59/4 22/60/4 5/61/4 10/62/4
