# Blender v2.79 (sub 0) OBJ File: 'ceiling_end.blend'
# www.blender.org
mtllib ceiling_end.mtl
o object_static_sewerceiling_Cube.000
v 8.251345 1.011415 7.781141
v 8.251345 1.011423 -10.816513
v -11.308464 1.011415 7.781137
v -11.308460 1.011425 -10.816513
v -5.050717 1.161425 -10.816516
v -5.050718 1.161415 7.781140
v 1.993601 1.161424 -10.816514
v 1.993601 1.161415 7.781142
v 1.993601 1.011415 7.781142
v 1.993601 1.011425 -10.816514
v -5.050718 1.011416 7.781140
v -5.050717 1.011425 -10.816516
v 3.393601 1.011425 -10.816516
v 3.393602 1.011415 7.781140
v -6.450717 1.011416 7.781140
v -6.450718 1.011425 -10.816516
v 3.393601 1.161424 -10.816516
v 3.393602 1.161415 7.781140
v -6.450717 1.161415 7.781140
v -6.450718 1.161425 -10.816516
vt 0.878864 0.800249
vt 0.002009 0.800249
vt 0.002009 0.571213
vt 0.878864 0.571212
vt 0.878866 0.940302
vt 0.002009 0.940302
vt 0.002009 0.874294
vt 0.878866 0.874294
vt 0.878865 0.334140
vt 0.002009 0.334140
vt 0.002009 0.002009
vt 0.878865 0.002009
vt 0.878865 0.567194
vt 0.002009 0.567195
vt 0.002009 0.338158
vt 0.878864 0.338158
vt 0.878861 0.870276
vt 0.002009 0.870275
vt 0.002009 0.804267
vt 0.878862 0.804267
vt 0.002009 0.944323
vt 0.598096 0.944320
vt 0.598167 0.954723
vt 0.002080 0.954726
vt 0.598167 0.997991
vt 0.002080 0.997991
vt 0.002009 0.987587
vt 0.598096 0.987588
vt 0.598167 0.983569
vt 0.002080 0.983569
vt 0.002009 0.973166
vt 0.598096 0.973166
vt 0.002009 0.958744
vt 0.598096 0.958744
vt 0.598167 0.969148
vt 0.002080 0.969148
vn 0.0000 1.0000 0.0000
vn -1.0000 0.0000 0.0000
vn 1.0000 0.0000 -0.0000
usemtl Material.002
s off
f 1/1/1 2/2/1 13/3/1 14/4/1
f 6/5/1 5/6/1 20/7/1 19/8/1
f 9/9/1 10/10/1 12/11/1 11/12/1
f 15/13/1 16/14/1 4/15/1 3/16/1
f 18/17/1 17/18/1 7/19/1 8/20/1
f 16/21/2 15/22/2 19/23/2 20/24/2
f 14/25/3 13/26/3 17/27/3 18/28/3
f 11/29/3 12/30/3 5/31/3 6/32/3
f 10/33/2 9/34/2 8/35/2 7/36/2
