# Blender v2.79 (sub 0) OBJ File: 'floor_stairs.blend'
# www.blender.org
mtllib ceiling_stairs.mtl
o object_static_sewerBigTunnelCeiling_Cube.007
v -5.913721 14.437862 -1.784597
v 3.845322 14.287855 -11.543649
v -3.198996 14.287859 -4.499330
v -3.198996 14.437859 -4.499330
v 3.845322 14.437855 -11.543649
v -4.598999 14.437859 -3.099331
v 5.245321 14.437855 -12.943646
v -4.598999 14.287859 -3.099331
v 5.245321 14.287855 -12.943646
v -5.913721 14.437862 -20.384590
v 6.486275 14.437853 -20.384590
v 3.845322 14.287855 -20.384596
v -3.198997 14.287859 -20.384590
v -3.198997 14.437859 -20.384590
v 3.845322 14.437855 -20.384596
v -4.598997 14.437859 -20.384594
v 5.245321 14.437855 -20.384596
v -4.598997 14.287859 -20.384594
v 5.245321 14.287855 -20.384596
v 48.466301 -5.562132 4.415386
v 60.866295 -5.562141 4.415384
v 58.225346 -5.712140 4.415380
v 51.181030 -5.712135 4.415386
v 51.181030 -5.562135 4.415386
v 58.225346 -5.562140 4.415380
v 49.781029 -5.562135 4.415382
v 59.625343 -5.562140 4.415380
v 49.781029 -5.712135 4.415382
v 59.625343 -5.712140 4.415380
v 8.466276 14.437866 -1.784605
v 8.466274 14.437859 -14.184600
v 8.466270 14.287860 -11.543648
v 8.466278 14.287865 -4.499331
v 8.466278 14.437864 -4.499331
v 8.466270 14.437860 -11.543648
v 8.466272 14.437864 -3.099329
v 8.466270 14.437859 -12.943649
v 8.466272 14.287865 -3.099329
v 8.466270 14.287859 -12.943649
v 6.486282 14.437859 -14.184602
v 47.568466 -5.562140 -1.784606
v 47.568466 -5.562149 -14.184601
v 47.568462 -5.712146 -11.543648
v 47.568470 -5.712142 -4.499331
v 47.568470 -5.562143 -4.499331
v 47.568462 -5.562147 -11.543648
v 47.568466 -5.562144 -3.099329
v 47.568462 -5.562149 -12.943649
v 47.568466 -5.712143 -3.099329
v 47.568462 -5.712148 -12.943649
v 48.466286 -5.562141 -1.784605
v 60.866295 -5.562149 -14.184600
v 58.225349 -5.712147 -11.543648
v 58.225349 -5.562148 -11.543648
v 49.781029 -5.562145 -3.099329
v 59.625343 -5.562150 -12.943649
v 49.781029 -5.712144 -3.099329
v 59.625343 -5.712149 -12.943649
v 51.181026 -5.712136 -4.499331
v 51.181026 -5.562136 -4.499331
vt 0.393796 0.619433
vt 0.423658 0.649295
vt 0.001185 0.649295
vt 0.001185 0.619433
vt 0.394804 0.799144
vt 0.394767 0.803776
vt 0.129364 0.803776
vt 0.129401 0.799144
vt 0.201995 0.325929
vt 0.361997 0.485931
vt 0.001185 0.485931
vt 0.001185 0.325929
vt 0.751293 0.195790
vt 0.779480 0.223977
vt 0.610469 0.223977
vt 0.610469 0.195790
vt 0.808380 0.814285
vt 0.808378 0.817741
vt 0.610398 0.817741
vt 0.610399 0.814285
vt 0.361997 0.685835
vt 0.393796 0.717634
vt 0.001185 0.717634
vt 0.001185 0.685835
vt 0.375051 0.750561
vt 0.406850 0.782360
vt 0.206041 0.782360
vt 0.206041 0.750561
vt 0.800714 0.363939
vt 0.800714 0.367346
vt 0.631698 0.367346
vt 0.631698 0.363939
vt 0.406260 0.791943
vt 0.406218 0.796774
vt 0.129364 0.796774
vt 0.129407 0.791943
vt 0.781155 0.163557
vt 0.781155 0.193419
vt 0.640331 0.193420
vt 0.610469 0.163557
vt 0.608028 0.814285
vt 0.608025 0.817755
vt 0.409221 0.817756
vt 0.409223 0.814285
vt 0.363672 0.163557
vt 0.363672 0.323559
vt 0.161187 0.323559
vt 0.001185 0.163557
vt 0.423658 0.720004
vt 0.423658 0.748191
vt 0.029372 0.748191
vt 0.001185 0.720004
vt 0.675276 0.794362
vt 0.675239 0.799004
vt 0.409221 0.799005
vt 0.409258 0.794362
vt 0.203670 0.750561
vt 0.203670 0.782360
vt 0.032984 0.782360
vt 0.001185 0.750561
vt 0.395471 0.651665
vt 0.395471 0.683464
vt 0.032984 0.683464
vt 0.001185 0.651665
vt 0.406850 0.784730
vt 0.406808 0.789572
vt 0.129364 0.789572
vt 0.129407 0.784731
vt 0.802386 0.358162
vt 0.802386 0.361569
vt 0.631698 0.361569
vt 0.631698 0.358162
vt 0.396166 0.715697
vt 0.396166 0.685835
vt 0.722788 0.685835
vt 0.692926 0.715697
vt 0.409221 0.811915
vt 0.409239 0.807946
vt 0.636664 0.807946
vt 0.636645 0.811915
vt 0.364367 0.485931
vt 0.364367 0.325929
vt 0.629328 0.325929
vt 0.469326 0.485931
vt 0.610469 0.322872
vt 0.610469 0.294686
vt 0.683629 0.294685
vt 0.655442 0.322872
vt 0.631698 0.373123
vt 0.631698 0.369716
vt 0.736655 0.369716
vt 0.736655 0.373123
vt 0.426028 0.651233
vt 0.426028 0.619434
vt 0.722788 0.619433
vt 0.690988 0.651232
vt 0.610469 0.258146
vt 0.610469 0.226347
vt 0.715428 0.226347
vt 0.683629 0.258146
vt 0.631698 0.384678
vt 0.631698 0.381271
vt 0.704857 0.381271
vt 0.704857 0.384678
vt 0.409221 0.805576
vt 0.409246 0.801375
vt 0.649935 0.801375
vt 0.649910 0.805576
vt 0.998771 0.001185
vt 0.998771 0.161187
vt 0.001185 0.161187
vt 0.001185 0.001185
vt 0.825938 0.784730
vt 0.829652 0.791992
vt 0.412935 0.791992
vt 0.409221 0.784730
vt 0.826654 0.765467
vt 0.825944 0.772729
vt 0.409221 0.772729
vt 0.409939 0.765467
vt 0.998815 0.488302
vt 0.998815 0.520102
vt 0.001185 0.520102
vt 0.001185 0.488307
vt 0.998765 0.556643
vt 0.998765 0.586505
vt 0.001185 0.586505
vt 0.001185 0.556643
vt 0.825938 0.775099
vt 0.829652 0.782360
vt 0.412935 0.782360
vt 0.409221 0.775099
vt 0.998800 0.522472
vt 0.998800 0.554272
vt 0.001185 0.554273
vt 0.001185 0.522476
vt 0.998805 0.588875
vt 0.998805 0.617063
vt 0.001185 0.617063
vt 0.001185 0.588879
vt 0.826648 0.755835
vt 0.825938 0.763097
vt 0.409221 0.763097
vt 0.409931 0.755835
vt 0.360596 0.806146
vt 0.360576 0.810182
vt 0.129364 0.810182
vt 0.129384 0.806146
vt 0.681953 0.387048
vt 0.681953 0.390455
vt 0.631698 0.390455
vt 0.631698 0.387048
vt 0.692523 0.260516
vt 0.692523 0.292315
vt 0.610469 0.292315
vt 0.642268 0.260516
vt 0.681953 0.325929
vt 0.681953 0.355792
vt 0.631698 0.355792
vt 0.661560 0.325929
vt 0.713752 0.375494
vt 0.713752 0.378901
vt 0.631698 0.378901
vt 0.631698 0.375494
vt 0.699883 0.720004
vt 0.699883 0.751803
vt 0.426028 0.751803
vt 0.457827 0.720004
vt 0.699883 0.655278
vt 0.699883 0.683464
vt 0.397841 0.683464
vt 0.426028 0.655278
vt 0.346747 0.812552
vt 0.346734 0.816346
vt 0.129364 0.816346
vt 0.129377 0.812552
vt 0.608099 0.163557
vt 0.608099 0.323559
vt 0.366043 0.323559
vt 0.526045 0.163557
vn -0.0000 -1.0000 -0.0000
vn 1.0000 0.0000 -0.0000
vn -1.0000 0.0000 0.0000
vn -0.0000 0.0000 -1.0000
vn -0.0000 0.0000 1.0000
vn -0.4554 -0.8903 0.0000
usemtl Material.001
s off
f 6/1/1 1/2/1 10/3/1 16/4/1
f 4/5/2 3/6/2 13/7/2 14/8/2
f 5/9/1 4/10/1 14/11/1 15/12/1
f 40/13/1 7/14/1 17/15/1 11/16/1
f 2/17/3 5/18/3 15/19/3 12/20/3
f 3/21/1 8/22/1 18/23/1 13/24/1
f 9/25/1 2/26/1 12/27/1 19/28/1
f 7/29/2 9/30/2 19/31/2 17/32/2
f 8/33/3 6/34/3 16/35/3 18/36/3
f 26/37/1 20/38/1 51/39/1 55/40/1
f 24/41/2 23/42/2 59/43/2 60/44/2
f 25/45/1 24/46/1 60/47/1 54/48/1
f 21/49/1 27/50/1 56/51/1 52/52/1
f 22/53/3 25/54/3 54/55/3 53/56/3
f 23/57/1 28/58/1 57/59/1 59/60/1
f 29/61/1 22/62/1 53/63/1 58/64/1
f 27/65/2 29/66/2 58/67/2 56/68/2
f 28/69/3 26/70/3 55/71/3 57/72/3
f 36/73/1 30/74/1 1/75/1 6/76/1
f 34/77/4 33/78/4 3/79/4 4/80/4
f 35/81/1 34/82/1 4/83/1 5/84/1
f 31/85/1 37/86/1 7/87/1 40/88/1
f 32/89/5 35/90/5 5/91/5 2/92/5
f 33/93/1 38/94/1 8/95/1 3/96/1
f 39/97/1 32/98/1 2/99/1 9/100/1
f 37/101/4 39/102/4 9/103/4 7/104/4
f 38/105/5 36/106/5 6/107/5 8/108/5
f 34/109/6 35/110/6 46/111/6 45/112/6
f 39/113/4 37/114/4 48/115/4 50/116/4
f 36/117/5 38/118/5 49/119/5 47/120/5
f 38/121/6 33/122/6 44/123/6 49/124/6
f 30/125/6 36/126/6 47/127/6 41/128/6
f 33/129/4 34/130/4 45/131/4 44/132/4
f 32/133/6 39/134/6 50/135/6 43/136/6
f 37/137/6 31/138/6 42/139/6 48/140/6
f 35/141/5 32/142/5 43/143/5 46/144/5
f 50/145/4 48/146/4 56/147/4 58/148/4
f 47/149/5 49/150/5 57/151/5 55/152/5
f 49/153/1 44/154/1 59/155/1 57/156/1
f 41/157/1 47/158/1 55/159/1 51/160/1
f 44/161/4 45/162/4 60/163/4 59/164/4
f 43/165/1 50/166/1 58/167/1 53/168/1
f 48/169/1 42/170/1 52/171/1 56/172/1
f 46/173/5 43/174/5 53/175/5 54/176/5
f 45/177/1 46/178/1 54/179/1 60/180/1
