# Blender v2.79 (sub 0) OBJ File: 'cables.blend'
# www.blender.org
mtllib cable_middle.mtl
o Cube.011_Cube.013
v 3.967652 0.731887 -0.137620
v 3.967652 0.731887 -0.023054
v -4.132719 0.731888 -0.023052
v -4.132719 0.731888 -0.137618
v 3.967652 0.846453 -0.137620
v 3.967652 0.846453 -0.023054
v -4.132719 0.846454 -0.023052
v -4.132719 0.846454 -0.137618
v 0.098350 -0.259189 -0.023053
v 0.098350 -0.373755 -0.023053
v 0.098350 -0.259189 -0.137619
v 0.098350 -0.373755 -0.137619
v 1.207755 -0.290283 -0.023053
v 3.168324 0.254264 -0.023054
v 1.207755 -0.175717 -0.137619
v 3.168324 0.368830 -0.137620
v 3.168324 0.368830 -0.023054
v 1.207755 -0.175717 -0.023053
v 3.168324 0.254264 -0.137620
v 1.207755 -0.290283 -0.137619
v -1.833377 -0.056644 -0.023053
v -3.367085 0.397683 -0.023052
v -1.833377 -0.171210 -0.137618
v -3.367085 0.283117 -0.137618
v -3.367085 0.283116 -0.023052
v -1.833377 -0.171210 -0.023053
v -3.367085 0.397683 -0.137618
v -1.833377 -0.056644 -0.137618
v 2.110240 -0.099914 -0.023054
v 2.110240 0.014652 -0.137619
v 2.110240 0.014652 -0.023054
v 2.110240 -0.099914 -0.137620
v -0.948946 -0.317141 -0.023053
v -0.948946 -0.202575 -0.137619
v -0.948946 -0.202575 -0.023053
v -0.948946 -0.317141 -0.137619
v -2.645480 0.157268 -0.023052
v -2.645480 0.042702 -0.137618
v -2.645480 0.042702 -0.023052
v -2.645480 0.157268 -0.137618
v 3.967649 0.731887 0.001959
v 3.967649 0.731887 0.116525
v -4.132719 0.731887 0.116527
v -4.132719 0.731887 0.001962
v 3.967649 0.846453 0.001959
v 3.967649 0.846453 0.116525
v -4.132719 0.846453 0.116527
v -4.132719 0.846453 0.001962
v -0.073950 -0.131279 0.116526
v -0.073952 -0.245845 0.116526
v -0.073952 -0.131279 0.001960
v -0.073950 -0.245845 0.001960
v 1.278972 -0.143794 0.116526
v 2.631896 0.206316 0.116525
v 1.278972 -0.029228 0.001960
v 2.631896 0.320882 0.001960
v 2.631896 0.320882 0.116525
v 1.278972 -0.029228 0.116526
v 2.631896 0.206316 0.001960
v 1.278972 -0.143794 0.001960
v -1.426872 -0.034718 0.116527
v -2.779797 0.301983 0.116527
v -1.426872 -0.149284 0.001961
v -2.779797 0.187417 0.001961
v -2.779797 0.187417 0.116527
v -1.426872 -0.149284 0.116527
v -2.779797 0.301983 0.001961
v -1.426872 -0.034718 0.001961
vt 0.895044 0.004090
vt 0.998909 0.003633
vt 0.992180 0.015231
vt 0.889626 0.015834
vt 0.114199 0.039708
vt 0.001166 0.039078
vt 0.008107 0.027531
vt 0.119992 0.027647
vt 0.889570 0.028734
vt 0.992184 0.029056
vt 0.114109 0.053349
vt 0.001120 0.052979
vt 0.607323 0.041659
vt 0.607365 0.054924
vt 0.484110 0.055254
vt 0.484103 0.041906
vt 0.355011 0.028190
vt 0.355061 0.014661
vt 0.484309 0.014742
vt 0.484260 0.028271
vt 0.605874 0.028479
vt 0.353148 0.001320
vt 0.484188 0.001101
vt 0.001091 0.001091
vt 0.114522 0.002013
vt 0.120134 0.014209
vt 0.008152 0.013129
vt 0.244655 0.001472
vt 0.248215 0.014531
vt 0.248180 0.028137
vt 0.353039 0.054778
vt 0.353078 0.041405
vt 0.244616 0.041063
vt 0.244566 0.054292
vt 0.998732 0.040256
vt 0.895066 0.040448
vt 0.808660 0.041358
vt 0.711504 0.041460
vt 0.708737 0.028593
vt 0.804885 0.028742
vt 0.998751 0.053234
vt 0.895196 0.053587
vt 0.808732 0.054403
vt 0.711549 0.054643
vt 0.605926 0.015044
vt 0.708780 0.015297
vt 0.804937 0.015446
vt 0.607439 0.001748
vt 0.711595 0.002342
vt 0.808806 0.002755
vt 0.809680 0.071657
vt 0.983416 0.072181
vt 0.978403 0.084573
vt 0.805510 0.084260
vt 0.168360 0.109992
vt 0.001091 0.110263
vt 0.005959 0.097832
vt 0.172444 0.097444
vt 0.805458 0.097819
vt 0.978378 0.098514
vt 0.168317 0.058612
vt 0.168367 0.071725
vt 0.001157 0.072050
vt 0.001142 0.058947
vt 0.646489 0.057781
vt 0.646479 0.071062
vt 0.487577 0.070644
vt 0.487556 0.057435
vt 0.331800 0.097548
vt 0.331843 0.084188
vt 0.487610 0.084290
vt 0.487582 0.097853
vt 0.646474 0.110937
vt 0.487545 0.111508
vt 0.644340 0.097689
vt 0.329663 0.071252
vt 0.172457 0.084107
vt 0.005954 0.084237
vt 0.329609 0.058114
vt 0.329577 0.110621
vt 0.983432 0.111202
vt 0.809585 0.110595
vt 0.983448 0.058532
vt 0.809715 0.058127
vt 0.644369 0.084168
vn 0.2817 0.6211 0.7313
vn 0.4216 0.7192 0.5523
vn -0.3028 -0.5166 0.8009
vn -0.3012 -0.6640 0.6844
vn -0.2844 0.6189 -0.7321
vn -0.4287 0.7174 -0.5492
vn 0.3063 -0.5127 -0.8020
vn 0.3048 -0.6631 -0.6836
vn -0.3012 -0.6640 -0.6844
vn -0.3028 -0.5166 -0.8009
vn -0.2844 0.6189 0.7321
vn -0.4287 0.7174 0.5492
vn 0.0754 0.6902 -0.7196
vn 0.0754 0.6902 0.7196
vn -0.0073 0.6919 0.7219
vn -0.0073 0.6919 -0.7219
vn 0.1017 -0.7142 -0.6925
vn 0.1017 -0.7142 0.6925
vn 0.0076 -0.7210 0.6929
vn 0.0076 -0.7210 -0.6929
vn -0.0780 -0.7147 -0.6950
vn -0.0975 0.6846 0.7223
vn 0.3048 -0.6631 0.6836
vn 0.3063 -0.5127 0.8020
vn -0.1820 0.6694 0.7203
vn 0.1888 -0.6944 0.6944
vn 0.1888 -0.6944 -0.6944
vn -0.0975 0.6846 -0.7223
vn -0.1820 0.6694 -0.7203
vn 0.4216 0.7192 -0.5523
vn 0.2817 0.6211 -0.7313
vn 0.1998 0.6706 -0.7144
vn 0.1455 0.6808 -0.7178
vn -0.1499 -0.7015 -0.6967
vn -0.2039 -0.6844 -0.6999
vn 0.1998 0.6706 0.7144
vn 0.1455 0.6808 0.7178
vn -0.0780 -0.7147 0.6950
vn -0.1499 -0.7015 0.6967
vn -0.2039 -0.6844 0.6999
vn 0.2129 0.6572 0.7230
vn 0.2977 0.7399 0.6033
vn -0.2340 -0.5813 0.7793
vn -0.2225 -0.6869 0.6918
vn -0.2140 0.6590 -0.7210
vn -0.2913 0.7404 -0.6058
vn 0.2300 -0.5845 -0.7781
vn 0.2225 -0.6850 -0.6937
vn -0.2225 -0.6869 -0.6918
vn -0.2340 -0.5813 -0.7793
vn -0.2140 0.6590 0.7210
vn -0.2913 0.7404 0.6058
vn 0.1077 0.6781 -0.7270
vn 0.1077 0.6781 0.7270
vn -0.0014 0.6898 0.7240
vn -0.0014 0.6898 -0.7240
vn 0.1187 -0.7163 -0.6876
vn 0.1187 -0.7163 0.6876
vn 0.0014 -0.7228 0.6910
vn 0.0014 -0.7228 -0.6910
vn -0.1138 -0.7165 -0.6882
vn -0.1122 0.6767 0.7277
vn 0.2225 -0.6850 0.6937
vn 0.2300 -0.5845 0.7781
vn -0.1122 0.6767 -0.7277
vn 0.2977 0.7399 -0.6033
vn 0.2129 0.6572 -0.7230
vn -0.1138 -0.7165 0.6882
usemtl None
s 1
f 22/1/1 7/2/2 3/3/3 25/4/4
f 16/5/5 5/6/6 1/7/7 19/8/8
f 24/9/9 25/4/4 3/3/3 4/10/10
f 16/5/5 17/11/11 6/12/12 5/6/6
f 34/13/13 35/14/14 9/15/15 11/16/16
f 20/17/17 13/18/18 10/19/19 12/20/20
f 34/13/13 11/16/16 12/20/20 36/21/21
f 18/22/22 9/23/15 10/19/19 13/18/18
f 6/24/12 17/25/11 14/26/23 2/27/24
f 31/28/25 18/22/22 13/18/18 29/29/26
f 1/7/7 2/27/24 14/26/23 19/8/8
f 32/30/27 29/29/26 13/18/18 20/17/17
f 11/16/16 9/15/15 18/31/22 15/32/28
f 30/33/29 31/34/25 17/11/11 16/5/5
f 11/16/16 15/32/28 20/17/17 12/20/20
f 30/33/29 16/5/5 19/8/8 32/30/27
f 8/35/30 27/36/31 24/9/9 4/10/10
f 40/37/32 28/38/33 23/39/34 38/40/35
f 8/35/30 7/41/2 22/42/1 27/36/31
f 40/37/32 37/43/36 21/44/37 28/38/33
f 36/21/21 33/45/38 26/46/39 23/39/34
f 38/40/35 39/47/40 25/4/4 24/9/9
f 35/48/14 21/49/37 26/46/39 33/45/38
f 37/50/36 22/1/1 25/4/4 39/47/40
f 15/32/28 30/33/29 32/30/27 20/17/17
f 15/32/28 18/31/22 31/34/25 30/33/29
f 19/8/8 14/26/23 29/29/26 32/30/27
f 17/25/11 31/28/25 29/29/26 14/26/23
f 9/23/15 35/48/14 33/45/38 10/19/19
f 12/20/20 10/19/19 33/45/38 36/21/21
f 28/38/33 34/13/13 36/21/21 23/39/34
f 28/38/33 21/44/37 35/14/14 34/13/13
f 21/49/37 37/50/36 39/47/40 26/46/39
f 23/39/34 26/46/39 39/47/40 38/40/35
f 27/36/31 22/42/1 37/43/36 40/37/32
f 27/36/31 40/37/32 38/40/35 24/9/9
f 62/51/41 47/52/42 43/53/43 65/54/44
f 56/55/45 45/56/46 41/57/47 59/58/48
f 64/59/49 65/54/44 43/53/43 44/60/50
f 56/61/45 57/62/51 46/63/52 45/64/46
f 68/65/53 61/66/54 49/67/55 51/68/56
f 60/69/57 53/70/58 50/71/59 52/72/60
f 68/73/53 51/74/56 52/72/60 63/75/61
f 58/76/62 49/67/55 50/71/59 53/70/58
f 46/63/52 57/62/51 54/77/63 42/78/64
f 57/62/51 58/76/62 53/70/58 54/77/63
f 41/57/47 42/78/64 54/77/63 59/58/48
f 59/58/48 54/77/63 53/70/58 60/69/57
f 51/68/56 49/67/55 58/76/62 55/79/65
f 55/79/65 58/76/62 57/62/51 56/61/45
f 51/74/56 55/80/65 60/69/57 52/72/60
f 55/80/65 56/55/45 59/58/48 60/69/57
f 48/81/66 67/82/67 64/59/49 44/60/50
f 67/82/67 68/73/53 63/75/61 64/59/49
f 48/83/66 47/52/42 62/51/41 67/84/67
f 67/84/67 62/51/41 61/66/54 68/65/53
f 52/72/60 50/71/59 66/85/68 63/75/61
f 63/75/61 66/85/68 65/54/44 64/59/49
f 49/67/55 61/66/54 66/85/68 50/71/59
f 61/66/54 62/51/41 65/54/44 66/85/68
